<?xml version="1.0" encoding="UTF-8" standalone="no"?>
<!DOCTYPE svg PUBLIC "-//W3C//DTD SVG 1.1//EN"
 "http://www.w3.org/Graphics/SVG/1.1/DTD/svg11.dtd">
<!-- Generated by graphviz version 2.26.3 (20100126.1600)
 -->
<!-- Title: controllers_diagram Pages: 1 -->
<svg width="1132pt" height="1157pt"
 viewBox="0.00 0.00 1132.00 1157.00" xmlns="http://www.w3.org/2000/svg" xmlns:xlink="http://www.w3.org/1999/xlink">
<g id="graph1" class="graph" transform="scale(1 1) rotate(0) translate(4 1153)">
<title>controllers_diagram</title>
<polygon fill="white" stroke="white" points="-4,5 -4,-1153 1129,-1153 1129,5 -4,5"/>
<!-- _diagram_info -->
<g id="node1" class="node"><title>_diagram_info</title>
<text text-anchor="start" x="9" y="-78.3" font-family="Times Roman,serif" font-size="13.00">Controllers diagram</text>
<text text-anchor="start" x="9" y="-61.3" font-family="Times Roman,serif" font-size="13.00">Date: Mar 07 2011 &#45; 10:09</text>
<text text-anchor="start" x="9" y="-44.3" font-family="Times Roman,serif" font-size="13.00">Migration version: 20110306110820</text>
<text text-anchor="start" x="9" y="-27.3" font-family="Times Roman,serif" font-size="13.00">Generated by RailRoady 1.0.1</text>
<text text-anchor="start" x="9" y="-10.3" font-family="Times Roman,serif" font-size="13.00">http://railroady.prestonlee.com</text>
</g>
<!-- HomeController -->
<g id="node2" class="node"><title>HomeController</title>
<polyline fill="none" stroke="black" points="767,-963.5 868,-963.5 "/>
<path fill="none" stroke="black" d="M868,-963.5C874,-963.5 880,-969.5 880,-975.5"/>
<polyline fill="none" stroke="black" points="880,-975.5 880,-1089.5 "/>
<path fill="none" stroke="black" d="M880,-1089.5C880,-1095.5 874,-1101.5 868,-1101.5"/>
<polyline fill="none" stroke="black" points="868,-1101.5 767,-1101.5 "/>
<path fill="none" stroke="black" d="M767,-1101.5C761,-1101.5 755,-1095.5 755,-1089.5"/>
<polyline fill="none" stroke="black" points="755,-1089.5 755,-975.5 "/>
<path fill="none" stroke="black" d="M755,-975.5C755,-969.5 761,-963.5 767,-963.5"/>
<text text-anchor="middle" x="817.5" y="-1084.9" font-family="Times Roman,serif" font-size="14.00">HomeController</text>
<polyline fill="none" stroke="black" points="755,-1075.5 880,-1075.5 "/>
<text text-anchor="start" x="763" y="-1058.9" font-family="Times Roman,serif" font-size="14.00">create</text>
<text text-anchor="start" x="763" y="-1040.9" font-family="Times Roman,serif" font-size="14.00">index</text>
<text text-anchor="start" x="763" y="-1022.9" font-family="Times Roman,serif" font-size="14.00">welcome</text>
<polyline fill="none" stroke="black" points="755,-1013.5 880,-1013.5 "/>
<polyline fill="none" stroke="black" points="755,-989.5 880,-989.5 "/>
<text text-anchor="start" x="763" y="-972.9" font-family="Times Roman,serif" font-size="14.00">_layout</text>
</g>
<!-- EngagementsController -->
<g id="node3" class="node"><title>EngagementsController</title>
<polyline fill="none" stroke="black" points="611,-235.5 825,-235.5 "/>
<path fill="none" stroke="black" d="M825,-235.5C831,-235.5 837,-241.5 837,-247.5"/>
<polyline fill="none" stroke="black" points="837,-247.5 837,-541.5 "/>
<path fill="none" stroke="black" d="M837,-541.5C837,-547.5 831,-553.5 825,-553.5"/>
<polyline fill="none" stroke="black" points="825,-553.5 611,-553.5 "/>
<path fill="none" stroke="black" d="M611,-553.5C605,-553.5 599,-547.5 599,-541.5"/>
<polyline fill="none" stroke="black" points="599,-541.5 599,-247.5 "/>
<path fill="none" stroke="black" d="M599,-247.5C599,-241.5 605,-235.5 611,-235.5"/>
<text text-anchor="middle" x="718" y="-536.9" font-family="Times Roman,serif" font-size="14.00">EngagementsController</text>
<polyline fill="none" stroke="black" points="599,-527.5 837,-527.5 "/>
<text text-anchor="start" x="607" y="-510.9" font-family="Times Roman,serif" font-size="14.00">_one_time_conditions_valid_62?</text>
<text text-anchor="start" x="607" y="-492.9" font-family="Times Roman,serif" font-size="14.00">create</text>
<text text-anchor="start" x="607" y="-474.9" font-family="Times Roman,serif" font-size="14.00">destroy</text>
<text text-anchor="start" x="607" y="-456.9" font-family="Times Roman,serif" font-size="14.00">display</text>
<text text-anchor="start" x="607" y="-438.9" font-family="Times Roman,serif" font-size="14.00">edit</text>
<text text-anchor="start" x="607" y="-420.9" font-family="Times Roman,serif" font-size="14.00">index</text>
<text text-anchor="start" x="607" y="-402.9" font-family="Times Roman,serif" font-size="14.00">new</text>
<text text-anchor="start" x="607" y="-384.9" font-family="Times Roman,serif" font-size="14.00">show</text>
<text text-anchor="start" x="607" y="-366.9" font-family="Times Roman,serif" font-size="14.00">stamps</text>
<text text-anchor="start" x="607" y="-348.9" font-family="Times Roman,serif" font-size="14.00">update</text>
<polyline fill="none" stroke="black" points="599,-339.5 837,-339.5 "/>
<polyline fill="none" stroke="black" points="599,-315.5 837,-315.5 "/>
<text text-anchor="start" x="607" y="-298.9" font-family="Times Roman,serif" font-size="14.00">_layout</text>
<text text-anchor="start" x="607" y="-280.9" font-family="Times Roman,serif" font-size="14.00">_run_process_action_callbacks</text>
<text text-anchor="start" x="607" y="-262.9" font-family="Times Roman,serif" font-size="14.00">find_business</text>
<text text-anchor="start" x="607" y="-244.9" font-family="Times Roman,serif" font-size="14.00">places_under_business</text>
</g>
<!-- RewardsController -->
<g id="node4" class="node"><title>RewardsController</title>
<polyline fill="none" stroke="black" points="611,-599.5 825,-599.5 "/>
<path fill="none" stroke="black" d="M825,-599.5C831,-599.5 837,-605.5 837,-611.5"/>
<polyline fill="none" stroke="black" points="837,-611.5 837,-905.5 "/>
<path fill="none" stroke="black" d="M837,-905.5C837,-911.5 831,-917.5 825,-917.5"/>
<polyline fill="none" stroke="black" points="825,-917.5 611,-917.5 "/>
<path fill="none" stroke="black" d="M611,-917.5C605,-917.5 599,-911.5 599,-905.5"/>
<polyline fill="none" stroke="black" points="599,-905.5 599,-611.5 "/>
<path fill="none" stroke="black" d="M599,-611.5C599,-605.5 605,-599.5 611,-599.5"/>
<text text-anchor="middle" x="718" y="-900.9" font-family="Times Roman,serif" font-size="14.00">RewardsController</text>
<polyline fill="none" stroke="black" points="599,-891.5 837,-891.5 "/>
<text text-anchor="start" x="607" y="-874.9" font-family="Times Roman,serif" font-size="14.00">_one_time_conditions_valid_66?</text>
<text text-anchor="start" x="607" y="-856.9" font-family="Times Roman,serif" font-size="14.00">_one_time_conditions_valid_70?</text>
<text text-anchor="start" x="607" y="-838.9" font-family="Times Roman,serif" font-size="14.00">_one_time_conditions_valid_72?</text>
<text text-anchor="start" x="607" y="-820.9" font-family="Times Roman,serif" font-size="14.00">create</text>
<text text-anchor="start" x="607" y="-802.9" font-family="Times Roman,serif" font-size="14.00">destroy</text>
<text text-anchor="start" x="607" y="-784.9" font-family="Times Roman,serif" font-size="14.00">edit</text>
<text text-anchor="start" x="607" y="-766.9" font-family="Times Roman,serif" font-size="14.00">index</text>
<text text-anchor="start" x="607" y="-748.9" font-family="Times Roman,serif" font-size="14.00">new</text>
<text text-anchor="start" x="607" y="-730.9" font-family="Times Roman,serif" font-size="14.00">show</text>
<text text-anchor="start" x="607" y="-712.9" font-family="Times Roman,serif" font-size="14.00">update</text>
<polyline fill="none" stroke="black" points="599,-703.5 837,-703.5 "/>
<polyline fill="none" stroke="black" points="599,-679.5 837,-679.5 "/>
<text text-anchor="start" x="607" y="-662.9" font-family="Times Roman,serif" font-size="14.00">_layout</text>
<text text-anchor="start" x="607" y="-644.9" font-family="Times Roman,serif" font-size="14.00">_run_process_action_callbacks</text>
<text text-anchor="start" x="607" y="-626.9" font-family="Times Roman,serif" font-size="14.00">find_business_and_engagments</text>
<text text-anchor="start" x="607" y="-608.9" font-family="Times Roman,serif" font-size="14.00">places_under_business</text>
</g>
<!-- Businesses::EngagementsController -->
<g id="node5" class="node"><title>Businesses::EngagementsController</title>
<polyline fill="none" stroke="black" points="299,-235.5 538,-235.5 "/>
<path fill="none" stroke="black" d="M538,-235.5C544,-235.5 550,-241.5 550,-247.5"/>
<polyline fill="none" stroke="black" points="550,-247.5 550,-577.5 "/>
<path fill="none" stroke="black" d="M550,-577.5C550,-583.5 544,-589.5 538,-589.5"/>
<polyline fill="none" stroke="black" points="538,-589.5 299,-589.5 "/>
<path fill="none" stroke="black" d="M299,-589.5C293,-589.5 287,-583.5 287,-577.5"/>
<polyline fill="none" stroke="black" points="287,-577.5 287,-247.5 "/>
<path fill="none" stroke="black" d="M287,-247.5C287,-241.5 293,-235.5 299,-235.5"/>
<text text-anchor="middle" x="418.5" y="-572.9" font-family="Times Roman,serif" font-size="14.00">Businesses::EngagementsController</text>
<polyline fill="none" stroke="black" points="287,-563.5 550,-563.5 "/>
<text text-anchor="start" x="295" y="-546.9" font-family="Times Roman,serif" font-size="14.00">_one_time_conditions_valid_74?</text>
<text text-anchor="start" x="295" y="-528.9" font-family="Times Roman,serif" font-size="14.00">_one_time_conditions_valid_78?</text>
<text text-anchor="start" x="295" y="-510.9" font-family="Times Roman,serif" font-size="14.00">create</text>
<text text-anchor="start" x="295" y="-492.9" font-family="Times Roman,serif" font-size="14.00">destroy</text>
<text text-anchor="start" x="295" y="-474.9" font-family="Times Roman,serif" font-size="14.00">display</text>
<text text-anchor="start" x="295" y="-456.9" font-family="Times Roman,serif" font-size="14.00">edit</text>
<text text-anchor="start" x="295" y="-438.9" font-family="Times Roman,serif" font-size="14.00">index</text>
<text text-anchor="start" x="295" y="-420.9" font-family="Times Roman,serif" font-size="14.00">issue_code</text>
<text text-anchor="start" x="295" y="-402.9" font-family="Times Roman,serif" font-size="14.00">new</text>
<text text-anchor="start" x="295" y="-384.9" font-family="Times Roman,serif" font-size="14.00">show</text>
<text text-anchor="start" x="295" y="-366.9" font-family="Times Roman,serif" font-size="14.00">stamps</text>
<text text-anchor="start" x="295" y="-348.9" font-family="Times Roman,serif" font-size="14.00">update</text>
<polyline fill="none" stroke="black" points="287,-339.5 550,-339.5 "/>
<polyline fill="none" stroke="black" points="287,-315.5 550,-315.5 "/>
<text text-anchor="start" x="295" y="-298.9" font-family="Times Roman,serif" font-size="14.00">_layout</text>
<text text-anchor="start" x="295" y="-280.9" font-family="Times Roman,serif" font-size="14.00">_run_process_action_callbacks</text>
<text text-anchor="start" x="295" y="-262.9" font-family="Times Roman,serif" font-size="14.00">find_business_and_places</text>
<text text-anchor="start" x="295" y="-244.9" font-family="Times Roman,serif" font-size="14.00">save_image</text>
</g>
<!-- Businesses::PlacesController -->
<g id="node6" class="node"><title>Businesses::PlacesController</title>
<polyline fill="none" stroke="black" points="325,-651.5 539,-651.5 "/>
<path fill="none" stroke="black" d="M539,-651.5C545,-651.5 551,-657.5 551,-663.5"/>
<polyline fill="none" stroke="black" points="551,-663.5 551,-921.5 "/>
<path fill="none" stroke="black" d="M551,-921.5C551,-927.5 545,-933.5 539,-933.5"/>
<polyline fill="none" stroke="black" points="539,-933.5 325,-933.5 "/>
<path fill="none" stroke="black" d="M325,-933.5C319,-933.5 313,-927.5 313,-921.5"/>
<polyline fill="none" stroke="black" points="313,-921.5 313,-663.5 "/>
<path fill="none" stroke="black" d="M313,-663.5C313,-657.5 319,-651.5 325,-651.5"/>
<text text-anchor="middle" x="432" y="-916.9" font-family="Times Roman,serif" font-size="14.00">Businesses::PlacesController</text>
<polyline fill="none" stroke="black" points="313,-907.5 551,-907.5 "/>
<text text-anchor="start" x="321" y="-890.9" font-family="Times Roman,serif" font-size="14.00">_one_time_conditions_valid_80?</text>
<text text-anchor="start" x="321" y="-872.9" font-family="Times Roman,serif" font-size="14.00">_one_time_conditions_valid_84?</text>
<text text-anchor="start" x="321" y="-854.9" font-family="Times Roman,serif" font-size="14.00">create</text>
<text text-anchor="start" x="321" y="-836.9" font-family="Times Roman,serif" font-size="14.00">destroy</text>
<text text-anchor="start" x="321" y="-818.9" font-family="Times Roman,serif" font-size="14.00">edit</text>
<text text-anchor="start" x="321" y="-800.9" font-family="Times Roman,serif" font-size="14.00">index</text>
<text text-anchor="start" x="321" y="-782.9" font-family="Times Roman,serif" font-size="14.00">new</text>
<text text-anchor="start" x="321" y="-764.9" font-family="Times Roman,serif" font-size="14.00">show</text>
<text text-anchor="start" x="321" y="-746.9" font-family="Times Roman,serif" font-size="14.00">update</text>
<polyline fill="none" stroke="black" points="313,-737.5 551,-737.5 "/>
<polyline fill="none" stroke="black" points="313,-713.5 551,-713.5 "/>
<text text-anchor="start" x="321" y="-696.9" font-family="Times Roman,serif" font-size="14.00">_layout</text>
<text text-anchor="start" x="321" y="-678.9" font-family="Times Roman,serif" font-size="14.00">_run_process_action_callbacks</text>
<text text-anchor="start" x="321" y="-660.9" font-family="Times Roman,serif" font-size="14.00">find_business</text>
</g>
<!-- ActivitiesController -->
<g id="node7" class="node"><title>ActivitiesController</title>
<polyline fill="none" stroke="black" points="429,-1.5 643,-1.5 "/>
<path fill="none" stroke="black" d="M643,-1.5C649,-1.5 655,-7.5 655,-13.5"/>
<polyline fill="none" stroke="black" points="655,-13.5 655,-163.5 "/>
<path fill="none" stroke="black" d="M655,-163.5C655,-169.5 649,-175.5 643,-175.5"/>
<polyline fill="none" stroke="black" points="643,-175.5 429,-175.5 "/>
<path fill="none" stroke="black" d="M429,-175.5C423,-175.5 417,-169.5 417,-163.5"/>
<polyline fill="none" stroke="black" points="417,-163.5 417,-13.5 "/>
<path fill="none" stroke="black" d="M417,-13.5C417,-7.5 423,-1.5 429,-1.5"/>
<text text-anchor="middle" x="536" y="-158.9" font-family="Times Roman,serif" font-size="14.00">ActivitiesController</text>
<polyline fill="none" stroke="black" points="417,-149.5 655,-149.5 "/>
<text text-anchor="start" x="425" y="-132.9" font-family="Times Roman,serif" font-size="14.00">_one_time_conditions_valid_86?</text>
<text text-anchor="start" x="425" y="-114.9" font-family="Times Roman,serif" font-size="14.00">earn</text>
<text text-anchor="start" x="425" y="-96.9" font-family="Times Roman,serif" font-size="14.00">spend</text>
<polyline fill="none" stroke="black" points="417,-87.5 655,-87.5 "/>
<polyline fill="none" stroke="black" points="417,-63.5 655,-63.5 "/>
<text text-anchor="start" x="425" y="-46.9" font-family="Times Roman,serif" font-size="14.00">_layout</text>
<text text-anchor="start" x="425" y="-28.9" font-family="Times Roman,serif" font-size="14.00">_run_process_action_callbacks</text>
<text text-anchor="start" x="425" y="-10.9" font-family="Times Roman,serif" font-size="14.00">prepare_params</text>
</g>
<!-- BrandsController -->
<g id="node8" class="node"><title>BrandsController</title>
<polyline fill="none" stroke="black" points="949,-937.5 1059,-937.5 "/>
<path fill="none" stroke="black" d="M1059,-937.5C1065,-937.5 1071,-943.5 1071,-949.5"/>
<polyline fill="none" stroke="black" points="1071,-949.5 1071,-1135.5 "/>
<path fill="none" stroke="black" d="M1071,-1135.5C1071,-1141.5 1065,-1147.5 1059,-1147.5"/>
<polyline fill="none" stroke="black" points="1059,-1147.5 949,-1147.5 "/>
<path fill="none" stroke="black" d="M949,-1147.5C943,-1147.5 937,-1141.5 937,-1135.5"/>
<polyline fill="none" stroke="black" points="937,-1135.5 937,-949.5 "/>
<path fill="none" stroke="black" d="M937,-949.5C937,-943.5 943,-937.5 949,-937.5"/>
<text text-anchor="middle" x="1004" y="-1130.9" font-family="Times Roman,serif" font-size="14.00">BrandsController</text>
<polyline fill="none" stroke="black" points="937,-1121.5 1071,-1121.5 "/>
<text text-anchor="start" x="945" y="-1104.9" font-family="Times Roman,serif" font-size="14.00">create</text>
<text text-anchor="start" x="945" y="-1086.9" font-family="Times Roman,serif" font-size="14.00">destroy</text>
<text text-anchor="start" x="945" y="-1068.9" font-family="Times Roman,serif" font-size="14.00">edit</text>
<text text-anchor="start" x="945" y="-1050.9" font-family="Times Roman,serif" font-size="14.00">index</text>
<text text-anchor="start" x="945" y="-1032.9" font-family="Times Roman,serif" font-size="14.00">new</text>
<text text-anchor="start" x="945" y="-1014.9" font-family="Times Roman,serif" font-size="14.00">show</text>
<text text-anchor="start" x="945" y="-996.9" font-family="Times Roman,serif" font-size="14.00">update</text>
<polyline fill="none" stroke="black" points="937,-987.5 1071,-987.5 "/>
<polyline fill="none" stroke="black" points="937,-963.5 1071,-963.5 "/>
<text text-anchor="start" x="945" y="-946.9" font-family="Times Roman,serif" font-size="14.00">_layout</text>
</g>
<!-- PlacesController -->
<g id="node9" class="node"><title>PlacesController</title>
<polyline fill="none" stroke="black" points="715,-27.5 929,-27.5 "/>
<path fill="none" stroke="black" d="M929,-27.5C935,-27.5 941,-33.5 941,-39.5"/>
<polyline fill="none" stroke="black" points="941,-39.5 941,-171.5 "/>
<path fill="none" stroke="black" d="M941,-171.5C941,-177.5 935,-183.5 929,-183.5"/>
<polyline fill="none" stroke="black" points="929,-183.5 715,-183.5 "/>
<path fill="none" stroke="black" d="M715,-183.5C709,-183.5 703,-177.5 703,-171.5"/>
<polyline fill="none" stroke="black" points="703,-171.5 703,-39.5 "/>
<path fill="none" stroke="black" d="M703,-39.5C703,-33.5 709,-27.5 715,-27.5"/>
<text text-anchor="middle" x="822" y="-166.9" font-family="Times Roman,serif" font-size="14.00">PlacesController</text>
<polyline fill="none" stroke="black" points="703,-157.5 941,-157.5 "/>
<text text-anchor="start" x="711" y="-140.9" font-family="Times Roman,serif" font-size="14.00">_one_time_conditions_valid_88?</text>
<text text-anchor="start" x="711" y="-122.9" font-family="Times Roman,serif" font-size="14.00">index</text>
<text text-anchor="start" x="711" y="-104.9" font-family="Times Roman,serif" font-size="14.00">show</text>
<polyline fill="none" stroke="black" points="703,-95.5 941,-95.5 "/>
<polyline fill="none" stroke="black" points="703,-71.5 941,-71.5 "/>
<text text-anchor="start" x="711" y="-54.9" font-family="Times Roman,serif" font-size="14.00">_layout</text>
<text text-anchor="start" x="711" y="-36.9" font-family="Times Roman,serif" font-size="14.00">_run_process_action_callbacks</text>
</g>
<!-- QrCodesController -->
<g id="node10" class="node"><title>QrCodesController</title>
<polyline fill="none" stroke="black" points="897,-235.5 1017,-235.5 "/>
<path fill="none" stroke="black" d="M1017,-235.5C1023,-235.5 1029,-241.5 1029,-247.5"/>
<polyline fill="none" stroke="black" points="1029,-247.5 1029,-451.5 "/>
<path fill="none" stroke="black" d="M1029,-451.5C1029,-457.5 1023,-463.5 1017,-463.5"/>
<polyline fill="none" stroke="black" points="1017,-463.5 897,-463.5 "/>
<path fill="none" stroke="black" d="M897,-463.5C891,-463.5 885,-457.5 885,-451.5"/>
<polyline fill="none" stroke="black" points="885,-451.5 885,-247.5 "/>
<path fill="none" stroke="black" d="M885,-247.5C885,-241.5 891,-235.5 897,-235.5"/>
<text text-anchor="middle" x="957" y="-446.9" font-family="Times Roman,serif" font-size="14.00">QrCodesController</text>
<polyline fill="none" stroke="black" points="885,-437.5 1029,-437.5 "/>
<text text-anchor="start" x="893" y="-420.9" font-family="Times Roman,serif" font-size="14.00">create</text>
<text text-anchor="start" x="893" y="-402.9" font-family="Times Roman,serif" font-size="14.00">destroy</text>
<text text-anchor="start" x="893" y="-384.9" font-family="Times Roman,serif" font-size="14.00">edit</text>
<text text-anchor="start" x="893" y="-366.9" font-family="Times Roman,serif" font-size="14.00">index</text>
<text text-anchor="start" x="893" y="-348.9" font-family="Times Roman,serif" font-size="14.00">new</text>
<text text-anchor="start" x="893" y="-330.9" font-family="Times Roman,serif" font-size="14.00">scanner</text>
<text text-anchor="start" x="893" y="-312.9" font-family="Times Roman,serif" font-size="14.00">show</text>
<text text-anchor="start" x="893" y="-294.9" font-family="Times Roman,serif" font-size="14.00">update</text>
<polyline fill="none" stroke="black" points="885,-285.5 1029,-285.5 "/>
<polyline fill="none" stroke="black" points="885,-261.5 1029,-261.5 "/>
<text text-anchor="start" x="893" y="-244.9" font-family="Times Roman,serif" font-size="14.00">_layout</text>
</g>
<!-- ApplicationController -->
<g id="node11" class="node"><title>ApplicationController</title>
<polyline fill="none" stroke="black" points="897,-521.5 1111,-521.5 "/>
<path fill="none" stroke="black" d="M1111,-521.5C1117,-521.5 1123,-527.5 1123,-533.5"/>
<polyline fill="none" stroke="black" points="1123,-533.5 1123,-629.5 "/>
<path fill="none" stroke="black" d="M1123,-629.5C1123,-635.5 1117,-641.5 1111,-641.5"/>
<polyline fill="none" stroke="black" points="1111,-641.5 897,-641.5 "/>
<path fill="none" stroke="black" d="M897,-641.5C891,-641.5 885,-635.5 885,-629.5"/>
<polyline fill="none" stroke="black" points="885,-629.5 885,-533.5 "/>
<path fill="none" stroke="black" d="M885,-533.5C885,-527.5 891,-521.5 897,-521.5"/>
<text text-anchor="middle" x="1004" y="-624.9" font-family="Times Roman,serif" font-size="14.00">ApplicationController</text>
<polyline fill="none" stroke="black" points="885,-615.5 1123,-615.5 "/>
<text text-anchor="start" x="893" y="-598.9" font-family="Times Roman,serif" font-size="14.00">_one_time_conditions_valid_60?</text>
<polyline fill="none" stroke="black" points="885,-589.5 1123,-589.5 "/>
<polyline fill="none" stroke="black" points="885,-565.5 1123,-565.5 "/>
<text text-anchor="start" x="893" y="-548.9" font-family="Times Roman,serif" font-size="14.00">_layout</text>
<text text-anchor="start" x="893" y="-530.9" font-family="Times Roman,serif" font-size="14.00">_run_process_action_callbacks</text>
</g>
<!-- BusinessesController -->
<g id="node12" class="node"><title>BusinessesController</title>
<polyline fill="none" stroke="black" points="13,-417.5 227,-417.5 "/>
<path fill="none" stroke="black" d="M227,-417.5C233,-417.5 239,-423.5 239,-429.5"/>
<polyline fill="none" stroke="black" points="239,-429.5 239,-651.5 "/>
<path fill="none" stroke="black" d="M239,-651.5C239,-657.5 233,-663.5 227,-663.5"/>
<polyline fill="none" stroke="black" points="227,-663.5 13,-663.5 "/>
<path fill="none" stroke="black" d="M13,-663.5C7,-663.5 1,-657.5 1,-651.5"/>
<polyline fill="none" stroke="black" points="1,-651.5 1,-429.5 "/>
<path fill="none" stroke="black" d="M1,-429.5C1,-423.5 7,-417.5 13,-417.5"/>
<text text-anchor="middle" x="120" y="-646.9" font-family="Times Roman,serif" font-size="14.00">BusinessesController</text>
<polyline fill="none" stroke="black" points="1,-637.5 239,-637.5 "/>
<text text-anchor="start" x="9" y="-620.9" font-family="Times Roman,serif" font-size="14.00">_one_time_conditions_valid_92?</text>
<text text-anchor="start" x="9" y="-602.9" font-family="Times Roman,serif" font-size="14.00">create</text>
<text text-anchor="start" x="9" y="-584.9" font-family="Times Roman,serif" font-size="14.00">destroy</text>
<text text-anchor="start" x="9" y="-566.9" font-family="Times Roman,serif" font-size="14.00">edit</text>
<text text-anchor="start" x="9" y="-548.9" font-family="Times Roman,serif" font-size="14.00">index</text>
<text text-anchor="start" x="9" y="-530.9" font-family="Times Roman,serif" font-size="14.00">new</text>
<text text-anchor="start" x="9" y="-512.9" font-family="Times Roman,serif" font-size="14.00">show</text>
<text text-anchor="start" x="9" y="-494.9" font-family="Times Roman,serif" font-size="14.00">update</text>
<polyline fill="none" stroke="black" points="1,-485.5 239,-485.5 "/>
<polyline fill="none" stroke="black" points="1,-461.5 239,-461.5 "/>
<text text-anchor="start" x="9" y="-444.9" font-family="Times Roman,serif" font-size="14.00">_layout</text>
<text text-anchor="start" x="9" y="-426.9" font-family="Times Roman,serif" font-size="14.00">_run_process_action_callbacks</text>
</g>
<!-- NewslettersController -->
<g id="node13" class="node"><title>NewslettersController</title>
<polyline fill="none" stroke="black" points="13,-131.5 227,-131.5 "/>
<path fill="none" stroke="black" d="M227,-131.5C233,-131.5 239,-137.5 239,-143.5"/>
<polyline fill="none" stroke="black" points="239,-143.5 239,-365.5 "/>
<path fill="none" stroke="black" d="M239,-365.5C239,-371.5 233,-377.5 227,-377.5"/>
<polyline fill="none" stroke="black" points="227,-377.5 13,-377.5 "/>
<path fill="none" stroke="black" d="M13,-377.5C7,-377.5 1,-371.5 1,-365.5"/>
<polyline fill="none" stroke="black" points="1,-365.5 1,-143.5 "/>
<path fill="none" stroke="black" d="M1,-143.5C1,-137.5 7,-131.5 13,-131.5"/>
<text text-anchor="middle" x="120" y="-360.9" font-family="Times Roman,serif" font-size="14.00">NewslettersController</text>
<polyline fill="none" stroke="black" points="1,-351.5 239,-351.5 "/>
<text text-anchor="start" x="9" y="-334.9" font-family="Times Roman,serif" font-size="14.00">_one_time_conditions_valid_96?</text>
<text text-anchor="start" x="9" y="-316.9" font-family="Times Roman,serif" font-size="14.00">create</text>
<text text-anchor="start" x="9" y="-298.9" font-family="Times Roman,serif" font-size="14.00">destroy</text>
<text text-anchor="start" x="9" y="-280.9" font-family="Times Roman,serif" font-size="14.00">edit</text>
<text text-anchor="start" x="9" y="-262.9" font-family="Times Roman,serif" font-size="14.00">index</text>
<text text-anchor="start" x="9" y="-244.9" font-family="Times Roman,serif" font-size="14.00">new</text>
<text text-anchor="start" x="9" y="-226.9" font-family="Times Roman,serif" font-size="14.00">show</text>
<text text-anchor="start" x="9" y="-208.9" font-family="Times Roman,serif" font-size="14.00">update</text>
<polyline fill="none" stroke="black" points="1,-199.5 239,-199.5 "/>
<polyline fill="none" stroke="black" points="1,-175.5 239,-175.5 "/>
<text text-anchor="start" x="9" y="-158.9" font-family="Times Roman,serif" font-size="14.00">_layout</text>
<text text-anchor="start" x="9" y="-140.9" font-family="Times Roman,serif" font-size="14.00">_run_process_action_callbacks</text>
</g>
<!-- ReportsController -->
<g id="node14" class="node"><title>ReportsController</title>
<polyline fill="none" stroke="black" points="897,-703.5 1011,-703.5 "/>
<path fill="none" stroke="black" d="M1011,-703.5C1017,-703.5 1023,-709.5 1023,-715.5"/>
<polyline fill="none" stroke="black" points="1023,-715.5 1023,-883.5 "/>
<path fill="none" stroke="black" d="M1023,-883.5C1023,-889.5 1017,-895.5 1011,-895.5"/>
<polyline fill="none" stroke="black" points="1011,-895.5 897,-895.5 "/>
<path fill="none" stroke="black" d="M897,-895.5C891,-895.5 885,-889.5 885,-883.5"/>
<polyline fill="none" stroke="black" points="885,-883.5 885,-715.5 "/>
<path fill="none" stroke="black" d="M885,-715.5C885,-709.5 891,-703.5 897,-703.5"/>
<text text-anchor="middle" x="954" y="-878.9" font-family="Times Roman,serif" font-size="14.00">ReportsController</text>
<polyline fill="none" stroke="black" points="885,-869.5 1023,-869.5 "/>
<text text-anchor="start" x="893" y="-852.9" font-family="Times Roman,serif" font-size="14.00">create</text>
<text text-anchor="start" x="893" y="-834.9" font-family="Times Roman,serif" font-size="14.00">index</text>
<text text-anchor="start" x="893" y="-816.9" font-family="Times Roman,serif" font-size="14.00">show</text>
<polyline fill="none" stroke="black" points="885,-807.5 1023,-807.5 "/>
<polyline fill="none" stroke="black" points="885,-783.5 1023,-783.5 "/>
<text text-anchor="start" x="893" y="-766.9" font-family="Times Roman,serif" font-size="14.00">_layout</text>
<text text-anchor="start" x="893" y="-748.9" font-family="Times Roman,serif" font-size="14.00">find_reportable</text>
<text text-anchor="start" x="893" y="-730.9" font-family="Times Roman,serif" font-size="14.00">sort_column</text>
<text text-anchor="start" x="893" y="-712.9" font-family="Times Roman,serif" font-size="14.00">sort_direction</text>
</g>
<!-- CategoriesController -->
<g id="node15" class="node"><title>CategoriesController</title>
<polyline fill="none" stroke="black" points="39,-807.5 262,-807.5 "/>
<path fill="none" stroke="black" d="M262,-807.5C268,-807.5 274,-813.5 274,-819.5"/>
<polyline fill="none" stroke="black" points="274,-819.5 274,-1041.5 "/>
<path fill="none" stroke="black" d="M274,-1041.5C274,-1047.5 268,-1053.5 262,-1053.5"/>
<polyline fill="none" stroke="black" points="262,-1053.5 39,-1053.5 "/>
<path fill="none" stroke="black" d="M39,-1053.5C33,-1053.5 27,-1047.5 27,-1041.5"/>
<polyline fill="none" stroke="black" points="27,-1041.5 27,-819.5 "/>
<path fill="none" stroke="black" d="M27,-819.5C27,-813.5 33,-807.5 39,-807.5"/>
<text text-anchor="middle" x="150.5" y="-1036.9" font-family="Times Roman,serif" font-size="14.00">CategoriesController</text>
<polyline fill="none" stroke="black" points="27,-1027.5 274,-1027.5 "/>
<text text-anchor="start" x="35" y="-1010.9" font-family="Times Roman,serif" font-size="14.00">_one_time_conditions_valid_100?</text>
<text text-anchor="start" x="35" y="-992.9" font-family="Times Roman,serif" font-size="14.00">create</text>
<text text-anchor="start" x="35" y="-974.9" font-family="Times Roman,serif" font-size="14.00">destroy</text>
<text text-anchor="start" x="35" y="-956.9" font-family="Times Roman,serif" font-size="14.00">edit</text>
<text text-anchor="start" x="35" y="-938.9" font-family="Times Roman,serif" font-size="14.00">index</text>
<text text-anchor="start" x="35" y="-920.9" font-family="Times Roman,serif" font-size="14.00">new</text>
<text text-anchor="start" x="35" y="-902.9" font-family="Times Roman,serif" font-size="14.00">show</text>
<text text-anchor="start" x="35" y="-884.9" font-family="Times Roman,serif" font-size="14.00">update</text>
<polyline fill="none" stroke="black" points="27,-875.5 274,-875.5 "/>
<polyline fill="none" stroke="black" points="27,-851.5 274,-851.5 "/>
<text text-anchor="start" x="35" y="-834.9" font-family="Times Roman,serif" font-size="14.00">_layout</text>
<text text-anchor="start" x="35" y="-816.9" font-family="Times Roman,serif" font-size="14.00">_run_process_action_callbacks</text>
</g>
</g>
</svg>
