<?xml version="1.0" encoding="UTF-8" standalone="no"?>
<!DOCTYPE svg PUBLIC "-//W3C//DTD SVG 1.1//EN"
 "http://www.w3.org/Graphics/SVG/1.1/DTD/svg11.dtd">
<!-- Generated by graphviz version 2.26.3 (20100126.1600)
 -->
<!-- Title: models_diagram Pages: 1 -->
<svg width="2514pt" height="838pt"
 viewBox="0.00 0.00 2514.00 838.00" xmlns="http://www.w3.org/2000/svg" xmlns:xlink="http://www.w3.org/1999/xlink">
<g id="graph1" class="graph" transform="scale(1 1) rotate(0) translate(4 834)">
<title>models_diagram</title>
<polygon fill="white" stroke="white" points="-4,5 -4,-834 2511,-834 2511,5 -4,5"/>
<!-- _diagram_info -->
<g id="node1" class="node"><title>_diagram_info</title>
<text text-anchor="start" x="98" y="-813.8" font-family="Times Roman,serif" font-size="13.00">Models diagram</text>
<text text-anchor="start" x="98" y="-796.8" font-family="Times Roman,serif" font-size="13.00">Date: Apr 22 2011 &#45; 15:29</text>
<text text-anchor="start" x="98" y="-779.8" font-family="Times Roman,serif" font-size="13.00">Migration version: 20110422123854</text>
<text text-anchor="start" x="98" y="-762.8" font-family="Times Roman,serif" font-size="13.00">Generated by RailRoady 1.0.1</text>
<text text-anchor="start" x="98" y="-745.8" font-family="Times Roman,serif" font-size="13.00">http://railroady.prestonlee.com</text>
</g>
<!-- OpenHour -->
<g id="node2" class="node"><title>OpenHour</title>
<ellipse fill="none" stroke="black" cx="345" cy="-567" rx="61.0181" ry="18.3848"/>
<text text-anchor="middle" x="345" y="-563.4" font-family="Times Roman,serif" font-size="14.00">OpenHour</text>
</g>
<!-- Announcement -->
<g id="node3" class="node"><title>Announcement</title>
<ellipse fill="none" stroke="black" cx="1990" cy="-679" rx="85.7684" ry="18.3848"/>
<text text-anchor="middle" x="1990" y="-675.4" font-family="Times Roman,serif" font-size="14.00">Announcement</text>
</g>
<!-- UsersReferral -->
<g id="node4" class="node"><title>UsersReferral</title>
<ellipse fill="none" stroke="black" cx="2193" cy="-783" rx="77.0746" ry="18.3848"/>
<text text-anchor="middle" x="2193" y="-779.4" font-family="Times Roman,serif" font-size="14.00">UsersReferral</text>
</g>
<!-- AccountHolder -->
<g id="node5" class="node"><title>AccountHolder</title>
<ellipse fill="none" stroke="black" cx="1457" cy="-247" rx="82.2301" ry="18.3848"/>
<text text-anchor="middle" x="1457" y="-243.4" font-family="Times Roman,serif" font-size="14.00">AccountHolder</text>
</g>
<!-- Account -->
<g id="node17" class="node"><title>Account</title>
<ellipse fill="none" stroke="black" cx="1263" cy="-171" rx="50.9117" ry="18.3848"/>
<text text-anchor="middle" x="1263" y="-167.4" font-family="Times Roman,serif" font-size="14.00">Account</text>
</g>
<!-- AccountHolder&#45;&gt;Account -->
<g id="edge2" class="edge"><title>AccountHolder&#45;&gt;Account</title>
<path fill="none" stroke="black" d="M1408.26,-227.906C1377.26,-215.761 1337.43,-200.159 1307.32,-188.364"/>
<ellipse fill="none" stroke="black" cx="1412.13" cy="-229.423" rx="4.00001" ry="4.00001"/>
<polygon fill="black" stroke="black" points="1307.23,-188.325 1299.56,-180.488 1302.57,-186.502 1297.91,-184.678 1297.91,-184.678 1297.91,-184.678 1302.57,-186.502 1296.27,-188.868 1307.23,-188.325 1307.23,-188.325"/>
</g>
<!-- LegalType -->
<g id="node6" class="node"><title>LegalType</title>
<ellipse fill="none" stroke="black" cx="1261" cy="-415" rx="60.1041" ry="18.3848"/>
<text text-anchor="middle" x="1261" y="-411.4" font-family="Times Roman,serif" font-size="14.00">LegalType</text>
</g>
<!-- LegalId -->
<g id="node15" class="node"><title>LegalId</title>
<ellipse fill="none" stroke="black" cx="1232" cy="-323" rx="46.1672" ry="18.3848"/>
<text text-anchor="middle" x="1232" y="-319.4" font-family="Times Roman,serif" font-size="14.00">LegalId</text>
</g>
<!-- LegalType&#45;&gt;LegalId -->
<g id="edge4" class="edge"><title>LegalType&#45;&gt;LegalId</title>
<path fill="none" stroke="black" d="M1252.63,-388.447C1248.97,-376.84 1244.67,-363.21 1240.95,-351.401"/>
<ellipse fill="none" stroke="black" cx="1253.93" cy="-392.567" rx="4.00001" ry="4.00001"/>
<polygon fill="black" stroke="black" points="1240.87,-351.127 1242.15,-340.237 1239.36,-346.359 1237.86,-341.59 1237.86,-341.59 1237.86,-341.59 1239.36,-346.359 1233.57,-342.943 1240.87,-351.127 1240.87,-351.127"/>
</g>
<!-- LogGroup -->
<g id="node7" class="node"><title>LogGroup</title>
<ellipse fill="none" stroke="black" cx="293" cy="-95" rx="58.8978" ry="18.3848"/>
<text text-anchor="middle" x="293" y="-91.4" font-family="Times Roman,serif" font-size="14.00">LogGroup</text>
</g>
<!-- Log -->
<g id="node33" class="node"><title>Log</title>
<ellipse fill="none" stroke="black" cx="764" cy="-19" rx="28.9914" ry="18.3848"/>
<text text-anchor="middle" x="764" y="-15.4" font-family="Times Roman,serif" font-size="14.00">Log</text>
</g>
<!-- LogGroup&#45;&gt;Log -->
<g id="edge6" class="edge"><title>LogGroup&#45;&gt;Log</title>
<path fill="none" stroke="black" d="M325.235,-74.2126C337.527,-67.2599 351.965,-60.214 366,-56 432.435,-36.0532 637.817,-24.6964 724.624,-20.6775"/>
<ellipse fill="none" stroke="black" cx="321.72" cy="-76.2599" rx="4.00002" ry="4.00002"/>
<polygon fill="black" stroke="black" points="724.859,-20.6669 735.053,-24.7082 729.853,-20.4399 734.848,-20.2128 734.848,-20.2128 734.848,-20.2128 729.853,-20.4399 734.644,-15.7175 724.859,-20.6669 724.859,-20.6669"/>
</g>
<!-- Template -->
<g id="node8" class="node"><title>Template</title>
<ellipse fill="none" stroke="black" cx="902" cy="-323" rx="55.8614" ry="18.3848"/>
<text text-anchor="middle" x="902" y="-319.4" font-family="Times Roman,serif" font-size="14.00">Template</text>
</g>
<!-- QrCode -->
<g id="node24" class="node"><title>QrCode</title>
<ellipse fill="none" stroke="black" cx="747" cy="-247" rx="48.0833" ry="18.3848"/>
<text text-anchor="middle" x="747" y="-243.4" font-family="Times Roman,serif" font-size="14.00">QrCode</text>
</g>
<!-- Template&#45;&gt;QrCode -->
<g id="edge8" class="edge"><title>Template&#45;&gt;QrCode</title>
<path fill="none" stroke="black" d="M863.311,-304.03C839.649,-292.428 809.482,-277.636 785.8,-266.024"/>
<ellipse fill="none" stroke="black" cx="867.042" cy="-305.859" rx="4.00002" ry="4.00002"/>
<polygon fill="black" stroke="black" points="785.721,-265.986 778.723,-257.543 781.232,-263.785 776.742,-261.583 776.742,-261.583 776.742,-261.583 781.232,-263.785 774.761,-265.624 785.721,-265.986 785.721,-265.986"/>
</g>
<!-- Transaction -->
<g id="node9" class="node"><title>Transaction</title>
<ellipse fill="none" stroke="black" cx="1104" cy="-95" rx="67.1751" ry="18.3848"/>
<text text-anchor="middle" x="1104" y="-91.4" font-family="Times Roman,serif" font-size="14.00">Transaction</text>
</g>
<!-- Transaction&#45;&gt;Log -->
<g id="edge10" class="edge"><title>Transaction&#45;&gt;Log</title>
<path fill="none" stroke="black" d="M1059.92,-76.2024C1041.65,-69.0112 1020.07,-61.278 1000,-56 931.761,-38.0557 849.989,-27.6205 802.811,-22.6391"/>
<ellipse fill="none" stroke="black" cx="1063.81" cy="-77.7589" rx="4.00001" ry="4.00001"/>
<polygon fill="black" stroke="black" points="802.668,-22.6246 793.181,-17.1252 797.694,-22.1131 792.721,-21.6016 792.721,-21.6016 792.721,-21.6016 797.694,-22.1131 792.26,-26.078 802.668,-22.6246 802.668,-22.6246"/>
</g>
<!-- TransactionType -->
<g id="node10" class="node"><title>TransactionType</title>
<ellipse fill="none" stroke="black" cx="1104" cy="-171" rx="89.8026" ry="18.3848"/>
<text text-anchor="middle" x="1104" y="-167.4" font-family="Times Roman,serif" font-size="14.00">TransactionType</text>
</g>
<!-- TransactionType&#45;&gt;Transaction -->
<g id="edge12" class="edge"><title>TransactionType&#45;&gt;Transaction</title>
<path fill="none" stroke="black" d="M1104,-144.073C1104,-137.449 1104,-130.332 1104,-123.63"/>
<ellipse fill="none" stroke="black" cx="1104" cy="-148.213" rx="4" ry="4"/>
<polygon fill="black" stroke="black" points="1104,-123.57 1108.5,-113.57 1104,-118.57 1104,-113.57 1104,-113.57 1104,-113.57 1104,-118.57 1099.5,-113.57 1104,-123.57 1104,-123.57"/>
</g>
<!-- Reward -->
<g id="node11" class="node"><title>Reward</title>
<ellipse fill="none" stroke="black" cx="542" cy="-491" rx="48.7904" ry="18.3848"/>
<text text-anchor="middle" x="542" y="-487.4" font-family="Times Roman,serif" font-size="14.00">Reward</text>
</g>
<!-- Reward&#45;&gt;Log -->
<g id="edge14" class="edge"><title>Reward&#45;&gt;Log</title>
<path fill="none" stroke="black" d="M542,-464.17C542,-449.62 542,-431.324 542,-415 542,-415 542,-415 542,-95 542,-56.7001 661.767,-33.6615 725.363,-24.1277"/>
<ellipse fill="none" stroke="black" cx="542" cy="-468.26" rx="4" ry="4"/>
<polygon fill="black" stroke="black" points="725.536,-24.1026 736.081,-27.1137 730.484,-23.3817 735.432,-22.6608 735.432,-22.6608 735.432,-22.6608 730.484,-23.3817 734.783,-18.2078 725.536,-24.1026 725.536,-24.1026"/>
</g>
<!-- User -->
<g id="node35" class="node"><title>User</title>
<ellipse fill="none" stroke="black" cx="1149" cy="-415" rx="33.9411" ry="18.3848"/>
<text text-anchor="middle" x="1149" y="-411.4" font-family="Times Roman,serif" font-size="14.00">User</text>
</g>
<!-- Reward&#45;&gt;User -->
<g id="edge18" class="edge"><title>Reward&#45;&gt;User</title>
<path fill="none" stroke="black" d="M598.707,-483.9C719.128,-468.822 998.134,-433.889 1105.66,-420.426"/>
<polygon fill="black" stroke="black" points="598.545,-483.92 588.063,-480.697 593.584,-484.541 588.622,-485.163 588.622,-485.163 588.622,-485.163 593.584,-484.541 589.181,-489.628 598.545,-483.92 598.545,-483.92"/>
<polygon fill="black" stroke="black" points="1105.9,-420.397 1116.38,-423.619 1110.86,-419.776 1115.82,-419.154 1115.82,-419.154 1115.82,-419.154 1110.86,-419.776 1115.26,-414.689 1105.9,-420.397 1105.9,-420.397"/>
</g>
<!-- Item -->
<g id="node40" class="node"><title>Item</title>
<ellipse fill="none" stroke="black" cx="480" cy="-415" rx="33.9411" ry="18.3848"/>
<text text-anchor="middle" x="480" y="-411.4" font-family="Times Roman,serif" font-size="14.00">Item</text>
</g>
<!-- Reward&#45;&gt;Item -->
<g id="edge16" class="edge"><title>Reward&#45;&gt;Item</title>
<path fill="none" stroke="black" d="M520.809,-465.024C514.223,-456.951 506.978,-448.07 500.444,-440.06"/>
<polygon fill="black" stroke="black" points="520.986,-465.24 523.82,-475.834 524.146,-469.115 527.307,-472.989 527.307,-472.989 527.307,-472.989 524.146,-469.115 530.794,-470.144 520.986,-465.24 520.986,-465.24"/>
<polygon fill="black" stroke="black" points="500.27,-439.847 497.436,-429.254 497.11,-435.973 493.949,-432.099 493.949,-432.099 493.949,-432.099 497.11,-435.973 490.462,-434.943 500.27,-439.847 500.27,-439.847"/>
</g>
<!-- Campaign -->
<g id="node12" class="node"><title>Campaign</title>
<ellipse fill="none" stroke="black" cx="1238" cy="-567" rx="60.1041" ry="18.3848"/>
<text text-anchor="middle" x="1238" y="-563.4" font-family="Times Roman,serif" font-size="14.00">Campaign</text>
</g>
<!-- Campaign&#45;&gt;Reward -->
<g id="edge24" class="edge"><title>Campaign&#45;&gt;Reward</title>
<path fill="none" stroke="black" d="M1188.03,-551.774C1181.67,-550.271 1175.22,-548.952 1169,-548 944.367,-513.6 881.59,-570.634 658,-530 632.984,-525.454 606.007,-516.635 584.369,-508.533"/>
<ellipse fill="none" stroke="black" cx="1192.13" cy="-552.794" rx="4.00001" ry="4.00001"/>
<polygon fill="black" stroke="black" points="584.168,-508.455 576.44,-500.676 579.499,-506.667 574.83,-504.878 574.83,-504.878 574.83,-504.878 579.499,-506.667 573.22,-509.08 584.168,-508.455 584.168,-508.455"/>
</g>
<!-- Campaign&#45;&gt;Account -->
<g id="edge20" class="edge"><title>Campaign&#45;&gt;Account</title>
<path fill="none" stroke="black" d="M1186.75,-551.945C1180.8,-550.477 1174.79,-549.12 1169,-548 1114.1,-537.379 669,-546.915 669,-491 669,-491 669,-491 669,-247 669,-194.706 688.453,-220.896 811,-208 984.448,-189.748 1031.3,-220.585 1203,-190 1207.66,-189.169 1212.47,-188.075 1217.23,-186.831"/>
<ellipse fill="none" stroke="black" cx="1190.93" cy="-553.013" rx="4.00001" ry="4.00001"/>
<polygon fill="black" stroke="black" points="1217.27,-186.82 1228.12,-188.432 1222.08,-185.461 1226.89,-184.102 1226.89,-184.102 1226.89,-184.102 1222.08,-185.461 1225.67,-179.771 1217.27,-186.82 1217.27,-186.82"/>
</g>
<!-- Engagement -->
<g id="node32" class="node"><title>Engagement</title>
<ellipse fill="none" stroke="black" cx="342" cy="-491" rx="73.0388" ry="18.3848"/>
<text text-anchor="middle" x="342" y="-487.4" font-family="Times Roman,serif" font-size="14.00">Engagement</text>
</g>
<!-- Campaign&#45;&gt;Engagement -->
<g id="edge22" class="edge"><title>Campaign&#45;&gt;Engagement</title>
<path fill="none" stroke="black" d="M1188.03,-551.768C1181.68,-550.266 1175.22,-548.949 1169,-548 938.203,-512.767 876.736,-548.498 644,-530 572.561,-524.322 555.072,-519.197 484,-510 462.173,-507.176 438.47,-504.034 416.795,-501.131"/>
<ellipse fill="none" stroke="black" cx="1192.13" cy="-552.788" rx="4.00001" ry="4.00001"/>
<polygon fill="black" stroke="black" points="416.577,-501.102 407.264,-495.312 411.621,-500.437 406.665,-499.773 406.665,-499.773 406.665,-499.773 411.621,-500.437 406.067,-504.233 416.577,-501.102 416.577,-501.102"/>
</g>
<!-- Amenity -->
<g id="node13" class="node"><title>Amenity</title>
<ellipse fill="none" stroke="black" cx="410" cy="-783" rx="51.8276" ry="18.3848"/>
<text text-anchor="middle" x="410" y="-779.4" font-family="Times Roman,serif" font-size="14.00">Amenity</text>
</g>
<!-- Place -->
<g id="node18" class="node"><title>Place</title>
<ellipse fill="none" stroke="black" cx="544" cy="-679" rx="36.977" ry="18.3848"/>
<text text-anchor="middle" x="544" y="-675.4" font-family="Times Roman,serif" font-size="14.00">Place</text>
</g>
<!-- Amenity&#45;&gt;Place -->
<g id="edge26" class="edge"><title>Amenity&#45;&gt;Place</title>
<path fill="none" stroke="black" d="M439.738,-759.919C462.451,-742.292 493.541,-718.163 515.85,-700.848"/>
<polygon fill="black" stroke="black" points="439.728,-759.928 429.069,-762.504 435.778,-762.993 431.828,-766.059 431.828,-766.059 431.828,-766.059 435.778,-762.993 434.587,-769.614 439.728,-759.928 439.728,-759.928"/>
<polygon fill="black" stroke="black" points="516.034,-700.705 526.693,-698.128 519.984,-697.639 523.934,-694.573 523.934,-694.573 523.934,-694.573 519.984,-697.639 521.175,-691.018 516.034,-700.705 516.034,-700.705"/>
</g>
<!-- Category -->
<g id="node14" class="node"><title>Category</title>
<ellipse fill="none" stroke="black" cx="1638" cy="-623" rx="56.0679" ry="18.3848"/>
<text text-anchor="middle" x="1638" y="-619.4" font-family="Times Roman,serif" font-size="14.00">Category</text>
</g>
<!-- Busines -->
<g id="node55" class="node"><title>Busines</title>
<ellipse fill="none" stroke="black" cx="1641" cy="-323" rx="48.9975" ry="18.3848"/>
<text text-anchor="middle" x="1641" y="-319.4" font-family="Times Roman,serif" font-size="14.00">Busines</text>
</g>
<!-- Category&#45;&gt;Busines -->
<g id="edge28" class="edge"><title>Category&#45;&gt;Busines</title>
<path fill="none" stroke="black" d="M1638,-594.098C1638,-575.505 1638,-550.827 1638,-529 1638,-529 1638,-529 1638,-415 1638,-393.859 1638.8,-369.999 1639.58,-351.876"/>
<polygon fill="black" stroke="black" points="1638,-594.273 1633.5,-604.273 1638,-599.273 1638,-604.273 1638,-604.273 1638,-604.273 1638,-599.273 1642.5,-604.273 1638,-594.273 1638,-594.273"/>
<polygon fill="black" stroke="black" points="1639.58,-351.662 1644.53,-341.874 1639.81,-346.667 1640.03,-341.672 1640.03,-341.672 1640.03,-341.672 1639.81,-346.667 1635.54,-341.47 1639.58,-351.662 1639.58,-351.662"/>
<text text-anchor="middle" x="1675" y="-487.4" font-family="Times Roman,serif" font-size="14.00">businesses</text>
</g>
<!-- Image -->
<g id="node16" class="node"><title>Image</title>
<ellipse fill="none" stroke="black" cx="1807" cy="-415" rx="41.2167" ry="18.3848"/>
<text text-anchor="middle" x="1807" y="-411.4" font-family="Times Roman,serif" font-size="14.00">Image</text>
</g>
<!-- BrandImage -->
<g id="node21" class="node"><title>BrandImage</title>
<ellipse fill="none" stroke="black" cx="1778" cy="-323" rx="70.2092" ry="18.3848"/>
<text text-anchor="middle" x="1778" y="-319.4" font-family="Times Roman,serif" font-size="14.00">BrandImage</text>
</g>
<!-- Image&#45;&gt;BrandImage -->
<g id="edge78" class="edge"><title>Image&#45;&gt;BrandImage</title>
<path fill="none" stroke="black" d="M1801.13,-396.382C1796.1,-380.421 1788.89,-357.543 1783.86,-341.59"/>
</g>
<!-- Account&#45;&gt;Transaction -->
<g id="edge30" class="edge"><title>Account&#45;&gt;Transaction</title>
<path fill="none" stroke="black" d="M1224.72,-152.703C1201.3,-141.507 1171.27,-127.155 1147.03,-115.566"/>
<ellipse fill="none" stroke="black" cx="1228.36" cy="-154.441" rx="4.00002" ry="4.00002"/>
<polygon fill="black" stroke="black" points="1146.73,-115.423 1139.65,-107.05 1142.22,-113.267 1137.7,-111.11 1137.7,-111.11 1137.7,-111.11 1142.22,-113.267 1135.76,-115.17 1146.73,-115.423 1146.73,-115.423"/>
</g>
<!-- Place&#45;&gt;OpenHour -->
<g id="edge48" class="edge"><title>Place&#45;&gt;OpenHour</title>
<path fill="none" stroke="black" d="M511.92,-660.945C476.767,-641.16 420.416,-609.445 383.056,-588.418"/>
<ellipse fill="none" stroke="black" cx="515.713" cy="-663.08" rx="4.00002" ry="4.00002"/>
<polygon fill="black" stroke="black" points="382.706,-588.221 376.198,-579.395 378.348,-585.769 373.991,-583.317 373.991,-583.317 373.991,-583.317 378.348,-585.769 371.784,-587.238 382.706,-588.221 382.706,-588.221"/>
</g>
<!-- Place&#45;&gt;Reward -->
<g id="edge44" class="edge"><title>Place&#45;&gt;Reward</title>
<path fill="none" stroke="black" d="M543.693,-650.106C543.316,-614.712 542.682,-555.112 542.306,-519.773"/>
<polygon fill="black" stroke="black" points="543.694,-650.287 539.301,-660.334 543.748,-655.287 543.801,-660.287 543.801,-660.287 543.801,-660.287 543.748,-655.287 548.301,-660.239 543.694,-650.287 543.694,-650.287"/>
<polygon fill="black" stroke="black" points="542.305,-519.637 546.698,-509.59 542.252,-514.638 542.198,-509.638 542.198,-509.638 542.198,-509.638 542.252,-514.638 537.699,-509.686 542.305,-519.637 542.305,-519.637"/>
</g>
<!-- Place&#45;&gt;QrCode -->
<g id="edge46" class="edge"><title>Place&#45;&gt;QrCode</title>
<path fill="none" stroke="black" d="M554.422,-652.906C565.162,-626.325 582.605,-584.01 599,-548 645.566,-445.72 706.033,-326.59 732.978,-274.141"/>
<ellipse fill="none" stroke="black" cx="552.807" cy="-656.916" rx="4.00001" ry="4.00001"/>
<polygon fill="black" stroke="black" points="733.033,-274.035 741.61,-267.202 735.321,-269.589 737.608,-265.143 737.608,-265.143 737.608,-265.143 735.321,-269.589 733.607,-263.084 733.033,-274.035 733.033,-274.035"/>
</g>
<!-- Place&#45;&gt;Engagement -->
<g id="edge42" class="edge"><title>Place&#45;&gt;Engagement</title>
<path fill="none" stroke="black" d="M496.493,-676.583C415.686,-671.981 258.563,-660.716 242,-642 214.313,-610.714 221.011,-584.123 242,-548 251.96,-530.859 269.218,-518.443 286.622,-509.664"/>
<polygon fill="black" stroke="black" points="496.912,-676.606 506.646,-681.655 501.904,-676.884 506.896,-677.162 506.896,-677.162 506.896,-677.162 501.904,-676.884 507.147,-672.669 496.912,-676.606 496.912,-676.606"/>
<polygon fill="black" stroke="black" points="286.648,-509.652 297.613,-509.472 291.174,-507.525 295.699,-505.399 295.699,-505.399 295.699,-505.399 291.174,-507.525 293.785,-501.326 286.648,-509.652 286.648,-509.652"/>
</g>
<!-- ActsAsTaggableOn::Tagging -->
<g id="node58" class="node"><title>ActsAsTaggableOn::Tagging</title>
<ellipse fill="none" stroke="black" cx="752" cy="-567" rx="144.25" ry="18.3848"/>
<text text-anchor="middle" x="752" y="-563.4" font-family="Times Roman,serif" font-size="14.00">ActsAsTaggableOn::Tagging</text>
</g>
<!-- Place&#45;&gt;ActsAsTaggableOn::Tagging -->
<g id="edge32" class="edge"><title>Place&#45;&gt;ActsAsTaggableOn::Tagging</title>
<path fill="none" stroke="black" d="M586.315,-669.992C626.358,-661.193 681.571,-648.241 690,-642 705.866,-630.252 700.617,-619.375 713,-604 716.059,-600.202 719.494,-596.413 723.023,-592.788"/>
<ellipse fill="none" stroke="black" cx="582.183" cy="-670.895" rx="4.00001" ry="4.00001"/>
<polygon fill="black" stroke="black" points="723.18,-592.634 733.467,-588.835 726.746,-589.13 730.313,-585.625 730.313,-585.625 730.313,-585.625 726.746,-589.13 727.159,-582.415 723.18,-592.634 723.18,-592.634"/>
<text text-anchor="middle" x="742.5" y="-619.4" font-family="Times Roman,serif" font-size="14.00">taggings</text>
</g>
<!-- Place&#45;&gt;ActsAsTaggableOn::Tagging -->
<g id="edge36" class="edge"><title>Place&#45;&gt;ActsAsTaggableOn::Tagging</title>
<path fill="none" stroke="black" d="M566.498,-656.499C570.569,-651.893 574.597,-646.938 578,-642 588.715,-626.452 582.208,-615.737 597,-604 606.71,-596.296 628.612,-589.452 652.982,-583.81"/>
<ellipse fill="none" stroke="black" cx="563.676" cy="-659.579" rx="4.00002" ry="4.00002"/>
<polygon fill="black" stroke="black" points="653.033,-583.798 663.772,-586.02 657.914,-582.713 662.795,-581.627 662.795,-581.627 662.795,-581.627 657.914,-582.713 661.818,-577.234 653.033,-583.798 653.033,-583.798"/>
<text text-anchor="middle" x="641.5" y="-619.4" font-family="Times Roman,serif" font-size="14.00">tag_taggings</text>
</g>
<!-- ActsAsTaggableOn::Tag -->
<g id="node60" class="node"><title>ActsAsTaggableOn::Tag</title>
<ellipse fill="none" stroke="black" cx="1037" cy="-567" rx="123.243" ry="18.3848"/>
<text text-anchor="middle" x="1037" y="-563.4" font-family="Times Roman,serif" font-size="14.00">ActsAsTaggableOn::Tag</text>
</g>
<!-- Place&#45;&gt;ActsAsTaggableOn::Tag -->
<g id="edge34" class="edge"><title>Place&#45;&gt;ActsAsTaggableOn::Tag</title>
<path fill="none" stroke="black" d="M587.989,-669.119C602.871,-665.962 619.616,-662.613 635,-660 695.545,-649.717 713.232,-659.828 772,-642 808.519,-630.921 812.852,-616.236 849,-604 877.045,-594.507 908.314,-587.143 937.175,-581.574"/>
<polygon fill="black" stroke="black" points="587.799,-669.16 577.077,-666.863 582.911,-670.211 578.023,-671.263 578.023,-671.263 578.023,-671.263 582.911,-670.211 578.969,-675.662 587.799,-669.16 587.799,-669.16"/>
<polygon fill="black" stroke="black" points="937.446,-581.523 948.104,-584.102 942.36,-580.601 947.274,-579.679 947.274,-579.679 947.274,-579.679 942.36,-580.601 946.444,-575.256 937.446,-581.523 937.446,-581.523"/>
<text text-anchor="middle" x="883.5" y="-619.4" font-family="Times Roman,serif" font-size="14.00">base_tags</text>
</g>
<!-- Place&#45;&gt;ActsAsTaggableOn::Tag -->
<g id="edge38" class="edge"><title>Place&#45;&gt;ActsAsTaggableOn::Tag</title>
<path fill="none" stroke="black" d="M587.523,-668.599C602.491,-665.372 619.407,-662.113 635,-660 666.223,-655.769 891.057,-658.335 918,-642 934.881,-631.765 925.865,-616.675 941,-604 948.887,-597.395 958.084,-591.889 967.602,-587.322"/>
<polygon fill="black" stroke="black" points="587.275,-668.653 576.539,-666.418 582.393,-669.733 577.511,-670.812 577.511,-670.812 577.511,-670.812 582.393,-669.733 578.482,-675.206 587.275,-668.653 587.275,-668.653"/>
<polygon fill="black" stroke="black" points="967.66,-587.296 978.626,-587.336 972.227,-585.261 976.795,-583.226 976.795,-583.226 976.795,-583.226 972.227,-585.261 974.963,-579.116 967.66,-587.296 967.66,-587.296"/>
<text text-anchor="middle" x="956" y="-619.4" font-family="Times Roman,serif" font-size="14.00">tags</text>
</g>
<!-- Addres -->
<g id="node64" class="node"><title>Addres</title>
<ellipse fill="none" stroke="black" cx="469" cy="-567" rx="44.7575" ry="18.3848"/>
<text text-anchor="middle" x="469" y="-563.4" font-family="Times Roman,serif" font-size="14.00">Addres</text>
</g>
<!-- Place&#45;&gt;Addres -->
<g id="edge40" class="edge"><title>Place&#45;&gt;Addres</title>
<path fill="none" stroke="black" d="M527.427,-654.251C515.03,-635.739 498.145,-610.523 485.714,-591.96"/>
<ellipse fill="none" stroke="black" cx="529.724" cy="-657.682" rx="4.00002" ry="4.00002"/>
<ellipse fill="black" stroke="black" cx="483.246" cy="-588.274" rx="4.00002" ry="4.00002"/>
</g>
<!-- EngagementType -->
<g id="node19" class="node"><title>EngagementType</title>
<ellipse fill="none" stroke="black" cx="95" cy="-567" rx="94.9596" ry="18.3848"/>
<text text-anchor="middle" x="95" y="-563.4" font-family="Times Roman,serif" font-size="14.00">EngagementType</text>
</g>
<!-- EngagementType&#45;&gt;Engagement -->
<g id="edge50" class="edge"><title>EngagementType&#45;&gt;Engagement</title>
<path fill="none" stroke="black" d="M146.103,-547.743C164.274,-541.155 184.948,-533.952 204,-528 228.549,-520.331 255.851,-512.805 279.648,-506.563"/>
<ellipse fill="none" stroke="black" cx="142.239" cy="-549.153" rx="4.00001" ry="4.00001"/>
<polygon fill="black" stroke="black" points="279.936,-506.489 290.747,-508.326 284.775,-505.23 289.614,-503.971 289.614,-503.971 289.614,-503.971 284.775,-505.23 288.481,-499.616 279.936,-506.489 279.936,-506.489"/>
</g>
<!-- Business -->
<g id="node20" class="node"><title>Business</title>
<ellipse fill="none" stroke="black" cx="1260" cy="-783" rx="53.9477" ry="18.3848"/>
<text text-anchor="middle" x="1260" y="-779.4" font-family="Times Roman,serif" font-size="14.00">Business</text>
</g>
<!-- Business&#45;&gt;Announcement -->
<g id="edge70" class="edge"><title>Business&#45;&gt;Announcement</title>
<path fill="none" stroke="black" d="M1321.28,-778.786C1457.73,-769.06 1782.96,-743.891 1890,-718 1908.17,-713.605 1927.45,-706.666 1944.19,-699.852"/>
<ellipse fill="none" stroke="black" cx="1316.95" cy="-779.093" rx="4" ry="4"/>
<polygon fill="black" stroke="black" points="1944.49,-699.726 1955.45,-700.027 1949.11,-697.8 1953.72,-695.874 1953.72,-695.874 1953.72,-695.874 1949.11,-697.8 1951.99,-691.721 1944.49,-699.726 1944.49,-699.726"/>
</g>
<!-- Business&#45;&gt;AccountHolder -->
<g id="edge74" class="edge"><title>Business&#45;&gt;AccountHolder</title>
<path fill="none" stroke="black" d="M1318.83,-775.288C1407.98,-761.932 1567,-730.842 1567,-679 1567,-679 1567,-679 1567,-415 1567,-364.707 1573.22,-345.626 1545,-304 1534.55,-288.583 1518.39,-276.384 1502.76,-267.293"/>
<ellipse fill="none" stroke="black" cx="1314.65" cy="-775.903" rx="4.00001" ry="4.00001"/>
<ellipse fill="black" stroke="black" cx="1499.13" cy="-265.278" rx="4.00002" ry="4.00002"/>
</g>
<!-- Business&#45;&gt;Category -->
<g id="edge76" class="edge"><title>Business&#45;&gt;Category</title>
<path fill="none" stroke="black" d="M1321.85,-776.457C1403.03,-766.87 1540.03,-746.947 1581,-718 1604.16,-701.638 1619.55,-672.617 1628.43,-650.942"/>
<polygon fill="black" stroke="black" points="1321.69,-776.476 1311.23,-773.16 1316.72,-777.053 1311.75,-777.63 1311.75,-777.63 1311.75,-777.63 1316.72,-777.053 1312.27,-782.1 1321.69,-776.476 1321.69,-776.476"/>
<polygon fill="black" stroke="black" points="1628.45,-650.897 1636.26,-643.198 1630.26,-646.235 1632.07,-641.572 1632.07,-641.572 1632.07,-641.572 1630.26,-646.235 1627.87,-639.946 1628.45,-650.897 1628.45,-650.897"/>
</g>
<!-- Business&#45;&gt;Place -->
<g id="edge60" class="edge"><title>Business&#45;&gt;Place</title>
<path fill="none" stroke="black" d="M1200.18,-776.69C1088.58,-764.513 841.256,-735.621 635,-698 619.649,-695.2 602.912,-691.805 588.027,-688.663"/>
<ellipse fill="none" stroke="black" cx="1204.33" cy="-777.14" rx="4.00001" ry="4.00001"/>
<polygon fill="black" stroke="black" points="587.838,-688.623 578.995,-682.138 582.948,-687.581 578.058,-686.539 578.058,-686.539 578.058,-686.539 582.948,-687.581 577.12,-690.941 587.838,-688.623 587.838,-688.623"/>
</g>
<!-- Program -->
<g id="node22" class="node"><title>Program</title>
<ellipse fill="none" stroke="black" cx="697" cy="-679" rx="53.033" ry="18.3848"/>
<text text-anchor="middle" x="697" y="-675.4" font-family="Times Roman,serif" font-size="14.00">Program</text>
</g>
<!-- Business&#45;&gt;Program -->
<g id="edge62" class="edge"><title>Business&#45;&gt;Program</title>
<path fill="none" stroke="black" d="M1199.18,-777.549C1086.69,-767.03 850.418,-742.771 772,-718 758.283,-713.667 744.076,-706.935 731.764,-700.276"/>
<ellipse fill="none" stroke="black" cx="1203.41" cy="-777.942" rx="4" ry="4"/>
<polygon fill="black" stroke="black" points="731.486,-700.12 724.955,-691.312 727.122,-697.68 722.758,-695.239 722.758,-695.239 722.758,-695.239 727.122,-697.68 720.561,-699.167 731.486,-700.12 731.486,-700.12"/>
</g>
<!-- Business&#45;&gt;Log -->
<g id="edge72" class="edge"><title>Business&#45;&gt;Log</title>
<path fill="none" stroke="black" d="M1321.45,-779.031C1477.36,-768.142 1876,-734.84 1876,-679 1876,-679 1876,-679 1876,-95 1876,-40.0752 1001.11,-22.7925 803.388,-19.588"/>
<ellipse fill="none" stroke="black" cx="1317.31" cy="-779.317" rx="4" ry="4"/>
<polygon fill="black" stroke="black" points="803.17,-19.5846 793.243,-14.9258 798.171,-19.505 793.172,-19.4253 793.172,-19.4253 793.172,-19.4253 798.171,-19.505 793.1,-23.9247 803.17,-19.5846 803.17,-19.5846"/>
</g>
<!-- Business&#45;&gt;User -->
<g id="edge68" class="edge"><title>Business&#45;&gt;User</title>
<path fill="none" stroke="black" d="M1314.58,-769.954C1382.88,-752.006 1491,-717.514 1491,-679 1491,-679 1491,-679 1491,-491 1491,-423.359 1256.58,-454.133 1192,-434 1189.39,-433.185 1186.72,-432.258 1184.06,-431.262"/>
<polygon fill="black" stroke="black" points="1314.49,-769.977 1303.69,-768.123 1309.65,-771.228 1304.81,-772.48 1304.81,-772.48 1304.81,-772.48 1309.65,-771.228 1305.94,-776.837 1314.49,-769.977 1314.49,-769.977"/>
<polygon fill="black" stroke="black" points="1183.83,-431.169 1176.24,-423.256 1179.19,-429.299 1174.56,-427.429 1174.56,-427.429 1174.56,-427.429 1179.19,-429.299 1172.87,-431.603 1183.83,-431.169 1183.83,-431.169"/>
</g>
<!-- Follower -->
<g id="node36" class="node"><title>Follower</title>
<ellipse fill="none" stroke="black" cx="1349" cy="-323" rx="53.033" ry="18.3848"/>
<text text-anchor="middle" x="1349" y="-319.4" font-family="Times Roman,serif" font-size="14.00">Follower</text>
</g>
<!-- Business&#45;&gt;Follower -->
<g id="edge66" class="edge"><title>Business&#45;&gt;Follower</title>
<path fill="none" stroke="black" d="M1316.33,-773.002C1395.2,-757.374 1529,-724.201 1529,-679 1529,-679 1529,-679 1529,-529 1529,-501.513 1524.8,-491.067 1505,-472 1486.86,-454.536 1476.15,-459.102 1452,-452 1415.37,-441.23 1394.43,-461.553 1368,-434 1347.28,-412.396 1344.55,-376.923 1345.7,-351.902"/>
<ellipse fill="none" stroke="black" cx="1312.33" cy="-773.783" rx="4.00001" ry="4.00001"/>
<polygon fill="black" stroke="black" points="1345.7,-351.866 1350.88,-342.2 1346.05,-346.878 1346.39,-341.89 1346.39,-341.89 1346.39,-341.89 1346.05,-346.878 1341.9,-341.58 1345.7,-351.866 1345.7,-351.866"/>
</g>
<!-- MeasurementType -->
<g id="node37" class="node"><title>MeasurementType</title>
<ellipse fill="none" stroke="black" cx="1260" cy="-679" rx="101.116" ry="18.3848"/>
<text text-anchor="middle" x="1260" y="-675.4" font-family="Times Roman,serif" font-size="14.00">MeasurementType</text>
</g>
<!-- Business&#45;&gt;MeasurementType -->
<g id="edge64" class="edge"><title>Business&#45;&gt;MeasurementType</title>
<path fill="none" stroke="black" d="M1260,-755.926C1260,-741.224 1260,-723.041 1260,-708.044"/>
<ellipse fill="none" stroke="black" cx="1260" cy="-760.407" rx="4" ry="4"/>
<polygon fill="black" stroke="black" points="1260,-707.783 1264.5,-697.783 1260,-702.783 1260,-697.783 1260,-697.783 1260,-697.783 1260,-702.783 1255.5,-697.783 1260,-707.783 1260,-707.783"/>
</g>
<!-- Business&#45;&gt;ActsAsTaggableOn::Tagging -->
<g id="edge52" class="edge"><title>Business&#45;&gt;ActsAsTaggableOn::Tagging</title>
<path fill="none" stroke="black" d="M1203.61,-773.2C1124.36,-758.535 985.219,-729.245 945,-698 907.125,-668.576 929.951,-633.326 892,-604 883.119,-597.137 863.403,-590.561 841.489,-584.906"/>
<ellipse fill="none" stroke="black" cx="1207.62" cy="-773.937" rx="4.00001" ry="4.00001"/>
<polygon fill="black" stroke="black" points="841.349,-584.871 832.731,-578.091 836.497,-583.665 831.645,-582.458 831.645,-582.458 831.645,-582.458 836.497,-583.665 830.559,-586.825 841.349,-584.871 841.349,-584.871"/>
<text text-anchor="middle" x="974.5" y="-675.4" font-family="Times Roman,serif" font-size="14.00">taggings</text>
</g>
<!-- Business&#45;&gt;ActsAsTaggableOn::Tagging -->
<g id="edge56" class="edge"><title>Business&#45;&gt;ActsAsTaggableOn::Tagging</title>
<path fill="none" stroke="black" d="M1197.8,-780.175C1089.47,-773.81 873.252,-754.215 827,-698 816.269,-684.958 818.043,-674.318 827,-660 836.699,-644.497 854.301,-657.503 864,-642 872.957,-627.682 873.893,-617.688 864,-604 859.281,-597.472 846.885,-591.461 831.977,-586.267"/>
<ellipse fill="none" stroke="black" cx="1202.05" cy="-780.418" rx="4" ry="4"/>
<polygon fill="black" stroke="black" points="831.92,-586.249 823.814,-578.864 827.168,-584.695 822.415,-583.142 822.415,-583.142 822.415,-583.142 827.168,-584.695 821.017,-587.419 831.92,-586.249 831.92,-586.249"/>
<text text-anchor="middle" x="871.5" y="-675.4" font-family="Times Roman,serif" font-size="14.00">tag_taggings</text>
</g>
<!-- Business&#45;&gt;ActsAsTaggableOn::Tag -->
<g id="edge54" class="edge"><title>Business&#45;&gt;ActsAsTaggableOn::Tag</title>
<path fill="none" stroke="black" d="M1203.92,-770.969C1140.02,-755.993 1041.64,-728.625 1020,-698 998.688,-667.843 1010.91,-623.798 1022.91,-595.265"/>
<polygon fill="black" stroke="black" points="1204.11,-771.015 1212.84,-777.649 1208.98,-772.14 1213.86,-773.265 1213.86,-773.265 1213.86,-773.265 1208.98,-772.14 1214.87,-768.88 1204.11,-771.015 1204.11,-771.015"/>
<polygon fill="black" stroke="black" points="1023.03,-595.005 1031.21,-587.697 1025.06,-590.436 1027.1,-585.868 1027.1,-585.868 1027.1,-585.868 1025.06,-590.436 1022.98,-584.039 1023.03,-595.005 1023.03,-595.005"/>
<text text-anchor="middle" x="1054.5" y="-675.4" font-family="Times Roman,serif" font-size="14.00">base_tags</text>
</g>
<!-- Business&#45;&gt;ActsAsTaggableOn::Tag -->
<g id="edge58" class="edge"><title>Business&#45;&gt;ActsAsTaggableOn::Tag</title>
<path fill="none" stroke="black" d="M1217.52,-763.732C1187.8,-748.789 1148.48,-725.941 1120,-698 1103.4,-681.713 1071.41,-627.75 1052.35,-594.379"/>
<polygon fill="black" stroke="black" points="1217.83,-763.887 1224.82,-772.34 1222.32,-766.094 1226.8,-768.302 1226.8,-768.302 1226.8,-768.302 1222.32,-766.094 1228.79,-764.265 1217.83,-763.887 1217.83,-763.887"/>
<polygon fill="black" stroke="black" points="1052.29,-594.257 1051.26,-583.339 1049.82,-589.909 1047.35,-585.561 1047.35,-585.561 1047.35,-585.561 1049.82,-589.909 1043.43,-587.783 1052.29,-594.257 1052.29,-594.257"/>
<text text-anchor="middle" x="1135" y="-675.4" font-family="Times Roman,serif" font-size="14.00">tags</text>
</g>
<!-- Program&#45;&gt;Campaign -->
<g id="edge80" class="edge"><title>Program&#45;&gt;Campaign</title>
<path fill="none" stroke="black" d="M744.525,-664.329C751.024,-662.674 757.645,-661.166 764,-660 854.83,-643.328 880.15,-658.559 971,-642 1048.14,-627.939 1135.2,-601.414 1188.33,-583.975"/>
<ellipse fill="none" stroke="black" cx="740.252" cy="-665.463" rx="4.00001" ry="4.00001"/>
<polygon fill="black" stroke="black" points="1188.35,-583.968 1199.25,-585.102 1193.09,-582.398 1197.84,-580.829 1197.84,-580.829 1197.84,-580.829 1193.09,-582.398 1196.43,-576.556 1188.35,-583.968 1188.35,-583.968"/>
</g>
<!-- Address -->
<g id="node23" class="node"><title>Address</title>
<ellipse fill="none" stroke="black" cx="2338" cy="-783" rx="50.2046" ry="18.3848"/>
<text text-anchor="middle" x="2338" y="-779.4" font-family="Times Roman,serif" font-size="14.00">Address</text>
</g>
<!-- PrintJob -->
<g id="node25" class="node"><title>PrintJob</title>
<ellipse fill="none" stroke="black" cx="2456" cy="-783" rx="50.2046" ry="18.3848"/>
<text text-anchor="middle" x="2456" y="-779.4" font-family="Times Roman,serif" font-size="14.00">PrintJob</text>
</g>
<!-- AccountType -->
<g id="node26" class="node"><title>AccountType</title>
<ellipse fill="none" stroke="black" cx="1263" cy="-247" rx="73.0388" ry="18.3848"/>
<text text-anchor="middle" x="1263" y="-243.4" font-family="Times Roman,serif" font-size="14.00">AccountType</text>
</g>
<!-- AccountType&#45;&gt;Account -->
<g id="edge82" class="edge"><title>AccountType&#45;&gt;Account</title>
<path fill="none" stroke="black" d="M1263,-220.073C1263,-213.449 1263,-206.332 1263,-199.63"/>
<ellipse fill="none" stroke="black" cx="1263" cy="-224.213" rx="4" ry="4"/>
<polygon fill="black" stroke="black" points="1263,-199.57 1267.5,-189.57 1263,-194.57 1263,-189.57 1263,-189.57 1263,-189.57 1263,-194.57 1258.5,-189.57 1263,-199.57 1263,-199.57"/>
</g>
<!-- Brand -->
<g id="node27" class="node"><title>Brand</title>
<ellipse fill="none" stroke="black" cx="1707" cy="-415" rx="41.0122" ry="18.3848"/>
<text text-anchor="middle" x="1707" y="-411.4" font-family="Times Roman,serif" font-size="14.00">Brand</text>
</g>
<!-- Brand&#45;&gt;BrandImage -->
<g id="edge86" class="edge"><title>Brand&#45;&gt;BrandImage</title>
<path fill="none" stroke="black" d="M1738.23,-394.736C1744.34,-389.784 1750.29,-384.127 1755,-378 1761.5,-369.536 1766.5,-358.966 1770.15,-349.361"/>
<ellipse fill="none" stroke="black" cx="1734.78" cy="-397.386" rx="4.00002" ry="4.00002"/>
<ellipse fill="black" stroke="black" cx="1771.56" cy="-345.357" rx="4.00001" ry="4.00001"/>
</g>
<!-- Brand&#45;&gt;Busines -->
<g id="edge84" class="edge"><title>Brand&#45;&gt;Busines</title>
<path fill="none" stroke="black" d="M1689.38,-390.444C1680.31,-377.801 1669.25,-362.374 1659.99,-349.466"/>
<ellipse fill="none" stroke="black" cx="1691.94" cy="-394.011" rx="4.00002" ry="4.00002"/>
<polygon fill="black" stroke="black" points="1659.74,-349.123 1657.57,-338.375 1656.83,-345.061 1653.91,-340.998 1653.91,-340.998 1653.91,-340.998 1656.83,-345.061 1650.26,-343.621 1659.74,-349.123 1659.74,-349.123"/>
<text text-anchor="middle" x="1716" y="-365.4" font-family="Times Roman,serif" font-size="14.00">businesses</text>
</g>
<!-- Employee -->
<g id="node28" class="node"><title>Employee</title>
<ellipse fill="none" stroke="black" cx="1478" cy="-323" rx="58.1882" ry="18.3848"/>
<text text-anchor="middle" x="1478" y="-319.4" font-family="Times Roman,serif" font-size="14.00">Employee</text>
</g>
<!-- Employee&#45;&gt;AccountHolder -->
<g id="edge88" class="edge"><title>Employee&#45;&gt;AccountHolder</title>
<path fill="none" stroke="black" d="M1470.64,-296.376C1468.58,-288.905 1466.34,-280.789 1464.28,-273.336"/>
<ellipse fill="none" stroke="black" cx="1471.74" cy="-300.358" rx="4.00001" ry="4.00001"/>
<ellipse fill="black" stroke="black" cx="1463.2" cy="-269.426" rx="4.00001" ry="4.00001"/>
</g>
<!-- EmployeeType -->
<g id="node29" class="node"><title>EmployeeType</title>
<ellipse fill="none" stroke="black" cx="1458" cy="-415" rx="80.8184" ry="18.3848"/>
<text text-anchor="middle" x="1458" y="-411.4" font-family="Times Roman,serif" font-size="14.00">EmployeeType</text>
</g>
<!-- EmployeeType&#45;&gt;Employee -->
<g id="edge90" class="edge"><title>EmployeeType&#45;&gt;Employee</title>
<path fill="none" stroke="black" d="M1456.06,-388.382C1456.04,-379.264 1456.72,-369.077 1459,-360 1459.81,-356.779 1460.94,-353.52 1462.25,-350.342"/>
<ellipse fill="none" stroke="black" cx="1456.16" cy="-392.393" rx="4" ry="4"/>
<polygon fill="black" stroke="black" points="1462.32,-350.207 1470.66,-343.089 1464.46,-345.687 1466.59,-341.166 1466.59,-341.166 1466.59,-341.166 1464.46,-345.687 1462.52,-339.243 1462.32,-350.207 1462.32,-350.207"/>
</g>
<!-- AnnouncementType -->
<g id="node30" class="node"><title>AnnouncementType</title>
<ellipse fill="none" stroke="black" cx="1990" cy="-783" rx="108.187" ry="18.3848"/>
<text text-anchor="middle" x="1990" y="-779.4" font-family="Times Roman,serif" font-size="14.00">AnnouncementType</text>
</g>
<!-- AnnouncementType&#45;&gt;Announcement -->
<g id="edge92" class="edge"><title>AnnouncementType&#45;&gt;Announcement</title>
<path fill="none" stroke="black" d="M1990,-755.926C1990,-741.224 1990,-723.041 1990,-708.044"/>
<ellipse fill="none" stroke="black" cx="1990" cy="-760.407" rx="4" ry="4"/>
<polygon fill="black" stroke="black" points="1990,-707.783 1994.5,-697.783 1990,-702.783 1990,-697.783 1990,-697.783 1990,-697.783 1990,-702.783 1985.5,-697.783 1990,-707.783 1990,-707.783"/>
</g>
<!-- Target -->
<g id="node31" class="node"><title>Target</title>
<ellipse fill="none" stroke="black" cx="1421" cy="-679" rx="41.9273" ry="18.3848"/>
<text text-anchor="middle" x="1421" y="-675.4" font-family="Times Roman,serif" font-size="14.00">Target</text>
</g>
<!-- Target&#45;&gt;Campaign -->
<g id="edge94" class="edge"><title>Target&#45;&gt;Campaign</title>
<path fill="none" stroke="black" d="M1387.39,-658.433C1355.29,-638.782 1307.04,-609.251 1274.12,-589.104"/>
<polygon fill="black" stroke="black" points="1387.79,-658.675 1393.97,-667.733 1392.06,-661.285 1396.32,-663.895 1396.32,-663.895 1396.32,-663.895 1392.06,-661.285 1398.67,-660.057 1387.79,-658.675 1387.79,-658.675"/>
<polygon fill="black" stroke="black" points="1273.79,-588.906 1267.61,-579.848 1269.53,-586.296 1265.26,-583.686 1265.26,-583.686 1265.26,-583.686 1269.53,-586.296 1262.92,-587.524 1273.79,-588.906 1273.79,-588.906"/>
</g>
<!-- Target&#45;&gt;User -->
<g id="edge96" class="edge"><title>Target&#45;&gt;User</title>
<path fill="none" stroke="black" d="M1408.05,-651.191C1394.01,-623.022 1369.6,-579.262 1340,-548 1292.57,-497.916 1223.47,-455.489 1182.69,-432.776"/>
<polygon fill="black" stroke="black" points="1408.19,-651.472 1408.53,-662.433 1410.38,-655.965 1412.57,-660.459 1412.57,-660.459 1412.57,-660.459 1410.38,-655.965 1416.62,-658.485 1408.19,-651.472 1408.19,-651.472"/>
<polygon fill="black" stroke="black" points="1182.46,-432.65 1175.86,-423.889 1178.08,-430.242 1173.7,-427.833 1173.7,-427.833 1173.7,-427.833 1178.08,-430.242 1171.53,-431.776 1182.46,-432.65 1182.46,-432.65"/>
</g>
<!-- Engagement&#45;&gt;QrCode -->
<g id="edge98" class="edge"><title>Engagement&#45;&gt;QrCode</title>
<path fill="none" stroke="black" d="M376.358,-468.891C382.51,-464.293 388.655,-459.241 394,-454 416.911,-431.532 412.26,-416.437 437,-396 518.338,-328.808 635.062,-283.391 699.586,-261.697"/>
<ellipse fill="none" stroke="black" cx="372.961" cy="-471.346" rx="4.00002" ry="4.00002"/>
<polygon fill="black" stroke="black" points="699.606,-261.691 710.514,-262.816 704.352,-260.117 709.098,-258.544 709.098,-258.544 709.098,-258.544 704.352,-260.117 707.682,-254.273 699.606,-261.691 699.606,-261.691"/>
</g>
<!-- Engagement&#45;&gt;Log -->
<g id="edge100" class="edge"><title>Engagement&#45;&gt;Log</title>
<path fill="none" stroke="black" d="M361.817,-465.921C371.037,-451.792 380,-433.341 380,-415 380,-415 380,-415 380,-95 380,-60.0836 627.471,-32.249 725.084,-22.6279"/>
<ellipse fill="none" stroke="black" cx="359.287" cy="-469.598" rx="4.00002" ry="4.00002"/>
<polygon fill="black" stroke="black" points="725.185,-22.6182 735.574,-26.1282 730.161,-22.1338 735.138,-21.6493 735.138,-21.6493 735.138,-21.6493 730.161,-22.1338 734.702,-17.1705 725.185,-22.6182 725.185,-22.6182"/>
</g>
<!-- ProgramType -->
<g id="node34" class="node"><title>ProgramType</title>
<ellipse fill="none" stroke="black" cx="701" cy="-783" rx="75.1594" ry="18.3848"/>
<text text-anchor="middle" x="701" y="-779.4" font-family="Times Roman,serif" font-size="14.00">ProgramType</text>
</g>
<!-- ProgramType&#45;&gt;Program -->
<g id="edge102" class="edge"><title>ProgramType&#45;&gt;Program</title>
<path fill="none" stroke="black" d="M699.959,-755.926C699.393,-741.224 698.694,-723.041 698.117,-708.044"/>
<ellipse fill="none" stroke="black" cx="700.131" cy="-760.41" rx="4" ry="4"/>
<polygon fill="black" stroke="black" points="698.107,-707.775 702.219,-697.61 697.915,-702.779 697.722,-697.783 697.722,-697.783 697.722,-697.783 697.915,-702.779 693.226,-697.956 698.107,-707.775 698.107,-707.775"/>
</g>
<!-- User&#45;&gt;AccountHolder -->
<g id="edge120" class="edge"><title>User&#45;&gt;AccountHolder</title>
<path fill="none" stroke="black" d="M1148.18,-388.248C1148.94,-362.943 1154.27,-325.702 1177,-304 1184.57,-296.776 1303.76,-274.319 1384.17,-259.843"/>
<ellipse fill="none" stroke="black" cx="1148.13" cy="-392.332" rx="4" ry="4"/>
<ellipse fill="black" stroke="black" cx="1388.38" cy="-259.088" rx="4.00001" ry="4.00001"/>
</g>
<!-- User&#45;&gt;Template -->
<g id="edge104" class="edge"><title>User&#45;&gt;Template</title>
<path fill="none" stroke="black" d="M1107.19,-411.697C1070.21,-407.532 1015.52,-398.277 972,-378 955.796,-370.45 939.945,-358.495 927.436,-347.657"/>
<ellipse fill="none" stroke="black" cx="1111.29" cy="-412.134" rx="4" ry="4"/>
<polygon fill="black" stroke="black" points="927.177,-347.425 922.73,-337.401 923.452,-344.089 919.728,-340.753 919.728,-340.753 919.728,-340.753 923.452,-344.089 916.726,-344.105 927.177,-347.425 927.177,-347.425"/>
</g>
<!-- User&#45;&gt;LegalId -->
<g id="edge106" class="edge"><title>User&#45;&gt;LegalId</title>
<path fill="none" stroke="black" d="M1169.71,-392.044C1181.78,-378.665 1197.01,-361.78 1209.39,-348.057"/>
<ellipse fill="none" stroke="black" cx="1166.9" cy="-395.156" rx="4.00002" ry="4.00002"/>
<polygon fill="black" stroke="black" points="1209.61,-347.817 1219.65,-343.407 1212.96,-344.105 1216.31,-340.392 1216.31,-340.392 1216.31,-340.392 1212.96,-344.105 1212.97,-337.378 1209.61,-347.817 1209.61,-347.817"/>
</g>
<!-- User&#45;&gt;QrCode -->
<g id="edge118" class="edge"><title>User&#45;&gt;QrCode</title>
<path fill="none" stroke="black" d="M1107.78,-409.871C1064.92,-404.051 996.106,-393.333 938,-378 891.922,-365.841 876.929,-368.013 837,-342 807.971,-323.088 781.59,-292.997 765.004,-271.757"/>
<ellipse fill="none" stroke="black" cx="1111.77" cy="-410.404" rx="4.00001" ry="4.00001"/>
<ellipse fill="black" stroke="black" cx="762.406" cy="-268.37" rx="4.00002" ry="4.00002"/>
</g>
<!-- User&#45;&gt;Employee -->
<g id="edge114" class="edge"><title>User&#45;&gt;Employee</title>
<path fill="none" stroke="black" d="M1182.2,-399.652C1185.48,-398.34 1188.78,-397.097 1192,-396 1203.86,-391.952 1398.89,-345.21 1411,-342 1415.58,-340.786 1420.33,-339.499 1425.08,-338.189"/>
<ellipse fill="none" stroke="black" cx="1178.32" cy="-401.265" rx="4.00002" ry="4.00002"/>
<polygon fill="black" stroke="black" points="1425.18,-338.164 1436.02,-339.82 1429.99,-336.824 1434.81,-335.485 1434.81,-335.485 1434.81,-335.485 1429.99,-336.824 1433.61,-331.149 1425.18,-338.164 1425.18,-338.164"/>
</g>
<!-- User&#45;&gt;Log -->
<g id="edge116" class="edge"><title>User&#45;&gt;Log</title>
<path fill="none" stroke="black" d="M1107.51,-409.773C1059.22,-401.098 986,-378.753 986,-323 986,-323 986,-323 986,-95 986,-56.7001 866.233,-33.6615 802.637,-24.1277"/>
<ellipse fill="none" stroke="black" cx="1111.68" cy="-410.478" rx="4.00001" ry="4.00001"/>
<polygon fill="black" stroke="black" points="802.464,-24.1026 793.217,-18.2078 797.516,-23.3817 792.568,-22.6608 792.568,-22.6608 792.568,-22.6608 797.516,-23.3817 791.919,-27.1137 802.464,-24.1026 802.464,-24.1026"/>
</g>
<!-- User&#45;&gt;Follower -->
<g id="edge108" class="edge"><title>User&#45;&gt;Follower</title>
<path fill="none" stroke="black" d="M1182.78,-399.463C1217.14,-383.654 1270.46,-359.127 1307.41,-342.133"/>
<ellipse fill="none" stroke="black" cx="1178.78" cy="-401.301" rx="4.00002" ry="4.00002"/>
<polygon fill="black" stroke="black" points="1307.81,-341.948 1318.77,-341.857 1312.35,-339.858 1316.89,-337.769 1316.89,-337.769 1316.89,-337.769 1312.35,-339.858 1315.01,-333.68 1307.81,-341.948 1307.81,-341.948"/>
</g>
<!-- Invitation -->
<g id="node38" class="node"><title>Invitation</title>
<ellipse fill="none" stroke="black" cx="1072" cy="-323" rx="58.1882" ry="18.3848"/>
<text text-anchor="middle" x="1072" y="-319.4" font-family="Times Roman,serif" font-size="14.00">Invitation</text>
</g>
<!-- User&#45;&gt;Invitation -->
<g id="edge112" class="edge"><title>User&#45;&gt;Invitation</title>
<path fill="none" stroke="black" d="M1129.5,-391.705C1118.6,-378.677 1104.98,-362.408 1093.74,-348.971"/>
<ellipse fill="none" stroke="black" cx="1132.31" cy="-395.058" rx="4.00002" ry="4.00002"/>
<polygon fill="black" stroke="black" points="1093.5,-348.694 1090.54,-338.137 1090.3,-344.86 1087.09,-341.025 1087.09,-341.025 1087.09,-341.025 1090.3,-344.86 1083.64,-343.914 1093.5,-348.694 1093.5,-348.694"/>
</g>
<!-- User&#45;&gt;Busines -->
<g id="edge110" class="edge"><title>User&#45;&gt;Busines</title>
<path fill="none" stroke="black" d="M1184.03,-398.621C1186.69,-397.652 1189.37,-396.763 1192,-396 1243.79,-380.968 1258.68,-386.117 1312,-378 1415.59,-362.228 1441.8,-360.176 1545,-342 1558.87,-339.557 1573.82,-336.705 1587.7,-333.964"/>
<polygon fill="black" stroke="black" points="1183.8,-398.711 1172.84,-398.215 1179.15,-400.554 1174.5,-402.398 1174.5,-402.398 1174.5,-402.398 1179.15,-400.554 1176.16,-406.581 1183.8,-398.711 1183.8,-398.711"/>
<polygon fill="black" stroke="black" points="1587.78,-333.948 1598.46,-336.408 1592.68,-332.972 1597.58,-331.995 1597.58,-331.995 1597.58,-331.995 1592.68,-332.972 1596.71,-327.582 1587.78,-333.948 1587.78,-333.948"/>
<text text-anchor="middle" x="1469" y="-365.4" font-family="Times Roman,serif" font-size="14.00">businesses</text>
</g>
<!-- MeasurementType&#45;&gt;Campaign -->
<g id="edge122" class="edge"><title>MeasurementType&#45;&gt;Campaign</title>
<path fill="none" stroke="black" d="M1254.79,-652.452C1251.43,-635.378 1247.07,-613.198 1243.64,-595.714"/>
<ellipse fill="none" stroke="black" cx="1255.6" cy="-656.58" rx="4.00001" ry="4.00001"/>
<polygon fill="black" stroke="black" points="1243.57,-595.334 1246.05,-584.655 1242.6,-590.428 1241.64,-585.522 1241.64,-585.522 1241.64,-585.522 1242.6,-590.428 1237.22,-586.389 1243.57,-595.334 1243.57,-595.334"/>
</g>
<!-- MeasurementType&#45;&gt;Account -->
<g id="edge124" class="edge"><title>MeasurementType&#45;&gt;Account</title>
<path fill="none" stroke="black" d="M1281.59,-654.118C1302.76,-626.534 1328.91,-581.518 1307,-548 1275.81,-500.271 868.193,-389.729 837,-342 827.761,-327.863 826.99,-317.603 837,-304 937.983,-166.778 1040.45,-241.051 1203,-190 1206.82,-188.8 1210.77,-187.555 1214.75,-186.301"/>
<ellipse fill="none" stroke="black" cx="1279.1" cy="-657.264" rx="4.00002" ry="4.00002"/>
<polygon fill="black" stroke="black" points="1215.06,-186.202 1225.95,-187.481 1219.83,-184.696 1224.6,-183.19 1224.6,-183.19 1224.6,-183.19 1219.83,-184.696 1223.24,-178.899 1215.06,-186.202 1215.06,-186.202"/>
</g>
<!-- PlaceTypes -->
<g id="node39" class="node"><title>PlaceTypes</title>
<ellipse fill="none" stroke="black" cx="544" cy="-783" rx="63.8479" ry="18.3848"/>
<text text-anchor="middle" x="544" y="-779.4" font-family="Times Roman,serif" font-size="14.00">PlaceTypes</text>
</g>
<!-- PlaceTypes&#45;&gt;Place -->
<g id="edge126" class="edge"><title>PlaceTypes&#45;&gt;Place</title>
<path fill="none" stroke="black" d="M544,-755.926C544,-741.224 544,-723.041 544,-708.044"/>
<ellipse fill="none" stroke="black" cx="544" cy="-760.407" rx="4" ry="4"/>
<polygon fill="black" stroke="black" points="544,-707.783 548.5,-697.783 544,-702.783 544,-697.783 544,-697.783 544,-697.783 544,-702.783 539.5,-697.783 544,-707.783 544,-707.783"/>
</g>
<!-- Item&#45;&gt;Place -->
<g id="edge128" class="edge"><title>Item&#45;&gt;Place</title>
<path fill="none" stroke="black" d="M470.386,-442.919C461.581,-464.383 446.471,-493.132 424,-510 376.919,-545.342 210.226,-489.278 275,-586 300.453,-624.008 429.79,-655.683 499.435,-670.305"/>
<polygon fill="black" stroke="black" points="470.483,-442.668 478.295,-434.972 472.291,-438.007 474.099,-433.345 474.099,-433.345 474.099,-433.345 472.291,-438.007 469.904,-431.718 470.483,-442.668 470.483,-442.668"/>
<polygon fill="black" stroke="black" points="499.466,-670.312 508.347,-676.744 504.362,-671.325 509.258,-672.338 509.258,-672.338 509.258,-672.338 504.362,-671.325 510.17,-667.931 499.466,-670.312 499.466,-670.312"/>
</g>
</g>
</svg>
