<?xml version="1.0" encoding="UTF-8" standalone="no"?>
<!DOCTYPE svg PUBLIC "-//W3C//DTD SVG 1.1//EN"
 "http://www.w3.org/Graphics/SVG/1.1/DTD/svg11.dtd">
<!-- Generated by graphviz version 2.26.3 (20100126.1600)
 -->
<!-- Title: models_diagram Pages: 1 -->
<svg width="3691pt" height="574pt"
 viewBox="0.00 0.00 3691.00 574.00" xmlns="http://www.w3.org/2000/svg" xmlns:xlink="http://www.w3.org/1999/xlink">
<g id="graph1" class="graph" transform="scale(1 1) rotate(0) translate(4 570)">
<title>models_diagram</title>
<polygon fill="white" stroke="white" points="-4,5 -4,-570 3688,-570 3688,5 -4,5"/>
<!-- _diagram_info -->
<g id="node1" class="node"><title>_diagram_info</title>
<text text-anchor="start" x="8" y="-549.8" font-family="Times Roman,serif" font-size="13.00">Models diagram</text>
<text text-anchor="start" x="8" y="-532.8" font-family="Times Roman,serif" font-size="13.00">Date: Apr 21 2011 &#45; 17:27</text>
<text text-anchor="start" x="8" y="-515.8" font-family="Times Roman,serif" font-size="13.00">Migration version: 20110421150532</text>
<text text-anchor="start" x="8" y="-498.8" font-family="Times Roman,serif" font-size="13.00">Generated by RailRoady 1.0.1</text>
<text text-anchor="start" x="8" y="-481.8" font-family="Times Roman,serif" font-size="13.00">http://railroady.prestonlee.com</text>
</g>
<!-- OpenHour -->
<g id="node2" class="node"><title>OpenHour</title>
<ellipse fill="none" stroke="black" cx="329" cy="-519" rx="61.0181" ry="18.3848"/>
<text text-anchor="middle" x="329" y="-515.4" font-family="Times Roman,serif" font-size="14.00">OpenHour</text>
</g>
<!-- AccountHolder -->
<g id="node3" class="node"><title>AccountHolder</title>
<ellipse fill="none" stroke="black" cx="495" cy="-323" rx="82.2301" ry="18.3848"/>
<text text-anchor="middle" x="495" y="-319.4" font-family="Times Roman,serif" font-size="14.00">AccountHolder</text>
</g>
<!-- Account -->
<g id="node15" class="node"><title>Account</title>
<ellipse fill="none" stroke="black" cx="574" cy="-247" rx="50.9117" ry="18.3848"/>
<text text-anchor="middle" x="574" y="-243.4" font-family="Times Roman,serif" font-size="14.00">Account</text>
</g>
<!-- AccountHolder&#45;&gt;Account -->
<g id="edge2" class="edge"><title>AccountHolder&#45;&gt;Account</title>
<path fill="none" stroke="black" d="M520.006,-298.943C529.099,-290.196 539.382,-280.303 548.516,-271.517"/>
<ellipse fill="none" stroke="black" cx="517.006" cy="-301.829" rx="4.00002" ry="4.00002"/>
<polygon fill="black" stroke="black" points="548.66,-271.378 558.986,-267.688 552.263,-267.911 555.867,-264.445 555.867,-264.445 555.867,-264.445 552.263,-267.911 552.747,-261.202 548.66,-271.378 548.66,-271.378"/>
</g>
<!-- LegalType -->
<g id="node4" class="node"><title>LegalType</title>
<ellipse fill="none" stroke="black" cx="862" cy="-171" rx="60.1041" ry="18.3848"/>
<text text-anchor="middle" x="862" y="-167.4" font-family="Times Roman,serif" font-size="14.00">LegalType</text>
</g>
<!-- LegalId -->
<g id="node13" class="node"><title>LegalId</title>
<ellipse fill="none" stroke="black" cx="862" cy="-95" rx="46.1672" ry="18.3848"/>
<text text-anchor="middle" x="862" y="-91.4" font-family="Times Roman,serif" font-size="14.00">LegalId</text>
</g>
<!-- LegalType&#45;&gt;LegalId -->
<g id="edge4" class="edge"><title>LegalType&#45;&gt;LegalId</title>
<path fill="none" stroke="black" d="M862,-144.073C862,-137.449 862,-130.332 862,-123.63"/>
<ellipse fill="none" stroke="black" cx="862" cy="-148.213" rx="4" ry="4"/>
<polygon fill="black" stroke="black" points="862,-123.57 866.5,-113.57 862,-118.57 862,-113.57 862,-113.57 862,-113.57 862,-118.57 857.5,-113.57 862,-123.57 862,-123.57"/>
</g>
<!-- LogGroup -->
<g id="node5" class="node"><title>LogGroup</title>
<ellipse fill="none" stroke="black" cx="2294" cy="-519" rx="58.8978" ry="18.3848"/>
<text text-anchor="middle" x="2294" y="-515.4" font-family="Times Roman,serif" font-size="14.00">LogGroup</text>
</g>
<!-- Log -->
<g id="node30" class="node"><title>Log</title>
<ellipse fill="none" stroke="black" cx="2366" cy="-415" rx="28.9914" ry="18.3848"/>
<text text-anchor="middle" x="2366" y="-411.4" font-family="Times Roman,serif" font-size="14.00">Log</text>
</g>
<!-- LogGroup&#45;&gt;Log -->
<g id="edge6" class="edge"><title>LogGroup&#45;&gt;Log</title>
<path fill="none" stroke="black" d="M2311.18,-494.177C2322.35,-478.043 2336.89,-457.053 2348.18,-440.739"/>
<ellipse fill="none" stroke="black" cx="2308.82" cy="-497.596" rx="4.00002" ry="4.00002"/>
<polygon fill="black" stroke="black" points="2348.39,-440.439 2357.78,-434.779 2351.23,-436.328 2354.08,-432.217 2354.08,-432.217 2354.08,-432.217 2351.23,-436.328 2350.38,-429.656 2348.39,-440.439 2348.39,-440.439"/>
</g>
<!-- Template -->
<g id="node6" class="node"><title>Template</title>
<ellipse fill="none" stroke="black" cx="608" cy="-95" rx="55.8614" ry="18.3848"/>
<text text-anchor="middle" x="608" y="-91.4" font-family="Times Roman,serif" font-size="14.00">Template</text>
</g>
<!-- QrCode -->
<g id="node22" class="node"><title>QrCode</title>
<ellipse fill="none" stroke="black" cx="1384" cy="-19" rx="48.0833" ry="18.3848"/>
<text text-anchor="middle" x="1384" y="-15.4" font-family="Times Roman,serif" font-size="14.00">QrCode</text>
</g>
<!-- Template&#45;&gt;QrCode -->
<g id="edge8" class="edge"><title>Template&#45;&gt;QrCode</title>
<path fill="none" stroke="black" d="M655.721,-79.8521C661.501,-78.3738 667.356,-77.0398 673,-76 798.025,-52.9662 1179.86,-30.2141 1326.14,-22.1088"/>
<ellipse fill="none" stroke="black" cx="651.776" cy="-80.9085" rx="4.00001" ry="4.00001"/>
<polygon fill="black" stroke="black" points="1326.27,-22.1016 1336.51,-26.0439 1331.27,-21.8262 1336.26,-21.5508 1336.26,-21.5508 1336.26,-21.5508 1331.27,-21.8262 1336.01,-17.0576 1326.27,-22.1016 1326.27,-22.1016"/>
</g>
<!-- Transaction -->
<g id="node7" class="node"><title>Transaction</title>
<ellipse fill="none" stroke="black" cx="2438" cy="-519" rx="67.1751" ry="18.3848"/>
<text text-anchor="middle" x="2438" y="-515.4" font-family="Times Roman,serif" font-size="14.00">Transaction</text>
</g>
<!-- Transaction&#45;&gt;Log -->
<g id="edge10" class="edge"><title>Transaction&#45;&gt;Log</title>
<path fill="none" stroke="black" d="M2420.47,-493.685C2409.3,-477.539 2394.86,-456.685 2383.66,-440.503"/>
<ellipse fill="none" stroke="black" cx="2422.85" cy="-497.118" rx="4.00002" ry="4.00002"/>
<polygon fill="black" stroke="black" points="2383.5,-440.275 2381.51,-429.492 2380.65,-436.164 2377.81,-432.053 2377.81,-432.053 2377.81,-432.053 2380.65,-436.164 2374.11,-434.615 2383.5,-440.275 2383.5,-440.275"/>
</g>
<!-- Reward -->
<g id="node8" class="node"><title>Reward</title>
<ellipse fill="none" stroke="black" cx="808" cy="-247" rx="48.7904" ry="18.3848"/>
<text text-anchor="middle" x="808" y="-243.4" font-family="Times Roman,serif" font-size="14.00">Reward</text>
</g>
<!-- User -->
<g id="node33" class="node"><title>User</title>
<ellipse fill="none" stroke="black" cx="635" cy="-171" rx="33.9411" ry="18.3848"/>
<text text-anchor="middle" x="635" y="-167.4" font-family="Times Roman,serif" font-size="14.00">User</text>
</g>
<!-- Reward&#45;&gt;User -->
<g id="edge14" class="edge"><title>Reward&#45;&gt;User</title>
<path fill="none" stroke="black" d="M766.556,-228.864C741.016,-217.679 707.6,-203.029 678,-190 675.712,-188.993 673.357,-187.955 670.982,-186.908"/>
<polygon fill="black" stroke="black" points="766.774,-228.96 774.129,-237.093 771.354,-230.965 775.934,-232.971 775.934,-232.971 775.934,-232.971 771.354,-230.965 777.739,-228.848 766.774,-228.96 766.774,-228.96"/>
<polygon fill="black" stroke="black" points="670.981,-186.908 663.649,-178.753 666.406,-184.889 661.832,-182.87 661.832,-182.87 661.832,-182.87 666.406,-184.889 660.015,-186.987 670.981,-186.908 670.981,-186.908"/>
</g>
<!-- Item -->
<g id="node37" class="node"><title>Item</title>
<ellipse fill="none" stroke="black" cx="1169" cy="-171" rx="33.9411" ry="18.3848"/>
<text text-anchor="middle" x="1169" y="-167.4" font-family="Times Roman,serif" font-size="14.00">Item</text>
</g>
<!-- Reward&#45;&gt;Item -->
<g id="edge12" class="edge"><title>Reward&#45;&gt;Item</title>
<path fill="none" stroke="black" d="M860.666,-235.912C932.72,-220.743 1060.61,-193.819 1126.76,-179.893"/>
<polygon fill="black" stroke="black" points="860.615,-235.923 849.902,-233.58 855.722,-236.953 850.829,-237.983 850.829,-237.983 850.829,-237.983 855.722,-236.953 851.756,-242.387 860.615,-235.923 860.615,-235.923"/>
<polygon fill="black" stroke="black" points="1127.04,-179.834 1137.75,-182.177 1131.93,-178.804 1136.82,-177.774 1136.82,-177.774 1136.82,-177.774 1131.93,-178.804 1135.9,-173.37 1127.04,-179.834 1127.04,-179.834"/>
</g>
<!-- Campaign -->
<g id="node9" class="node"><title>Campaign</title>
<ellipse fill="none" stroke="black" cx="655" cy="-323" rx="60.1041" ry="18.3848"/>
<text text-anchor="middle" x="655" y="-319.4" font-family="Times Roman,serif" font-size="14.00">Campaign</text>
</g>
<!-- Campaign&#45;&gt;Reward -->
<g id="edge20" class="edge"><title>Campaign&#45;&gt;Reward</title>
<path fill="none" stroke="black" d="M693.867,-303.694C716.888,-292.258 745.966,-277.815 769.009,-266.368"/>
<ellipse fill="none" stroke="black" cx="690.284" cy="-305.473" rx="4.00002" ry="4.00002"/>
<polygon fill="black" stroke="black" points="769.202,-266.272 780.16,-265.854 773.68,-264.048 778.158,-261.823 778.158,-261.823 778.158,-261.823 773.68,-264.048 776.156,-257.793 769.202,-266.272 769.202,-266.272"/>
</g>
<!-- Campaign&#45;&gt;Account -->
<g id="edge16" class="edge"><title>Campaign&#45;&gt;Account</title>
<path fill="none" stroke="black" d="M630.085,-299.623C620.491,-290.621 609.52,-280.328 599.84,-271.245"/>
<ellipse fill="none" stroke="black" cx="633.296" cy="-302.636" rx="4.00002" ry="4.00002"/>
<polygon fill="black" stroke="black" points="599.698,-271.112 595.485,-260.988 596.052,-267.691 592.405,-264.269 592.405,-264.269 592.405,-264.269 596.052,-267.691 589.326,-267.551 599.698,-271.112 599.698,-271.112"/>
</g>
<!-- Engagement -->
<g id="node29" class="node"><title>Engagement</title>
<ellipse fill="none" stroke="black" cx="1188" cy="-247" rx="73.0388" ry="18.3848"/>
<text text-anchor="middle" x="1188" y="-243.4" font-family="Times Roman,serif" font-size="14.00">Engagement</text>
</g>
<!-- Campaign&#45;&gt;Engagement -->
<g id="edge18" class="edge"><title>Campaign&#45;&gt;Engagement</title>
<path fill="none" stroke="black" d="M717.611,-314.072C816.552,-299.964 1008.63,-272.577 1114.15,-257.53"/>
<ellipse fill="none" stroke="black" cx="713.495" cy="-314.659" rx="4.00001" ry="4.00001"/>
<polygon fill="black" stroke="black" points="1114.19,-257.525 1124.72,-260.568 1119.14,-256.819 1124.09,-256.113 1124.09,-256.113 1124.09,-256.113 1119.14,-256.819 1123.45,-251.658 1114.19,-257.525 1114.19,-257.525"/>
</g>
<!-- Newsletter -->
<g id="node10" class="node"><title>Newsletter</title>
<ellipse fill="none" stroke="black" cx="2589" cy="-519" rx="65.7609" ry="18.3848"/>
<text text-anchor="middle" x="2589" y="-515.4" font-family="Times Roman,serif" font-size="14.00">Newsletter</text>
</g>
<!-- Amenity -->
<g id="node11" class="node"><title>Amenity</title>
<ellipse fill="none" stroke="black" cx="759" cy="-519" rx="51.8276" ry="18.3848"/>
<text text-anchor="middle" x="759" y="-515.4" font-family="Times Roman,serif" font-size="14.00">Amenity</text>
</g>
<!-- Place -->
<g id="node16" class="node"><title>Place</title>
<ellipse fill="none" stroke="black" cx="1366" cy="-415" rx="36.977" ry="18.3848"/>
<text text-anchor="middle" x="1366" y="-411.4" font-family="Times Roman,serif" font-size="14.00">Place</text>
</g>
<!-- Amenity&#45;&gt;Place -->
<g id="edge22" class="edge"><title>Amenity&#45;&gt;Place</title>
<path fill="none" stroke="black" d="M815.899,-509.251C935.687,-488.727 1211.78,-441.422 1320.67,-422.767"/>
<polygon fill="black" stroke="black" points="815.73,-509.28 805.114,-506.534 810.802,-510.125 805.873,-510.969 805.873,-510.969 805.873,-510.969 810.802,-510.125 806.633,-515.404 815.73,-509.28 815.73,-509.28"/>
<polygon fill="black" stroke="black" points="1320.82,-422.742 1331.43,-425.488 1325.74,-421.897 1330.67,-421.053 1330.67,-421.053 1330.67,-421.053 1325.74,-421.897 1329.91,-416.618 1320.82,-422.742 1320.82,-422.742"/>
</g>
<!-- Category -->
<g id="node12" class="node"><title>Category</title>
<ellipse fill="none" stroke="black" cx="2063" cy="-415" rx="56.0679" ry="18.3848"/>
<text text-anchor="middle" x="2063" y="-411.4" font-family="Times Roman,serif" font-size="14.00">Category</text>
</g>
<!-- Busines -->
<g id="node50" class="node"><title>Busines</title>
<ellipse fill="none" stroke="black" cx="2096" cy="-323" rx="48.9975" ry="18.3848"/>
<text text-anchor="middle" x="2096" y="-319.4" font-family="Times Roman,serif" font-size="14.00">Busines</text>
</g>
<!-- Category&#45;&gt;Busines -->
<g id="edge24" class="edge"><title>Category&#45;&gt;Busines</title>
<path fill="none" stroke="black" d="M2060.53,-386.225C2060.71,-377.558 2061.86,-368.18 2065,-360 2066.56,-355.952 2068.75,-352.028 2071.26,-348.345"/>
<polygon fill="black" stroke="black" points="2060.53,-386.319 2056.22,-396.404 2060.63,-391.318 2060.72,-396.317 2060.72,-396.317 2060.72,-396.317 2060.63,-391.318 2065.22,-396.231 2060.53,-386.319 2060.53,-386.319"/>
<polygon fill="black" stroke="black" points="2071.41,-348.144 2081.1,-342.994 2074.48,-344.191 2077.54,-340.238 2077.54,-340.238 2077.54,-340.238 2074.48,-344.191 2073.98,-337.483 2071.41,-348.144 2071.41,-348.144"/>
<text text-anchor="middle" x="2102" y="-365.4" font-family="Times Roman,serif" font-size="14.00">businesses</text>
</g>
<!-- Image -->
<g id="node14" class="node"><title>Image</title>
<ellipse fill="none" stroke="black" cx="2278" cy="-415" rx="41.2167" ry="18.3848"/>
<text text-anchor="middle" x="2278" y="-411.4" font-family="Times Roman,serif" font-size="14.00">Image</text>
</g>
<!-- BrandImage -->
<g id="node19" class="node"><title>BrandImage</title>
<ellipse fill="none" stroke="black" cx="2265" cy="-323" rx="70.2092" ry="18.3848"/>
<text text-anchor="middle" x="2265" y="-319.4" font-family="Times Roman,serif" font-size="14.00">BrandImage</text>
</g>
<!-- Image&#45;&gt;BrandImage -->
<g id="edge66" class="edge"><title>Image&#45;&gt;BrandImage</title>
<path fill="none" stroke="black" d="M2275.37,-396.382C2273.11,-380.421 2269.88,-357.543 2267.63,-341.59"/>
</g>
<!-- Report -->
<g id="node52" class="node"><title>Report</title>
<ellipse fill="none" stroke="black" cx="731" cy="-171" rx="43.8406" ry="18.3848"/>
<text text-anchor="middle" x="731" y="-167.4" font-family="Times Roman,serif" font-size="14.00">Report</text>
</g>
<!-- Account&#45;&gt;Report -->
<g id="edge26" class="edge"><title>Account&#45;&gt;Report</title>
<path fill="none" stroke="black" d="M612.192,-228.512C636.741,-216.628 668.508,-201.251 693.016,-189.387"/>
<ellipse fill="none" stroke="black" cx="608.244" cy="-230.423" rx="4.00002" ry="4.00002"/>
<polygon fill="black" stroke="black" points="693.023,-189.384 703.984,-189.077 697.523,-187.205 702.024,-185.027 702.024,-185.027 702.024,-185.027 697.523,-187.205 700.063,-180.976 693.023,-189.384 693.023,-189.384"/>
</g>
<!-- Place&#45;&gt;Reward -->
<g id="edge38" class="edge"><title>Place&#45;&gt;Reward</title>
<path fill="none" stroke="black" d="M1318.89,-412.476C1189.11,-405.039 833.708,-381.239 800,-342 784.429,-323.874 788.965,-295.977 795.882,-275.096"/>
<polygon fill="black" stroke="black" points="1318.95,-412.479 1328.68,-417.537 1323.94,-412.762 1328.93,-413.044 1328.93,-413.044 1328.93,-413.044 1323.94,-412.762 1329.18,-408.551 1318.95,-412.479 1318.95,-412.479"/>
<polygon fill="black" stroke="black" points="795.962,-274.876 803.618,-267.025 797.677,-270.179 799.391,-265.482 799.391,-265.482 799.391,-265.482 797.677,-270.179 795.164,-263.939 795.962,-274.876 795.962,-274.876"/>
</g>
<!-- Place&#45;&gt;QrCode -->
<g id="edge42" class="edge"><title>Place&#45;&gt;QrCode</title>
<path fill="none" stroke="black" d="M1407.59,-405.389C1436.29,-398.478 1475.21,-388.548 1509,-378 1531.15,-371.086 1535.8,-366.753 1558,-360 1590.38,-350.148 1607.09,-364.919 1632,-342 1651.65,-323.919 1651,-311.704 1651,-285 1651,-285 1651,-285 1651,-95 1651,-51.7582 1519.81,-31.7959 1441.35,-23.7236"/>
<ellipse fill="none" stroke="black" cx="1403.67" cy="-406.327" rx="4.00001" ry="4.00001"/>
<polygon fill="black" stroke="black" points="1441.07,-23.6957 1431.56,-18.2293 1436.1,-23.2015 1431.12,-22.7072 1431.12,-22.7072 1431.12,-22.7072 1436.1,-23.2015 1430.67,-27.1852 1441.07,-23.6957 1441.07,-23.6957"/>
</g>
<!-- Place&#45;&gt;Engagement -->
<g id="edge36" class="edge"><title>Place&#45;&gt;Engagement</title>
<path fill="none" stroke="black" d="M1344.09,-390.015C1340.93,-386.08 1337.8,-381.992 1335,-378 1313.15,-346.863 1319.23,-330.558 1292,-304 1276.29,-288.681 1255.64,-276.239 1236.88,-266.933"/>
<polygon fill="black" stroke="black" points="1344.16,-390.097 1347.08,-400.668 1347.35,-393.947 1350.54,-397.797 1350.54,-397.797 1350.54,-397.797 1347.35,-393.947 1354.01,-394.926 1344.16,-390.097 1344.16,-390.097"/>
<polygon fill="black" stroke="black" points="1236.88,-266.931 1229.8,-258.558 1232.37,-264.774 1227.86,-262.617 1227.86,-262.617 1227.86,-262.617 1232.37,-264.774 1225.92,-266.677 1236.88,-266.931 1236.88,-266.931"/>
</g>
<!-- ActsAsTaggableOn::Tagging -->
<g id="node54" class="node"><title>ActsAsTaggableOn::Tagging</title>
<ellipse fill="none" stroke="black" cx="1823" cy="-323" rx="144.25" ry="18.3848"/>
<text text-anchor="middle" x="1823" y="-319.4" font-family="Times Roman,serif" font-size="14.00">ActsAsTaggableOn::Tagging</text>
</g>
<!-- Place&#45;&gt;ActsAsTaggableOn::Tagging -->
<g id="edge28" class="edge"><title>Place&#45;&gt;ActsAsTaggableOn::Tagging</title>
<path fill="none" stroke="black" d="M1409.53,-408.257C1434.99,-404.42 1467.78,-399.664 1497,-396 1572.39,-386.545 1592.89,-394.745 1667,-378 1702.77,-369.919 1741.66,-356.217 1771.67,-344.511"/>
<ellipse fill="none" stroke="black" cx="1405.49" cy="-408.869" rx="4.00001" ry="4.00001"/>
<polygon fill="black" stroke="black" points="1771.78,-344.466 1782.74,-344.976 1776.43,-342.628 1781.08,-340.791 1781.08,-340.791 1781.08,-340.791 1776.43,-342.628 1779.43,-336.606 1771.78,-344.466 1771.78,-344.466"/>
<text text-anchor="middle" x="1758.5" y="-365.4" font-family="Times Roman,serif" font-size="14.00">taggings</text>
</g>
<!-- Place&#45;&gt;ActsAsTaggableOn::Tagging -->
<g id="edge32" class="edge"><title>Place&#45;&gt;ActsAsTaggableOn::Tagging</title>
<path fill="none" stroke="black" d="M1410.18,-409.255C1457.86,-402.549 1530.28,-390.741 1555,-378 1565.34,-372.671 1563.54,-365.09 1574,-360 1586.54,-353.898 1648.45,-344.685 1707.4,-336.979"/>
<ellipse fill="none" stroke="black" cx="1406.14" cy="-409.817" rx="4.00001" ry="4.00001"/>
<polygon fill="black" stroke="black" points="1707.67,-336.944 1718.17,-340.12 1712.63,-336.301 1717.59,-335.658 1717.59,-335.658 1717.59,-335.658 1712.63,-336.301 1717.01,-331.195 1707.67,-336.944 1707.67,-336.944"/>
<text text-anchor="middle" x="1618.5" y="-365.4" font-family="Times Roman,serif" font-size="14.00">tag_taggings</text>
</g>
<!-- ActsAsTaggableOn::Tag -->
<g id="node56" class="node"><title>ActsAsTaggableOn::Tag</title>
<ellipse fill="none" stroke="black" cx="1500" cy="-323" rx="123.243" ry="18.3848"/>
<text text-anchor="middle" x="1500" y="-319.4" font-family="Times Roman,serif" font-size="14.00">ActsAsTaggableOn::Tag</text>
</g>
<!-- Place&#45;&gt;ActsAsTaggableOn::Tag -->
<g id="edge30" class="edge"><title>Place&#45;&gt;ActsAsTaggableOn::Tag</title>
<path fill="none" stroke="black" d="M1393.99,-392.971C1413.23,-377.834 1435.42,-360.391 1436,-360 1443.03,-355.243 1450.7,-350.474 1458.2,-346.018"/>
<polygon fill="black" stroke="black" points="1393.86,-393.078 1383.21,-395.724 1389.93,-396.169 1386,-399.261 1386,-399.261 1386,-399.261 1389.93,-396.169 1388.78,-402.798 1393.86,-393.078 1393.86,-393.078"/>
<polygon fill="black" stroke="black" points="1458.26,-345.987 1469.16,-344.837 1462.58,-343.468 1466.89,-340.95 1466.89,-340.95 1466.89,-340.95 1462.58,-343.468 1464.63,-337.062 1458.26,-345.987 1458.26,-345.987"/>
<text text-anchor="middle" x="1470.5" y="-365.4" font-family="Times Roman,serif" font-size="14.00">base_tags</text>
</g>
<!-- Place&#45;&gt;ActsAsTaggableOn::Tag -->
<g id="edge34" class="edge"><title>Place&#45;&gt;ActsAsTaggableOn::Tag</title>
<path fill="none" stroke="black" d="M1368.27,-386.517C1370.34,-377.046 1374.13,-367.112 1381,-360 1387.56,-353.207 1403.48,-346.745 1421.61,-341.178"/>
<polygon fill="black" stroke="black" points="1368.26,-386.591 1362.19,-395.727 1367.45,-391.525 1366.64,-396.458 1366.64,-396.458 1366.64,-396.458 1367.45,-391.525 1371.08,-397.189 1368.26,-386.591 1368.26,-386.591"/>
<polygon fill="black" stroke="black" points="1421.66,-341.163 1432.53,-342.669 1426.46,-339.757 1431.26,-338.351 1431.26,-338.351 1431.26,-338.351 1426.46,-339.757 1430,-334.033 1421.66,-341.163 1421.66,-341.163"/>
<text text-anchor="middle" x="1396" y="-365.4" font-family="Times Roman,serif" font-size="14.00">tags</text>
</g>
<!-- UserAction -->
<g id="node62" class="node"><title>UserAction</title>
<ellipse fill="none" stroke="black" cx="874" cy="-323" rx="65.0538" ry="18.3848"/>
<text text-anchor="middle" x="874" y="-319.4" font-family="Times Roman,serif" font-size="14.00">UserAction</text>
</g>
<!-- Place&#45;&gt;UserAction -->
<g id="edge40" class="edge"><title>Place&#45;&gt;UserAction</title>
<path fill="none" stroke="black" d="M1322.31,-408.576C1245.99,-397.089 1083.62,-371.452 948,-342 942.653,-340.839 937.108,-339.559 931.568,-338.228"/>
<ellipse fill="none" stroke="black" cx="1326.35" cy="-409.182" rx="4.00001" ry="4.00001"/>
<polygon fill="black" stroke="black" points="931.355,-338.176 922.716,-331.422 926.499,-336.984 921.643,-335.792 921.643,-335.792 921.643,-335.792 926.499,-336.984 920.571,-340.163 931.355,-338.176 931.355,-338.176"/>
</g>
<!-- PlaceType -->
<g id="node65" class="node"><title>PlaceType</title>
<ellipse fill="none" stroke="black" cx="1016" cy="-323" rx="58.8978" ry="18.3848"/>
<text text-anchor="middle" x="1016" y="-319.4" font-family="Times Roman,serif" font-size="14.00">PlaceType</text>
</g>
<!-- Place&#45;&gt;PlaceType -->
<g id="edge44" class="edge"><title>Place&#45;&gt;PlaceType</title>
<path fill="none" stroke="black" d="M1325.19,-404.697C1270.29,-390.777 1169.64,-365.048 1084,-342 1079.36,-340.752 1074.55,-339.44 1069.73,-338.115"/>
<ellipse fill="none" stroke="black" cx="1329.07" cy="-405.681" rx="4.00001" ry="4.00001"/>
<polygon fill="black" stroke="black" points="1069.5,-338.052 1061.06,-331.051 1064.68,-336.72 1059.86,-335.388 1059.86,-335.388 1059.86,-335.388 1064.68,-336.72 1058.66,-339.726 1069.5,-338.052 1069.5,-338.052"/>
</g>
<!-- EngagementType -->
<g id="node17" class="node"><title>EngagementType</title>
<ellipse fill="none" stroke="black" cx="1188" cy="-323" rx="94.9596" ry="18.3848"/>
<text text-anchor="middle" x="1188" y="-319.4" font-family="Times Roman,serif" font-size="14.00">EngagementType</text>
</g>
<!-- EngagementType&#45;&gt;Engagement -->
<g id="edge46" class="edge"><title>EngagementType&#45;&gt;Engagement</title>
<path fill="none" stroke="black" d="M1188,-296.073C1188,-289.449 1188,-282.332 1188,-275.63"/>
<ellipse fill="none" stroke="black" cx="1188" cy="-300.213" rx="4" ry="4"/>
<polygon fill="black" stroke="black" points="1188,-275.57 1192.5,-265.57 1188,-270.57 1188,-265.57 1188,-265.57 1188,-265.57 1188,-270.57 1183.5,-265.57 1188,-275.57 1188,-275.57"/>
</g>
<!-- Business -->
<g id="node18" class="node"><title>Business</title>
<ellipse fill="none" stroke="black" cx="1519" cy="-519" rx="53.9477" ry="18.3848"/>
<text text-anchor="middle" x="1519" y="-515.4" font-family="Times Roman,serif" font-size="14.00">Business</text>
</g>
<!-- Business&#45;&gt;Category -->
<g id="edge62" class="edge"><title>Business&#45;&gt;Category</title>
<path fill="none" stroke="black" d="M1579.55,-510.667C1657.32,-499.591 1796.31,-478.535 1914,-454 1946.55,-447.215 1982.63,-437.82 2011.13,-429.952"/>
<polygon fill="black" stroke="black" points="1579.35,-510.695 1568.82,-507.643 1574.4,-511.397 1569.45,-512.098 1569.45,-512.098 1569.45,-512.098 1574.4,-511.397 1570.08,-516.554 1579.35,-510.695 1579.35,-510.695"/>
<polygon fill="black" stroke="black" points="2011.25,-429.92 2022.09,-431.575 2016.06,-428.58 2020.88,-427.239 2020.88,-427.239 2020.88,-427.239 2016.06,-428.58 2019.67,-422.904 2011.25,-429.92 2011.25,-429.92"/>
</g>
<!-- Business&#45;&gt;Place -->
<g id="edge56" class="edge"><title>Business&#45;&gt;Place</title>
<path fill="none" stroke="black" d="M1487.57,-497.635C1460.91,-479.514 1422.9,-453.679 1396.51,-435.739"/>
<ellipse fill="none" stroke="black" cx="1491.11" cy="-500.042" rx="4.00002" ry="4.00002"/>
<polygon fill="black" stroke="black" points="1396.31,-435.602 1390.57,-426.259 1392.17,-432.791 1388.04,-429.98 1388.04,-429.98 1388.04,-429.98 1392.17,-432.791 1385.51,-433.702 1396.31,-435.602 1396.31,-435.602"/>
</g>
<!-- Program -->
<g id="node20" class="node"><title>Program</title>
<ellipse fill="none" stroke="black" cx="483" cy="-415" rx="53.033" ry="18.3848"/>
<text text-anchor="middle" x="483" y="-411.4" font-family="Times Roman,serif" font-size="14.00">Program</text>
</g>
<!-- Business&#45;&gt;Program -->
<g id="edge58" class="edge"><title>Business&#45;&gt;Program</title>
<path fill="none" stroke="black" d="M1457.84,-513.916C1328.85,-503.157 1019.41,-477.173 760,-454 664.413,-445.461 639.148,-452.601 545,-434 540.344,-433.08 535.54,-431.948 530.764,-430.698"/>
<ellipse fill="none" stroke="black" cx="1462.09" cy="-514.27" rx="4" ry="4"/>
<polygon fill="black" stroke="black" points="530.688,-430.677 522.258,-423.663 525.87,-429.338 521.053,-427.999 521.053,-427.999 521.053,-427.999 525.87,-429.338 519.848,-432.335 530.688,-430.677 530.688,-430.677"/>
</g>
<!-- MeasurementType -->
<g id="node34" class="node"><title>MeasurementType</title>
<ellipse fill="none" stroke="black" cx="655" cy="-415" rx="101.116" ry="18.3848"/>
<text text-anchor="middle" x="655" y="-411.4" font-family="Times Roman,serif" font-size="14.00">MeasurementType</text>
</g>
<!-- Business&#45;&gt;MeasurementType -->
<g id="edge60" class="edge"><title>Business&#45;&gt;MeasurementType</title>
<path fill="none" stroke="black" d="M1457.44,-515.569C1302.78,-506.644 900.988,-481.476 770,-454 748.819,-449.557 726.133,-442.406 706.555,-435.433"/>
<ellipse fill="none" stroke="black" cx="1461.51" cy="-515.803" rx="4" ry="4"/>
<polygon fill="black" stroke="black" points="706.318,-435.347 698.458,-427.7 701.619,-433.638 696.92,-431.928 696.92,-431.928 696.92,-431.928 701.619,-433.638 695.382,-436.157 706.318,-435.347 706.318,-435.347"/>
</g>
<!-- Business&#45;&gt;Report -->
<g id="edge64" class="edge"><title>Business&#45;&gt;Report</title>
<path fill="none" stroke="black" d="M1458.03,-513.812C1336.72,-501.885 1058.16,-466.432 842,-378 814.615,-366.796 805.53,-364.227 786,-342 761.329,-313.923 761.753,-301.48 750,-266 742.77,-244.176 737.845,-218.574 734.823,-199.45"/>
<ellipse fill="none" stroke="black" cx="1462.16" cy="-514.211" rx="4" ry="4"/>
<polygon fill="black" stroke="black" points="734.823,-199.446 737.788,-188.889 734.08,-194.502 733.338,-189.557 733.338,-189.557 733.338,-189.557 734.08,-194.502 728.888,-190.225 734.823,-199.446 734.823,-199.446"/>
</g>
<!-- Business&#45;&gt;ActsAsTaggableOn::Tagging -->
<g id="edge48" class="edge"><title>Business&#45;&gt;ActsAsTaggableOn::Tagging</title>
<path fill="none" stroke="black" d="M1579.26,-512.672C1635.56,-503.853 1718.84,-482.979 1773,-434 1797,-412.291 1810.18,-376.839 1816.89,-351.852"/>
<ellipse fill="none" stroke="black" cx="1575.11" cy="-513.294" rx="4.00001" ry="4.00001"/>
<polygon fill="black" stroke="black" points="1816.97,-351.557 1823.76,-342.944 1818.18,-346.705 1819.39,-341.854 1819.39,-341.854 1819.39,-341.854 1818.18,-346.705 1815.02,-340.765 1816.97,-351.557 1816.97,-351.557"/>
<text text-anchor="middle" x="1828.5" y="-411.4" font-family="Times Roman,serif" font-size="14.00">taggings</text>
</g>
<!-- Business&#45;&gt;ActsAsTaggableOn::Tagging -->
<g id="edge52" class="edge"><title>Business&#45;&gt;ActsAsTaggableOn::Tagging</title>
<path fill="none" stroke="black" d="M1578.98,-512.915C1667.78,-502.529 1827.49,-478.102 1862,-434 1881.48,-409.105 1863.16,-373.746 1845.62,-349.671"/>
<ellipse fill="none" stroke="black" cx="1574.85" cy="-513.39" rx="4.00001" ry="4.00001"/>
<polygon fill="black" stroke="black" points="1845.57,-349.613 1843.09,-338.933 1842.54,-345.638 1839.51,-341.662 1839.51,-341.662 1839.51,-341.662 1842.54,-345.638 1835.93,-344.391 1845.57,-349.613 1845.57,-349.613"/>
<text text-anchor="middle" x="1914.5" y="-411.4" font-family="Times Roman,serif" font-size="14.00">tag_taggings</text>
</g>
<!-- Business&#45;&gt;ActsAsTaggableOn::Tag -->
<g id="edge50" class="edge"><title>Business&#45;&gt;ActsAsTaggableOn::Tag</title>
<path fill="none" stroke="black" d="M1516.85,-490C1514.4,-458.097 1510.06,-405.329 1505,-360 1504.7,-357.314 1504.37,-354.522 1504.02,-351.73"/>
<polygon fill="black" stroke="black" points="1516.88,-490.397 1513.15,-500.71 1517.26,-495.383 1517.64,-500.368 1517.64,-500.368 1517.64,-500.368 1517.26,-495.383 1522.13,-500.027 1516.88,-490.397 1516.88,-490.397"/>
<polygon fill="black" stroke="black" points="1504.01,-351.717 1507.17,-341.216 1503.36,-346.759 1502.71,-341.802 1502.71,-341.802 1502.71,-341.802 1503.36,-346.759 1498.25,-342.387 1504.01,-351.717 1504.01,-351.717"/>
<text text-anchor="middle" x="1547.5" y="-411.4" font-family="Times Roman,serif" font-size="14.00">base_tags</text>
</g>
<!-- Business&#45;&gt;ActsAsTaggableOn::Tag -->
<g id="edge54" class="edge"><title>Business&#45;&gt;ActsAsTaggableOn::Tag</title>
<path fill="none" stroke="black" d="M1561.72,-500.285C1636.23,-466.394 1779.29,-395.121 1749,-360 1744.08,-354.294 1672.19,-343.997 1606.92,-335.712"/>
<polygon fill="black" stroke="black" points="1561.67,-500.308 1550.7,-500.321 1557.11,-502.365 1552.55,-504.423 1552.55,-504.423 1552.55,-504.423 1557.11,-502.365 1554.4,-508.524 1561.67,-500.308 1561.67,-500.308"/>
<polygon fill="black" stroke="black" points="1606.85,-335.703 1597.49,-329.988 1601.89,-335.078 1596.93,-334.453 1596.93,-334.453 1596.93,-334.453 1601.89,-335.078 1596.36,-338.917 1606.85,-335.703 1606.85,-335.703"/>
<text text-anchor="middle" x="1754" y="-411.4" font-family="Times Roman,serif" font-size="14.00">tags</text>
</g>
<!-- Program&#45;&gt;Campaign -->
<g id="edge68" class="edge"><title>Program&#45;&gt;Campaign</title>
<path fill="none" stroke="black" d="M519.442,-395.508C547.718,-380.384 586.843,-359.456 615.795,-343.97"/>
<ellipse fill="none" stroke="black" cx="515.705" cy="-397.507" rx="4.00002" ry="4.00002"/>
<polygon fill="black" stroke="black" points="615.993,-343.864 626.933,-343.116 620.402,-341.506 624.811,-339.148 624.811,-339.148 624.811,-339.148 620.402,-341.506 622.688,-335.18 615.993,-343.864 615.993,-343.864"/>
</g>
<!-- Address -->
<g id="node21" class="node"><title>Address</title>
<ellipse fill="none" stroke="black" cx="2723" cy="-519" rx="50.2046" ry="18.3848"/>
<text text-anchor="middle" x="2723" y="-515.4" font-family="Times Roman,serif" font-size="14.00">Address</text>
</g>
<!-- PrintJob -->
<g id="node23" class="node"><title>PrintJob</title>
<ellipse fill="none" stroke="black" cx="2841" cy="-519" rx="50.2046" ry="18.3848"/>
<text text-anchor="middle" x="2841" y="-515.4" font-family="Times Roman,serif" font-size="14.00">PrintJob</text>
</g>
<!-- UsersReferrals -->
<g id="node24" class="node"><title>UsersReferrals</title>
<ellipse fill="none" stroke="black" cx="2991" cy="-519" rx="82.0244" ry="18.3848"/>
<text text-anchor="middle" x="2991" y="-515.4" font-family="Times Roman,serif" font-size="14.00">UsersReferrals</text>
</g>
<!-- Brand -->
<g id="node25" class="node"><title>Brand</title>
<ellipse fill="none" stroke="black" cx="2178" cy="-415" rx="41.0122" ry="18.3848"/>
<text text-anchor="middle" x="2178" y="-411.4" font-family="Times Roman,serif" font-size="14.00">Brand</text>
</g>
<!-- Brand&#45;&gt;BrandImage -->
<g id="edge72" class="edge"><title>Brand&#45;&gt;BrandImage</title>
<path fill="none" stroke="black" d="M2210.06,-395.756C2217.41,-390.525 2224.86,-384.492 2231,-378 2239.18,-369.356 2246.41,-358.442 2252.08,-348.62"/>
<ellipse fill="none" stroke="black" cx="2206.69" cy="-398.067" rx="4.00002" ry="4.00002"/>
<ellipse fill="black" stroke="black" cx="2254.16" cy="-344.874" rx="4.00002" ry="4.00002"/>
</g>
<!-- Brand&#45;&gt;Busines -->
<g id="edge70" class="edge"><title>Brand&#45;&gt;Busines</title>
<path fill="none" stroke="black" d="M2162.32,-390.212C2155.63,-380.394 2147.43,-369.264 2139,-360 2134.74,-355.316 2129.9,-350.651 2125.05,-346.29"/>
<ellipse fill="none" stroke="black" cx="2164.68" cy="-393.755" rx="4.00002" ry="4.00002"/>
<polygon fill="black" stroke="black" points="2125.05,-346.286 2120.45,-336.331 2121.27,-343.007 2117.5,-339.729 2117.5,-339.729 2117.5,-339.729 2121.27,-343.007 2114.54,-343.127 2125.05,-346.286 2125.05,-346.286"/>
<text text-anchor="middle" x="2190" y="-365.4" font-family="Times Roman,serif" font-size="14.00">businesses</text>
</g>
<!-- Employee -->
<g id="node26" class="node"><title>Employee</title>
<ellipse fill="none" stroke="black" cx="3149" cy="-519" rx="58.1882" ry="18.3848"/>
<text text-anchor="middle" x="3149" y="-515.4" font-family="Times Roman,serif" font-size="14.00">Employee</text>
</g>
<!-- EmployeeType -->
<g id="node27" class="node"><title>EmployeeType</title>
<ellipse fill="none" stroke="black" cx="3306" cy="-519" rx="80.8184" ry="18.3848"/>
<text text-anchor="middle" x="3306" y="-515.4" font-family="Times Roman,serif" font-size="14.00">EmployeeType</text>
</g>
<!-- Target -->
<g id="node28" class="node"><title>Target</title>
<ellipse fill="none" stroke="black" cx="347" cy="-415" rx="41.9273" ry="18.3848"/>
<text text-anchor="middle" x="347" y="-411.4" font-family="Times Roman,serif" font-size="14.00">Target</text>
</g>
<!-- Target&#45;&gt;Campaign -->
<g id="edge74" class="edge"><title>Target&#45;&gt;Campaign</title>
<path fill="none" stroke="black" d="M391.807,-401.616C447.552,-384.965 542.607,-356.572 601.938,-338.85"/>
<polygon fill="black" stroke="black" points="391.613,-401.674 380.744,-400.224 386.822,-403.105 382.032,-404.536 382.032,-404.536 382.032,-404.536 386.822,-403.105 383.32,-408.848 391.613,-401.674 391.613,-401.674"/>
<polygon fill="black" stroke="black" points="602.28,-338.748 613.15,-340.197 607.071,-337.316 611.862,-335.885 611.862,-335.885 611.862,-335.885 607.071,-337.316 610.574,-331.574 602.28,-338.748 602.28,-338.748"/>
</g>
<!-- Target&#45;&gt;User -->
<g id="edge76" class="edge"><title>Target&#45;&gt;User</title>
<path fill="none" stroke="black" d="M353.724,-386.36C360.491,-362.322 372.86,-328.137 393,-304 447.101,-239.159 541.325,-200.581 594.843,-182.822"/>
<polygon fill="black" stroke="black" points="353.65,-386.636 346.731,-395.143 352.365,-391.468 351.08,-396.3 351.08,-396.3 351.08,-396.3 352.365,-391.468 355.429,-397.457 353.65,-386.636 353.65,-386.636"/>
<polygon fill="black" stroke="black" points="595.147,-182.724 606.047,-183.928 599.904,-181.185 604.662,-179.647 604.662,-179.647 604.662,-179.647 599.904,-181.185 603.277,-175.365 595.147,-182.724 595.147,-182.724"/>
</g>
<!-- TmpUpload -->
<g id="node31" class="node"><title>TmpUpload</title>
<ellipse fill="none" stroke="black" cx="3471" cy="-519" rx="65.9683" ry="18.3848"/>
<text text-anchor="middle" x="3471" y="-515.4" font-family="Times Roman,serif" font-size="14.00">TmpUpload</text>
</g>
<!-- ProgramType -->
<g id="node32" class="node"><title>ProgramType</title>
<ellipse fill="none" stroke="black" cx="483" cy="-519" rx="75.1594" ry="18.3848"/>
<text text-anchor="middle" x="483" y="-515.4" font-family="Times Roman,serif" font-size="14.00">ProgramType</text>
</g>
<!-- ProgramType&#45;&gt;Program -->
<g id="edge78" class="edge"><title>ProgramType&#45;&gt;Program</title>
<path fill="none" stroke="black" d="M483,-491.926C483,-477.224 483,-459.041 483,-444.044"/>
<ellipse fill="none" stroke="black" cx="483" cy="-496.407" rx="4" ry="4"/>
<polygon fill="black" stroke="black" points="483,-443.783 487.5,-433.783 483,-438.783 483,-433.783 483,-433.783 483,-433.783 483,-438.783 478.5,-433.783 483,-443.783 483,-443.783"/>
</g>
<!-- User&#45;&gt;Template -->
<g id="edge80" class="edge"><title>User&#45;&gt;Template</title>
<path fill="none" stroke="black" d="M625.763,-144.999C623.29,-138.04 620.606,-130.482 618.09,-123.401"/>
<ellipse fill="none" stroke="black" cx="627.125" cy="-148.833" rx="4.00001" ry="4.00001"/>
<polygon fill="black" stroke="black" points="617.917,-122.914 618.81,-111.985 616.243,-118.203 614.569,-113.491 614.569,-113.491 614.569,-113.491 616.243,-118.203 610.329,-114.998 617.917,-122.914 617.917,-122.914"/>
</g>
<!-- User&#45;&gt;LegalId -->
<g id="edge82" class="edge"><title>User&#45;&gt;LegalId</title>
<path fill="none" stroke="black" d="M668.779,-155.586C671.876,-154.321 674.983,-153.106 678,-152 734.119,-131.434 750.072,-132.207 807,-114 810.476,-112.888 814.066,-111.712 817.669,-110.511"/>
<ellipse fill="none" stroke="black" cx="664.844" cy="-157.244" rx="4.00001" ry="4.00001"/>
<polygon fill="black" stroke="black" points="817.692,-110.504 828.606,-111.568 822.429,-108.904 827.166,-107.305 827.166,-107.305 827.166,-107.305 822.429,-108.904 825.727,-103.041 817.692,-110.504 817.692,-110.504"/>
</g>
<!-- Invitation -->
<g id="node35" class="node"><title>Invitation</title>
<ellipse fill="none" stroke="black" cx="740" cy="-95" rx="58.1882" ry="18.3848"/>
<text text-anchor="middle" x="740" y="-91.4" font-family="Times Roman,serif" font-size="14.00">Invitation</text>
</g>
<!-- User&#45;&gt;Invitation -->
<g id="edge84" class="edge"><title>User&#45;&gt;Invitation</title>
<path fill="none" stroke="black" d="M662.358,-151.198C676.332,-141.083 693.418,-128.717 708,-118.162"/>
<ellipse fill="none" stroke="black" cx="658.735" cy="-153.821" rx="4.00002" ry="4.00002"/>
<polygon fill="black" stroke="black" points="708.153,-118.051 718.892,-115.833 712.203,-115.119 716.254,-112.188 716.254,-112.188 716.254,-112.188 712.203,-115.119 713.615,-108.542 708.153,-118.051 708.153,-118.051"/>
</g>
<!-- MeasurementType&#45;&gt;Campaign -->
<g id="edge86" class="edge"><title>MeasurementType&#45;&gt;Campaign</title>
<path fill="none" stroke="black" d="M655,-388.029C655,-376.599 655,-363.267 655,-351.66"/>
<ellipse fill="none" stroke="black" cx="655" cy="-392.382" rx="4" ry="4"/>
<polygon fill="black" stroke="black" points="655,-351.59 659.5,-341.59 655,-346.59 655,-341.59 655,-341.59 655,-341.59 655,-346.59 650.5,-341.59 655,-351.59 655,-351.59"/>
</g>
<!-- MeasurementType&#45;&gt;Account -->
<g id="edge88" class="edge"><title>MeasurementType&#45;&gt;Account</title>
<path fill="none" stroke="black" d="M583.112,-398.723C512.914,-382.105 415.05,-356.722 404,-342 369.586,-296.151 455.339,-269.361 517.173,-256.497"/>
<ellipse fill="none" stroke="black" cx="587.204" cy="-399.687" rx="4.00001" ry="4.00001"/>
<polygon fill="black" stroke="black" points="517.447,-256.442 528.136,-258.889 522.35,-255.459 527.252,-254.477 527.252,-254.477 527.252,-254.477 522.35,-255.459 526.368,-250.065 517.447,-256.442 517.447,-256.442"/>
</g>
<!-- PlaceTypes -->
<g id="node36" class="node"><title>PlaceTypes</title>
<ellipse fill="none" stroke="black" cx="3619" cy="-519" rx="63.8479" ry="18.3848"/>
<text text-anchor="middle" x="3619" y="-515.4" font-family="Times Roman,serif" font-size="14.00">PlaceTypes</text>
</g>
<!-- Item&#45;&gt;Place -->
<g id="edge90" class="edge"><title>Item&#45;&gt;Place</title>
<path fill="none" stroke="black" d="M1205.97,-186.494C1226.43,-196.315 1251.41,-210.472 1270,-228 1317.63,-272.907 1345.65,-346.699 1358.15,-386.845"/>
<polygon fill="black" stroke="black" points="1205.7,-186.369 1198.52,-178.077 1201.16,-184.264 1196.63,-182.158 1196.63,-182.158 1196.63,-182.158 1201.16,-184.264 1194.73,-186.24 1205.7,-186.369 1205.7,-186.369"/>
<polygon fill="black" stroke="black" points="1358.18,-386.948 1356.76,-397.82 1359.62,-391.735 1361.07,-396.523 1361.07,-396.523 1361.07,-396.523 1359.62,-391.735 1365.37,-395.225 1358.18,-386.948 1358.18,-386.948"/>
</g>
</g>
</svg>
