<?xml version="1.0" encoding="UTF-8" standalone="no"?>
<!DOCTYPE svg PUBLIC "-//W3C//DTD SVG 1.1//EN"
 "http://www.w3.org/Graphics/SVG/1.1/DTD/svg11.dtd">
<!-- Generated by graphviz version 2.26.3 (20100126.1600)
 -->
<!-- Title: models_diagram Pages: 1 -->
<svg width="906pt" height="366pt"
 viewBox="0.00 0.00 906.00 366.00" xmlns="http://www.w3.org/2000/svg" xmlns:xlink="http://www.w3.org/1999/xlink">
<g id="graph1" class="graph" transform="scale(1 1) rotate(0) translate(4 362)">
<title>models_diagram</title>
<polygon fill="white" stroke="white" points="-4,5 -4,-362 903,-362 903,5 -4,5"/>
<!-- _diagram_info -->
<g id="node1" class="node"><title>_diagram_info</title>
<text text-anchor="start" x="8" y="-341.8" font-family="Times Roman,serif" font-size="13.00">Models diagram</text>
<text text-anchor="start" x="8" y="-324.8" font-family="Times Roman,serif" font-size="13.00">Date: Mar 07 2011 &#45; 10:09</text>
<text text-anchor="start" x="8" y="-307.8" font-family="Times Roman,serif" font-size="13.00">Migration version: 20110306110820</text>
<text text-anchor="start" x="8" y="-290.8" font-family="Times Roman,serif" font-size="13.00">Generated by RailRoady 1.0.1</text>
<text text-anchor="start" x="8" y="-273.8" font-family="Times Roman,serif" font-size="13.00">http://railroady.prestonlee.com</text>
</g>
<!-- Report -->
<g id="node2" class="node"><title>Report</title>
<ellipse fill="none" stroke="black" cx="440" cy="-19" rx="43.8406" ry="18.3848"/>
<text text-anchor="middle" x="440" y="-15.4" font-family="Times Roman,serif" font-size="14.00">Report</text>
</g>
<!-- Engagement -->
<g id="node3" class="node"><title>Engagement</title>
<ellipse fill="none" stroke="black" cx="825" cy="-207" rx="73.0388" ry="18.3848"/>
<text text-anchor="middle" x="825" y="-203.4" font-family="Times Roman,serif" font-size="14.00">Engagement</text>
</g>
<!-- Place -->
<g id="node10" class="node"><title>Place</title>
<ellipse fill="none" stroke="black" cx="724" cy="-95" rx="36.977" ry="18.3848"/>
<text text-anchor="middle" x="724" y="-91.4" font-family="Times Roman,serif" font-size="14.00">Place</text>
</g>
<!-- Engagement&#45;&gt;Place -->
<g id="edge2" class="edge"><title>Engagement&#45;&gt;Place</title>
<path fill="none" stroke="black" d="M801.383,-180.811C784.796,-162.418 762.749,-137.969 746.431,-119.874"/>
<polygon fill="black" stroke="black" points="801.625,-181.079 804.98,-191.519 804.973,-184.792 808.322,-188.505 808.322,-188.505 808.322,-188.505 804.973,-184.792 811.664,-185.492 801.625,-181.079 801.625,-181.079"/>
<polygon fill="black" stroke="black" points="746.074,-119.479 742.719,-109.039 742.726,-115.765 739.377,-112.052 739.377,-112.052 739.377,-112.052 742.726,-115.765 736.036,-115.066 746.074,-119.479 746.074,-119.479"/>
</g>
<!-- QrCode -->
<g id="node12" class="node"><title>QrCode</title>
<ellipse fill="none" stroke="black" cx="786" cy="-19" rx="48.0833" ry="18.3848"/>
<text text-anchor="middle" x="786" y="-15.4" font-family="Times Roman,serif" font-size="14.00">QrCode</text>
</g>
<!-- Engagement&#45;&gt;QrCode -->
<g id="edge4" class="edge"><title>Engagement&#45;&gt;QrCode</title>
<path fill="none" stroke="black" d="M819.416,-180.083C812.113,-144.878 799.373,-83.4644 791.911,-47.4959"/>
<ellipse fill="none" stroke="black" cx="820.305" cy="-184.37" rx="4.00001" ry="4.00001"/>
<polygon fill="black" stroke="black" points="791.898,-47.4293 794.273,-36.7237 790.882,-42.5336 789.866,-37.6378 789.866,-37.6378 789.866,-37.6378 790.882,-42.5336 785.46,-38.5519 791.898,-47.4293 791.898,-47.4293"/>
</g>
<!-- User -->
<g id="node4" class="node"><title>User</title>
<ellipse fill="none" stroke="black" cx="302" cy="-311" rx="33.9411" ry="18.3848"/>
<text text-anchor="middle" x="302" y="-307.4" font-family="Times Roman,serif" font-size="14.00">User</text>
</g>
<!-- Account -->
<g id="node5" class="node"><title>Account</title>
<ellipse fill="none" stroke="black" cx="277" cy="-151" rx="50.9117" ry="18.3848"/>
<text text-anchor="middle" x="277" y="-147.4" font-family="Times Roman,serif" font-size="14.00">Account</text>
</g>
<!-- User&#45;&gt;Account -->
<g id="edge6" class="edge"><title>User&#45;&gt;Account</title>
<path fill="none" stroke="black" d="M297.807,-284.166C293.185,-254.586 285.795,-207.288 281.179,-177.744"/>
<ellipse fill="none" stroke="black" cx="298.466" cy="-288.381" rx="4.00001" ry="4.00001"/>
<ellipse fill="black" stroke="black" cx="280.516" cy="-173.5" rx="4.00001" ry="4.00001"/>
</g>
<!-- Brand -->
<g id="node8" class="node"><title>Brand</title>
<ellipse fill="none" stroke="black" cx="349" cy="-207" rx="41.0122" ry="18.3848"/>
<text text-anchor="middle" x="349" y="-203.4" font-family="Times Roman,serif" font-size="14.00">Brand</text>
</g>
<!-- User&#45;&gt;Brand -->
<g id="edge8" class="edge"><title>User&#45;&gt;Brand</title>
<path fill="none" stroke="black" d="M313.609,-285.312C320.586,-269.874 329.461,-250.236 336.578,-234.488"/>
<ellipse fill="none" stroke="black" cx="311.834" cy="-289.24" rx="4.00002" ry="4.00002"/>
<polygon fill="black" stroke="black" points="336.631,-234.369 344.85,-227.11 338.69,-229.813 340.749,-225.257 340.749,-225.257 340.749,-225.257 338.69,-229.813 336.649,-223.404 336.631,-234.369 336.631,-234.369"/>
</g>
<!-- Account&#45;&gt;Report -->
<g id="edge10" class="edge"><title>Account&#45;&gt;Report</title>
<path fill="none" stroke="black" d="M280.616,-124.578C284.01,-108.77 290.533,-89.2458 303,-76 325.901,-51.668 360.765,-37.3599 389.591,-29.1644"/>
<ellipse fill="none" stroke="black" cx="279.862" cy="-128.524" rx="4.00001" ry="4.00001"/>
<polygon fill="black" stroke="black" points="389.845,-29.0966 400.668,-30.8615 394.675,-27.8054 399.506,-26.5141 399.506,-26.5141 399.506,-26.5141 394.675,-27.8054 398.343,-22.1668 389.845,-29.0966 389.845,-29.0966"/>
</g>
<!-- Reward -->
<g id="node6" class="node"><title>Reward</title>
<ellipse fill="none" stroke="black" cx="647" cy="-207" rx="48.7904" ry="18.3848"/>
<text text-anchor="middle" x="647" y="-203.4" font-family="Times Roman,serif" font-size="14.00">Reward</text>
</g>
<!-- Reward&#45;&gt;Place -->
<g id="edge12" class="edge"><title>Reward&#45;&gt;Place</title>
<path fill="none" stroke="black" d="M665.191,-180.54C677.589,-162.507 693.923,-138.749 706.23,-120.847"/>
<polygon fill="black" stroke="black" points="665.037,-180.765 655.663,-186.456 662.204,-184.885 659.371,-189.005 659.371,-189.005 659.371,-189.005 662.204,-184.885 663.08,-191.555 665.037,-180.765 665.037,-180.765"/>
<polygon fill="black" stroke="black" points="706.248,-120.821 715.621,-115.13 709.081,-116.701 711.913,-112.581 711.913,-112.581 711.913,-112.581 709.081,-116.701 708.205,-110.031 706.248,-120.821 706.248,-120.821"/>
</g>
<!-- Category -->
<g id="node7" class="node"><title>Category</title>
<ellipse fill="none" stroke="black" cx="524" cy="-207" rx="56.0679" ry="18.3848"/>
<text text-anchor="middle" x="524" y="-203.4" font-family="Times Roman,serif" font-size="14.00">Category</text>
</g>
<!-- Busines -->
<g id="node20" class="node"><title>Busines</title>
<ellipse fill="none" stroke="black" cx="361" cy="-95" rx="48.9975" ry="18.3848"/>
<text text-anchor="middle" x="361" y="-91.4" font-family="Times Roman,serif" font-size="14.00">Busines</text>
</g>
<!-- Category&#45;&gt;Busines -->
<g id="edge14" class="edge"><title>Category&#45;&gt;Busines</title>
<path fill="none" stroke="black" d="M496.385,-182.768C478.17,-167.347 453.429,-147.445 430,-132 420.616,-125.814 410.095,-119.764 400.152,-114.407"/>
<polygon fill="black" stroke="black" points="496.666,-183.008 501.343,-192.927 500.466,-186.257 504.267,-189.506 504.267,-189.506 504.267,-189.506 500.466,-186.257 507.191,-186.086 496.666,-183.008 496.666,-183.008"/>
<polygon fill="black" stroke="black" points="400.074,-114.367 393.331,-105.719 395.653,-112.033 391.231,-109.699 391.231,-109.699 391.231,-109.699 395.653,-112.033 389.13,-113.679 400.074,-114.367 400.074,-114.367"/>
<text text-anchor="middle" x="516" y="-147.4" font-family="Times Roman,serif" font-size="14.00">businesses</text>
</g>
<!-- Brand&#45;&gt;Busines -->
<g id="edge16" class="edge"><title>Brand&#45;&gt;Busines</title>
<path fill="none" stroke="black" d="M348.782,-180.408C348.986,-166.017 349.762,-147.966 352,-132 352.383,-129.271 352.879,-126.449 353.443,-123.638"/>
<ellipse fill="none" stroke="black" cx="348.752" cy="-184.416" rx="4" ry="4"/>
<polygon fill="black" stroke="black" points="353.488,-123.437 360.081,-114.675 354.59,-118.56 355.691,-113.683 355.691,-113.683 355.691,-113.683 354.59,-118.56 351.302,-112.692 353.488,-123.437 353.488,-123.437"/>
<text text-anchor="middle" x="389" y="-147.4" font-family="Times Roman,serif" font-size="14.00">businesses</text>
</g>
<!-- Business -->
<g id="node9" class="node"><title>Business</title>
<ellipse fill="none" stroke="black" cx="647" cy="-311" rx="53.9477" ry="18.3848"/>
<text text-anchor="middle" x="647" y="-307.4" font-family="Times Roman,serif" font-size="14.00">Business</text>
</g>
<!-- Business&#45;&gt;Report -->
<g id="edge26" class="edge"><title>Business&#45;&gt;Report</title>
<path fill="none" stroke="black" d="M590.264,-301.189C546.89,-290.509 489.516,-268.849 459,-226 420.98,-172.615 427.342,-90.7978 434.249,-47.7558"/>
<ellipse fill="none" stroke="black" cx="594.297" cy="-302.14" rx="4.00001" ry="4.00001"/>
<polygon fill="black" stroke="black" points="434.286,-47.5429 440.425,-38.4562 435.138,-42.616 435.991,-37.6892 435.991,-37.6892 435.991,-37.6892 435.138,-42.616 431.556,-36.9221 434.286,-47.5429 434.286,-47.5429"/>
</g>
<!-- Business&#45;&gt;Engagement -->
<g id="edge20" class="edge"><title>Business&#45;&gt;Engagement</title>
<path fill="none" stroke="black" d="M674.357,-288.902C685.156,-280.634 697.865,-271.449 710,-264 732.001,-250.494 757.642,-237.538 779.122,-227.401"/>
<ellipse fill="none" stroke="black" cx="671.063" cy="-291.457" rx="4.00002" ry="4.00002"/>
<polygon fill="black" stroke="black" points="779.296,-227.32 790.261,-227.171 783.828,-225.206 788.359,-223.093 788.359,-223.093 788.359,-223.093 783.828,-225.206 786.457,-219.015 779.296,-227.32 779.296,-227.32"/>
</g>
<!-- Business&#45;&gt;Reward -->
<g id="edge22" class="edge"><title>Business&#45;&gt;Reward</title>
<path fill="none" stroke="black" d="M647,-283.926C647,-269.224 647,-251.041 647,-236.044"/>
<ellipse fill="none" stroke="black" cx="647" cy="-288.407" rx="4" ry="4"/>
<polygon fill="black" stroke="black" points="647,-235.783 651.5,-225.783 647,-230.783 647,-225.783 647,-225.783 647,-225.783 647,-230.783 642.5,-225.783 647,-235.783 647,-235.783"/>
</g>
<!-- Business&#45;&gt;Category -->
<g id="edge24" class="edge"><title>Business&#45;&gt;Category</title>
<path fill="none" stroke="black" d="M618.797,-287.153C598.958,-270.379 572.502,-248.01 552.58,-231.165"/>
<polygon fill="black" stroke="black" points="619.053,-287.37 623.784,-297.263 622.871,-290.598 626.689,-293.827 626.689,-293.827 626.689,-293.827 622.871,-290.598 629.595,-290.39 619.053,-287.37 619.053,-287.37"/>
<polygon fill="black" stroke="black" points="552.388,-231.003 547.658,-221.11 548.57,-227.775 544.752,-224.547 544.752,-224.547 544.752,-224.547 548.57,-227.775 541.847,-227.983 552.388,-231.003 552.388,-231.003"/>
</g>
<!-- Business&#45;&gt;Place -->
<g id="edge18" class="edge"><title>Business&#45;&gt;Place</title>
<path fill="none" stroke="black" d="M668.079,-286.639C680.857,-270.509 696.32,-248.286 705,-226 718.033,-192.539 722.234,-151.12 723.53,-123.924"/>
<ellipse fill="none" stroke="black" cx="665.312" cy="-290.054" rx="4.00002" ry="4.00002"/>
<polygon fill="black" stroke="black" points="723.531,-123.89 728.403,-114.066 723.719,-118.894 723.906,-113.897 723.906,-113.897 723.906,-113.897 723.719,-118.894 719.409,-113.729 723.531,-123.89 723.531,-123.89"/>
</g>
<!-- Place&#45;&gt;Report -->
<g id="edge28" class="edge"><title>Place&#45;&gt;Report</title>
<path fill="none" stroke="black" d="M683.342,-84.1197C631.529,-70.2544 542.131,-46.331 487.316,-31.662"/>
<ellipse fill="none" stroke="black" cx="687.28" cy="-85.1735" rx="4.00001" ry="4.00001"/>
<polygon fill="black" stroke="black" points="487.16,-31.6204 478.663,-24.6882 482.33,-30.3278 477.5,-29.0352 477.5,-29.0352 477.5,-29.0352 482.33,-30.3278 476.337,-33.3823 487.16,-31.6204 487.16,-31.6204"/>
</g>
<!-- Place&#45;&gt;QrCode -->
<g id="edge30" class="edge"><title>Place&#45;&gt;QrCode</title>
<path fill="none" stroke="black" d="M743.237,-71.4193C750.165,-62.9266 758.014,-53.3056 765.079,-44.6454"/>
<ellipse fill="none" stroke="black" cx="740.597" cy="-74.655" rx="4.00002" ry="4.00002"/>
<polygon fill="black" stroke="black" points="765.235,-44.4534 775.044,-39.5493 768.396,-40.5791 771.557,-36.7047 771.557,-36.7047 771.557,-36.7047 768.396,-40.5791 768.07,-33.8602 765.235,-44.4534 765.235,-44.4534"/>
</g>
<!-- Newsletter -->
<g id="node11" class="node"><title>Newsletter</title>
<ellipse fill="none" stroke="black" cx="785" cy="-311" rx="65.7609" ry="18.3848"/>
<text text-anchor="middle" x="785" y="-307.4" font-family="Times Roman,serif" font-size="14.00">Newsletter</text>
</g>
</g>
</svg>
