<?xml version="1.0" encoding="UTF-8" standalone="no"?>
<!DOCTYPE svg PUBLIC "-//W3C//DTD SVG 1.1//EN"
 "http://www.w3.org/Graphics/SVG/1.1/DTD/svg11.dtd">
<!-- Generated by graphviz version 2.26.3 (20100126.1600)
 -->
<!-- Title: models_diagram Pages: 1 -->
<svg width="691pt" height="346pt"
 viewBox="0.00 0.00 691.00 346.00" xmlns="http://www.w3.org/2000/svg" xmlns:xlink="http://www.w3.org/1999/xlink">
<g id="graph1" class="graph" transform="scale(1 1) rotate(0) translate(4 342)">
<title>models_diagram</title>
<polygon fill="white" stroke="white" points="-4,5 -4,-342 688,-342 688,5 -4,5"/>
<!-- _diagram_info -->
<g id="node1" class="node"><title>_diagram_info</title>
<text text-anchor="start" x="8" y="-321.8" font-family="Times Roman,serif" font-size="13.00">Models diagram</text>
<text text-anchor="start" x="8" y="-304.8" font-family="Times Roman,serif" font-size="13.00">Date: Feb 26 2011 &#45; 04:03</text>
<text text-anchor="start" x="8" y="-287.8" font-family="Times Roman,serif" font-size="13.00">Migration version: 20110221212512</text>
<text text-anchor="start" x="8" y="-270.8" font-family="Times Roman,serif" font-size="13.00">Generated by RailRoady 1.0.1</text>
<text text-anchor="start" x="8" y="-253.8" font-family="Times Roman,serif" font-size="13.00">http://railroady.prestonlee.com</text>
</g>
<!-- Report -->
<g id="node2" class="node"><title>Report</title>
<ellipse fill="none" stroke="black" cx="207" cy="-19" rx="43.8406" ry="18.3848"/>
<text text-anchor="middle" x="207" y="-15.4" font-family="Times Roman,serif" font-size="14.00">Report</text>
</g>
<!-- Engagement -->
<g id="node3" class="node"><title>Engagement</title>
<ellipse fill="none" stroke="black" cx="462" cy="-187" rx="73.0388" ry="18.3848"/>
<text text-anchor="middle" x="462" y="-183.4" font-family="Times Roman,serif" font-size="14.00">Engagement</text>
</g>
<!-- Place -->
<g id="node9" class="node"><title>Place</title>
<ellipse fill="none" stroke="black" cx="285" cy="-95" rx="36.977" ry="18.3848"/>
<text text-anchor="middle" x="285" y="-91.4" font-family="Times Roman,serif" font-size="14.00">Place</text>
</g>
<!-- Engagement&#45;&gt;Place -->
<g id="edge2" class="edge"><title>Engagement&#45;&gt;Place</title>
<path fill="none" stroke="black" d="M420.736,-165.552C390.072,-149.614 348.705,-128.112 319.726,-113.05"/>
<polygon fill="black" stroke="black" points="421.074,-165.727 427.871,-174.332 425.51,-168.033 429.947,-170.339 429.947,-170.339 429.947,-170.339 425.51,-168.033 432.022,-166.347 421.074,-165.727 421.074,-165.727"/>
<polygon fill="black" stroke="black" points="319.655,-113.013 312.858,-104.408 315.219,-110.707 310.782,-108.401 310.782,-108.401 310.782,-108.401 315.219,-110.707 308.707,-112.394 319.655,-113.013 319.655,-113.013"/>
</g>
<!-- User -->
<g id="node4" class="node"><title>User</title>
<ellipse fill="none" stroke="black" cx="128" cy="-187" rx="33.9411" ry="18.3848"/>
<text text-anchor="middle" x="128" y="-183.4" font-family="Times Roman,serif" font-size="14.00">User</text>
</g>
<!-- Account -->
<g id="node5" class="node"><title>Account</title>
<ellipse fill="none" stroke="black" cx="128" cy="-95" rx="50.9117" ry="18.3848"/>
<text text-anchor="middle" x="128" y="-91.4" font-family="Times Roman,serif" font-size="14.00">Account</text>
</g>
<!-- User&#45;&gt;Account -->
<g id="edge4" class="edge"><title>User&#45;&gt;Account</title>
<path fill="none" stroke="black" d="M128,-160.029C128,-148.016 128,-133.902 128,-121.898"/>
<ellipse fill="none" stroke="black" cx="128" cy="-164.382" rx="4" ry="4"/>
<ellipse fill="black" stroke="black" cx="128" cy="-117.59" rx="4" ry="4"/>
</g>
<!-- Account&#45;&gt;Report -->
<g id="edge6" class="edge"><title>Account&#45;&gt;Report</title>
<path fill="none" stroke="black" d="M152.343,-71.581C161.771,-62.5112 172.557,-52.1349 182.043,-43.0097"/>
<ellipse fill="none" stroke="black" cx="149.205" cy="-74.5999" rx="4.00002" ry="4.00002"/>
<polygon fill="black" stroke="black" points="182.113,-42.9415 192.44,-39.2515 185.717,-39.475 189.32,-36.0086 189.32,-36.0086 189.32,-36.0086 185.717,-39.475 186.2,-32.7656 182.113,-42.9415 182.113,-42.9415"/>
</g>
<!-- Reward -->
<g id="node6" class="node"><title>Reward</title>
<ellipse fill="none" stroke="black" cx="322" cy="-187" rx="48.7904" ry="18.3848"/>
<text text-anchor="middle" x="322" y="-183.4" font-family="Times Roman,serif" font-size="14.00">Reward</text>
</g>
<!-- Reward&#45;&gt;Place -->
<g id="edge8" class="edge"><title>Reward&#45;&gt;Place</title>
<path fill="none" stroke="black" d="M310.618,-158.699C306.019,-147.263 300.727,-134.105 296.151,-122.728"/>
<polygon fill="black" stroke="black" points="310.781,-159.105 310.337,-170.062 312.647,-163.744 314.512,-168.382 314.512,-168.382 314.512,-168.382 312.647,-163.744 318.688,-166.703 310.781,-159.105 310.781,-159.105"/>
<polygon fill="black" stroke="black" points="296.081,-122.554 296.525,-111.597 294.216,-117.915 292.35,-113.276 292.35,-113.276 292.35,-113.276 294.216,-117.915 288.175,-114.955 296.081,-122.554 296.081,-122.554"/>
</g>
<!-- Category -->
<g id="node7" class="node"><title>Category</title>
<ellipse fill="none" stroke="black" cx="609" cy="-187" rx="56.0679" ry="18.3848"/>
<text text-anchor="middle" x="609" y="-183.4" font-family="Times Roman,serif" font-size="14.00">Category</text>
</g>
<!-- Busines -->
<g id="node16" class="node"><title>Busines</title>
<ellipse fill="none" stroke="black" cx="609" cy="-95" rx="48.9975" ry="18.3848"/>
<text text-anchor="middle" x="609" y="-91.4" font-family="Times Roman,serif" font-size="14.00">Busines</text>
</g>
<!-- Category&#45;&gt;Busines -->
<g id="edge10" class="edge"><title>Category&#45;&gt;Busines</title>
<path fill="none" stroke="black" d="M609,-158.342C609,-147.283 609,-134.657 609,-123.604"/>
<polygon fill="black" stroke="black" points="609,-158.382 604.5,-168.382 609,-163.382 609,-168.382 609,-168.382 609,-168.382 609,-163.382 613.5,-168.382 609,-158.382 609,-158.382"/>
<polygon fill="black" stroke="black" points="609,-123.59 613.5,-113.59 609,-118.59 609,-113.59 609,-113.59 609,-113.59 609,-118.59 604.5,-113.59 609,-123.59 609,-123.59"/>
<text text-anchor="middle" x="646" y="-137.4" font-family="Times Roman,serif" font-size="14.00">businesses</text>
</g>
<!-- Business -->
<g id="node8" class="node"><title>Business</title>
<ellipse fill="none" stroke="black" cx="322" cy="-291" rx="53.9477" ry="18.3848"/>
<text text-anchor="middle" x="322" y="-287.4" font-family="Times Roman,serif" font-size="14.00">Business</text>
</g>
<!-- Business&#45;&gt;Report -->
<g id="edge20" class="edge"><title>Business&#45;&gt;Report</title>
<path fill="none" stroke="black" d="M300.15,-266.953C289.832,-255.053 277.687,-240.22 268,-226 229.87,-170.03 215.174,-89.893 209.829,-47.6248"/>
<ellipse fill="none" stroke="black" cx="303.028" cy="-270.233" rx="4.00002" ry="4.00002"/>
<polygon fill="black" stroke="black" points="209.805,-47.4198 213.106,-36.9625 209.221,-42.4541 208.637,-37.4883 208.637,-37.4883 208.637,-37.4883 209.221,-42.4541 204.167,-38.0141 209.805,-47.4198 209.805,-47.4198"/>
</g>
<!-- Business&#45;&gt;Engagement -->
<g id="edge14" class="edge"><title>Business&#45;&gt;Engagement</title>
<path fill="none" stroke="black" d="M351.143,-269.223C361.791,-261.276 373.934,-252.223 385,-244 399.703,-233.073 416.008,-220.998 429.814,-210.785"/>
<ellipse fill="none" stroke="black" cx="347.935" cy="-271.618" rx="4.00002" ry="4.00002"/>
<polygon fill="black" stroke="black" points="430.011,-210.639 440.727,-208.311 434.031,-207.666 438.051,-204.693 438.051,-204.693 438.051,-204.693 434.031,-207.666 435.375,-201.075 430.011,-210.639 430.011,-210.639"/>
</g>
<!-- Business&#45;&gt;Reward -->
<g id="edge16" class="edge"><title>Business&#45;&gt;Reward</title>
<path fill="none" stroke="black" d="M322,-263.926C322,-249.224 322,-231.041 322,-216.044"/>
<ellipse fill="none" stroke="black" cx="322" cy="-268.407" rx="4" ry="4"/>
<polygon fill="black" stroke="black" points="322,-215.783 326.5,-205.783 322,-210.783 322,-205.783 322,-205.783 322,-205.783 322,-210.783 317.5,-205.783 322,-215.783 322,-215.783"/>
</g>
<!-- Business&#45;&gt;Category -->
<g id="edge18" class="edge"><title>Business&#45;&gt;Category</title>
<path fill="none" stroke="black" d="M349.101,-266.985C359.689,-258.659 372.322,-249.934 385,-244 450.805,-213.199 473.776,-224.643 544,-206 548.402,-204.832 552.959,-203.582 557.525,-202.302"/>
<polygon fill="black" stroke="black" points="348.838,-267.199 338.243,-270.028 344.962,-270.358 341.085,-273.516 341.085,-273.516 341.085,-273.516 344.962,-270.358 343.928,-277.005 348.838,-267.199 348.838,-267.199"/>
<polygon fill="black" stroke="black" points="557.857,-202.207 568.707,-203.8 562.666,-200.84 567.476,-199.472 567.476,-199.472 567.476,-199.472 562.666,-200.84 566.245,-195.144 557.857,-202.207 557.857,-202.207"/>
</g>
<!-- Business&#45;&gt;Place -->
<g id="edge12" class="edge"><title>Business&#45;&gt;Place</title>
<path fill="none" stroke="black" d="M299.552,-266.712C286.389,-250.759 271.008,-228.704 264,-206 255.384,-178.085 263.904,-145.075 272.536,-122.35"/>
<ellipse fill="none" stroke="black" cx="302.437" cy="-270.111" rx="4.00002" ry="4.00002"/>
<polygon fill="black" stroke="black" points="272.573,-122.258 280.493,-114.673 274.447,-117.622 276.32,-112.987 276.32,-112.987 276.32,-112.987 274.447,-117.622 272.148,-111.3 272.573,-122.258 272.573,-122.258"/>
</g>
<!-- Place&#45;&gt;Report -->
<g id="edge22" class="edge"><title>Place&#45;&gt;Report</title>
<path fill="none" stroke="black" d="M262.086,-72.6733C252.667,-63.4962 241.731,-52.8405 232.097,-43.4536"/>
<ellipse fill="none" stroke="black" cx="265.21" cy="-75.7177" rx="4.00002" ry="4.00002"/>
<polygon fill="black" stroke="black" points="231.866,-43.2287 227.844,-33.027 228.285,-39.7394 224.704,-36.25 224.704,-36.25 224.704,-36.25 228.285,-39.7394 221.564,-39.4731 231.866,-43.2287 231.866,-43.2287"/>
</g>
<!-- Newsletter -->
<g id="node10" class="node"><title>Newsletter</title>
<ellipse fill="none" stroke="black" cx="460" cy="-291" rx="65.7609" ry="18.3848"/>
<text text-anchor="middle" x="460" y="-287.4" font-family="Times Roman,serif" font-size="14.00">Newsletter</text>
</g>
</g>
</svg>
