<?xml version="1.0" encoding="UTF-8" standalone="no"?>
<!DOCTYPE svg PUBLIC "-//W3C//DTD SVG 1.1//EN"
 "http://www.w3.org/Graphics/SVG/1.1/DTD/svg11.dtd">
<!-- Generated by graphviz version 2.26.3 (20100126.1600)
 -->
<!-- Title: models_diagram Pages: 1 -->
<svg width="2518pt" height="854pt"
 viewBox="0.00 0.00 2518.00 854.00" xmlns="http://www.w3.org/2000/svg" xmlns:xlink="http://www.w3.org/1999/xlink">
<g id="graph1" class="graph" transform="scale(1 1) rotate(0) translate(4 850)">
<title>models_diagram</title>
<polygon fill="white" stroke="white" points="-4,5 -4,-850 2515,-850 2515,5 -4,5"/>
<!-- _diagram_info -->
<g id="node1" class="node"><title>_diagram_info</title>
<text text-anchor="start" x="8" y="-829.8" font-family="Times Roman,serif" font-size="13.00">Models diagram</text>
<text text-anchor="start" x="8" y="-812.8" font-family="Times Roman,serif" font-size="13.00">Date: Apr 26 2011 &#45; 14:10</text>
<text text-anchor="start" x="8" y="-795.8" font-family="Times Roman,serif" font-size="13.00">Migration version: 20110426120228</text>
<text text-anchor="start" x="8" y="-778.8" font-family="Times Roman,serif" font-size="13.00">Generated by RailRoady 1.0.1</text>
<text text-anchor="start" x="8" y="-761.8" font-family="Times Roman,serif" font-size="13.00">http://railroady.prestonlee.com</text>
</g>
<!-- OpenHour -->
<g id="node2" class="node"><title>OpenHour</title>
<ellipse fill="none" stroke="black" cx="1159" cy="-491" rx="61.0181" ry="18.3848"/>
<text text-anchor="middle" x="1159" y="-487.4" font-family="Times Roman,serif" font-size="14.00">OpenHour</text>
</g>
<!-- Announcement -->
<g id="node3" class="node"><title>Announcement</title>
<ellipse fill="none" stroke="black" cx="2166" cy="-695" rx="85.7684" ry="18.3848"/>
<text text-anchor="middle" x="2166" y="-691.4" font-family="Times Roman,serif" font-size="14.00">Announcement</text>
</g>
<!-- AccountHolder -->
<g id="node4" class="node"><title>AccountHolder</title>
<ellipse fill="none" stroke="black" cx="621" cy="-247" rx="82.2301" ry="18.3848"/>
<text text-anchor="middle" x="621" y="-243.4" font-family="Times Roman,serif" font-size="14.00">AccountHolder</text>
</g>
<!-- Account -->
<g id="node16" class="node"><title>Account</title>
<ellipse fill="none" stroke="black" cx="511" cy="-171" rx="50.9117" ry="18.3848"/>
<text text-anchor="middle" x="511" y="-167.4" font-family="Times Roman,serif" font-size="14.00">Account</text>
</g>
<!-- AccountHolder&#45;&gt;Account -->
<g id="edge2" class="edge"><title>AccountHolder&#45;&gt;Account</title>
<path fill="none" stroke="black" d="M588.828,-224.772C574.535,-214.897 557.743,-203.295 543.422,-193.4"/>
<ellipse fill="none" stroke="black" cx="592.196" cy="-227.099" rx="4.00002" ry="4.00002"/>
<polygon fill="black" stroke="black" points="543.096,-193.175 537.426,-183.789 538.982,-190.333 534.868,-187.491 534.868,-187.491 534.868,-187.491 538.982,-190.333 532.31,-191.193 543.096,-193.175 543.096,-193.175"/>
</g>
<!-- LegalType -->
<g id="node5" class="node"><title>LegalType</title>
<ellipse fill="none" stroke="black" cx="750" cy="-415" rx="60.1041" ry="18.3848"/>
<text text-anchor="middle" x="750" y="-411.4" font-family="Times Roman,serif" font-size="14.00">LegalType</text>
</g>
<!-- LegalId -->
<g id="node14" class="node"><title>LegalId</title>
<ellipse fill="none" stroke="black" cx="736" cy="-323" rx="46.1672" ry="18.3848"/>
<text text-anchor="middle" x="736" y="-319.4" font-family="Times Roman,serif" font-size="14.00">LegalId</text>
</g>
<!-- LegalType&#45;&gt;LegalId -->
<g id="edge4" class="edge"><title>LegalType&#45;&gt;LegalId</title>
<path fill="none" stroke="black" d="M745.959,-388.447C744.211,-376.958 742.161,-363.485 740.376,-351.76"/>
<ellipse fill="none" stroke="black" cx="746.565" cy="-392.428" rx="4.00001" ry="4.00001"/>
<polygon fill="black" stroke="black" points="740.333,-351.476 743.278,-340.913 739.581,-346.533 738.829,-341.59 738.829,-341.59 738.829,-341.59 739.581,-346.533 734.38,-342.267 740.333,-351.476 740.333,-351.476"/>
</g>
<!-- LogGroup -->
<g id="node6" class="node"><title>LogGroup</title>
<ellipse fill="none" stroke="black" cx="659" cy="-95" rx="58.8978" ry="18.3848"/>
<text text-anchor="middle" x="659" y="-91.4" font-family="Times Roman,serif" font-size="14.00">LogGroup</text>
</g>
<!-- Log -->
<g id="node32" class="node"><title>Log</title>
<ellipse fill="none" stroke="black" cx="946" cy="-19" rx="28.9914" ry="18.3848"/>
<text text-anchor="middle" x="946" y="-15.4" font-family="Times Roman,serif" font-size="14.00">Log</text>
</g>
<!-- LogGroup&#45;&gt;Log -->
<g id="edge6" class="edge"><title>LogGroup&#45;&gt;Log</title>
<path fill="none" stroke="black" d="M692.678,-74.1098C704.709,-67.439 718.608,-60.601 732,-56 790.966,-35.7409 863.047,-26.2162 906.695,-22.0113"/>
<ellipse fill="none" stroke="black" cx="688.927" cy="-76.243" rx="4.00002" ry="4.00002"/>
<polygon fill="black" stroke="black" points="906.93,-21.9898 917.3,-25.5578 911.91,-21.5332 916.889,-21.0766 916.889,-21.0766 916.889,-21.0766 911.91,-21.5332 916.478,-16.5954 906.93,-21.9898 906.93,-21.9898"/>
</g>
<!-- Template -->
<g id="node7" class="node"><title>Template</title>
<ellipse fill="none" stroke="black" cx="1066" cy="-323" rx="55.8614" ry="18.3848"/>
<text text-anchor="middle" x="1066" y="-319.4" font-family="Times Roman,serif" font-size="14.00">Template</text>
</g>
<!-- QrCode -->
<g id="node23" class="node"><title>QrCode</title>
<ellipse fill="none" stroke="black" cx="1248" cy="-247" rx="48.0833" ry="18.3848"/>
<text text-anchor="middle" x="1248" y="-243.4" font-family="Times Roman,serif" font-size="14.00">QrCode</text>
</g>
<!-- Template&#45;&gt;QrCode -->
<g id="edge8" class="edge"><title>Template&#45;&gt;QrCode</title>
<path fill="none" stroke="black" d="M1099.82,-302.461C1111.1,-296.075 1123.88,-289.321 1136,-284 1156.21,-275.127 1179.26,-267.166 1199.17,-260.923"/>
<ellipse fill="none" stroke="black" cx="1096.12" cy="-304.592" rx="4.00002" ry="4.00002"/>
<polygon fill="black" stroke="black" points="1199.41,-260.85 1210.29,-262.21 1204.19,-259.38 1208.96,-257.909 1208.96,-257.909 1208.96,-257.909 1204.19,-259.38 1207.64,-253.608 1199.41,-260.85 1199.41,-260.85"/>
</g>
<!-- Transaction -->
<g id="node8" class="node"><title>Transaction</title>
<ellipse fill="none" stroke="black" cx="864" cy="-95" rx="67.1751" ry="18.3848"/>
<text text-anchor="middle" x="864" y="-91.4" font-family="Times Roman,serif" font-size="14.00">Transaction</text>
</g>
<!-- Transaction&#45;&gt;Log -->
<g id="edge10" class="edge"><title>Transaction&#45;&gt;Log</title>
<path fill="none" stroke="black" d="M889.598,-71.2752C899.967,-61.665 911.873,-50.6296 922.067,-41.182"/>
<ellipse fill="none" stroke="black" cx="886.367" cy="-74.27" rx="4.00002" ry="4.00002"/>
<polygon fill="black" stroke="black" points="922.14,-41.1145 932.533,-37.6173 925.807,-37.7157 929.474,-34.3169 929.474,-34.3169 929.474,-34.3169 925.807,-37.7157 926.415,-31.0164 922.14,-41.1145 922.14,-41.1145"/>
</g>
<!-- TransactionType -->
<g id="node9" class="node"><title>TransactionType</title>
<ellipse fill="none" stroke="black" cx="864" cy="-171" rx="89.8026" ry="18.3848"/>
<text text-anchor="middle" x="864" y="-167.4" font-family="Times Roman,serif" font-size="14.00">TransactionType</text>
</g>
<!-- TransactionType&#45;&gt;Transaction -->
<g id="edge12" class="edge"><title>TransactionType&#45;&gt;Transaction</title>
<path fill="none" stroke="black" d="M864,-144.073C864,-137.449 864,-130.332 864,-123.63"/>
<ellipse fill="none" stroke="black" cx="864" cy="-148.213" rx="4" ry="4"/>
<polygon fill="black" stroke="black" points="864,-123.57 868.5,-113.57 864,-118.57 864,-113.57 864,-113.57 864,-113.57 864,-118.57 859.5,-113.57 864,-123.57 864,-123.57"/>
</g>
<!-- Reward -->
<g id="node10" class="node"><title>Reward</title>
<ellipse fill="none" stroke="black" cx="649" cy="-491" rx="48.7904" ry="18.3848"/>
<text text-anchor="middle" x="649" y="-487.4" font-family="Times Roman,serif" font-size="14.00">Reward</text>
</g>
<!-- Reward&#45;&gt;Log -->
<g id="edge14" class="edge"><title>Reward&#45;&gt;Log</title>
<path fill="none" stroke="black" d="M648.129,-464.365C648.037,-426.348 652.215,-355.44 681,-304 699.763,-270.47 746,-285.423 746,-247 746,-247 746,-247 746,-95 746,-60.7477 849.8,-36.4032 907.842,-25.468"/>
<ellipse fill="none" stroke="black" cx="648.172" cy="-468.404" rx="4" ry="4"/>
<polygon fill="black" stroke="black" points="907.934,-25.4512 918.582,-28.07 912.851,-24.5476 917.769,-23.6441 917.769,-23.6441 917.769,-23.6441 912.851,-24.5476 916.956,-19.2182 907.934,-25.4512 907.934,-25.4512"/>
</g>
<!-- User -->
<g id="node34" class="node"><title>User</title>
<ellipse fill="none" stroke="black" cx="939" cy="-415" rx="33.9411" ry="18.3848"/>
<text text-anchor="middle" x="939" y="-411.4" font-family="Times Roman,serif" font-size="14.00">User</text>
</g>
<!-- Reward&#45;&gt;User -->
<g id="edge18" class="edge"><title>Reward&#45;&gt;User</title>
<path fill="none" stroke="black" d="M673.864,-466.633C680.857,-460.998 688.806,-455.605 697,-452 747.17,-429.932 764.821,-442.286 819,-434 844.585,-430.087 873.213,-425.56 896.089,-421.907"/>
<polygon fill="black" stroke="black" points="673.724,-466.753 663.205,-469.851 669.93,-470.009 666.136,-473.265 666.136,-473.265 666.136,-473.265 669.93,-470.009 669.067,-476.68 673.724,-466.753 673.724,-466.753"/>
<polygon fill="black" stroke="black" points="896.289,-421.875 906.874,-424.738 901.226,-421.085 906.163,-420.295 906.163,-420.295 906.163,-420.295 901.226,-421.085 905.452,-415.851 896.289,-421.875 896.289,-421.875"/>
</g>
<!-- Item -->
<g id="node40" class="node"><title>Item</title>
<ellipse fill="none" stroke="black" cx="1348" cy="-415" rx="33.9411" ry="18.3848"/>
<text text-anchor="middle" x="1348" y="-411.4" font-family="Times Roman,serif" font-size="14.00">Item</text>
</g>
<!-- Reward&#45;&gt;Item -->
<g id="edge16" class="edge"><title>Reward&#45;&gt;Item</title>
<path fill="none" stroke="black" d="M704.554,-482.611C728.639,-479.107 757.181,-475.131 783,-472 976.858,-448.487 1208.97,-427.236 1304.08,-418.823"/>
<polygon fill="black" stroke="black" points="704.42,-482.631 693.873,-479.628 699.473,-483.356 694.526,-484.08 694.526,-484.08 694.526,-484.08 699.473,-483.356 695.178,-488.533 704.42,-482.631 704.42,-482.631"/>
<polygon fill="black" stroke="black" points="1304.23,-418.81 1314.59,-422.414 1309.21,-418.371 1314.2,-417.931 1314.2,-417.931 1314.2,-417.931 1309.21,-418.371 1313.8,-413.449 1304.23,-418.81 1304.23,-418.81"/>
</g>
<!-- Campaign -->
<g id="node11" class="node"><title>Campaign</title>
<ellipse fill="none" stroke="black" cx="631" cy="-583" rx="60.1041" ry="18.3848"/>
<text text-anchor="middle" x="631" y="-579.4" font-family="Times Roman,serif" font-size="14.00">Campaign</text>
</g>
<!-- Campaign&#45;&gt;Reward -->
<g id="edge24" class="edge"><title>Campaign&#45;&gt;Reward</title>
<path fill="none" stroke="black" d="M636.195,-556.447C638.443,-544.958 641.079,-531.485 643.373,-519.76"/>
<ellipse fill="none" stroke="black" cx="635.411" cy="-560.457" rx="4.00001" ry="4.00001"/>
<polygon fill="black" stroke="black" points="643.443,-519.404 649.779,-510.454 644.403,-514.497 645.363,-509.59 645.363,-509.59 645.363,-509.59 644.403,-514.497 640.947,-508.726 643.443,-519.404 643.443,-519.404"/>
</g>
<!-- Campaign&#45;&gt;Account -->
<g id="edge20" class="edge"><title>Campaign&#45;&gt;Account</title>
<path fill="none" stroke="black" d="M578.233,-568.117C522.932,-550.914 444,-521.089 444,-491 444,-491 444,-491 444,-323 444,-289.881 477.635,-295.842 492,-266 502.034,-245.157 506.77,-219.29 509.005,-199.813"/>
<ellipse fill="none" stroke="black" cx="582.385" cy="-569.39" rx="4.00001" ry="4.00001"/>
<polygon fill="black" stroke="black" points="509.019,-199.674 514.485,-190.168 509.513,-194.698 510.007,-189.723 510.007,-189.723 510.007,-189.723 509.513,-194.698 505.53,-189.278 509.019,-199.674 509.019,-199.674"/>
</g>
<!-- Engagement -->
<g id="node31" class="node"><title>Engagement</title>
<ellipse fill="none" stroke="black" cx="1463" cy="-491" rx="73.0388" ry="18.3848"/>
<text text-anchor="middle" x="1463" y="-487.4" font-family="Times Roman,serif" font-size="14.00">Engagement</text>
</g>
<!-- Campaign&#45;&gt;Engagement -->
<g id="edge22" class="edge"><title>Campaign&#45;&gt;Engagement</title>
<path fill="none" stroke="black" d="M692.009,-572.978C766.949,-560.944 898.042,-540.785 1011,-528 1020.12,-526.968 1255.72,-507.812 1383.06,-497.48"/>
<ellipse fill="none" stroke="black" cx="687.994" cy="-573.625" rx="4.00001" ry="4.00001"/>
<polygon fill="black" stroke="black" points="1383.2,-497.47 1393.53,-501.146 1388.18,-497.065 1393.16,-496.661 1393.16,-496.661 1393.16,-496.661 1388.18,-497.065 1392.8,-492.176 1383.2,-497.47 1383.2,-497.47"/>
</g>
<!-- Amenity -->
<g id="node12" class="node"><title>Amenity</title>
<ellipse fill="none" stroke="black" cx="1251" cy="-695" rx="51.8276" ry="18.3848"/>
<text text-anchor="middle" x="1251" y="-691.4" font-family="Times Roman,serif" font-size="14.00">Amenity</text>
</g>
<!-- Place -->
<g id="node17" class="node"><title>Place</title>
<ellipse fill="none" stroke="black" cx="1291" cy="-583" rx="36.977" ry="18.3848"/>
<text text-anchor="middle" x="1291" y="-579.4" font-family="Times Roman,serif" font-size="14.00">Place</text>
</g>
<!-- Amenity&#45;&gt;Place -->
<g id="edge26" class="edge"><title>Amenity&#45;&gt;Place</title>
<path fill="none" stroke="black" d="M1260.98,-667.067C1267.09,-649.951 1274.89,-628.117 1281,-610.991"/>
<polygon fill="black" stroke="black" points="1260.97,-667.088 1253.37,-674.992 1259.29,-671.797 1257.61,-676.505 1257.61,-676.505 1257.61,-676.505 1259.29,-671.797 1261.84,-678.019 1260.97,-667.088 1260.97,-667.088"/>
<polygon fill="black" stroke="black" points="1281.02,-610.939 1288.62,-603.036 1282.7,-606.231 1284.39,-601.522 1284.39,-601.522 1284.39,-601.522 1282.7,-606.231 1280.15,-600.008 1281.02,-610.939 1281.02,-610.939"/>
</g>
<!-- Category -->
<g id="node13" class="node"><title>Category</title>
<ellipse fill="none" stroke="black" cx="1981" cy="-639" rx="56.0679" ry="18.3848"/>
<text text-anchor="middle" x="1981" y="-635.4" font-family="Times Roman,serif" font-size="14.00">Category</text>
</g>
<!-- Busines -->
<g id="node55" class="node"><title>Busines</title>
<ellipse fill="none" stroke="black" cx="1937" cy="-323" rx="48.9975" ry="18.3848"/>
<text text-anchor="middle" x="1937" y="-319.4" font-family="Times Roman,serif" font-size="14.00">Busines</text>
</g>
<!-- Category&#45;&gt;Busines -->
<g id="edge28" class="edge"><title>Category&#45;&gt;Busines</title>
<path fill="none" stroke="black" d="M1971.25,-610.729C1958.33,-571.595 1936.2,-498.44 1928,-434 1925.87,-417.246 1927.77,-412.887 1928,-396 1928.22,-379.995 1927.08,-375.89 1929,-360 1929.33,-357.28 1929.76,-354.465 1930.26,-351.658"/>
<polygon fill="black" stroke="black" points="1971.31,-610.892 1970.22,-621.803 1972.9,-615.634 1974.48,-620.375 1974.48,-620.375 1974.48,-620.375 1972.9,-615.634 1978.75,-618.947 1971.31,-610.892 1971.31,-610.892"/>
<polygon fill="black" stroke="black" points="1930.29,-351.514 1936.66,-342.592 1931.27,-346.611 1932.25,-341.709 1932.25,-341.709 1932.25,-341.709 1931.27,-346.611 1927.84,-340.825 1930.29,-351.514 1930.29,-351.514"/>
<text text-anchor="middle" x="1978" y="-487.4" font-family="Times Roman,serif" font-size="14.00">businesses</text>
</g>
<!-- Image -->
<g id="node15" class="node"><title>Image</title>
<ellipse fill="none" stroke="black" cx="1472" cy="-323" rx="41.2167" ry="18.3848"/>
<text text-anchor="middle" x="1472" y="-319.4" font-family="Times Roman,serif" font-size="14.00">Image</text>
</g>
<!-- BrandImage -->
<g id="node20" class="node"><title>BrandImage</title>
<ellipse fill="none" stroke="black" cx="1766" cy="-247" rx="70.2092" ry="18.3848"/>
<text text-anchor="middle" x="1766" y="-243.4" font-family="Times Roman,serif" font-size="14.00">BrandImage</text>
</g>
<!-- Image&#45;&gt;BrandImage -->
<g id="edge86" class="edge"><title>Image&#45;&gt;BrandImage</title>
<path fill="none" stroke="black" d="M1502.72,-310.59C1509.04,-308.244 1515.69,-305.925 1522,-304 1585.24,-284.692 1659.4,-268.218 1709.22,-258.019"/>
</g>
<!-- QrCodeImage -->
<g id="node36" class="node"><title>QrCodeImage</title>
<ellipse fill="none" stroke="black" cx="1355" cy="-171" rx="77.7817" ry="18.3848"/>
<text text-anchor="middle" x="1355" y="-167.4" font-family="Times Roman,serif" font-size="14.00">QrCodeImage</text>
</g>
<!-- Image&#45;&gt;QrCodeImage -->
<g id="edge136" class="edge"><title>Image&#45;&gt;QrCodeImage</title>
<path fill="none" stroke="black" d="M1458.35,-305.266C1436.05,-276.291 1392.01,-219.076 1369.29,-189.568"/>
</g>
<!-- Account&#45;&gt;Transaction -->
<g id="edge30" class="edge"><title>Account&#45;&gt;Transaction</title>
<path fill="none" stroke="black" d="M562.859,-159.835C626.117,-146.216 732.998,-123.204 800.948,-108.575"/>
<ellipse fill="none" stroke="black" cx="558.904" cy="-160.686" rx="4.00001" ry="4.00001"/>
<polygon fill="black" stroke="black" points="801.317,-108.495 812.041,-110.79 806.205,-107.443 811.093,-106.391 811.093,-106.391 811.093,-106.391 806.205,-107.443 810.146,-101.991 801.317,-108.495 801.317,-108.495"/>
</g>
<!-- Place&#45;&gt;OpenHour -->
<g id="edge48" class="edge"><title>Place&#45;&gt;OpenHour</title>
<path fill="none" stroke="black" d="M1262.23,-563.389C1254.06,-557.794 1245.17,-551.676 1237,-546 1222.01,-535.584 1205.49,-523.95 1191.52,-514.074"/>
<ellipse fill="none" stroke="black" cx="1265.58" cy="-565.687" rx="4.00002" ry="4.00002"/>
<polygon fill="black" stroke="black" points="1191.35,-513.955 1185.78,-504.505 1187.27,-511.067 1183.18,-508.178 1183.18,-508.178 1183.18,-508.178 1187.27,-511.067 1180.58,-511.852 1191.35,-513.955 1191.35,-513.955"/>
</g>
<!-- Place&#45;&gt;Reward -->
<g id="edge44" class="edge"><title>Place&#45;&gt;Reward</title>
<path fill="none" stroke="black" d="M1244.49,-577.135C1188.9,-570.06 1093.09,-557.659 1011,-546 902.274,-530.558 775.441,-510.911 704.45,-499.767"/>
<polygon fill="black" stroke="black" points="1244.8,-577.174 1254.16,-582.899 1249.76,-577.804 1254.72,-578.435 1254.72,-578.435 1254.72,-578.435 1249.76,-577.804 1255.29,-573.971 1244.8,-577.174 1244.8,-577.174"/>
<polygon fill="black" stroke="black" points="704.269,-499.738 695.089,-493.74 699.33,-498.962 694.39,-498.185 694.39,-498.185 694.39,-498.185 699.33,-498.962 693.692,-502.631 704.269,-499.738 704.269,-499.738"/>
</g>
<!-- Place&#45;&gt;QrCode -->
<g id="edge46" class="edge"><title>Place&#45;&gt;QrCode</title>
<path fill="none" stroke="black" d="M1272.83,-559.128C1261.09,-541.334 1248,-515.903 1248,-491 1248,-491 1248,-491 1248,-323 1248,-307.439 1248,-290.085 1248,-275.894"/>
<ellipse fill="none" stroke="black" cx="1275.13" cy="-562.492" rx="4.00002" ry="4.00002"/>
<polygon fill="black" stroke="black" points="1248,-275.74 1252.5,-265.74 1248,-270.74 1248,-265.74 1248,-265.74 1248,-265.74 1248,-270.74 1243.5,-265.74 1248,-275.74 1248,-275.74"/>
</g>
<!-- Place&#45;&gt;Engagement -->
<g id="edge42" class="edge"><title>Place&#45;&gt;Engagement</title>
<path fill="none" stroke="black" d="M1325.32,-564.62C1335.89,-558.809 1347.5,-552.266 1358,-546 1370.7,-538.42 1373.09,-535.217 1386,-528 1396.11,-522.348 1407.22,-516.7 1417.78,-511.58"/>
<polygon fill="black" stroke="black" points="1325.14,-564.721 1314.2,-565.563 1320.75,-567.117 1316.36,-569.513 1316.36,-569.513 1316.36,-569.513 1320.75,-567.117 1318.52,-573.463 1325.14,-564.721 1325.14,-564.721"/>
<polygon fill="black" stroke="black" points="1417.86,-511.544 1428.82,-511.289 1422.37,-509.387 1426.88,-507.23 1426.88,-507.23 1426.88,-507.23 1422.37,-509.387 1424.94,-503.17 1417.86,-511.544 1417.86,-511.544"/>
</g>
<!-- Follower -->
<g id="node35" class="node"><title>Follower</title>
<ellipse fill="none" stroke="black" cx="1584" cy="-323" rx="53.033" ry="18.3848"/>
<text text-anchor="middle" x="1584" y="-319.4" font-family="Times Roman,serif" font-size="14.00">Follower</text>
</g>
<!-- Place&#45;&gt;Follower -->
<g id="edge50" class="edge"><title>Place&#45;&gt;Follower</title>
<path fill="none" stroke="black" d="M1310.15,-558.92C1334.26,-528.677 1373.45,-479.779 1381,-472 1434.12,-417.275 1447.64,-402.438 1511,-360 1520.68,-353.518 1531.64,-347.393 1542.08,-342.061"/>
<ellipse fill="none" stroke="black" cx="1307.45" cy="-562.308" rx="4.00002" ry="4.00002"/>
<polygon fill="black" stroke="black" points="1542.12,-342.043 1553.08,-341.62 1546.59,-339.817 1551.07,-337.59 1551.07,-337.59 1551.07,-337.59 1546.59,-339.817 1549.07,-333.561 1542.12,-342.043 1542.12,-342.043"/>
</g>
<!-- ActsAsTaggableOn::Tagging -->
<g id="node58" class="node"><title>ActsAsTaggableOn::Tagging</title>
<ellipse fill="none" stroke="black" cx="936" cy="-491" rx="144.25" ry="18.3848"/>
<text text-anchor="middle" x="936" y="-487.4" font-family="Times Roman,serif" font-size="14.00">ActsAsTaggableOn::Tagging</text>
</g>
<!-- Place&#45;&gt;ActsAsTaggableOn::Tagging -->
<g id="edge32" class="edge"><title>Place&#45;&gt;ActsAsTaggableOn::Tagging</title>
<path fill="none" stroke="black" d="M1245.98,-579.213C1183.62,-573.494 1074.51,-561.638 1038,-546 1026.07,-540.89 1026.06,-534.796 1015,-528 1006.39,-522.707 996.895,-517.659 987.567,-513.088"/>
<ellipse fill="none" stroke="black" cx="1250.1" cy="-579.586" rx="4" ry="4"/>
<polygon fill="black" stroke="black" points="987.359,-512.988 980.27,-504.622 982.846,-510.836 978.333,-508.684 978.333,-508.684 978.333,-508.684 982.846,-510.836 976.396,-512.746 987.359,-512.988 987.359,-512.988"/>
<text text-anchor="middle" x="1067.5" y="-533.4" font-family="Times Roman,serif" font-size="14.00">taggings</text>
</g>
<!-- Place&#45;&gt;ActsAsTaggableOn::Tagging -->
<g id="edge36" class="edge"><title>Place&#45;&gt;ActsAsTaggableOn::Tagging</title>
<path fill="none" stroke="black" d="M1246.19,-578.876C1210.63,-574.312 1160.35,-564.927 1120,-546 1108.25,-540.488 1108.72,-533.587 1097,-528 1079.06,-519.446 1059.04,-512.812 1039.37,-507.685"/>
<ellipse fill="none" stroke="black" cx="1250.48" cy="-579.399" rx="4.00001" ry="4.00001"/>
<polygon fill="black" stroke="black" points="1039.15,-507.63 1030.54,-500.847 1034.3,-506.422 1029.45,-505.214 1029.45,-505.214 1029.45,-505.214 1034.3,-506.422 1028.36,-509.58 1039.15,-507.63 1039.15,-507.63"/>
<text text-anchor="middle" x="1164.5" y="-533.4" font-family="Times Roman,serif" font-size="14.00">tag_taggings</text>
</g>
<!-- ActsAsTaggableOn::Tag -->
<g id="node60" class="node"><title>ActsAsTaggableOn::Tag</title>
<ellipse fill="none" stroke="black" cx="1677" cy="-491" rx="123.243" ry="18.3848"/>
<text text-anchor="middle" x="1677" y="-487.4" font-family="Times Roman,serif" font-size="14.00">ActsAsTaggableOn::Tag</text>
</g>
<!-- Place&#45;&gt;ActsAsTaggableOn::Tag -->
<g id="edge34" class="edge"><title>Place&#45;&gt;ActsAsTaggableOn::Tag</title>
<path fill="none" stroke="black" d="M1329.64,-567.691C1332.8,-566.441 1335.96,-565.198 1339,-564 1349.21,-559.98 1420.4,-530.834 1431,-528 1438.4,-526.021 1513.25,-514.859 1578.45,-505.307"/>
<polygon fill="black" stroke="black" points="1329.48,-567.751 1318.53,-567.242 1324.83,-569.589 1320.18,-571.427 1320.18,-571.427 1320.18,-571.427 1324.83,-569.589 1321.84,-575.612 1329.48,-567.751 1329.48,-567.751"/>
<polygon fill="black" stroke="black" points="1578.51,-505.298 1589.06,-508.303 1583.46,-504.574 1588.41,-503.85 1588.41,-503.85 1588.41,-503.85 1583.46,-504.574 1587.76,-499.398 1578.51,-505.298 1578.51,-505.298"/>
<text text-anchor="middle" x="1465.5" y="-533.4" font-family="Times Roman,serif" font-size="14.00">base_tags</text>
</g>
<!-- Place&#45;&gt;ActsAsTaggableOn::Tag -->
<g id="edge38" class="edge"><title>Place&#45;&gt;ActsAsTaggableOn::Tag</title>
<path fill="none" stroke="black" d="M1328.18,-567.177C1331.8,-565.974 1335.44,-564.886 1339,-564 1408.87,-546.597 1433.34,-573.22 1500,-546 1512.02,-541.093 1511.31,-533.645 1523,-528 1541.51,-519.059 1562.35,-512.185 1582.57,-506.933"/>
<polygon fill="black" stroke="black" points="1328.17,-567.18 1317.24,-566.336 1323.47,-568.875 1318.76,-570.569 1318.76,-570.569 1318.76,-570.569 1323.47,-568.875 1320.29,-574.803 1328.17,-567.18 1328.17,-567.18"/>
<polygon fill="black" stroke="black" points="1582.73,-506.893 1593.52,-508.85 1587.58,-505.688 1592.43,-504.483 1592.43,-504.483 1592.43,-504.483 1587.58,-505.688 1591.35,-500.115 1582.73,-506.893 1582.73,-506.893"/>
<text text-anchor="middle" x="1538" y="-533.4" font-family="Times Roman,serif" font-size="14.00">tags</text>
</g>
<!-- Addres -->
<g id="node64" class="node"><title>Addres</title>
<ellipse fill="none" stroke="black" cx="1368" cy="-323" rx="44.7575" ry="18.3848"/>
<text text-anchor="middle" x="1368" y="-319.4" font-family="Times Roman,serif" font-size="14.00">Addres</text>
</g>
<!-- Place&#45;&gt;Addres -->
<g id="edge40" class="edge"><title>Place&#45;&gt;Addres</title>
<path fill="none" stroke="black" d="M1284.17,-556.716C1275.53,-516.818 1266.06,-440.879 1305,-396 1329.45,-367.819 1363.62,-407.075 1387,-378 1393.98,-369.322 1391.42,-357.918 1386.25,-347.746"/>
<ellipse fill="none" stroke="black" cx="1285.1" cy="-560.759" rx="4.00001" ry="4.00001"/>
<ellipse fill="black" stroke="black" cx="1384.13" cy="-344.075" rx="4.00002" ry="4.00002"/>
</g>
<!-- EngagementType -->
<g id="node18" class="node"><title>EngagementType</title>
<ellipse fill="none" stroke="black" cx="1443" cy="-583" rx="94.9596" ry="18.3848"/>
<text text-anchor="middle" x="1443" y="-579.4" font-family="Times Roman,serif" font-size="14.00">EngagementType</text>
</g>
<!-- EngagementType&#45;&gt;Engagement -->
<g id="edge52" class="edge"><title>EngagementType&#45;&gt;Engagement</title>
<path fill="none" stroke="black" d="M1468.38,-558.218C1471.07,-554.39 1473.41,-550.278 1475,-546 1478.16,-537.508 1477.46,-527.953 1475.28,-519.218"/>
<ellipse fill="none" stroke="black" cx="1465.69" cy="-561.632" rx="4.00002" ry="4.00002"/>
<polygon fill="black" stroke="black" points="1475.2,-518.986 1476.47,-508.093 1473.69,-514.22 1472.18,-509.455 1472.18,-509.455 1472.18,-509.455 1473.69,-514.22 1467.89,-510.816 1475.2,-518.986 1475.2,-518.986"/>
</g>
<!-- Business -->
<g id="node19" class="node"><title>Business</title>
<ellipse fill="none" stroke="black" cx="1441" cy="-799" rx="53.9477" ry="18.3848"/>
<text text-anchor="middle" x="1441" y="-795.4" font-family="Times Roman,serif" font-size="14.00">Business</text>
</g>
<!-- Business&#45;&gt;Announcement -->
<g id="edge74" class="edge"><title>Business&#45;&gt;Announcement</title>
<path fill="none" stroke="black" d="M1502.29,-794.727C1637.95,-784.929 1959.94,-759.7 2066,-734 2084.17,-729.598 2103.45,-722.657 2120.19,-715.844"/>
<ellipse fill="none" stroke="black" cx="1498.01" cy="-795.035" rx="4" ry="4"/>
<polygon fill="black" stroke="black" points="2120.49,-715.717 2131.45,-716.02 2125.1,-713.792 2129.72,-711.867 2129.72,-711.867 2129.72,-711.867 2125.1,-713.792 2127.99,-707.714 2120.49,-715.717 2120.49,-715.717"/>
</g>
<!-- Business&#45;&gt;AccountHolder -->
<g id="edge78" class="edge"><title>Business&#45;&gt;AccountHolder</title>
<path fill="none" stroke="black" d="M1379.87,-794.299C1243.49,-783.782 904.034,-757.434 620,-734 563.525,-729.341 368,-751.667 368,-695 368,-695 368,-695 368,-369 368,-326.597 484.763,-285.502 559.644,-263.508"/>
<ellipse fill="none" stroke="black" cx="1384.17" cy="-794.631" rx="4" ry="4"/>
<ellipse fill="black" stroke="black" cx="563.813" cy="-262.296" rx="4.00001" ry="4.00001"/>
</g>
<!-- Business&#45;&gt;Category -->
<g id="edge84" class="edge"><title>Business&#45;&gt;Category</title>
<path fill="none" stroke="black" d="M1505.13,-797.164C1620.3,-792.775 1856.42,-778.475 1924,-734 1947.83,-718.32 1963.17,-688.929 1971.87,-666.973"/>
<polygon fill="black" stroke="black" points="1505.04,-797.167 1494.88,-793.038 1500.04,-797.351 1495.05,-797.535 1495.05,-797.535 1495.05,-797.535 1500.04,-797.351 1495.21,-802.032 1505.04,-797.167 1505.04,-797.167"/>
<polygon fill="black" stroke="black" points="1971.92,-666.855 1979.62,-659.056 1973.66,-662.17 1975.41,-657.485 1975.41,-657.485 1975.41,-657.485 1973.66,-662.17 1971.19,-655.914 1971.92,-666.855 1971.92,-666.855"/>
</g>
<!-- Business&#45;&gt;Place -->
<g id="edge64" class="edge"><title>Business&#45;&gt;Place</title>
<path fill="none" stroke="black" d="M1412.04,-777.056C1392.58,-761.182 1367.41,-738.321 1350,-714 1326.85,-681.667 1309.65,-638.801 1299.97,-611.06"/>
<ellipse fill="none" stroke="black" cx="1415.28" cy="-779.659" rx="4.00002" ry="4.00002"/>
<polygon fill="black" stroke="black" points="1299.97,-611.04 1301.01,-600.124 1298.36,-606.306 1296.75,-601.572 1296.75,-601.572 1296.75,-601.572 1298.36,-606.306 1292.49,-603.02 1299.97,-611.04 1299.97,-611.04"/>
</g>
<!-- Program -->
<g id="node21" class="node"><title>Program</title>
<ellipse fill="none" stroke="black" cx="449" cy="-695" rx="53.033" ry="18.3848"/>
<text text-anchor="middle" x="449" y="-691.4" font-family="Times Roman,serif" font-size="14.00">Program</text>
</g>
<!-- Business&#45;&gt;Program -->
<g id="edge66" class="edge"><title>Business&#45;&gt;Program</title>
<path fill="none" stroke="black" d="M1378.71,-797.729C1228.21,-793.702 833.409,-777.429 511,-714 506.343,-713.084 501.539,-711.954 496.762,-710.706"/>
<ellipse fill="none" stroke="black" cx="1382.98" cy="-797.84" rx="4" ry="4"/>
<polygon fill="black" stroke="black" points="496.686,-710.685 488.255,-703.673 491.869,-709.347 487.051,-708.009 487.051,-708.009 487.051,-708.009 491.869,-709.347 485.847,-712.345 496.686,-710.685 496.686,-710.685"/>
</g>
<!-- Target -->
<g id="node30" class="node"><title>Target</title>
<ellipse fill="none" stroke="black" cx="782" cy="-695" rx="41.9273" ry="18.3848"/>
<text text-anchor="middle" x="782" y="-691.4" font-family="Times Roman,serif" font-size="14.00">Target</text>
</g>
<!-- Business&#45;&gt;Target -->
<g id="edge62" class="edge"><title>Business&#45;&gt;Target</title>
<path fill="none" stroke="black" d="M1378.9,-796.209C1245.56,-789.587 936.05,-770.666 838,-734 827.846,-730.203 817.797,-724.138 809.074,-717.911"/>
<ellipse fill="none" stroke="black" cx="1383.04" cy="-796.413" rx="4" ry="4"/>
<polygon fill="black" stroke="black" points="808.827,-717.725 803.547,-708.114 804.833,-714.717 800.839,-711.709 800.839,-711.709 800.839,-711.709 804.833,-714.717 798.132,-715.303 808.827,-717.725 808.827,-717.725"/>
</g>
<!-- Business&#45;&gt;Log -->
<g id="edge76" class="edge"><title>Business&#45;&gt;Log</title>
<path fill="none" stroke="black" d="M1502.23,-794.96C1657.07,-783.929 2052,-750.366 2052,-695 2052,-695 2052,-695 2052,-95 2052,-40.3702 1181.83,-22.8592 985.175,-19.5993"/>
<ellipse fill="none" stroke="black" cx="1498.14" cy="-795.249" rx="4" ry="4"/>
<polygon fill="black" stroke="black" points="985.013,-19.5968 975.088,-14.9343 980.014,-19.5152 975.014,-19.4337 975.014,-19.4337 975.014,-19.4337 980.014,-19.5152 974.941,-23.9331 985.013,-19.5968 985.013,-19.5968"/>
</g>
<!-- Business&#45;&gt;User -->
<g id="edge72" class="edge"><title>Business&#45;&gt;User</title>
<path fill="none" stroke="black" d="M1377.03,-795.817C1255.22,-788.589 995.857,-767.24 926,-714 826.637,-638.273 711.407,-574.381 783,-472 796.472,-452.735 856.069,-434.887 897.569,-424.466"/>
<polygon fill="black" stroke="black" points="1377.34,-795.835 1387.06,-800.906 1382.33,-796.124 1387.32,-796.413 1387.32,-796.413 1387.32,-796.413 1382.33,-796.124 1387.58,-791.921 1377.34,-795.835 1377.34,-795.835"/>
<polygon fill="black" stroke="black" points="897.718,-424.43 908.503,-426.414 902.574,-423.237 907.429,-422.044 907.429,-422.044 907.429,-422.044 902.574,-423.237 906.356,-417.674 897.718,-424.43 897.718,-424.43"/>
</g>
<!-- Business&#45;&gt;Follower -->
<g id="edge70" class="edge"><title>Business&#45;&gt;Follower</title>
<path fill="none" stroke="black" d="M1498.54,-789.856C1606.42,-769.127 1835.55,-707.187 1917,-546 1978.47,-424.355 1750.9,-358.304 1640.63,-333.992"/>
<ellipse fill="none" stroke="black" cx="1494.29" cy="-790.654" rx="4.00001" ry="4.00001"/>
<polygon fill="black" stroke="black" points="1640.43,-333.949 1631.61,-327.438 1635.55,-332.893 1630.66,-331.836 1630.66,-331.836 1630.66,-331.836 1635.55,-332.893 1629.71,-336.235 1640.43,-333.949 1640.43,-333.949"/>
</g>
<!-- MeasurementType -->
<g id="node37" class="node"><title>MeasurementType</title>
<ellipse fill="none" stroke="black" cx="621" cy="-695" rx="101.116" ry="18.3848"/>
<text text-anchor="middle" x="621" y="-691.4" font-family="Times Roman,serif" font-size="14.00">MeasurementType</text>
</g>
<!-- Business&#45;&gt;MeasurementType -->
<g id="edge68" class="edge"><title>Business&#45;&gt;MeasurementType</title>
<path fill="none" stroke="black" d="M1380.19,-794.092C1270.25,-784.868 1031.23,-763.216 831,-734 786.856,-727.559 737.825,-718.559 698.249,-710.827"/>
<ellipse fill="none" stroke="black" cx="1384.21" cy="-794.428" rx="4" ry="4"/>
<polygon fill="black" stroke="black" points="698.212,-710.82 689.268,-704.476 693.306,-709.856 688.4,-708.891 688.4,-708.891 688.4,-708.891 693.306,-709.856 687.532,-713.307 698.212,-710.82 698.212,-710.82"/>
</g>
<!-- Business&#45;&gt;ActsAsTaggableOn::Tagging -->
<g id="edge54" class="edge"><title>Business&#45;&gt;ActsAsTaggableOn::Tagging</title>
<path fill="none" stroke="black" d="M1379.38,-795.372C1272.07,-788.198 1056.04,-769.709 990,-734 950.39,-712.582 938.916,-700.123 923,-658 905.534,-611.775 916.982,-553.339 926.655,-519.267"/>
<ellipse fill="none" stroke="black" cx="1383.55" cy="-795.647" rx="4" ry="4"/>
<polygon fill="black" stroke="black" points="926.705,-519.098 933.878,-510.803 928.136,-514.307 929.566,-509.516 929.566,-509.516 929.566,-509.516 928.136,-514.307 925.254,-508.229 926.705,-519.098 926.705,-519.098"/>
<text text-anchor="middle" x="952.5" y="-635.4" font-family="Times Roman,serif" font-size="14.00">taggings</text>
</g>
<!-- Business&#45;&gt;ActsAsTaggableOn::Tagging -->
<g id="edge58" class="edge"><title>Business&#45;&gt;ActsAsTaggableOn::Tagging</title>
<path fill="none" stroke="black" d="M1386.86,-787.235C1334.19,-774.313 1253.1,-750.425 1190,-714 1093.68,-658.398 1000.75,-562.891 958.995,-517.046"/>
<ellipse fill="none" stroke="black" cx="1390.85" cy="-788.199" rx="4.00001" ry="4.00001"/>
<polygon fill="black" stroke="black" points="958.975,-517.025 955.609,-506.588 955.623,-513.315 952.271,-509.605 952.271,-509.605 952.271,-509.605 955.623,-513.315 948.932,-512.623 958.975,-517.025 958.975,-517.025"/>
<text text-anchor="middle" x="1151.5" y="-635.4" font-family="Times Roman,serif" font-size="14.00">tag_taggings</text>
</g>
<!-- Business&#45;&gt;ActsAsTaggableOn::Tag -->
<g id="edge56" class="edge"><title>Business&#45;&gt;ActsAsTaggableOn::Tag</title>
<path fill="none" stroke="black" d="M1490.92,-782.864C1516.15,-772.459 1545.48,-756.585 1565,-734 1600.11,-693.375 1582.95,-668.957 1605,-620 1621.33,-583.761 1644.27,-544.125 1659.84,-518.484"/>
<polygon fill="black" stroke="black" points="1490.78,-782.919 1479.83,-782.401 1486.13,-784.753 1481.48,-786.587 1481.48,-786.587 1481.48,-786.587 1486.13,-784.753 1483.13,-790.773 1490.78,-782.919 1490.78,-782.919"/>
<polygon fill="black" stroke="black" points="1659.99,-518.232 1669.05,-512.053 1662.6,-513.967 1665.21,-509.703 1665.21,-509.703 1665.21,-509.703 1662.6,-513.967 1661.37,-507.354 1659.99,-518.232 1659.99,-518.232"/>
<text text-anchor="middle" x="1639.5" y="-635.4" font-family="Times Roman,serif" font-size="14.00">base_tags</text>
</g>
<!-- Business&#45;&gt;ActsAsTaggableOn::Tag -->
<g id="edge60" class="edge"><title>Business&#45;&gt;ActsAsTaggableOn::Tag</title>
<path fill="none" stroke="black" d="M1458.42,-772.129C1488.56,-725.694 1548.28,-634.038 1559,-620 1592.07,-576.709 1602.72,-567.726 1640,-528 1643.4,-524.381 1647.03,-520.623 1650.64,-516.948"/>
<polygon fill="black" stroke="black" points="1458.25,-772.388 1449.03,-778.327 1455.53,-776.582 1452.81,-780.776 1452.81,-780.776 1452.81,-780.776 1455.53,-776.582 1456.58,-783.226 1458.25,-772.388 1458.25,-772.388"/>
<polygon fill="black" stroke="black" points="1650.89,-516.69 1661.14,-512.767 1654.42,-513.143 1657.94,-509.596 1657.94,-509.596 1657.94,-509.596 1654.42,-513.143 1654.75,-506.424 1650.89,-516.69 1650.89,-516.69"/>
<text text-anchor="middle" x="1574" y="-635.4" font-family="Times Roman,serif" font-size="14.00">tags</text>
</g>
<!-- Business&#45;&gt;Addres -->
<g id="edge80" class="edge"><title>Business&#45;&gt;Addres</title>
<path fill="none" stroke="black" d="M1491.99,-785.288C1548.72,-766.92 1637.22,-728.201 1674,-658 1700.88,-606.698 1643.56,-570.416 1683,-528 1721.52,-486.571 1771.94,-552.735 1809,-510 1820.07,-497.241 1819.27,-485.409 1809,-472 1760.3,-408.399 1534.81,-409.116 1461,-378 1438.87,-368.673 1415.62,-354.922 1397.9,-343.503"/>
<ellipse fill="none" stroke="black" cx="1488.02" cy="-786.541" rx="4.00001" ry="4.00001"/>
<ellipse fill="black" stroke="black" cx="1394.5" cy="-341.282" rx="4.00002" ry="4.00002"/>
<text text-anchor="middle" x="1738" y="-533.4" font-family="Times Roman,serif" font-size="14.00">mailing_address</text>
</g>
<!-- Business&#45;&gt;Addres -->
<g id="edge82" class="edge"><title>Business&#45;&gt;Addres</title>
<path fill="none" stroke="black" d="M1487.03,-783.035C1522.55,-770.443 1572.76,-752.051 1616,-734 1635.45,-725.88 1642.33,-726.9 1659,-714 1670.61,-705.014 1822.04,-523.819 1827,-510 1832.7,-494.103 1834.45,-487.159 1827,-472 1822.51,-462.864 1691.51,-363.618 1682,-360 1573.73,-318.826 1535.44,-365.435 1422,-342 1417.45,-341.06 1412.76,-339.829 1408.13,-338.445"/>
<ellipse fill="none" stroke="black" cx="1483" cy="-784.457" rx="4.00001" ry="4.00001"/>
<ellipse fill="black" stroke="black" cx="1404.25" cy="-337.21" rx="4.00001" ry="4.00001"/>
<text text-anchor="middle" x="1864.5" y="-533.4" font-family="Times Roman,serif" font-size="14.00">billing_address</text>
</g>
<!-- Program&#45;&gt;Campaign -->
<g id="edge88" class="edge"><title>Program&#45;&gt;Campaign</title>
<path fill="none" stroke="black" d="M482.618,-674.312C514.565,-654.652 562.451,-625.184 595.123,-605.078"/>
<ellipse fill="none" stroke="black" cx="478.871" cy="-676.618" rx="4.00002" ry="4.00002"/>
<polygon fill="black" stroke="black" points="595.393,-604.912 606.268,-603.504 599.651,-602.292 603.909,-599.671 603.909,-599.671 603.909,-599.671 599.651,-602.292 601.551,-595.839 595.393,-604.912 595.393,-604.912"/>
</g>
<!-- Address -->
<g id="node22" class="node"><title>Address</title>
<ellipse fill="none" stroke="black" cx="2342" cy="-799" rx="50.2046" ry="18.3848"/>
<text text-anchor="middle" x="2342" y="-795.4" font-family="Times Roman,serif" font-size="14.00">Address</text>
</g>
<!-- QrCode&#45;&gt;QrCodeImage -->
<g id="edge90" class="edge"><title>QrCode&#45;&gt;QrCodeImage</title>
<path fill="none" stroke="black" d="M1277.77,-225.852C1291.96,-215.773 1308.95,-203.711 1323.37,-193.467"/>
<ellipse fill="none" stroke="black" cx="1274.22" cy="-228.38" rx="4.00002" ry="4.00002"/>
<ellipse fill="black" stroke="black" cx="1326.96" cy="-190.918" rx="4.00002" ry="4.00002"/>
</g>
<!-- PrintJob -->
<g id="node24" class="node"><title>PrintJob</title>
<ellipse fill="none" stroke="black" cx="2460" cy="-799" rx="50.2046" ry="18.3848"/>
<text text-anchor="middle" x="2460" y="-795.4" font-family="Times Roman,serif" font-size="14.00">PrintJob</text>
</g>
<!-- AccountType -->
<g id="node25" class="node"><title>AccountType</title>
<ellipse fill="none" stroke="black" cx="410" cy="-247" rx="73.0388" ry="18.3848"/>
<text text-anchor="middle" x="410" y="-243.4" font-family="Times Roman,serif" font-size="14.00">AccountType</text>
</g>
<!-- AccountType&#45;&gt;Account -->
<g id="edge92" class="edge"><title>AccountType&#45;&gt;Account</title>
<path fill="none" stroke="black" d="M439.915,-224.49C452.751,-214.831 467.729,-203.56 480.617,-193.862"/>
<ellipse fill="none" stroke="black" cx="436.622" cy="-226.968" rx="4.00002" ry="4.00002"/>
<polygon fill="black" stroke="black" points="480.751,-193.762 491.447,-191.345 484.746,-190.755 488.741,-187.749 488.741,-187.749 488.741,-187.749 484.746,-190.755 486.036,-184.153 480.751,-193.762 480.751,-193.762"/>
</g>
<!-- Brand -->
<g id="node26" class="node"><title>Brand</title>
<ellipse fill="none" stroke="black" cx="1978" cy="-415" rx="41.0122" ry="18.3848"/>
<text text-anchor="middle" x="1978" y="-411.4" font-family="Times Roman,serif" font-size="14.00">Brand</text>
</g>
<!-- Brand&#45;&gt;BrandImage -->
<g id="edge96" class="edge"><title>Brand&#45;&gt;BrandImage</title>
<path fill="none" stroke="black" d="M2003.41,-392.384C2006.92,-387.986 2010,-383.134 2012,-378 2021.1,-354.652 1999.59,-308.364 1995,-304 1972.31,-282.434 1895.11,-266.304 1836.56,-256.805"/>
<ellipse fill="none" stroke="black" cx="2000.68" cy="-395.48" rx="4.00002" ry="4.00002"/>
<ellipse fill="black" stroke="black" cx="1832.38" cy="-256.139" rx="4.00001" ry="4.00001"/>
</g>
<!-- Brand&#45;&gt;Busines -->
<g id="edge94" class="edge"><title>Brand&#45;&gt;Busines</title>
<path fill="none" stroke="black" d="M1949.12,-393.839C1944.63,-389.154 1940.61,-383.827 1938,-378 1934.39,-369.945 1933.26,-360.538 1933.28,-351.804"/>
<ellipse fill="none" stroke="black" cx="1952.11" cy="-396.667" rx="4.00002" ry="4.00002"/>
<polygon fill="black" stroke="black" points="1933.29,-351.609 1938.29,-341.85 1933.55,-346.615 1933.8,-341.622 1933.8,-341.622 1933.8,-341.622 1933.55,-346.615 1929.3,-341.394 1933.29,-351.609 1933.29,-351.609"/>
<text text-anchor="middle" x="1975" y="-365.4" font-family="Times Roman,serif" font-size="14.00">businesses</text>
</g>
<!-- Employee -->
<g id="node27" class="node"><title>Employee</title>
<ellipse fill="none" stroke="black" cx="576" cy="-323" rx="58.1882" ry="18.3848"/>
<text text-anchor="middle" x="576" y="-319.4" font-family="Times Roman,serif" font-size="14.00">Employee</text>
</g>
<!-- Employee&#45;&gt;AccountHolder -->
<g id="edge98" class="edge"><title>Employee&#45;&gt;AccountHolder</title>
<path fill="none" stroke="black" d="M591.036,-297.607C595.798,-289.563 601.065,-280.669 605.836,-272.61"/>
<ellipse fill="none" stroke="black" cx="588.931" cy="-301.161" rx="4.00002" ry="4.00002"/>
<ellipse fill="black" stroke="black" cx="608.013" cy="-268.933" rx="4.00002" ry="4.00002"/>
</g>
<!-- EmployeeType -->
<g id="node28" class="node"><title>EmployeeType</title>
<ellipse fill="none" stroke="black" cx="553" cy="-415" rx="80.8184" ry="18.3848"/>
<text text-anchor="middle" x="553" y="-411.4" font-family="Times Roman,serif" font-size="14.00">EmployeeType</text>
</g>
<!-- EmployeeType&#45;&gt;Employee -->
<g id="edge100" class="edge"><title>EmployeeType&#45;&gt;Employee</title>
<path fill="none" stroke="black" d="M559.638,-388.447C562.54,-376.84 565.948,-363.21 568.9,-351.401"/>
<ellipse fill="none" stroke="black" cx="558.625" cy="-392.502" rx="4.00001" ry="4.00001"/>
<polygon fill="black" stroke="black" points="568.927,-351.291 575.718,-342.681 570.14,-346.441 571.353,-341.59 571.353,-341.59 571.353,-341.59 570.14,-346.441 566.987,-340.498 568.927,-351.291 568.927,-351.291"/>
</g>
<!-- AnnouncementType -->
<g id="node29" class="node"><title>AnnouncementType</title>
<ellipse fill="none" stroke="black" cx="2166" cy="-799" rx="108.187" ry="18.3848"/>
<text text-anchor="middle" x="2166" y="-795.4" font-family="Times Roman,serif" font-size="14.00">AnnouncementType</text>
</g>
<!-- AnnouncementType&#45;&gt;Announcement -->
<g id="edge102" class="edge"><title>AnnouncementType&#45;&gt;Announcement</title>
<path fill="none" stroke="black" d="M2166,-771.926C2166,-757.224 2166,-739.041 2166,-724.044"/>
<ellipse fill="none" stroke="black" cx="2166" cy="-776.407" rx="4" ry="4"/>
<polygon fill="black" stroke="black" points="2166,-723.783 2170.5,-713.783 2166,-718.783 2166,-713.783 2166,-713.783 2166,-713.783 2166,-718.783 2161.5,-713.783 2166,-723.783 2166,-723.783"/>
</g>
<!-- Target&#45;&gt;Campaign -->
<g id="edge104" class="edge"><title>Target&#45;&gt;Campaign</title>
<path fill="none" stroke="black" d="M743.66,-677.033C733.069,-671.463 721.801,-664.947 712,-658 691.173,-643.238 670.09,-623.533 654.656,-608.025"/>
<polygon fill="black" stroke="black" points="743.833,-677.122 750.691,-685.678 748.286,-679.396 752.738,-681.671 752.738,-681.671 752.738,-681.671 748.286,-679.396 754.786,-677.664 743.833,-677.122 743.833,-677.122"/>
<polygon fill="black" stroke="black" points="654.561,-607.928 650.771,-597.638 651.06,-604.359 647.559,-600.789 647.559,-600.789 647.559,-600.789 651.06,-604.359 644.346,-603.94 654.561,-607.928 654.561,-607.928"/>
</g>
<!-- Target&#45;&gt;User -->
<g id="edge106" class="edge"><title>Target&#45;&gt;User</title>
<path fill="none" stroke="black" d="M766.781,-667.925C741.483,-618.892 698.405,-514.676 750,-452 754.666,-446.331 841.933,-431.019 896.236,-421.968"/>
<polygon fill="black" stroke="black" points="766.89,-668.13 767.594,-679.073 769.23,-672.549 771.571,-676.967 771.571,-676.967 771.571,-676.967 769.23,-672.549 775.547,-674.861 766.89,-668.13 766.89,-668.13"/>
<polygon fill="black" stroke="black" points="896.428,-421.936 907.029,-424.739 901.361,-421.118 906.293,-420.3 906.293,-420.3 906.293,-420.3 901.361,-421.118 905.557,-415.86 896.428,-421.936 896.428,-421.936"/>
</g>
<!-- Engagement&#45;&gt;QrCode -->
<g id="edge108" class="edge"><title>Engagement&#45;&gt;QrCode</title>
<path fill="none" stroke="black" d="M1513.85,-473.218C1575.2,-450.609 1672.7,-410.593 1693,-378 1697.23,-371.21 1695.74,-367.517 1693,-360 1681.89,-329.467 1674.4,-319.789 1646,-304 1588.76,-272.175 1401.56,-256.379 1305.7,-250.213"/>
<ellipse fill="none" stroke="black" cx="1509.94" cy="-474.648" rx="4.00001" ry="4.00001"/>
<polygon fill="black" stroke="black" points="1305.58,-250.206 1295.88,-245.086 1300.59,-249.891 1295.6,-249.577 1295.6,-249.577 1295.6,-249.577 1300.59,-249.891 1295.32,-254.068 1305.58,-250.206 1305.58,-250.206"/>
</g>
<!-- Engagement&#45;&gt;Log -->
<g id="edge110" class="edge"><title>Engagement&#45;&gt;Log</title>
<path fill="none" stroke="black" d="M1524.18,-476.16C1572.01,-463.98 1634.11,-446.727 1657,-434 1765.35,-373.743 1864,-370.982 1864,-247 1864,-247 1864,-247 1864,-95 1864,-50.1882 1160.09,-25.5806 985.045,-20.1543"/>
<ellipse fill="none" stroke="black" cx="1520.21" cy="-477.164" rx="4.00001" ry="4.00001"/>
<polygon fill="black" stroke="black" points="984.985,-20.1525 975.128,-15.3478 979.988,-19.9991 974.99,-19.8457 974.99,-19.8457 974.99,-19.8457 979.988,-19.9991 974.852,-24.3436 984.985,-20.1525 984.985,-20.1525"/>
</g>
<!-- ProgramType -->
<g id="node33" class="node"><title>ProgramType</title>
<ellipse fill="none" stroke="black" cx="343" cy="-799" rx="75.1594" ry="18.3848"/>
<text text-anchor="middle" x="343" y="-795.4" font-family="Times Roman,serif" font-size="14.00">ProgramType</text>
</g>
<!-- ProgramType&#45;&gt;Program -->
<g id="edge112" class="edge"><title>ProgramType&#45;&gt;Program</title>
<path fill="none" stroke="black" d="M367.244,-775.213C384.112,-758.663 406.554,-736.645 423.658,-719.864"/>
<ellipse fill="none" stroke="black" cx="364.319" cy="-778.083" rx="4.00002" ry="4.00002"/>
<polygon fill="black" stroke="black" points="423.963,-719.565 434.253,-715.773 427.532,-716.063 431.101,-712.561 431.101,-712.561 431.101,-712.561 427.532,-716.063 427.949,-709.349 423.963,-719.565 423.963,-719.565"/>
</g>
<!-- User&#45;&gt;AccountHolder -->
<g id="edge130" class="edge"><title>User&#45;&gt;AccountHolder</title>
<path fill="none" stroke="black" d="M908.677,-397.155C885.926,-383.233 854.452,-362.821 829,-342 810.513,-326.877 811.306,-316.575 791,-304 759.771,-284.661 721.212,-271.04 688.716,-261.974"/>
<ellipse fill="none" stroke="black" cx="912.319" cy="-399.364" rx="4.00002" ry="4.00002"/>
<ellipse fill="black" stroke="black" cx="684.453" cy="-260.816" rx="4.00001" ry="4.00001"/>
</g>
<!-- User&#45;&gt;Template -->
<g id="edge114" class="edge"><title>User&#45;&gt;Template</title>
<path fill="none" stroke="black" d="M968.474,-396.586C977.427,-390.802 987.217,-384.282 996,-378 1009.82,-368.117 1024.68,-356.581 1037.13,-346.633"/>
<ellipse fill="none" stroke="black" cx="964.877" cy="-398.891" rx="4.00002" ry="4.00002"/>
<polygon fill="black" stroke="black" points="1037.14,-346.625 1047.76,-343.866 1041.04,-343.492 1044.94,-340.359 1044.94,-340.359 1044.94,-340.359 1041.04,-343.492 1042.12,-336.852 1037.14,-346.625 1037.14,-346.625"/>
</g>
<!-- User&#45;&gt;LegalId -->
<g id="edge116" class="edge"><title>User&#45;&gt;LegalId</title>
<path fill="none" stroke="black" d="M897.443,-409.731C867.794,-404.698 827.721,-395.229 796,-378 781.911,-370.348 768.525,-358.675 757.986,-348.048"/>
<ellipse fill="none" stroke="black" cx="901.564" cy="-410.398" rx="4.00001" ry="4.00001"/>
<polygon fill="black" stroke="black" points="757.75,-347.801 754.101,-337.461 754.298,-344.185 750.846,-340.568 750.846,-340.568 750.846,-340.568 754.298,-344.185 747.591,-343.675 757.75,-347.801 757.75,-347.801"/>
</g>
<!-- User&#45;&gt;QrCode -->
<g id="edge128" class="edge"><title>User&#45;&gt;QrCode</title>
<path fill="none" stroke="black" d="M977.513,-404.332C1017.47,-392.371 1080.99,-370.812 1131,-342 1166.23,-321.704 1201.8,-291.045 1224.32,-270.082"/>
<ellipse fill="none" stroke="black" cx="973.439" cy="-405.535" rx="4.00001" ry="4.00001"/>
<ellipse fill="black" stroke="black" cx="1227.4" cy="-267.184" rx="4.00002" ry="4.00002"/>
</g>
<!-- User&#45;&gt;Employee -->
<g id="edge124" class="edge"><title>User&#45;&gt;Employee</title>
<path fill="none" stroke="black" d="M898.922,-407.024C864.367,-399.969 813.208,-389.098 769,-378 720.918,-365.929 666.664,-350.286 627.951,-338.771"/>
<ellipse fill="none" stroke="black" cx="902.981" cy="-407.848" rx="4.00001" ry="4.00001"/>
<polygon fill="black" stroke="black" points="627.543,-338.649 619.248,-331.476 622.752,-337.218 617.961,-335.788 617.961,-335.788 617.961,-335.788 622.752,-337.218 616.673,-340.1 627.543,-338.649 627.543,-338.649"/>
</g>
<!-- User&#45;&gt;Log -->
<g id="edge126" class="edge"><title>User&#45;&gt;Log</title>
<path fill="none" stroke="black" d="M957.174,-391.128C968.909,-373.334 982,-347.903 982,-323 982,-323 982,-323 982,-95 982,-76.9156 973.572,-58.5388 964.871,-44.3864"/>
<ellipse fill="none" stroke="black" cx="954.867" cy="-394.492" rx="4.00002" ry="4.00002"/>
<polygon fill="black" stroke="black" points="964.686,-44.1033 962.963,-33.2736 961.943,-39.9226 959.201,-35.7419 959.201,-35.7419 959.201,-35.7419 961.943,-39.9226 955.438,-38.2102 964.686,-44.1033 964.686,-44.1033"/>
</g>
<!-- User&#45;&gt;Follower -->
<g id="edge118" class="edge"><title>User&#45;&gt;Follower</title>
<path fill="none" stroke="black" d="M981.516,-413.863C1060.92,-411.208 1236.95,-402.812 1383,-378 1436.22,-368.959 1495.67,-351.775 1536.02,-339.01"/>
<ellipse fill="none" stroke="black" cx="977.224" cy="-414.002" rx="4" ry="4"/>
<polygon fill="black" stroke="black" points="1536.08,-338.994 1546.97,-340.237 1540.84,-337.472 1545.6,-335.95 1545.6,-335.95 1545.6,-335.95 1540.84,-337.472 1544.23,-331.664 1536.08,-338.994 1536.08,-338.994"/>
</g>
<!-- Invitation -->
<g id="node38" class="node"><title>Invitation</title>
<ellipse fill="none" stroke="black" cx="896" cy="-323" rx="58.1882" ry="18.3848"/>
<text text-anchor="middle" x="896" y="-319.4" font-family="Times Roman,serif" font-size="14.00">Invitation</text>
</g>
<!-- User&#45;&gt;Invitation -->
<g id="edge122" class="edge"><title>User&#45;&gt;Invitation</title>
<path fill="none" stroke="black" d="M926.968,-389.258C921.362,-377.264 914.683,-362.974 908.966,-350.74"/>
<ellipse fill="none" stroke="black" cx="928.811" cy="-393.2" rx="4.00002" ry="4.00002"/>
<polygon fill="black" stroke="black" points="908.859,-350.513 908.702,-339.548 906.742,-345.983 904.625,-341.453 904.625,-341.453 904.625,-341.453 906.742,-345.983 900.548,-343.359 908.859,-350.513 908.859,-350.513"/>
</g>
<!-- User&#45;&gt;Busines -->
<g id="edge120" class="edge"><title>User&#45;&gt;Busines</title>
<path fill="none" stroke="black" d="M982.775,-412.258C1069.4,-406.719 1268.76,-393.401 1436,-378 1597.25,-363.151 1787.18,-341.029 1880.06,-329.908"/>
<polygon fill="black" stroke="black" points="982.76,-412.259 972.494,-408.404 977.77,-412.577 972.781,-412.895 972.781,-412.895 972.781,-412.895 977.77,-412.577 973.067,-417.386 982.76,-412.259 982.76,-412.259"/>
<polygon fill="black" stroke="black" points="1880.16,-329.897 1890.62,-333.173 1885.12,-329.301 1890.09,-328.705 1890.09,-328.705 1890.09,-328.705 1885.12,-329.301 1889.55,-324.237 1880.16,-329.897 1880.16,-329.897"/>
<text text-anchor="middle" x="1652" y="-365.4" font-family="Times Roman,serif" font-size="14.00">businesses</text>
</g>
<!-- User&#45;&gt;Addres -->
<g id="edge132" class="edge"><title>User&#45;&gt;Addres</title>
<path fill="none" stroke="black" d="M979.362,-407.351C1012.38,-400.72 1060.12,-390.274 1101,-378 1122.82,-371.449 1127,-365.925 1149,-360 1205.26,-344.849 1271.4,-334.694 1316.16,-328.915"/>
<ellipse fill="none" stroke="black" cx="975.222" cy="-408.173" rx="4.00001" ry="4.00001"/>
<ellipse fill="black" stroke="black" cx="1320.29" cy="-328.39" rx="4.00001" ry="4.00001"/>
<text text-anchor="middle" x="1204" y="-365.4" font-family="Times Roman,serif" font-size="14.00">mailing_address</text>
</g>
<!-- User&#45;&gt;Addres -->
<g id="edge134" class="edge"><title>User&#45;&gt;Addres</title>
<path fill="none" stroke="black" d="M981.268,-412.956C1056.34,-408.858 1209.68,-398.248 1259,-378 1271.01,-373.07 1270.83,-366.62 1282,-360 1295.8,-351.817 1311.75,-344.443 1326.13,-338.471"/>
<ellipse fill="none" stroke="black" cx="976.942" cy="-413.187" rx="4" ry="4"/>
<ellipse fill="black" stroke="black" cx="1330.23" cy="-336.806" rx="4.00001" ry="4.00001"/>
<text text-anchor="middle" x="1332.5" y="-365.4" font-family="Times Roman,serif" font-size="14.00">billing_address</text>
</g>
<!-- MeasurementType&#45;&gt;Campaign -->
<g id="edge138" class="edge"><title>MeasurementType&#45;&gt;Campaign</title>
<path fill="none" stroke="black" d="M623.389,-668.242C624.904,-651.273 626.864,-629.325 628.415,-611.95"/>
<ellipse fill="none" stroke="black" cx="623.03" cy="-672.27" rx="4" ry="4"/>
<polygon fill="black" stroke="black" points="628.431,-611.768 633.803,-602.208 628.876,-606.788 629.321,-601.807 629.321,-601.807 629.321,-601.807 628.876,-606.788 624.839,-601.407 628.431,-611.768 628.431,-611.768"/>
</g>
<!-- MeasurementType&#45;&gt;Account -->
<g id="edge140" class="edge"><title>MeasurementType&#45;&gt;Account</title>
<path fill="none" stroke="black" d="M592.346,-671.352C553.792,-638.383 484.887,-575.274 440,-510 423.097,-485.42 334.369,-295.143 328,-266 324.394,-249.501 317.99,-241.603 328,-228 343.237,-207.295 406.744,-190.819 454.704,-181.01"/>
<ellipse fill="none" stroke="black" cx="595.672" cy="-674.177" rx="4.00002" ry="4.00002"/>
<polygon fill="black" stroke="black" points="454.872,-180.976 465.56,-183.432 459.775,-179.998 464.679,-179.019 464.679,-179.019 464.679,-179.019 459.775,-179.998 463.798,-174.606 454.872,-180.976 454.872,-180.976"/>
</g>
<!-- PlaceTypes -->
<g id="node39" class="node"><title>PlaceTypes</title>
<ellipse fill="none" stroke="black" cx="1423" cy="-695" rx="63.8479" ry="18.3848"/>
<text text-anchor="middle" x="1423" y="-691.4" font-family="Times Roman,serif" font-size="14.00">PlaceTypes</text>
</g>
<!-- PlaceTypes&#45;&gt;Place -->
<g id="edge142" class="edge"><title>PlaceTypes&#45;&gt;Place</title>
<path fill="none" stroke="black" d="M1400.1,-671.027C1385.04,-655.752 1364.55,-635.915 1345,-620 1338.03,-614.328 1330.22,-608.63 1322.74,-603.463"/>
<ellipse fill="none" stroke="black" cx="1403.01" cy="-673.991" rx="4.00002" ry="4.00002"/>
<polygon fill="black" stroke="black" points="1322.48,-603.283 1316.72,-593.95 1318.34,-600.479 1314.2,-597.676 1314.2,-597.676 1314.2,-597.676 1318.34,-600.479 1311.67,-601.402 1322.48,-603.283 1322.48,-603.283"/>
</g>
<!-- Item&#45;&gt;Image -->
<g id="edge146" class="edge"><title>Item&#45;&gt;Image</title>
<path fill="none" stroke="black" d="M1386.79,-404.283C1403.21,-398.406 1421.77,-389.852 1436,-378 1445.2,-370.338 1452.9,-359.721 1458.79,-349.857"/>
<ellipse fill="none" stroke="black" cx="1382.73" cy="-405.667" rx="4.00001" ry="4.00001"/>
<polygon fill="black" stroke="black" points="1458.8,-349.844 1467.61,-343.314 1461.24,-345.48 1463.68,-341.117 1463.68,-341.117 1463.68,-341.117 1461.24,-345.48 1459.75,-338.92 1458.8,-349.844 1458.8,-349.844"/>
</g>
<!-- Item&#45;&gt;Place -->
<g id="edge144" class="edge"><title>Item&#45;&gt;Place</title>
<path fill="none" stroke="black" d="M1338.48,-443.064C1327.91,-474.211 1310.96,-524.168 1300.43,-555.206"/>
<polygon fill="black" stroke="black" points="1338.59,-442.746 1346.06,-434.722 1340.19,-438.011 1341.8,-433.276 1341.8,-433.276 1341.8,-433.276 1340.19,-438.011 1337.54,-431.83 1338.59,-442.746 1338.59,-442.746"/>
<polygon fill="black" stroke="black" points="1300.42,-555.231 1292.95,-563.255 1298.82,-559.966 1297.21,-564.701 1297.21,-564.701 1297.21,-564.701 1298.82,-559.966 1301.47,-566.147 1300.42,-555.231 1300.42,-555.231"/>
</g>
</g>
</svg>
