<?xml version="1.0" encoding="UTF-8" standalone="no"?>
<!DOCTYPE svg PUBLIC "-//W3C//DTD SVG 1.1//EN"
 "http://www.w3.org/Graphics/SVG/1.1/DTD/svg11.dtd">
<!-- Generated by graphviz version 2.26.3 (20100126.1600)
 -->
<!-- Title: models_diagram Pages: 1 -->
<svg width="1201pt" height="1038pt"
 viewBox="0.00 0.00 1201.00 1038.00" xmlns="http://www.w3.org/2000/svg" xmlns:xlink="http://www.w3.org/1999/xlink">
<g id="graph1" class="graph" transform="scale(1 1) rotate(0) translate(4 1034)">
<title>models_diagram</title>
<polygon fill="white" stroke="white" points="-4,5 -4,-1034 1198,-1034 1198,5 -4,5"/>
<!-- _diagram_info -->
<g id="node1" class="node"><title>_diagram_info</title>
<text text-anchor="start" x="8" y="-934.8" font-family="Times Roman,serif" font-size="13.00">Models diagram</text>
<text text-anchor="start" x="8" y="-917.8" font-family="Times Roman,serif" font-size="13.00">Date: Mar 07 2011 &#45; 10:09</text>
<text text-anchor="start" x="8" y="-900.8" font-family="Times Roman,serif" font-size="13.00">Migration version: 20110306110820</text>
<text text-anchor="start" x="8" y="-883.8" font-family="Times Roman,serif" font-size="13.00">Generated by RailRoady 1.0.1</text>
<text text-anchor="start" x="8" y="-866.8" font-family="Times Roman,serif" font-size="13.00">http://railroady.prestonlee.com</text>
</g>
<!-- Report -->
<g id="node2" class="node"><title>Report</title>
<polyline fill="none" stroke="black" points="497.5,-10 648.5,-10 "/>
<path fill="none" stroke="black" d="M648.5,-10C654.5,-10 660.5,-16 660.5,-22"/>
<polyline fill="none" stroke="black" points="660.5,-22 660.5,-140 "/>
<path fill="none" stroke="black" d="M660.5,-140C660.5,-146 654.5,-152 648.5,-152"/>
<polyline fill="none" stroke="black" points="648.5,-152 497.5,-152 "/>
<path fill="none" stroke="black" d="M497.5,-152C491.5,-152 485.5,-146 485.5,-140"/>
<polyline fill="none" stroke="black" points="485.5,-140 485.5,-22 "/>
<path fill="none" stroke="black" d="M485.5,-22C485.5,-16 491.5,-10 497.5,-10"/>
<text text-anchor="middle" x="573" y="-135.4" font-family="Times Roman,serif" font-size="14.00">Report</text>
<polyline fill="none" stroke="black" points="485.5,-126 660.5,-126 "/>
<text text-anchor="start" x="493.5" y="-109.4" font-family="Times Roman,serif" font-size="14.00">name :string</text>
<text text-anchor="start" x="493.5" y="-91.4" font-family="Times Roman,serif" font-size="14.00">created_at :datetime</text>
<text text-anchor="start" x="493.5" y="-73.4" font-family="Times Roman,serif" font-size="14.00">updated_at :datetime</text>
<text text-anchor="start" x="493.5" y="-55.4" font-family="Times Roman,serif" font-size="14.00">reportable_type :string</text>
<text text-anchor="start" x="493.5" y="-37.4" font-family="Times Roman,serif" font-size="14.00">points :string</text>
<text text-anchor="start" x="493.5" y="-19.4" font-family="Times Roman,serif" font-size="14.00">activity_type :string</text>
</g>
<!-- Engagement -->
<g id="node3" class="node"><title>Engagement</title>
<polyline fill="none" stroke="black" points="1015,-579 1181,-579 "/>
<path fill="none" stroke="black" d="M1181,-579C1187,-579 1193,-585 1193,-591"/>
<polyline fill="none" stroke="black" points="1193,-591 1193,-727 "/>
<path fill="none" stroke="black" d="M1193,-727C1193,-733 1187,-739 1181,-739"/>
<polyline fill="none" stroke="black" points="1181,-739 1015,-739 "/>
<path fill="none" stroke="black" d="M1015,-739C1009,-739 1003,-733 1003,-727"/>
<polyline fill="none" stroke="black" points="1003,-727 1003,-591 "/>
<path fill="none" stroke="black" d="M1003,-591C1003,-585 1009,-579 1015,-579"/>
<text text-anchor="middle" x="1098" y="-722.4" font-family="Times Roman,serif" font-size="14.00">Engagement</text>
<polyline fill="none" stroke="black" points="1003,-713 1193,-713 "/>
<text text-anchor="start" x="1011" y="-696.4" font-family="Times Roman,serif" font-size="14.00">engagement_type :string</text>
<text text-anchor="start" x="1011" y="-678.4" font-family="Times Roman,serif" font-size="14.00">points :string</text>
<text text-anchor="start" x="1011" y="-660.4" font-family="Times Roman,serif" font-size="14.00">state :string</text>
<text text-anchor="start" x="1011" y="-642.4" font-family="Times Roman,serif" font-size="14.00">description :string</text>
<text text-anchor="start" x="1011" y="-624.4" font-family="Times Roman,serif" font-size="14.00">created_at :datetime</text>
<text text-anchor="start" x="1011" y="-606.4" font-family="Times Roman,serif" font-size="14.00">updated_at :datetime</text>
<text text-anchor="start" x="1011" y="-588.4" font-family="Times Roman,serif" font-size="14.00">name :string</text>
</g>
<!-- Place -->
<g id="node10" class="node"><title>Place</title>
<polyline fill="none" stroke="black" points="904.5,-201 1045.5,-201 "/>
<path fill="none" stroke="black" d="M1045.5,-201C1051.5,-201 1057.5,-207 1057.5,-213"/>
<polyline fill="none" stroke="black" points="1057.5,-213 1057.5,-439 "/>
<path fill="none" stroke="black" d="M1057.5,-439C1057.5,-445 1051.5,-451 1045.5,-451"/>
<polyline fill="none" stroke="black" points="1045.5,-451 904.5,-451 "/>
<path fill="none" stroke="black" d="M904.5,-451C898.5,-451 892.5,-445 892.5,-439"/>
<polyline fill="none" stroke="black" points="892.5,-439 892.5,-213 "/>
<path fill="none" stroke="black" d="M892.5,-213C892.5,-207 898.5,-201 904.5,-201"/>
<text text-anchor="middle" x="975" y="-434.4" font-family="Times Roman,serif" font-size="14.00">Place</text>
<polyline fill="none" stroke="black" points="892.5,-425 1057.5,-425 "/>
<text text-anchor="start" x="900.5" y="-408.4" font-family="Times Roman,serif" font-size="14.00">name :string</text>
<text text-anchor="start" x="900.5" y="-390.4" font-family="Times Roman,serif" font-size="14.00">long :string</text>
<text text-anchor="start" x="900.5" y="-372.4" font-family="Times Roman,serif" font-size="14.00">lat :string</text>
<text text-anchor="start" x="900.5" y="-354.4" font-family="Times Roman,serif" font-size="14.00">description :text</text>
<text text-anchor="start" x="900.5" y="-336.4" font-family="Times Roman,serif" font-size="14.00">created_at :datetime</text>
<text text-anchor="start" x="900.5" y="-318.4" font-family="Times Roman,serif" font-size="14.00">updated_at :datetime</text>
<text text-anchor="start" x="900.5" y="-300.4" font-family="Times Roman,serif" font-size="14.00">address1 :string</text>
<text text-anchor="start" x="900.5" y="-282.4" font-family="Times Roman,serif" font-size="14.00">neighborhood :string</text>
<text text-anchor="start" x="900.5" y="-264.4" font-family="Times Roman,serif" font-size="14.00">city :string</text>
<text text-anchor="start" x="900.5" y="-246.4" font-family="Times Roman,serif" font-size="14.00">address2 :string</text>
<text text-anchor="start" x="900.5" y="-228.4" font-family="Times Roman,serif" font-size="14.00">zipcode :string</text>
<text text-anchor="start" x="900.5" y="-210.4" font-family="Times Roman,serif" font-size="14.00">country :string</text>
</g>
<!-- Engagement&#45;&gt;Place -->
<g id="edge2" class="edge"><title>Engagement&#45;&gt;Place</title>
<path fill="none" stroke="black" d="M1064.85,-569.251C1052.56,-535.971 1038.33,-497.454 1024.87,-461.024"/>
<polygon fill="black" stroke="black" points="1064.92,-569.434 1064.16,-580.374 1066.65,-574.124 1068.38,-578.814 1068.38,-578.814 1068.38,-578.814 1066.65,-574.124 1072.6,-577.255 1064.92,-569.434 1064.92,-569.434"/>
<polygon fill="black" stroke="black" points="1024.75,-460.693 1025.51,-449.753 1023.02,-456.003 1021.29,-451.312 1021.29,-451.312 1021.29,-451.312 1023.02,-456.003 1017.07,-452.872 1024.75,-460.693 1024.75,-460.693"/>
</g>
<!-- QrCode -->
<g id="node12" class="node"><title>QrCode</title>
<polyline fill="none" stroke="black" points="989.5,-1 1130.5,-1 "/>
<path fill="none" stroke="black" d="M1130.5,-1C1136.5,-1 1142.5,-7 1142.5,-13"/>
<polyline fill="none" stroke="black" points="1142.5,-13 1142.5,-149 "/>
<path fill="none" stroke="black" d="M1142.5,-149C1142.5,-155 1136.5,-161 1130.5,-161"/>
<polyline fill="none" stroke="black" points="1130.5,-161 989.5,-161 "/>
<path fill="none" stroke="black" d="M989.5,-161C983.5,-161 977.5,-155 977.5,-149"/>
<polyline fill="none" stroke="black" points="977.5,-149 977.5,-13 "/>
<path fill="none" stroke="black" d="M977.5,-13C977.5,-7 983.5,-1 989.5,-1"/>
<text text-anchor="middle" x="1060" y="-144.4" font-family="Times Roman,serif" font-size="14.00">QrCode</text>
<polyline fill="none" stroke="black" points="977.5,-135 1142.5,-135 "/>
<text text-anchor="start" x="985.5" y="-118.4" font-family="Times Roman,serif" font-size="14.00">hash_code :string</text>
<text text-anchor="start" x="985.5" y="-100.4" font-family="Times Roman,serif" font-size="14.00">created_at :datetime</text>
<text text-anchor="start" x="985.5" y="-82.4" font-family="Times Roman,serif" font-size="14.00">updated_at :datetime</text>
<text text-anchor="start" x="985.5" y="-64.4" font-family="Times Roman,serif" font-size="14.00">unique_code :string</text>
<text text-anchor="start" x="985.5" y="-46.4" font-family="Times Roman,serif" font-size="14.00">code_type :boolean</text>
<text text-anchor="start" x="985.5" y="-28.4" font-family="Times Roman,serif" font-size="14.00">status :boolean</text>
<text text-anchor="start" x="985.5" y="-10.4" font-family="Times Roman,serif" font-size="14.00">point :integer</text>
</g>
<!-- Engagement&#45;&gt;QrCode -->
<g id="edge4" class="edge"><title>Engagement&#45;&gt;QrCode</title>
<path fill="none" stroke="black" d="M1092.2,-570.712C1085.08,-462.549 1073.1,-280.281 1065.93,-171.237"/>
<ellipse fill="none" stroke="black" cx="1092.47" cy="-574.944" rx="4" ry="4"/>
<polygon fill="black" stroke="black" points="1065.93,-171.221 1069.77,-160.948 1065.6,-166.232 1065.28,-161.243 1065.28,-161.243 1065.28,-161.243 1065.6,-166.232 1060.79,-161.538 1065.93,-171.221 1065.93,-171.221"/>
</g>
<!-- User -->
<g id="node4" class="node"><title>User</title>
<polyline fill="none" stroke="black" points="279.5,-779 494.5,-779 "/>
<path fill="none" stroke="black" d="M494.5,-779C500.5,-779 506.5,-785 506.5,-791"/>
<polyline fill="none" stroke="black" points="506.5,-791 506.5,-1017 "/>
<path fill="none" stroke="black" d="M506.5,-1017C506.5,-1023 500.5,-1029 494.5,-1029"/>
<polyline fill="none" stroke="black" points="494.5,-1029 279.5,-1029 "/>
<path fill="none" stroke="black" d="M279.5,-1029C273.5,-1029 267.5,-1023 267.5,-1017"/>
<polyline fill="none" stroke="black" points="267.5,-1017 267.5,-791 "/>
<path fill="none" stroke="black" d="M267.5,-791C267.5,-785 273.5,-779 279.5,-779"/>
<text text-anchor="middle" x="387" y="-1012.4" font-family="Times Roman,serif" font-size="14.00">User</text>
<polyline fill="none" stroke="black" points="267.5,-1003 506.5,-1003 "/>
<text text-anchor="start" x="275.5" y="-986.4" font-family="Times Roman,serif" font-size="14.00">email :string</text>
<text text-anchor="start" x="275.5" y="-968.4" font-family="Times Roman,serif" font-size="14.00">encrypted_password :string</text>
<text text-anchor="start" x="275.5" y="-950.4" font-family="Times Roman,serif" font-size="14.00">password_salt :string</text>
<text text-anchor="start" x="275.5" y="-932.4" font-family="Times Roman,serif" font-size="14.00">reset_password_token :string</text>
<text text-anchor="start" x="275.5" y="-914.4" font-family="Times Roman,serif" font-size="14.00">remember_token :string</text>
<text text-anchor="start" x="275.5" y="-896.4" font-family="Times Roman,serif" font-size="14.00">remember_created_at :datetime</text>
<text text-anchor="start" x="275.5" y="-878.4" font-family="Times Roman,serif" font-size="14.00">current_sign_in_at :datetime</text>
<text text-anchor="start" x="275.5" y="-860.4" font-family="Times Roman,serif" font-size="14.00">last_sign_in_at :datetime</text>
<text text-anchor="start" x="275.5" y="-842.4" font-family="Times Roman,serif" font-size="14.00">current_sign_in_ip :string</text>
<text text-anchor="start" x="275.5" y="-824.4" font-family="Times Roman,serif" font-size="14.00">last_sign_in_ip :string</text>
<text text-anchor="start" x="275.5" y="-806.4" font-family="Times Roman,serif" font-size="14.00">created_at :datetime</text>
<text text-anchor="start" x="275.5" y="-788.4" font-family="Times Roman,serif" font-size="14.00">updated_at :datetime</text>
</g>
<!-- Account -->
<g id="node5" class="node"><title>Account</title>
<polyline fill="none" stroke="black" points="289.5,-471 430.5,-471 "/>
<path fill="none" stroke="black" d="M430.5,-471C436.5,-471 442.5,-477 442.5,-483"/>
<polyline fill="none" stroke="black" points="442.5,-483 442.5,-547 "/>
<path fill="none" stroke="black" d="M442.5,-547C442.5,-553 436.5,-559 430.5,-559"/>
<polyline fill="none" stroke="black" points="430.5,-559 289.5,-559 "/>
<path fill="none" stroke="black" d="M289.5,-559C283.5,-559 277.5,-553 277.5,-547"/>
<polyline fill="none" stroke="black" points="277.5,-547 277.5,-483 "/>
<path fill="none" stroke="black" d="M277.5,-483C277.5,-477 283.5,-471 289.5,-471"/>
<text text-anchor="middle" x="360" y="-542.4" font-family="Times Roman,serif" font-size="14.00">Account</text>
<polyline fill="none" stroke="black" points="277.5,-533 442.5,-533 "/>
<text text-anchor="start" x="285.5" y="-516.4" font-family="Times Roman,serif" font-size="14.00">points :integer</text>
<text text-anchor="start" x="285.5" y="-498.4" font-family="Times Roman,serif" font-size="14.00">created_at :datetime</text>
<text text-anchor="start" x="285.5" y="-480.4" font-family="Times Roman,serif" font-size="14.00">updated_at :datetime</text>
</g>
<!-- User&#45;&gt;Account -->
<g id="edge6" class="edge"><title>User&#45;&gt;Account</title>
<path fill="none" stroke="black" d="M374.359,-770.423C373.515,-760.132 372.717,-749.901 372,-740 367.72,-680.865 364.302,-612.883 362.225,-567.259"/>
<ellipse fill="none" stroke="black" cx="374.714" cy="-774.697" rx="4" ry="4"/>
<ellipse fill="black" stroke="black" cx="362.033" cy="-563.003" rx="4" ry="4"/>
</g>
<!-- Brand -->
<g id="node8" class="node"><title>Brand</title>
<polyline fill="none" stroke="black" points="392.5,-606 533.5,-606 "/>
<path fill="none" stroke="black" d="M533.5,-606C539.5,-606 545.5,-612 545.5,-618"/>
<polyline fill="none" stroke="black" points="545.5,-618 545.5,-700 "/>
<path fill="none" stroke="black" d="M545.5,-700C545.5,-706 539.5,-712 533.5,-712"/>
<polyline fill="none" stroke="black" points="533.5,-712 392.5,-712 "/>
<path fill="none" stroke="black" d="M392.5,-712C386.5,-712 380.5,-706 380.5,-700"/>
<polyline fill="none" stroke="black" points="380.5,-700 380.5,-618 "/>
<path fill="none" stroke="black" d="M380.5,-618C380.5,-612 386.5,-606 392.5,-606"/>
<text text-anchor="middle" x="463" y="-695.4" font-family="Times Roman,serif" font-size="14.00">Brand</text>
<polyline fill="none" stroke="black" points="380.5,-686 545.5,-686 "/>
<text text-anchor="start" x="388.5" y="-669.4" font-family="Times Roman,serif" font-size="14.00">name :string</text>
<text text-anchor="start" x="388.5" y="-651.4" font-family="Times Roman,serif" font-size="14.00">description :text</text>
<text text-anchor="start" x="388.5" y="-633.4" font-family="Times Roman,serif" font-size="14.00">created_at :datetime</text>
<text text-anchor="start" x="388.5" y="-615.4" font-family="Times Roman,serif" font-size="14.00">updated_at :datetime</text>
</g>
<!-- User&#45;&gt;Brand -->
<g id="edge8" class="edge"><title>User&#45;&gt;Brand</title>
<path fill="none" stroke="black" d="M428.178,-771.255C433.51,-754.068 438.757,-737.151 443.497,-721.872"/>
<ellipse fill="none" stroke="black" cx="426.964" cy="-775.168" rx="4.00001" ry="4.00001"/>
<polygon fill="black" stroke="black" points="443.571,-721.632 450.832,-713.414 445.053,-716.857 446.534,-712.081 446.534,-712.081 446.534,-712.081 445.053,-716.857 442.236,-710.748 443.571,-721.632 443.571,-721.632"/>
</g>
<!-- Account&#45;&gt;Report -->
<g id="edge10" class="edge"><title>Account&#45;&gt;Report</title>
<path fill="none" stroke="black" d="M361.171,-462.77C364.836,-396.956 378.661,-282.492 429,-200 441.565,-179.41 458.983,-160.739 477.374,-144.611"/>
<ellipse fill="none" stroke="black" cx="360.958" cy="-466.946" rx="4" ry="4"/>
<polygon fill="black" stroke="black" points="477.692,-144.341 488.223,-141.282 481.498,-141.098 485.305,-137.856 485.305,-137.856 485.305,-137.856 481.498,-141.098 482.387,-134.43 477.692,-144.341 477.692,-144.341"/>
</g>
<!-- Reward -->
<g id="node6" class="node"><title>Reward</title>
<polyline fill="none" stroke="black" points="794.5,-579 935.5,-579 "/>
<path fill="none" stroke="black" d="M935.5,-579C941.5,-579 947.5,-585 947.5,-591"/>
<polyline fill="none" stroke="black" points="947.5,-591 947.5,-727 "/>
<path fill="none" stroke="black" d="M947.5,-727C947.5,-733 941.5,-739 935.5,-739"/>
<polyline fill="none" stroke="black" points="935.5,-739 794.5,-739 "/>
<path fill="none" stroke="black" d="M794.5,-739C788.5,-739 782.5,-733 782.5,-727"/>
<polyline fill="none" stroke="black" points="782.5,-727 782.5,-591 "/>
<path fill="none" stroke="black" d="M782.5,-591C782.5,-585 788.5,-579 794.5,-579"/>
<text text-anchor="middle" x="865" y="-722.4" font-family="Times Roman,serif" font-size="14.00">Reward</text>
<polyline fill="none" stroke="black" points="782.5,-713 947.5,-713 "/>
<text text-anchor="start" x="790.5" y="-696.4" font-family="Times Roman,serif" font-size="14.00">name :string</text>
<text text-anchor="start" x="790.5" y="-678.4" font-family="Times Roman,serif" font-size="14.00">created_at :datetime</text>
<text text-anchor="start" x="790.5" y="-660.4" font-family="Times Roman,serif" font-size="14.00">updated_at :datetime</text>
<text text-anchor="start" x="790.5" y="-642.4" font-family="Times Roman,serif" font-size="14.00">description :text</text>
<text text-anchor="start" x="790.5" y="-624.4" font-family="Times Roman,serif" font-size="14.00">points :integer</text>
<text text-anchor="start" x="790.5" y="-606.4" font-family="Times Roman,serif" font-size="14.00">claim :integer</text>
<text text-anchor="start" x="790.5" y="-588.4" font-family="Times Roman,serif" font-size="14.00">available :datetime</text>
</g>
<!-- Reward&#45;&gt;Place -->
<g id="edge12" class="edge"><title>Reward&#45;&gt;Place</title>
<path fill="none" stroke="black" d="M894.647,-569.251C905.64,-535.971 918.364,-497.454 930.398,-461.024"/>
<polygon fill="black" stroke="black" points="894.624,-569.319 887.215,-577.403 893.056,-574.067 891.488,-578.814 891.488,-578.814 891.488,-578.814 893.056,-574.067 895.761,-580.226 894.624,-569.319 894.624,-569.319"/>
<polygon fill="black" stroke="black" points="930.469,-460.808 937.878,-452.724 932.037,-456.06 933.605,-451.312 933.605,-451.312 933.605,-451.312 932.037,-456.06 929.333,-449.901 930.469,-460.808 930.469,-460.808"/>
</g>
<!-- Category -->
<g id="node7" class="node"><title>Category</title>
<polyline fill="none" stroke="black" points="612.5,-606 753.5,-606 "/>
<path fill="none" stroke="black" d="M753.5,-606C759.5,-606 765.5,-612 765.5,-618"/>
<polyline fill="none" stroke="black" points="765.5,-618 765.5,-700 "/>
<path fill="none" stroke="black" d="M765.5,-700C765.5,-706 759.5,-712 753.5,-712"/>
<polyline fill="none" stroke="black" points="753.5,-712 612.5,-712 "/>
<path fill="none" stroke="black" d="M612.5,-712C606.5,-712 600.5,-706 600.5,-700"/>
<polyline fill="none" stroke="black" points="600.5,-700 600.5,-618 "/>
<path fill="none" stroke="black" d="M600.5,-618C600.5,-612 606.5,-606 612.5,-606"/>
<text text-anchor="middle" x="683" y="-695.4" font-family="Times Roman,serif" font-size="14.00">Category</text>
<polyline fill="none" stroke="black" points="600.5,-686 765.5,-686 "/>
<text text-anchor="start" x="608.5" y="-669.4" font-family="Times Roman,serif" font-size="14.00">name :string</text>
<text text-anchor="start" x="608.5" y="-651.4" font-family="Times Roman,serif" font-size="14.00">description :text</text>
<text text-anchor="start" x="608.5" y="-633.4" font-family="Times Roman,serif" font-size="14.00">created_at :datetime</text>
<text text-anchor="start" x="608.5" y="-615.4" font-family="Times Roman,serif" font-size="14.00">updated_at :datetime</text>
</g>
<!-- Busines -->
<g id="node20" class="node"><title>Busines</title>
<ellipse fill="none" stroke="black" cx="487" cy="-326" rx="48.9975" ry="18.3848"/>
<text text-anchor="middle" x="487" y="-322.4" font-family="Times Roman,serif" font-size="14.00">Busines</text>
</g>
<!-- Category&#45;&gt;Busines -->
<g id="edge14" class="edge"><title>Category&#45;&gt;Busines</title>
<path fill="none" stroke="black" d="M646.591,-597.142C603.564,-524.039 533.9,-405.682 502.832,-352.898"/>
<polygon fill="black" stroke="black" points="646.654,-597.249 647.848,-608.15 649.19,-601.558 651.726,-605.867 651.726,-605.867 651.726,-605.867 649.19,-601.558 655.605,-603.584 646.654,-597.249 646.654,-597.249"/>
<polygon fill="black" stroke="black" points="502.74,-352.742 501.546,-341.841 500.204,-348.433 497.667,-344.124 497.667,-344.124 497.667,-344.124 500.204,-348.433 493.789,-346.406 502.74,-352.742 502.74,-352.742"/>
<text text-anchor="middle" x="656" y="-511.4" font-family="Times Roman,serif" font-size="14.00">businesses</text>
</g>
<!-- Brand&#45;&gt;Busines -->
<g id="edge16" class="edge"><title>Brand&#45;&gt;Busines</title>
<path fill="none" stroke="black" d="M467.421,-597.653C472.617,-525.569 481.02,-408.972 484.906,-355.054"/>
<ellipse fill="none" stroke="black" cx="467.117" cy="-601.877" rx="4" ry="4"/>
<polygon fill="black" stroke="black" points="484.923,-354.812 490.131,-345.162 485.283,-349.825 485.642,-344.838 485.642,-344.838 485.642,-344.838 485.283,-349.825 481.154,-344.515 484.923,-354.812 484.923,-354.812"/>
<text text-anchor="middle" x="514" y="-511.4" font-family="Times Roman,serif" font-size="14.00">businesses</text>
</g>
<!-- Business -->
<g id="node9" class="node"><title>Business</title>
<polyline fill="none" stroke="black" points="794.5,-851 935.5,-851 "/>
<path fill="none" stroke="black" d="M935.5,-851C941.5,-851 947.5,-857 947.5,-863"/>
<polyline fill="none" stroke="black" points="947.5,-863 947.5,-945 "/>
<path fill="none" stroke="black" d="M947.5,-945C947.5,-951 941.5,-957 935.5,-957"/>
<polyline fill="none" stroke="black" points="935.5,-957 794.5,-957 "/>
<path fill="none" stroke="black" d="M794.5,-957C788.5,-957 782.5,-951 782.5,-945"/>
<polyline fill="none" stroke="black" points="782.5,-945 782.5,-863 "/>
<path fill="none" stroke="black" d="M782.5,-863C782.5,-857 788.5,-851 794.5,-851"/>
<text text-anchor="middle" x="865" y="-940.4" font-family="Times Roman,serif" font-size="14.00">Business</text>
<polyline fill="none" stroke="black" points="782.5,-931 947.5,-931 "/>
<text text-anchor="start" x="790.5" y="-914.4" font-family="Times Roman,serif" font-size="14.00">name :string</text>
<text text-anchor="start" x="790.5" y="-896.4" font-family="Times Roman,serif" font-size="14.00">description :text</text>
<text text-anchor="start" x="790.5" y="-878.4" font-family="Times Roman,serif" font-size="14.00">created_at :datetime</text>
<text text-anchor="start" x="790.5" y="-860.4" font-family="Times Roman,serif" font-size="14.00">updated_at :datetime</text>
</g>
<!-- Business&#45;&gt;Report -->
<g id="edge26" class="edge"><title>Business&#45;&gt;Report</title>
<path fill="none" stroke="black" d="M774.682,-875.83C711.551,-850.947 631.706,-807.872 592,-740 563.535,-691.344 567.628,-327.326 571.027,-162.122"/>
<ellipse fill="none" stroke="black" cx="778.564" cy="-877.332" rx="4.00001" ry="4.00001"/>
<polygon fill="black" stroke="black" points="571.029,-162.009 575.738,-152.106 571.134,-157.01 571.239,-152.011 571.239,-152.011 571.239,-152.011 571.134,-157.01 566.74,-151.917 571.029,-162.009 571.029,-162.009"/>
</g>
<!-- Business&#45;&gt;Engagement -->
<g id="edge20" class="edge"><title>Business&#45;&gt;Engagement</title>
<path fill="none" stroke="black" d="M900.39,-843.834C915.569,-821.353 934.718,-796.754 956,-778 968.534,-766.955 975.435,-769.752 989,-760 995.26,-755.5 1001.54,-750.674 1007.76,-745.66"/>
<ellipse fill="none" stroke="black" cx="898.022" cy="-847.401" rx="4.00002" ry="4.00002"/>
<polygon fill="black" stroke="black" points="1007.87,-745.571 1018.45,-742.694 1011.73,-742.394 1015.59,-739.218 1015.59,-739.218 1015.59,-739.218 1011.73,-742.394 1012.73,-735.743 1007.87,-745.571 1007.87,-745.571"/>
</g>
<!-- Business&#45;&gt;Reward -->
<g id="edge22" class="edge"><title>Business&#45;&gt;Reward</title>
<path fill="none" stroke="black" d="M865,-842.614C865,-814.447 865,-780.483 865,-749.467"/>
<ellipse fill="none" stroke="black" cx="865" cy="-846.839" rx="4" ry="4"/>
<polygon fill="black" stroke="black" points="865,-749.074 869.5,-739.074 865,-744.074 865,-739.074 865,-739.074 865,-739.074 865,-744.074 860.5,-739.074 865,-749.074 865,-749.074"/>
</g>
<!-- Business&#45;&gt;Category -->
<g id="edge24" class="edge"><title>Business&#45;&gt;Category</title>
<path fill="none" stroke="black" d="M819.468,-842.707C791.707,-805.337 756.348,-757.738 728.578,-720.355"/>
<polygon fill="black" stroke="black" points="819.545,-842.811 821.896,-853.522 822.527,-846.825 825.509,-850.839 825.509,-850.839 825.509,-850.839 822.527,-846.825 829.121,-848.155 819.545,-842.811 819.545,-842.811"/>
<polygon fill="black" stroke="black" points="728.377,-720.085 726.027,-709.374 725.396,-716.071 722.414,-712.058 722.414,-712.058 722.414,-712.058 725.396,-716.071 718.802,-714.741 728.377,-720.085 728.377,-720.085"/>
</g>
<!-- Business&#45;&gt;Place -->
<g id="edge18" class="edge"><title>Business&#45;&gt;Place</title>
<path fill="none" stroke="black" d="M907.109,-843.958C925.671,-814.13 945.6,-776.688 956,-740 981.665,-649.46 986.065,-543.368 984.229,-461.249"/>
<ellipse fill="none" stroke="black" cx="904.811" cy="-847.599" rx="4.00002" ry="4.00002"/>
<polygon fill="black" stroke="black" points="984.225,-461.099 988.466,-450.986 984.096,-456.101 983.967,-451.102 983.967,-451.102 983.967,-451.102 984.096,-456.101 979.469,-451.218 984.225,-461.099 984.225,-461.099"/>
</g>
<!-- Place&#45;&gt;Report -->
<g id="edge28" class="edge"><title>Place&#45;&gt;Report</title>
<path fill="none" stroke="black" d="M884.966,-271.128C820.836,-232.044 734.757,-179.583 669.264,-139.668"/>
<ellipse fill="none" stroke="black" cx="888.777" cy="-273.451" rx="4.00002" ry="4.00002"/>
<polygon fill="black" stroke="black" points="669.11,-139.574 662.913,-130.528 664.84,-136.972 660.571,-134.37 660.571,-134.37 660.571,-134.37 664.84,-136.972 658.229,-138.213 669.11,-139.574 669.11,-139.574"/>
</g>
<!-- Place&#45;&gt;QrCode -->
<g id="edge30" class="edge"><title>Place&#45;&gt;QrCode</title>
<path fill="none" stroke="black" d="M1021.02,-193.365C1023.64,-185.809 1026.24,-178.304 1028.79,-170.967"/>
<ellipse fill="none" stroke="black" cx="1019.68" cy="-197.209" rx="4.00001" ry="4.00001"/>
<polygon fill="black" stroke="black" points="1028.94,-170.525 1036.47,-162.552 1030.58,-165.801 1032.22,-161.077 1032.22,-161.077 1032.22,-161.077 1030.58,-165.801 1027.97,-159.602 1028.94,-170.525 1028.94,-170.525"/>
</g>
<!-- Newsletter -->
<g id="node11" class="node"><title>Newsletter</title>
<polyline fill="none" stroke="black" points="976.5,-824 1117.5,-824 "/>
<path fill="none" stroke="black" d="M1117.5,-824C1123.5,-824 1129.5,-830 1129.5,-836"/>
<polyline fill="none" stroke="black" points="1129.5,-836 1129.5,-972 "/>
<path fill="none" stroke="black" d="M1129.5,-972C1129.5,-978 1123.5,-984 1117.5,-984"/>
<polyline fill="none" stroke="black" points="1117.5,-984 976.5,-984 "/>
<path fill="none" stroke="black" d="M976.5,-984C970.5,-984 964.5,-978 964.5,-972"/>
<polyline fill="none" stroke="black" points="964.5,-972 964.5,-836 "/>
<path fill="none" stroke="black" d="M964.5,-836C964.5,-830 970.5,-824 976.5,-824"/>
<text text-anchor="middle" x="1047" y="-967.4" font-family="Times Roman,serif" font-size="14.00">Newsletter</text>
<polyline fill="none" stroke="black" points="964.5,-958 1129.5,-958 "/>
<text text-anchor="start" x="972.5" y="-941.4" font-family="Times Roman,serif" font-size="14.00">letter_type :boolean</text>
<text text-anchor="start" x="972.5" y="-923.4" font-family="Times Roman,serif" font-size="14.00">name :string</text>
<text text-anchor="start" x="972.5" y="-905.4" font-family="Times Roman,serif" font-size="14.00">city :string</text>
<text text-anchor="start" x="972.5" y="-887.4" font-family="Times Roman,serif" font-size="14.00">country :string</text>
<text text-anchor="start" x="972.5" y="-869.4" font-family="Times Roman,serif" font-size="14.00">email :string</text>
<text text-anchor="start" x="972.5" y="-851.4" font-family="Times Roman,serif" font-size="14.00">created_at :datetime</text>
<text text-anchor="start" x="972.5" y="-833.4" font-family="Times Roman,serif" font-size="14.00">updated_at :datetime</text>
</g>
</g>
</svg>
