<?xml version="1.0" encoding="UTF-8" standalone="no"?>
<!DOCTYPE svg PUBLIC "-//W3C//DTD SVG 1.1//EN"
 "http://www.w3.org/Graphics/SVG/1.1/DTD/svg11.dtd">
<!-- Generated by graphviz version 2.26.3 (20100126.1600)
 -->
<!-- Title: models_diagram Pages: 1 -->
<svg width="3005pt" height="870pt"
 viewBox="0.00 0.00 3005.00 870.00" xmlns="http://www.w3.org/2000/svg" xmlns:xlink="http://www.w3.org/1999/xlink">
<g id="graph1" class="graph" transform="scale(1 1) rotate(0) translate(4 866)">
<title>models_diagram</title>
<polygon fill="white" stroke="white" points="-4,5 -4,-866 3002,-866 3002,5 -4,5"/>
<!-- _diagram_info -->
<g id="node1" class="node"><title>_diagram_info</title>
<text text-anchor="start" x="8" y="-845.8" font-family="Times Roman,serif" font-size="13.00">Models diagram</text>
<text text-anchor="start" x="8" y="-828.8" font-family="Times Roman,serif" font-size="13.00">Date: Apr 27 2011 &#45; 17:14</text>
<text text-anchor="start" x="8" y="-811.8" font-family="Times Roman,serif" font-size="13.00">Migration version: 20110427145816</text>
<text text-anchor="start" x="8" y="-794.8" font-family="Times Roman,serif" font-size="13.00">Generated by RailRoady 1.0.1</text>
<text text-anchor="start" x="8" y="-777.8" font-family="Times Roman,serif" font-size="13.00">http://railroady.prestonlee.com</text>
</g>
<!-- OpenHour -->
<g id="node2" class="node"><title>OpenHour</title>
<ellipse fill="none" stroke="black" cx="2144" cy="-247" rx="61.0181" ry="18.3848"/>
<text text-anchor="middle" x="2144" y="-243.4" font-family="Times Roman,serif" font-size="14.00">OpenHour</text>
</g>
<!-- Announcement -->
<g id="node3" class="node"><title>Announcement</title>
<ellipse fill="none" stroke="black" cx="2653" cy="-711" rx="85.7684" ry="18.3848"/>
<text text-anchor="middle" x="2653" y="-707.4" font-family="Times Roman,serif" font-size="14.00">Announcement</text>
</g>
<!-- AccountHolder -->
<g id="node4" class="node"><title>AccountHolder</title>
<ellipse fill="none" stroke="black" cx="1069" cy="-247" rx="82.2301" ry="18.3848"/>
<text text-anchor="middle" x="1069" y="-243.4" font-family="Times Roman,serif" font-size="14.00">AccountHolder</text>
</g>
<!-- Account -->
<g id="node16" class="node"><title>Account</title>
<ellipse fill="none" stroke="black" cx="1464" cy="-171" rx="50.9117" ry="18.3848"/>
<text text-anchor="middle" x="1464" y="-167.4" font-family="Times Roman,serif" font-size="14.00">Account</text>
</g>
<!-- AccountHolder&#45;&gt;Account -->
<g id="edge2" class="edge"><title>AccountHolder&#45;&gt;Account</title>
<path fill="none" stroke="black" d="M1136.54,-232.694C1144.45,-231.081 1152.4,-229.485 1160,-228 1252.66,-209.906 1276.26,-207.703 1369,-190 1382.03,-187.512 1396.06,-184.753 1409.22,-182.126"/>
<ellipse fill="none" stroke="black" cx="1132.59" cy="-233.505" rx="4.00001" ry="4.00001"/>
<polygon fill="black" stroke="black" points="1409.28,-182.114 1419.97,-184.563 1414.19,-181.132 1419.09,-180.15 1419.09,-180.15 1419.09,-180.15 1414.19,-181.132 1418.21,-175.738 1409.28,-182.114 1409.28,-182.114"/>
</g>
<!-- LegalType -->
<g id="node5" class="node"><title>LegalType</title>
<ellipse fill="none" stroke="black" cx="581" cy="-431" rx="60.1041" ry="18.3848"/>
<text text-anchor="middle" x="581" y="-427.4" font-family="Times Roman,serif" font-size="14.00">LegalType</text>
</g>
<!-- LegalId -->
<g id="node14" class="node"><title>LegalId</title>
<ellipse fill="none" stroke="black" cx="612" cy="-339" rx="46.1672" ry="18.3848"/>
<text text-anchor="middle" x="612" y="-335.4" font-family="Times Roman,serif" font-size="14.00">LegalId</text>
</g>
<!-- LegalType&#45;&gt;LegalId -->
<g id="edge4" class="edge"><title>LegalType&#45;&gt;LegalId</title>
<path fill="none" stroke="black" d="M525.973,-416.755C501.295,-407.573 480.445,-393.971 494,-376 511.536,-352.752 529.228,-366.757 557,-358 560.532,-356.886 564.18,-355.702 567.838,-354.49"/>
<ellipse fill="none" stroke="black" cx="529.945" cy="-418.142" rx="4.00001" ry="4.00001"/>
<polygon fill="black" stroke="black" points="567.997,-354.437 578.91,-355.513 572.736,-352.842 577.475,-351.248 577.475,-351.248 577.475,-351.248 572.736,-352.842 576.039,-346.983 567.997,-354.437 567.997,-354.437"/>
</g>
<!-- LogGroup -->
<g id="node6" class="node"><title>LogGroup</title>
<ellipse fill="none" stroke="black" cx="343" cy="-95" rx="58.8978" ry="18.3848"/>
<text text-anchor="middle" x="343" y="-91.4" font-family="Times Roman,serif" font-size="14.00">LogGroup</text>
</g>
<!-- Log -->
<g id="node32" class="node"><title>Log</title>
<ellipse fill="none" stroke="black" cx="1206" cy="-19" rx="28.9914" ry="18.3848"/>
<text text-anchor="middle" x="1206" y="-15.4" font-family="Times Roman,serif" font-size="14.00">Log</text>
</g>
<!-- LogGroup&#45;&gt;Log -->
<g id="edge6" class="edge"><title>LogGroup&#45;&gt;Log</title>
<path fill="none" stroke="black" d="M374.832,-74.0336C387.178,-66.9857 401.756,-59.9227 416,-56 488.635,-35.9966 1017.42,-23.0961 1166.8,-19.8228"/>
<ellipse fill="none" stroke="black" cx="371.285" cy="-76.1255" rx="4.00002" ry="4.00002"/>
<polygon fill="black" stroke="black" points="1166.89,-19.8209 1176.98,-24.1027 1171.88,-19.7123 1176.88,-19.6037 1176.88,-19.6037 1176.88,-19.6037 1171.88,-19.7123 1176.79,-15.1048 1166.89,-19.8209 1166.89,-19.8209"/>
</g>
<!-- Template -->
<g id="node7" class="node"><title>Template</title>
<ellipse fill="none" stroke="black" cx="808" cy="-339" rx="55.8614" ry="18.3848"/>
<text text-anchor="middle" x="808" y="-335.4" font-family="Times Roman,serif" font-size="14.00">Template</text>
</g>
<!-- QrCode -->
<g id="node24" class="node"><title>QrCode</title>
<ellipse fill="none" stroke="black" cx="921" cy="-247" rx="48.0833" ry="18.3848"/>
<text text-anchor="middle" x="921" y="-243.4" font-family="Times Roman,serif" font-size="14.00">QrCode</text>
</g>
<!-- Template&#45;&gt;QrCode -->
<g id="edge8" class="edge"><title>Template&#45;&gt;QrCode</title>
<path fill="none" stroke="black" d="M835.482,-316.626C852.631,-302.663 874.676,-284.715 892.089,-270.538"/>
<ellipse fill="none" stroke="black" cx="832.356" cy="-319.17" rx="4.00002" ry="4.00002"/>
<polygon fill="black" stroke="black" points="892.468,-270.23 903.064,-267.406 896.345,-267.073 900.223,-263.916 900.223,-263.916 900.223,-263.916 896.345,-267.073 897.381,-260.426 892.468,-270.23 892.468,-270.23"/>
</g>
<!-- Transaction -->
<g id="node8" class="node"><title>Transaction</title>
<ellipse fill="none" stroke="black" cx="1333" cy="-95" rx="67.1751" ry="18.3848"/>
<text text-anchor="middle" x="1333" y="-91.4" font-family="Times Roman,serif" font-size="14.00">Transaction</text>
</g>
<!-- Transaction&#45;&gt;Log -->
<g id="edge10" class="edge"><title>Transaction&#45;&gt;Log</title>
<path fill="none" stroke="black" d="M1297.72,-73.8846C1278.32,-62.2761 1254.51,-48.0288 1236.01,-36.9596"/>
<ellipse fill="none" stroke="black" cx="1301.38" cy="-76.0791" rx="4.00002" ry="4.00002"/>
<polygon fill="black" stroke="black" points="1235.98,-36.9415 1229.71,-27.945 1231.69,-34.374 1227.4,-31.8064 1227.4,-31.8064 1227.4,-31.8064 1231.69,-34.374 1225.09,-35.6678 1235.98,-36.9415 1235.98,-36.9415"/>
</g>
<!-- TransactionType -->
<g id="node9" class="node"><title>TransactionType</title>
<ellipse fill="none" stroke="black" cx="1270" cy="-171" rx="89.8026" ry="18.3848"/>
<text text-anchor="middle" x="1270" y="-167.4" font-family="Times Roman,serif" font-size="14.00">TransactionType</text>
</g>
<!-- TransactionType&#45;&gt;Transaction -->
<g id="edge12" class="edge"><title>TransactionType&#45;&gt;Transaction</title>
<path fill="none" stroke="black" d="M1290.59,-146.162C1297.26,-138.112 1304.68,-129.162 1311.42,-121.027"/>
<ellipse fill="none" stroke="black" cx="1287.8" cy="-149.523" rx="4.00002" ry="4.00002"/>
<polygon fill="black" stroke="black" points="1311.51,-120.927 1321.35,-116.1 1314.7,-117.077 1317.89,-113.228 1317.89,-113.228 1317.89,-113.228 1314.7,-117.077 1314.43,-110.356 1311.51,-120.927 1311.51,-120.927"/>
</g>
<!-- Action -->
<g id="node38" class="node"><title>Action</title>
<ellipse fill="none" stroke="black" cx="1206" cy="-95" rx="41.9273" ry="18.3848"/>
<text text-anchor="middle" x="1206" y="-91.4" font-family="Times Roman,serif" font-size="14.00">Action</text>
</g>
<!-- TransactionType&#45;&gt;Action -->
<g id="edge14" class="edge"><title>TransactionType&#45;&gt;Action</title>
<path fill="none" stroke="black" d="M1249.22,-146.325C1242.16,-137.945 1234.27,-128.576 1227.19,-120.159"/>
<ellipse fill="none" stroke="black" cx="1251.93" cy="-149.543" rx="4.00002" ry="4.00002"/>
<polygon fill="black" stroke="black" points="1227.13,-120.094 1224.13,-109.546 1223.91,-116.269 1220.69,-112.445 1220.69,-112.445 1220.69,-112.445 1223.91,-116.269 1217.25,-115.344 1227.13,-120.094 1227.13,-120.094"/>
</g>
<!-- Reward -->
<g id="node10" class="node"><title>Reward</title>
<ellipse fill="none" stroke="black" cx="1185" cy="-507" rx="48.7904" ry="18.3848"/>
<text text-anchor="middle" x="1185" y="-503.4" font-family="Times Roman,serif" font-size="14.00">Reward</text>
</g>
<!-- Reward&#45;&gt;Log -->
<g id="edge16" class="edge"><title>Reward&#45;&gt;Log</title>
<path fill="none" stroke="black" d="M1127.84,-504.85C975.055,-498.726 565.152,-479.698 512,-450 458.456,-420.084 430,-400.335 430,-339 430,-339 430,-339 430,-95 430,-57.5765 1009.2,-28.0906 1166.81,-20.7596"/>
<ellipse fill="none" stroke="black" cx="1132.23" cy="-505.024" rx="4" ry="4"/>
<polygon fill="black" stroke="black" points="1167.01,-20.7507 1177.2,-24.7847 1172,-20.5201 1177,-20.2895 1177,-20.2895 1177,-20.2895 1172,-20.5201 1176.79,-15.7943 1167.01,-20.7507 1167.01,-20.7507"/>
</g>
<!-- User -->
<g id="node34" class="node"><title>User</title>
<ellipse fill="none" stroke="black" cx="934" cy="-431" rx="33.9411" ry="18.3848"/>
<text text-anchor="middle" x="934" y="-427.4" font-family="Times Roman,serif" font-size="14.00">User</text>
</g>
<!-- Reward&#45;&gt;User -->
<g id="edge20" class="edge"><title>Reward&#45;&gt;User</title>
<path fill="none" stroke="black" d="M1136.77,-492.396C1089.32,-478.029 1017.75,-456.358 973.549,-442.975"/>
<polygon fill="black" stroke="black" points="1137.03,-492.476 1145.3,-499.681 1141.82,-493.925 1146.61,-495.375 1146.61,-495.375 1146.61,-495.375 1141.82,-493.925 1147.91,-491.068 1137.03,-492.476 1137.03,-492.476"/>
<polygon fill="black" stroke="black" points="973.314,-442.904 965.047,-435.699 968.528,-441.455 963.743,-440.006 963.743,-440.006 963.743,-440.006 968.528,-441.455 962.439,-444.313 973.314,-442.904 973.314,-442.904"/>
</g>
<!-- Item -->
<g id="node41" class="node"><title>Item</title>
<ellipse fill="none" stroke="black" cx="1630" cy="-431" rx="33.9411" ry="18.3848"/>
<text text-anchor="middle" x="1630" y="-427.4" font-family="Times Roman,serif" font-size="14.00">Item</text>
</g>
<!-- Reward&#45;&gt;Item -->
<g id="edge18" class="edge"><title>Reward&#45;&gt;Item</title>
<path fill="none" stroke="black" d="M1239.77,-497.81C1258.83,-494.65 1280.35,-491.123 1300,-488 1410.56,-470.431 1439.09,-471.244 1549,-450 1562.09,-447.47 1576.28,-444.293 1589.06,-441.266"/>
<polygon fill="black" stroke="black" points="1239.63,-497.834 1229.02,-495.034 1234.69,-498.653 1229.76,-499.473 1229.76,-499.473 1229.76,-499.473 1234.69,-498.653 1230.5,-503.912 1239.63,-497.834 1239.63,-497.834"/>
<polygon fill="black" stroke="black" points="1589.24,-441.222 1600.02,-443.261 1594.11,-440.054 1598.97,-438.885 1598.97,-438.885 1598.97,-438.885 1594.11,-440.054 1597.92,-434.51 1589.24,-441.222 1589.24,-441.222"/>
</g>
<!-- Campaign -->
<g id="node11" class="node"><title>Campaign</title>
<ellipse fill="none" stroke="black" cx="1543" cy="-599" rx="60.1041" ry="18.3848"/>
<text text-anchor="middle" x="1543" y="-595.4" font-family="Times Roman,serif" font-size="14.00">Campaign</text>
</g>
<!-- Campaign&#45;&gt;Reward -->
<g id="edge26" class="edge"><title>Campaign&#45;&gt;Reward</title>
<path fill="none" stroke="black" d="M1488.45,-584.98C1419.63,-567.295 1302.23,-537.126 1235.42,-519.958"/>
<ellipse fill="none" stroke="black" cx="1492.69" cy="-586.071" rx="4.00001" ry="4.00001"/>
<polygon fill="black" stroke="black" points="1235.23,-519.909 1226.67,-513.062 1230.39,-518.665 1225.55,-517.42 1225.55,-517.42 1225.55,-517.42 1230.39,-518.665 1224.43,-521.779 1235.23,-519.909 1235.23,-519.909"/>
</g>
<!-- Campaign&#45;&gt;Account -->
<g id="edge22" class="edge"><title>Campaign&#45;&gt;Account</title>
<path fill="none" stroke="black" d="M1602.22,-587.128C1643.79,-574.943 1692,-551.27 1692,-507 1692,-507 1692,-507 1692,-385 1692,-285.395 1574.88,-218.64 1508.53,-188.811"/>
<ellipse fill="none" stroke="black" cx="1598.13" cy="-588.269" rx="4.00001" ry="4.00001"/>
<polygon fill="black" stroke="black" points="1508.28,-188.703 1500.94,-180.559 1503.7,-186.691 1499.13,-184.679 1499.13,-184.679 1499.13,-184.679 1503.7,-186.691 1497.31,-188.799 1508.28,-188.703 1508.28,-188.703"/>
</g>
<!-- Engagement -->
<g id="node31" class="node"><title>Engagement</title>
<ellipse fill="none" stroke="black" cx="1453" cy="-339" rx="73.0388" ry="18.3848"/>
<text text-anchor="middle" x="1453" y="-335.4" font-family="Times Roman,serif" font-size="14.00">Engagement</text>
</g>
<!-- Campaign&#45;&gt;Engagement -->
<g id="edge24" class="edge"><title>Campaign&#45;&gt;Engagement</title>
<path fill="none" stroke="black" d="M1551.32,-572.539C1561.61,-534.733 1574.82,-464.08 1549,-412 1537.98,-389.777 1516.6,-372.489 1496.81,-360.328"/>
<ellipse fill="none" stroke="black" cx="1550.14" cy="-576.683" rx="4.00001" ry="4.00001"/>
<polygon fill="black" stroke="black" points="1496.8,-360.319 1490.44,-351.383 1492.48,-357.793 1488.17,-355.266 1488.17,-355.266 1488.17,-355.266 1492.48,-357.793 1485.89,-359.149 1496.8,-360.319 1496.8,-360.319"/>
</g>
<!-- Amenity -->
<g id="node12" class="node"><title>Amenity</title>
<ellipse fill="none" stroke="black" cx="1999" cy="-431" rx="51.8276" ry="18.3848"/>
<text text-anchor="middle" x="1999" y="-427.4" font-family="Times Roman,serif" font-size="14.00">Amenity</text>
</g>
<!-- Place -->
<g id="node18" class="node"><title>Place</title>
<ellipse fill="none" stroke="black" cx="2044" cy="-339" rx="36.977" ry="18.3848"/>
<text text-anchor="middle" x="2044" y="-335.4" font-family="Times Roman,serif" font-size="14.00">Place</text>
</g>
<!-- Amenity&#45;&gt;Place -->
<g id="edge28" class="edge"><title>Amenity&#45;&gt;Place</title>
<path fill="none" stroke="black" d="M2012.63,-403.125C2018.32,-391.506 2024.9,-378.052 2030.56,-366.476"/>
<polygon fill="black" stroke="black" points="2012.5,-403.399 2004.06,-410.405 2010.3,-407.891 2008.11,-412.382 2008.11,-412.382 2008.11,-412.382 2010.3,-407.891 2012.15,-414.36 2012.5,-403.399 2012.5,-403.399"/>
<polygon fill="black" stroke="black" points="2030.67,-366.259 2039.1,-359.253 2032.86,-361.767 2035.06,-357.276 2035.06,-357.276 2035.06,-357.276 2032.86,-361.767 2031.02,-355.299 2030.67,-366.259 2030.67,-366.259"/>
</g>
<!-- Category -->
<g id="node13" class="node"><title>Category</title>
<ellipse fill="none" stroke="black" cx="1386" cy="-655" rx="56.0679" ry="18.3848"/>
<text text-anchor="middle" x="1386" y="-651.4" font-family="Times Roman,serif" font-size="14.00">Category</text>
</g>
<!-- Busines -->
<g id="node57" class="node"><title>Busines</title>
<ellipse fill="none" stroke="black" cx="1313" cy="-339" rx="48.9975" ry="18.3848"/>
<text text-anchor="middle" x="1313" y="-335.4" font-family="Times Roman,serif" font-size="14.00">Busines</text>
</g>
<!-- Category&#45;&gt;Busines -->
<g id="edge30" class="edge"><title>Category&#45;&gt;Busines</title>
<path fill="none" stroke="black" d="M1377.81,-626.912C1366.84,-587.711 1347.96,-514.179 1341,-450 1339.18,-433.21 1333.3,-427.032 1341,-412 1347.24,-399.814 1359.76,-406.186 1366,-394 1369.65,-386.88 1369.7,-383.093 1366,-376 1362.72,-369.716 1357.84,-364.28 1352.34,-359.657"/>
<polygon fill="black" stroke="black" points="1377.82,-626.946 1376.21,-637.794 1379.18,-631.757 1380.54,-636.567 1380.54,-636.567 1380.54,-636.567 1379.18,-631.757 1384.87,-635.34 1377.82,-626.946 1377.82,-626.946"/>
<polygon fill="black" stroke="black" points="1351.99,-359.404 1346.63,-349.842 1347.97,-356.433 1343.95,-353.461 1343.95,-353.461 1343.95,-353.461 1347.97,-356.433 1341.28,-357.08 1351.99,-359.404 1351.99,-359.404"/>
<text text-anchor="middle" x="1390" y="-503.4" font-family="Times Roman,serif" font-size="14.00">businesses</text>
</g>
<!-- Image -->
<g id="node15" class="node"><title>Image</title>
<ellipse fill="none" stroke="black" cx="1585" cy="-339" rx="41.2167" ry="18.3848"/>
<text text-anchor="middle" x="1585" y="-335.4" font-family="Times Roman,serif" font-size="14.00">Image</text>
</g>
<!-- BrandImage -->
<g id="node21" class="node"><title>BrandImage</title>
<ellipse fill="none" stroke="black" cx="1239" cy="-247" rx="70.2092" ry="18.3848"/>
<text text-anchor="middle" x="1239" y="-243.4" font-family="Times Roman,serif" font-size="14.00">BrandImage</text>
</g>
<!-- Image&#45;&gt;BrandImage -->
<g id="edge84" class="edge"><title>Image&#45;&gt;BrandImage</title>
<path fill="none" stroke="black" d="M1554.27,-326.651C1547.94,-324.3 1541.29,-321.964 1535,-320 1489.97,-305.948 1364.14,-276.073 1291.86,-259.222"/>
</g>
<!-- QrCodeImage -->
<g id="node36" class="node"><title>QrCodeImage</title>
<ellipse fill="none" stroke="black" cx="1016" cy="-171" rx="77.7817" ry="18.3848"/>
<text text-anchor="middle" x="1016" y="-167.4" font-family="Times Roman,serif" font-size="14.00">QrCodeImage</text>
</g>
<!-- Image&#45;&gt;QrCodeImage -->
<g id="edge132" class="edge"><title>Image&#45;&gt;QrCodeImage</title>
<path fill="none" stroke="black" d="M1556.43,-325.687C1529.1,-313.396 1486.46,-295.373 1448,-284 1408.05,-272.186 1392.78,-285.583 1356,-266 1334.92,-254.774 1339.12,-239.156 1318,-228 1278.61,-207.191 1162.09,-189.275 1085.84,-179.332"/>
</g>
<!-- Account&#45;&gt;Transaction -->
<g id="edge32" class="edge"><title>Account&#45;&gt;Transaction</title>
<path fill="none" stroke="black" d="M1429.93,-151.237C1411.79,-140.711 1389.43,-127.739 1370.76,-116.907"/>
<ellipse fill="none" stroke="black" cx="1433.4" cy="-153.245" rx="4.00002" ry="4.00002"/>
<polygon fill="black" stroke="black" points="1370.58,-116.8 1364.18,-107.889 1366.25,-114.291 1361.93,-111.781 1361.93,-111.781 1361.93,-111.781 1366.25,-114.291 1359.67,-115.674 1370.58,-116.8 1370.58,-116.8"/>
</g>
<!-- PaymentGateway -->
<g id="node17" class="node"><title>PaymentGateway</title>
<ellipse fill="none" stroke="black" cx="1464" cy="-247" rx="98.9949" ry="18.3848"/>
<text text-anchor="middle" x="1464" y="-243.4" font-family="Times Roman,serif" font-size="14.00">PaymentGateway</text>
</g>
<!-- PaymentGateway&#45;&gt;Account -->
<g id="edge34" class="edge"><title>PaymentGateway&#45;&gt;Account</title>
<path fill="none" stroke="black" d="M1464,-220.073C1464,-213.449 1464,-206.332 1464,-199.63"/>
<ellipse fill="none" stroke="black" cx="1464" cy="-224.213" rx="4" ry="4"/>
<polygon fill="black" stroke="black" points="1464,-199.57 1468.5,-189.57 1464,-194.57 1464,-189.57 1464,-189.57 1464,-189.57 1464,-194.57 1459.5,-189.57 1464,-199.57 1464,-199.57"/>
</g>
<!-- Place&#45;&gt;OpenHour -->
<g id="edge46" class="edge"><title>Place&#45;&gt;OpenHour</title>
<path fill="none" stroke="black" d="M2067.55,-316.883C2078.32,-306.811 2091.27,-294.761 2103,-284 2107.44,-279.931 2112.16,-275.633 2116.77,-271.462"/>
<ellipse fill="none" stroke="black" cx="2064.41" cy="-319.827" rx="4.00002" ry="4.00002"/>
<polygon fill="black" stroke="black" points="2116.92,-271.329 2127.35,-267.966 2120.63,-267.978 2124.34,-264.627 2124.34,-264.627 2124.34,-264.627 2120.63,-267.978 2121.32,-261.287 2116.92,-271.329 2116.92,-271.329"/>
</g>
<!-- Place&#45;&gt;QrCode -->
<g id="edge44" class="edge"><title>Place&#45;&gt;QrCode</title>
<path fill="none" stroke="black" d="M1999.06,-336.241C1802.84,-324.156 1028.82,-276.041 978,-266 973.798,-265.17 969.477,-264.117 965.184,-262.935"/>
<ellipse fill="none" stroke="black" cx="2003.16" cy="-336.494" rx="4" ry="4"/>
<polygon fill="black" stroke="black" points="964.87,-262.841 956.572,-255.671 960.078,-261.412 955.287,-259.984 955.287,-259.984 955.287,-259.984 960.078,-261.412 954.001,-264.296 964.87,-262.841 964.87,-262.841"/>
</g>
<!-- Follower -->
<g id="node35" class="node"><title>Follower</title>
<ellipse fill="none" stroke="black" cx="1748" cy="-247" rx="53.033" ry="18.3848"/>
<text text-anchor="middle" x="1748" y="-243.4" font-family="Times Roman,serif" font-size="14.00">Follower</text>
</g>
<!-- Place&#45;&gt;Follower -->
<g id="edge48" class="edge"><title>Place&#45;&gt;Follower</title>
<path fill="none" stroke="black" d="M2004.68,-326.777C1951.28,-310.182 1855.85,-280.522 1797.6,-262.417"/>
<ellipse fill="none" stroke="black" cx="2008.5" cy="-327.967" rx="4.00001" ry="4.00001"/>
<polygon fill="black" stroke="black" points="1797.43,-262.364 1789.22,-255.098 1792.66,-260.88 1787.88,-259.396 1787.88,-259.396 1787.88,-259.396 1792.66,-260.88 1786.55,-263.693 1797.43,-262.364 1797.43,-262.364"/>
</g>
<!-- ActsAsTaggableOn::Tagging -->
<g id="node61" class="node"><title>ActsAsTaggableOn::Tagging</title>
<ellipse fill="none" stroke="black" cx="2367" cy="-247" rx="144.25" ry="18.3848"/>
<text text-anchor="middle" x="2367" y="-243.4" font-family="Times Roman,serif" font-size="14.00">ActsAsTaggableOn::Tagging</text>
</g>
<!-- Place&#45;&gt;ActsAsTaggableOn::Tagging -->
<g id="edge36" class="edge"><title>Place&#45;&gt;ActsAsTaggableOn::Tagging</title>
<path fill="none" stroke="black" d="M2073.61,-320.073C2082.22,-314.401 2091.57,-308.07 2100,-302 2110.53,-294.416 2111.08,-289.142 2123,-284 2135.6,-278.565 2196.67,-269.306 2254.56,-261.41"/>
<ellipse fill="none" stroke="black" cx="2070.24" cy="-322.275" rx="4.00002" ry="4.00002"/>
<polygon fill="black" stroke="black" points="2254.66,-261.397 2265.17,-264.514 2259.61,-260.726 2264.57,-260.055 2264.57,-260.055 2264.57,-260.055 2259.61,-260.726 2263.96,-255.595 2254.66,-261.397 2254.66,-261.397"/>
<text text-anchor="middle" x="2152.5" y="-289.4" font-family="Times Roman,serif" font-size="14.00">taggings</text>
</g>
<!-- Place&#45;&gt;ActsAsTaggableOn::Tagging -->
<g id="edge40" class="edge"><title>Place&#45;&gt;ActsAsTaggableOn::Tagging</title>
<path fill="none" stroke="black" d="M2087.45,-332.003C2115.46,-326.386 2152.11,-316.923 2182,-302 2193.61,-296.202 2193.28,-289.579 2205,-284 2223.13,-275.368 2243.38,-268.695 2263.26,-263.554"/>
<ellipse fill="none" stroke="black" cx="2083.35" cy="-332.796" rx="4.00001" ry="4.00001"/>
<polygon fill="black" stroke="black" points="2263.26,-263.552 2274.05,-265.519 2268.12,-262.351 2272.97,-261.151 2272.97,-261.151 2272.97,-261.151 2268.12,-262.351 2271.89,-256.782 2263.26,-263.552 2263.26,-263.552"/>
<text text-anchor="middle" x="2249.5" y="-289.4" font-family="Times Roman,serif" font-size="14.00">tag_taggings</text>
</g>
<!-- ActsAsTaggableOn::Tag -->
<g id="node63" class="node"><title>ActsAsTaggableOn::Tag</title>
<ellipse fill="none" stroke="black" cx="1942" cy="-247" rx="123.243" ry="18.3848"/>
<text text-anchor="middle" x="1942" y="-243.4" font-family="Times Roman,serif" font-size="14.00">ActsAsTaggableOn::Tag</text>
</g>
<!-- Place&#45;&gt;ActsAsTaggableOn::Tag -->
<g id="edge38" class="edge"><title>Place&#45;&gt;ActsAsTaggableOn::Tag</title>
<path fill="none" stroke="black" d="M1998.83,-330.151C1982.16,-324.696 1964.54,-315.952 1953,-302 1946.96,-294.694 1943.92,-284.99 1942.48,-275.769"/>
<polygon fill="black" stroke="black" points="1998.89,-330.169 2007.21,-337.314 2003.69,-331.583 2008.48,-332.998 2008.48,-332.998 2008.48,-332.998 2003.69,-331.583 2009.75,-328.681 1998.89,-330.169 1998.89,-330.169"/>
<polygon fill="black" stroke="black" points="1942.47,-275.665 1945.92,-265.259 1941.96,-270.691 1941.45,-265.717 1941.45,-265.717 1941.45,-265.717 1941.96,-270.691 1936.97,-266.175 1942.47,-275.665 1942.47,-275.665"/>
<text text-anchor="middle" x="1987.5" y="-289.4" font-family="Times Roman,serif" font-size="14.00">base_tags</text>
</g>
<!-- Place&#45;&gt;ActsAsTaggableOn::Tag -->
<g id="edge42" class="edge"><title>Place&#45;&gt;ActsAsTaggableOn::Tag</title>
<path fill="none" stroke="black" d="M2037.25,-310.689C2033.9,-301.313 2029.02,-291.397 2022,-284 2016.45,-278.146 2009.79,-273.133 2002.71,-268.864"/>
<polygon fill="black" stroke="black" points="2037.33,-310.957 2036.01,-321.843 2038.82,-315.731 2040.31,-320.504 2040.31,-320.504 2040.31,-320.504 2038.82,-315.731 2044.6,-319.165 2037.33,-310.957 2037.33,-310.957"/>
<polygon fill="black" stroke="black" points="2002.34,-268.662 1995.75,-259.903 1997.96,-266.254 1993.58,-263.847 1993.58,-263.847 1993.58,-263.847 1997.96,-266.254 1991.41,-267.791 2002.34,-268.662 2002.34,-268.662"/>
<text text-anchor="middle" x="2048" y="-289.4" font-family="Times Roman,serif" font-size="14.00">tags</text>
</g>
<!-- EngagementType -->
<g id="node19" class="node"><title>EngagementType</title>
<ellipse fill="none" stroke="black" cx="1445" cy="-431" rx="94.9596" ry="18.3848"/>
<text text-anchor="middle" x="1445" y="-427.4" font-family="Times Roman,serif" font-size="14.00">EngagementType</text>
</g>
<!-- EngagementType&#45;&gt;Engagement -->
<g id="edge50" class="edge"><title>EngagementType&#45;&gt;Engagement</title>
<path fill="none" stroke="black" d="M1447.35,-404.029C1448.34,-392.599 1449.5,-379.267 1450.51,-367.66"/>
<ellipse fill="none" stroke="black" cx="1446.97" cy="-408.397" rx="4" ry="4"/>
<polygon fill="black" stroke="black" points="1450.52,-367.552 1455.87,-357.98 1450.95,-362.571 1451.38,-357.59 1451.38,-357.59 1451.38,-357.59 1450.95,-362.571 1446.9,-357.2 1450.52,-367.552 1450.52,-367.552"/>
</g>
<!-- Business -->
<g id="node20" class="node"><title>Business</title>
<ellipse fill="none" stroke="black" cx="1704" cy="-815" rx="53.9477" ry="18.3848"/>
<text text-anchor="middle" x="1704" y="-811.4" font-family="Times Roman,serif" font-size="14.00">Business</text>
</g>
<!-- Business&#45;&gt;Announcement -->
<g id="edge72" class="edge"><title>Business&#45;&gt;Announcement</title>
<path fill="none" stroke="black" d="M1766.02,-812.627C1935.35,-805.769 2402.95,-784.206 2553,-750 2571.38,-745.811 2590.84,-738.843 2607.67,-731.947"/>
<ellipse fill="none" stroke="black" cx="1761.94" cy="-812.791" rx="4" ry="4"/>
<polygon fill="black" stroke="black" points="2608.03,-731.797 2618.99,-732.064 2612.63,-729.857 2617.24,-727.917 2617.24,-727.917 2617.24,-727.917 2612.63,-729.857 2615.5,-723.77 2608.03,-731.797 2608.03,-731.797"/>
</g>
<!-- Business&#45;&gt;AccountHolder -->
<g id="edge76" class="edge"><title>Business&#45;&gt;AccountHolder</title>
<path fill="none" stroke="black" d="M1642.07,-812.271C1470.9,-803.911 1004,-775.219 1004,-711 1004,-711 1004,-711 1004,-469 1004,-390.856 1039.74,-377.734 1059,-302 1061.33,-292.854 1063.33,-282.722 1064.92,-273.671"/>
<ellipse fill="none" stroke="black" cx="1646.24" cy="-812.473" rx="4" ry="4"/>
<ellipse fill="black" stroke="black" cx="1065.59" cy="-269.667" rx="4.00001" ry="4.00001"/>
</g>
<!-- Business&#45;&gt;Category -->
<g id="edge82" class="edge"><title>Business&#45;&gt;Category</title>
<path fill="none" stroke="black" d="M1644.79,-805.343C1567.5,-791.568 1438.16,-764.126 1405,-730 1393.14,-717.789 1388.36,-699.284 1386.57,-683.711"/>
<polygon fill="black" stroke="black" points="1645.02,-805.384 1654.09,-811.547 1649.94,-806.249 1654.87,-807.115 1654.87,-807.115 1654.87,-807.115 1649.94,-806.249 1655.65,-802.683 1645.02,-805.384 1645.02,-805.384"/>
<polygon fill="black" stroke="black" points="1386.55,-683.48 1390.23,-673.152 1386.15,-678.496 1385.75,-673.512 1385.75,-673.512 1385.75,-673.512 1386.15,-678.496 1381.26,-673.872 1386.55,-683.48 1386.55,-683.48"/>
</g>
<!-- Business&#45;&gt;Place -->
<g id="edge62" class="edge"><title>Business&#45;&gt;Place</title>
<path fill="none" stroke="black" d="M1764.31,-809.232C1901.48,-795.302 2225,-757.517 2225,-711 2225,-711 2225,-711 2225,-431 2225,-370.895 2144.7,-350.043 2091.07,-342.818"/>
<ellipse fill="none" stroke="black" cx="1760.32" cy="-809.634" rx="4" ry="4"/>
<polygon fill="black" stroke="black" points="2090.99,-342.808 2081.62,-337.118 2086.03,-342.196 2081.06,-341.585 2081.06,-341.585 2081.06,-341.585 2086.03,-342.196 2080.51,-346.051 2090.99,-342.808 2090.99,-342.808"/>
</g>
<!-- Program -->
<g id="node22" class="node"><title>Program</title>
<ellipse fill="none" stroke="black" cx="1467" cy="-711" rx="53.033" ry="18.3848"/>
<text text-anchor="middle" x="1467" y="-707.4" font-family="Times Roman,serif" font-size="14.00">Program</text>
</g>
<!-- Business&#45;&gt;Program -->
<g id="edge64" class="edge"><title>Business&#45;&gt;Program</title>
<path fill="none" stroke="black" d="M1663.12,-797.061C1620.19,-778.221 1552.98,-748.73 1509.46,-729.633"/>
<ellipse fill="none" stroke="black" cx="1666.88" cy="-798.713" rx="4.00002" ry="4.00002"/>
<polygon fill="black" stroke="black" points="1509.44,-729.624 1502.09,-721.485 1504.86,-727.615 1500.28,-725.605 1500.28,-725.605 1500.28,-725.605 1504.86,-727.615 1498.48,-729.726 1509.44,-729.624 1509.44,-729.624"/>
</g>
<!-- Target -->
<g id="node30" class="node"><title>Target</title>
<ellipse fill="none" stroke="black" cx="1315" cy="-711" rx="41.9273" ry="18.3848"/>
<text text-anchor="middle" x="1315" y="-707.4" font-family="Times Roman,serif" font-size="14.00">Target</text>
</g>
<!-- Business&#45;&gt;Target -->
<g id="edge60" class="edge"><title>Business&#45;&gt;Target</title>
<path fill="none" stroke="black" d="M1642.8,-810.486C1574.5,-803.771 1461.8,-787.616 1372,-750 1361.86,-745.752 1351.67,-739.544 1342.77,-733.324"/>
<ellipse fill="none" stroke="black" cx="1646.92" cy="-810.879" rx="4" ry="4"/>
<polygon fill="black" stroke="black" points="1342.75,-733.312 1337.32,-723.785 1338.71,-730.367 1334.67,-727.421 1334.67,-727.421 1334.67,-727.421 1338.71,-730.367 1332.02,-731.058 1342.75,-733.312 1342.75,-733.312"/>
</g>
<!-- Business&#45;&gt;Log -->
<g id="edge74" class="edge"><title>Business&#45;&gt;Log</title>
<path fill="none" stroke="black" d="M1766.25,-813.78C1959.93,-809.165 2539,-788.859 2539,-711 2539,-711 2539,-711 2539,-95 2539,-28.4337 1465.47,-20.1357 1245.21,-19.1337"/>
<ellipse fill="none" stroke="black" cx="1762.14" cy="-813.875" rx="4" ry="4"/>
<polygon fill="black" stroke="black" points="1245.08,-19.1333 1235.1,-14.5902 1240.08,-19.1117 1235.08,-19.0902 1235.08,-19.0902 1235.08,-19.0902 1240.08,-19.1117 1235.06,-23.5901 1245.08,-19.1333 1245.08,-19.1333"/>
</g>
<!-- Business&#45;&gt;User -->
<g id="edge70" class="edge"><title>Business&#45;&gt;User</title>
<path fill="none" stroke="black" d="M1639.88,-813.115C1453.99,-806.805 928,-782.622 928,-711 928,-711 928,-711 928,-507 928,-491.39 929.273,-474.033 930.647,-459.851"/>
<polygon fill="black" stroke="black" points="1640.05,-813.121 1649.9,-817.951 1645.05,-813.287 1650.05,-813.454 1650.05,-813.454 1650.05,-813.454 1645.05,-813.287 1650.2,-808.956 1640.05,-813.121 1640.05,-813.121"/>
<polygon fill="black" stroke="black" points="930.667,-459.654 936.173,-450.171 931.182,-454.681 931.697,-449.707 931.697,-449.707 931.697,-449.707 931.182,-454.681 927.221,-449.244 930.667,-459.654 930.667,-459.654"/>
</g>
<!-- Business&#45;&gt;Follower -->
<g id="edge68" class="edge"><title>Business&#45;&gt;Follower</title>
<path fill="none" stroke="black" d="M1728.9,-791.475C1746.87,-771.863 1768,-742.182 1768,-711 1768,-711 1768,-711 1768,-339 1768,-317.173 1762.56,-293.085 1757.35,-275.033"/>
<ellipse fill="none" stroke="black" cx="1725.96" cy="-794.576" rx="4.00002" ry="4.00002"/>
<polygon fill="black" stroke="black" points="1757.34,-274.992 1758.74,-264.117 1755.89,-270.207 1754.44,-265.422 1754.44,-265.422 1754.44,-265.422 1755.89,-270.207 1750.13,-266.728 1757.34,-274.992 1757.34,-274.992"/>
</g>
<!-- MeasurementType -->
<g id="node37" class="node"><title>MeasurementType</title>
<ellipse fill="none" stroke="black" cx="1639" cy="-711" rx="101.116" ry="18.3848"/>
<text text-anchor="middle" x="1639" y="-707.4" font-family="Times Roman,serif" font-size="14.00">MeasurementType</text>
</g>
<!-- Business&#45;&gt;MeasurementType -->
<g id="edge66" class="edge"><title>Business&#45;&gt;MeasurementType</title>
<path fill="none" stroke="black" d="M1688.28,-789.855C1678.58,-774.331 1666.13,-754.405 1656.17,-738.467"/>
<ellipse fill="none" stroke="black" cx="1690.56" cy="-793.493" rx="4.00002" ry="4.00002"/>
<polygon fill="black" stroke="black" points="1655.93,-738.088 1654.45,-727.223 1653.28,-733.848 1650.63,-729.608 1650.63,-729.608 1650.63,-729.608 1653.28,-733.848 1646.81,-731.993 1655.93,-738.088 1655.93,-738.088"/>
</g>
<!-- Business&#45;&gt;ActsAsTaggableOn::Tagging -->
<g id="edge52" class="edge"><title>Business&#45;&gt;ActsAsTaggableOn::Tagging</title>
<path fill="none" stroke="black" d="M1766.05,-812.639C1942.26,-805.114 2433,-778.131 2433,-711 2433,-711 2433,-711 2433,-339 2433,-313.089 2415.5,-289.471 2398.53,-272.653"/>
<ellipse fill="none" stroke="black" cx="1761.9" cy="-812.814" rx="4" ry="4"/>
<polygon fill="black" stroke="black" points="2398.12,-272.267 2393.91,-262.141 2394.47,-268.844 2390.83,-265.421 2390.83,-265.421 2390.83,-265.421 2394.47,-268.844 2387.75,-268.7 2398.12,-272.267 2398.12,-272.267"/>
<text text-anchor="middle" x="2462.5" y="-503.4" font-family="Times Roman,serif" font-size="14.00">taggings</text>
</g>
<!-- Business&#45;&gt;ActsAsTaggableOn::Tagging -->
<g id="edge56" class="edge"><title>Business&#45;&gt;ActsAsTaggableOn::Tagging</title>
<path fill="none" stroke="black" d="M1765.08,-810.849C1918.52,-799.607 2308,-765.684 2308,-711 2308,-711 2308,-711 2308,-339 2308,-313.825 2323.85,-290.033 2339.12,-272.952"/>
<ellipse fill="none" stroke="black" cx="1761.06" cy="-811.141" rx="4" ry="4"/>
<polygon fill="black" stroke="black" points="2339.18,-272.882 2349.31,-268.678 2342.61,-269.239 2346.03,-265.596 2346.03,-265.596 2346.03,-265.596 2342.61,-269.239 2342.75,-262.514 2339.18,-272.882 2339.18,-272.882"/>
<text text-anchor="middle" x="2352.5" y="-503.4" font-family="Times Roman,serif" font-size="14.00">tag_taggings</text>
</g>
<!-- Business&#45;&gt;ActsAsTaggableOn::Tag -->
<g id="edge54" class="edge"><title>Business&#45;&gt;ActsAsTaggableOn::Tag</title>
<path fill="none" stroke="black" d="M1746.56,-795.662C1777.51,-778.363 1814,-749.751 1814,-711 1814,-711 1814,-711 1814,-553 1814,-470.069 1889.97,-307.285 1905,-284 1907.45,-280.205 1910.34,-276.489 1913.42,-272.963"/>
<polygon fill="black" stroke="black" points="1746.42,-795.738 1735.48,-796.484 1742.01,-798.095 1737.6,-800.452 1737.6,-800.452 1737.6,-800.452 1742.01,-798.095 1739.72,-804.421 1746.42,-795.738 1746.42,-795.738"/>
<polygon fill="black" stroke="black" points="1913.49,-272.889 1923.61,-268.673 1916.91,-269.242 1920.33,-265.595 1920.33,-265.595 1920.33,-265.595 1916.91,-269.242 1917.04,-262.517 1913.49,-272.889 1913.49,-272.889"/>
<text text-anchor="middle" x="1857.5" y="-503.4" font-family="Times Roman,serif" font-size="14.00">base_tags</text>
</g>
<!-- Business&#45;&gt;ActsAsTaggableOn::Tag -->
<g id="edge58" class="edge"><title>Business&#45;&gt;ActsAsTaggableOn::Tag</title>
<path fill="none" stroke="black" d="M1756.63,-800.756C1820.28,-781.941 1919,-746.964 1919,-711 1919,-711 1919,-711 1919,-339 1919,-317.153 1925.18,-293.236 1931.13,-275.265"/>
<polygon fill="black" stroke="black" points="1756.34,-800.841 1745.48,-799.314 1751.54,-802.238 1746.73,-803.634 1746.73,-803.634 1746.73,-803.634 1751.54,-802.238 1747.99,-807.955 1756.34,-800.841 1756.34,-800.841"/>
<polygon fill="black" stroke="black" points="1931.18,-275.131 1938.72,-267.169 1932.82,-270.41 1934.47,-265.688 1934.47,-265.688 1934.47,-265.688 1932.82,-270.41 1930.22,-264.208 1931.18,-275.131 1931.18,-275.131"/>
<text text-anchor="middle" x="1934" y="-503.4" font-family="Times Roman,serif" font-size="14.00">tags</text>
</g>
<!-- Addres -->
<g id="node84" class="node"><title>Addres</title>
<ellipse fill="none" stroke="black" cx="503" cy="-339" rx="44.7575" ry="18.3848"/>
<text text-anchor="middle" x="503" y="-335.4" font-family="Times Roman,serif" font-size="14.00">Addres</text>
</g>
<!-- Business&#45;&gt;Addres -->
<g id="edge78" class="edge"><title>Business&#45;&gt;Addres</title>
<path fill="none" stroke="black" d="M1641.46,-813.713C1479.42,-809.513 1049.79,-792.617 924,-730 725.802,-631.341 655.35,-618.721 512,-450 489.429,-423.434 478.551,-410.055 486,-376 486.825,-372.228 488.072,-368.381 489.523,-364.662"/>
<ellipse fill="none" stroke="black" cx="1645.9" cy="-813.825" rx="4" ry="4"/>
<ellipse fill="black" stroke="black" cx="491.131" cy="-360.948" rx="4.00002" ry="4.00002"/>
<text text-anchor="middle" x="676" y="-549.4" font-family="Times Roman,serif" font-size="14.00">mailing_address</text>
</g>
<!-- Business&#45;&gt;Addres -->
<g id="edge80" class="edge"><title>Business&#45;&gt;Addres</title>
<path fill="none" stroke="black" d="M1641.65,-813.455C1377.97,-806.52 368,-775.729 368,-711 368,-711 368,-711 368,-431 368,-387.442 416.585,-363.036 455.462,-350.479"/>
<ellipse fill="none" stroke="black" cx="1645.97" cy="-813.568" rx="4" ry="4"/>
<ellipse fill="black" stroke="black" cx="459.767" cy="-349.153" rx="4.00001" ry="4.00001"/>
<text text-anchor="middle" x="418.5" y="-549.4" font-family="Times Roman,serif" font-size="14.00">billing_address</text>
</g>
<!-- Program&#45;&gt;Campaign -->
<g id="edge86" class="edge"><title>Program&#45;&gt;Campaign</title>
<path fill="none" stroke="black" d="M1484.12,-685.774C1496.29,-667.843 1512.59,-643.808 1524.96,-625.58"/>
<ellipse fill="none" stroke="black" cx="1481.8" cy="-689.196" rx="4.00002" ry="4.00002"/>
<polygon fill="black" stroke="black" points="1525.07,-625.425 1534.41,-619.677 1527.88,-621.288 1530.68,-617.15 1530.68,-617.15 1530.68,-617.15 1527.88,-621.288 1526.96,-614.624 1525.07,-625.425 1525.07,-625.425"/>
</g>
<!-- Address -->
<g id="node23" class="node"><title>Address</title>
<ellipse fill="none" stroke="black" cx="2829" cy="-815" rx="50.2046" ry="18.3848"/>
<text text-anchor="middle" x="2829" y="-811.4" font-family="Times Roman,serif" font-size="14.00">Address</text>
</g>
<!-- QrCode&#45;&gt;QrCodeImage -->
<g id="edge88" class="edge"><title>QrCode&#45;&gt;QrCodeImage</title>
<path fill="none" stroke="black" d="M948.441,-225.047C960.661,-215.271 975.049,-203.761 987.401,-193.879"/>
<ellipse fill="none" stroke="black" cx="945.207" cy="-227.634" rx="4.00002" ry="4.00002"/>
<ellipse fill="black" stroke="black" cx="990.528" cy="-191.377" rx="4.00002" ry="4.00002"/>
</g>
<!-- PrintJob -->
<g id="node25" class="node"><title>PrintJob</title>
<ellipse fill="none" stroke="black" cx="2947" cy="-815" rx="50.2046" ry="18.3848"/>
<text text-anchor="middle" x="2947" y="-811.4" font-family="Times Roman,serif" font-size="14.00">PrintJob</text>
</g>
<!-- Brand -->
<g id="node26" class="node"><title>Brand</title>
<ellipse fill="none" stroke="black" cx="1253" cy="-431" rx="41.0122" ry="18.3848"/>
<text text-anchor="middle" x="1253" y="-427.4" font-family="Times Roman,serif" font-size="14.00">Brand</text>
</g>
<!-- Brand&#45;&gt;BrandImage -->
<g id="edge92" class="edge"><title>Brand&#45;&gt;BrandImage</title>
<path fill="none" stroke="black" d="M1250.97,-404.329C1248.32,-369.531 1243.72,-308.976 1241.06,-274.011"/>
<ellipse fill="none" stroke="black" cx="1251.28" cy="-408.356" rx="4" ry="4"/>
<ellipse fill="black" stroke="black" cx="1240.73" cy="-269.693" rx="4" ry="4"/>
</g>
<!-- Brand&#45;&gt;Busines -->
<g id="edge90" class="edge"><title>Brand&#45;&gt;Busines</title>
<path fill="none" stroke="black" d="M1269.28,-406.045C1277.46,-393.494 1287.38,-378.279 1295.71,-365.518"/>
<ellipse fill="none" stroke="black" cx="1267.04" cy="-409.473" rx="4.00002" ry="4.00002"/>
<polygon fill="black" stroke="black" points="1295.71,-365.515 1304.94,-359.597 1298.44,-361.327 1301.17,-357.138 1301.17,-357.138 1301.17,-357.138 1298.44,-361.327 1297.4,-354.68 1295.71,-365.515 1295.71,-365.515"/>
<text text-anchor="middle" x="1325" y="-381.4" font-family="Times Roman,serif" font-size="14.00">businesses</text>
</g>
<!-- Employee -->
<g id="node27" class="node"><title>Employee</title>
<ellipse fill="none" stroke="black" cx="1150" cy="-339" rx="58.1882" ry="18.3848"/>
<text text-anchor="middle" x="1150" y="-335.4" font-family="Times Roman,serif" font-size="14.00">Employee</text>
</g>
<!-- Employee&#45;&gt;AccountHolder -->
<g id="edge94" class="edge"><title>Employee&#45;&gt;AccountHolder</title>
<path fill="none" stroke="black" d="M1128.43,-314.505C1116.78,-301.267 1102.43,-284.964 1090.74,-271.696"/>
<ellipse fill="none" stroke="black" cx="1131.35" cy="-317.822" rx="4.00002" ry="4.00002"/>
<ellipse fill="black" stroke="black" cx="1087.89" cy="-268.456" rx="4.00002" ry="4.00002"/>
</g>
<!-- EmployeeType -->
<g id="node28" class="node"><title>EmployeeType</title>
<ellipse fill="none" stroke="black" cx="1113" cy="-431" rx="80.8184" ry="18.3848"/>
<text text-anchor="middle" x="1113" y="-427.4" font-family="Times Roman,serif" font-size="14.00">EmployeeType</text>
</g>
<!-- EmployeeType&#45;&gt;Employee -->
<g id="edge96" class="edge"><title>EmployeeType&#45;&gt;Employee</title>
<path fill="none" stroke="black" d="M1118.04,-404.375C1120.23,-395.184 1123.19,-384.953 1127,-376 1128.41,-372.699 1130.08,-369.351 1131.88,-366.087"/>
<ellipse fill="none" stroke="black" cx="1117.11" cy="-408.552" rx="4.00001" ry="4.00001"/>
<polygon fill="black" stroke="black" points="1132.03,-365.819 1141.01,-359.512 1134.58,-361.518 1137.13,-357.217 1137.13,-357.217 1137.13,-357.217 1134.58,-361.518 1133.26,-354.922 1132.03,-365.819 1132.03,-365.819"/>
</g>
<!-- AnnouncementType -->
<g id="node29" class="node"><title>AnnouncementType</title>
<ellipse fill="none" stroke="black" cx="2653" cy="-815" rx="108.187" ry="18.3848"/>
<text text-anchor="middle" x="2653" y="-811.4" font-family="Times Roman,serif" font-size="14.00">AnnouncementType</text>
</g>
<!-- AnnouncementType&#45;&gt;Announcement -->
<g id="edge98" class="edge"><title>AnnouncementType&#45;&gt;Announcement</title>
<path fill="none" stroke="black" d="M2653,-787.926C2653,-773.224 2653,-755.041 2653,-740.044"/>
<ellipse fill="none" stroke="black" cx="2653" cy="-792.407" rx="4" ry="4"/>
<polygon fill="black" stroke="black" points="2653,-739.783 2657.5,-729.783 2653,-734.783 2653,-729.783 2653,-729.783 2653,-729.783 2653,-734.783 2648.5,-729.783 2653,-739.783 2653,-739.783"/>
</g>
<!-- Target&#45;&gt;Campaign -->
<g id="edge100" class="edge"><title>Target&#45;&gt;Campaign</title>
<path fill="none" stroke="black" d="M1312.96,-681.968C1313.5,-666.293 1317.05,-647.792 1329,-636 1349.12,-616.149 1419.06,-606.859 1473.58,-602.569"/>
<polygon fill="black" stroke="black" points="1312.96,-682.252 1308.51,-692.271 1312.99,-687.252 1313.01,-692.252 1313.01,-692.252 1313.01,-692.252 1312.99,-687.252 1317.51,-692.233 1312.96,-682.252 1312.96,-682.252"/>
<polygon fill="black" stroke="black" points="1473.59,-602.568 1483.9,-606.312 1478.58,-602.196 1483.56,-601.824 1483.56,-601.824 1483.56,-601.824 1478.58,-602.196 1483.23,-597.337 1473.59,-602.568 1473.59,-602.568"/>
</g>
<!-- Target&#45;&gt;User -->
<g id="edge102" class="edge"><title>Target&#45;&gt;User</title>
<path fill="none" stroke="black" d="M1285.06,-688.995C1213.47,-636.388 1033.16,-503.874 962.775,-452.147"/>
<polygon fill="black" stroke="black" points="1285.09,-689.018 1290.48,-698.566 1289.12,-691.979 1293.15,-694.94 1293.15,-694.94 1293.15,-694.94 1289.12,-691.979 1295.81,-691.314 1285.09,-689.018 1285.09,-689.018"/>
<polygon fill="black" stroke="black" points="962.422,-451.888 957.029,-442.34 958.393,-448.927 954.364,-445.966 954.364,-445.966 954.364,-445.966 958.393,-448.927 951.699,-449.592 962.422,-451.888 962.422,-451.888"/>
</g>
<!-- Engagement&#45;&gt;QrCode -->
<g id="edge104" class="edge"><title>Engagement&#45;&gt;QrCode</title>
<path fill="none" stroke="black" d="M1391.98,-324.215C1384.92,-322.698 1377.82,-321.256 1371,-320 1197.61,-288.068 1149.7,-306.048 978,-266 973.943,-265.054 969.765,-263.94 965.601,-262.735"/>
<ellipse fill="none" stroke="black" cx="1396.31" cy="-325.166" rx="4.00001" ry="4.00001"/>
<polygon fill="black" stroke="black" points="965.541,-262.717 957.296,-255.488 960.76,-261.254 955.979,-259.791 955.979,-259.791 955.979,-259.791 960.76,-261.254 954.662,-264.094 965.541,-262.717 965.541,-262.717"/>
</g>
<!-- Engagement&#45;&gt;Log -->
<g id="edge106" class="edge"><title>Engagement&#45;&gt;Log</title>
<path fill="none" stroke="black" d="M1505.44,-320.854C1530.31,-309.295 1557.68,-291.588 1572,-266 1598.85,-218.028 1562.47,-191.273 1524,-152 1445.1,-71.4507 1310.08,-37.4238 1244.29,-25.072"/>
<ellipse fill="none" stroke="black" cx="1501.47" cy="-322.62" rx="4.00002" ry="4.00002"/>
<polygon fill="black" stroke="black" points="1244.18,-25.0531 1235.14,-18.8439 1239.26,-24.1625 1234.34,-23.272 1234.34,-23.272 1234.34,-23.272 1239.26,-24.1625 1233.54,-27.7 1244.18,-25.0531 1244.18,-25.0531"/>
</g>
<!-- ProgramType -->
<g id="node33" class="node"><title>ProgramType</title>
<ellipse fill="none" stroke="black" cx="343" cy="-815" rx="75.1594" ry="18.3848"/>
<text text-anchor="middle" x="343" y="-811.4" font-family="Times Roman,serif" font-size="14.00">ProgramType</text>
</g>
<!-- ProgramType&#45;&gt;Program -->
<g id="edge108" class="edge"><title>ProgramType&#45;&gt;Program</title>
<path fill="none" stroke="black" d="M424.879,-811.068C598.796,-802.085 1017.65,-777.11 1366,-730 1380.8,-727.999 1396.71,-725.276 1411.44,-722.516"/>
<ellipse fill="none" stroke="black" cx="420.779" cy="-811.278" rx="4" ry="4"/>
<polygon fill="black" stroke="black" points="1411.59,-722.487 1422.25,-725.028 1416.5,-721.548 1421.41,-720.609 1421.41,-720.609 1421.41,-720.609 1416.5,-721.548 1420.56,-716.189 1411.59,-722.487 1411.59,-722.487"/>
</g>
<!-- User&#45;&gt;AccountHolder -->
<g id="edge126" class="edge"><title>User&#45;&gt;AccountHolder</title>
<path fill="none" stroke="black" d="M958.704,-409.532C973.733,-395.726 992.718,-376.889 1007,-358 1027.45,-330.95 1045.69,-296.39 1057,-273.076"/>
<ellipse fill="none" stroke="black" cx="955.494" cy="-412.441" rx="4.00002" ry="4.00002"/>
<ellipse fill="black" stroke="black" cx="1058.84" cy="-269.236" rx="4.00002" ry="4.00002"/>
</g>
<!-- User&#45;&gt;Template -->
<g id="edge110" class="edge"><title>User&#45;&gt;Template</title>
<path fill="none" stroke="black" d="M906.826,-411.159C887.11,-396.763 860.381,-377.246 839.692,-362.14"/>
<ellipse fill="none" stroke="black" cx="910.245" cy="-413.655" rx="4.00002" ry="4.00002"/>
<polygon fill="black" stroke="black" points="839.595,-362.069 834.172,-352.538 835.557,-359.121 831.518,-356.172 831.518,-356.172 831.518,-356.172 835.557,-359.121 828.865,-359.806 839.595,-362.069 839.595,-362.069"/>
</g>
<!-- User&#45;&gt;LegalId -->
<g id="edge112" class="edge"><title>User&#45;&gt;LegalId</title>
<path fill="none" stroke="black" d="M892.919,-425.327C860.304,-419.899 814.024,-410.107 776,-394 762.378,-388.23 761.615,-381.788 748,-376 716.054,-362.42 705.458,-367.246 672,-358 667.31,-356.704 662.436,-355.284 657.584,-353.822"/>
<ellipse fill="none" stroke="black" cx="896.954" cy="-425.978" rx="4.00001" ry="4.00001"/>
<polygon fill="black" stroke="black" points="657.281,-353.729 649.045,-346.488 652.501,-352.259 647.722,-350.79 647.722,-350.79 647.722,-350.79 652.501,-352.259 646.4,-355.091 657.281,-353.729 657.281,-353.729"/>
</g>
<!-- User&#45;&gt;QrCode -->
<g id="edge124" class="edge"><title>User&#45;&gt;QrCode</title>
<path fill="none" stroke="black" d="M899.735,-416.39C872.384,-404.911 832.986,-388.783 798,-376 773.842,-367.173 758.096,-378.824 743,-358 705.129,-305.758 804.935,-272.661 869.99,-257.232"/>
<ellipse fill="none" stroke="black" cx="903.43" cy="-417.945" rx="4.00002" ry="4.00002"/>
<ellipse fill="black" stroke="black" cx="874.236" cy="-256.25" rx="4.00001" ry="4.00001"/>
</g>
<!-- User&#45;&gt;Employee -->
<g id="edge120" class="edge"><title>User&#45;&gt;Employee</title>
<path fill="none" stroke="black" d="M971.49,-419.213C991.974,-412.45 1017.65,-403.442 1040,-394 1064.33,-383.722 1090.83,-370.535 1111.72,-359.651"/>
<ellipse fill="none" stroke="black" cx="967.429" cy="-420.541" rx="4.00001" ry="4.00001"/>
<polygon fill="black" stroke="black" points="1111.75,-359.636 1122.69,-358.971 1116.18,-357.311 1120.6,-354.987 1120.6,-354.987 1120.6,-354.987 1116.18,-357.311 1118.51,-351.003 1111.75,-359.636 1111.75,-359.636"/>
</g>
<!-- User&#45;&gt;Log -->
<g id="edge122" class="edge"><title>User&#45;&gt;Log</title>
<path fill="none" stroke="black" d="M893.833,-423.132C866.865,-417.059 830.929,-407.414 801,-394 787.5,-387.95 786.066,-382.938 773,-376 755.063,-366.476 746.727,-370.85 731,-358 703.791,-335.768 686,-328.136 686,-293 686,-293 686,-293 686,-95 686,-46.4559 1045.4,-26.0991 1166.62,-20.6136"/>
<ellipse fill="none" stroke="black" cx="897.991" cy="-424.045" rx="4.00001" ry="4.00001"/>
<polygon fill="black" stroke="black" points="1166.94,-20.5996 1177.13,-24.6528 1171.93,-20.3784 1176.93,-20.1572 1176.93,-20.1572 1176.93,-20.1572 1171.93,-20.3784 1176.73,-15.6616 1166.94,-20.5996 1166.94,-20.5996"/>
</g>
<!-- User&#45;&gt;Follower -->
<g id="edge114" class="edge"><title>User&#45;&gt;Follower</title>
<path fill="none" stroke="black" d="M972.942,-421.325C988.428,-417.836 1006.46,-414.215 1023,-412 1158.32,-393.872 1512.05,-417.358 1635,-358 1675,-338.689 1709.51,-299.559 1729.53,-273.307"/>
<ellipse fill="none" stroke="black" cx="968.995" cy="-422.233" rx="4.00001" ry="4.00001"/>
<polygon fill="black" stroke="black" points="1729.54,-273.297 1739.12,-267.965 1732.53,-269.287 1735.51,-265.277 1735.51,-265.277 1735.51,-265.277 1732.53,-269.287 1731.9,-262.589 1729.54,-273.297 1729.54,-273.297"/>
</g>
<!-- Invitation -->
<g id="node39" class="node"><title>Invitation</title>
<ellipse fill="none" stroke="black" cx="940" cy="-339" rx="58.1882" ry="18.3848"/>
<text text-anchor="middle" x="940" y="-335.4" font-family="Times Roman,serif" font-size="14.00">Invitation</text>
</g>
<!-- User&#45;&gt;Invitation -->
<g id="edge118" class="edge"><title>User&#45;&gt;Invitation</title>
<path fill="none" stroke="black" d="M935.759,-404.029C936.504,-392.599 937.374,-379.267 938.131,-367.66"/>
<ellipse fill="none" stroke="black" cx="935.475" cy="-408.391" rx="4" ry="4"/>
<polygon fill="black" stroke="black" points="938.137,-367.569 943.278,-357.883 938.462,-362.579 938.788,-357.59 938.788,-357.59 938.788,-357.59 938.462,-362.579 934.297,-357.297 938.137,-367.569 938.137,-367.569"/>
</g>
<!-- User&#45;&gt;Busines -->
<g id="edge116" class="edge"><title>User&#45;&gt;Busines</title>
<path fill="none" stroke="black" d="M975.078,-421.029C1044.77,-404.112 1185.98,-369.834 1261.92,-351.399"/>
<polygon fill="black" stroke="black" points="975.055,-421.034 964.276,-419.02 970.196,-422.213 965.338,-423.393 965.338,-423.393 965.338,-423.393 970.196,-422.213 966.399,-427.766 975.055,-421.034 975.055,-421.034"/>
<polygon fill="black" stroke="black" points="1262.03,-351.373 1272.81,-353.387 1266.89,-350.194 1271.75,-349.014 1271.75,-349.014 1271.75,-349.014 1266.89,-350.194 1270.68,-344.641 1262.03,-351.373 1262.03,-351.373"/>
<text text-anchor="middle" x="1194" y="-381.4" font-family="Times Roman,serif" font-size="14.00">businesses</text>
</g>
<!-- User&#45;&gt;Addres -->
<g id="edge128" class="edge"><title>User&#45;&gt;Addres</title>
<path fill="none" stroke="black" d="M891.763,-427.947C786.608,-420.258 520.991,-400.265 514,-394 506.103,-386.924 502.934,-375.917 501.899,-365.603"/>
<ellipse fill="none" stroke="black" cx="895.956" cy="-428.253" rx="4" ry="4"/>
<ellipse fill="black" stroke="black" cx="501.687" cy="-361.562" rx="4" ry="4"/>
<text text-anchor="middle" x="569" y="-381.4" font-family="Times Roman,serif" font-size="14.00">mailing_address</text>
</g>
<!-- User&#45;&gt;Addres -->
<g id="edge130" class="edge"><title>User&#45;&gt;Addres</title>
<path fill="none" stroke="black" d="M891.782,-428.853C822.025,-424.775 686.121,-414.428 643,-394 632.488,-389.02 634.15,-381.683 624,-376 597.096,-360.936 586.453,-367.124 557,-358 553.008,-356.764 548.871,-355.421 544.744,-354.04"/>
<ellipse fill="none" stroke="black" cx="895.957" cy="-429.092" rx="4" ry="4"/>
<ellipse fill="black" stroke="black" cx="540.647" cy="-352.645" rx="4.00001" ry="4.00001"/>
<text text-anchor="middle" x="693.5" y="-381.4" font-family="Times Roman,serif" font-size="14.00">billing_address</text>
</g>
<!-- MeasurementType&#45;&gt;Campaign -->
<g id="edge134" class="edge"><title>MeasurementType&#45;&gt;Campaign</title>
<path fill="none" stroke="black" d="M1617.84,-686.316C1602.24,-668.111 1581.05,-643.397 1565.21,-624.908"/>
<ellipse fill="none" stroke="black" cx="1620.54" cy="-689.468" rx="4.00002" ry="4.00002"/>
<polygon fill="black" stroke="black" points="1565.07,-624.743 1561.97,-614.222 1561.81,-620.947 1558.56,-617.15 1558.56,-617.15 1558.56,-617.15 1561.81,-620.947 1555.14,-620.079 1565.07,-624.743 1565.07,-624.743"/>
</g>
<!-- MeasurementType&#45;&gt;Account -->
<g id="edge136" class="edge"><title>MeasurementType&#45;&gt;Account</title>
<path fill="none" stroke="black" d="M1673.22,-688.361C1699.03,-668.293 1730,-636.416 1730,-599 1730,-599 1730,-599 1730,-385 1730,-299.8 1690.5,-275.835 1620,-228 1589,-206.964 1549.28,-192.598 1517.67,-183.55"/>
<ellipse fill="none" stroke="black" cx="1669.99" cy="-690.797" rx="4.00002" ry="4.00002"/>
<polygon fill="black" stroke="black" points="1517.36,-183.463 1508.92,-176.461 1512.54,-182.131 1507.72,-180.798 1507.72,-180.798 1507.72,-180.798 1512.54,-182.131 1506.52,-185.135 1517.36,-183.463 1517.36,-183.463"/>
</g>
<!-- Action&#45;&gt;Log -->
<g id="edge138" class="edge"><title>Action&#45;&gt;Log</title>
<path fill="none" stroke="black" d="M1206,-68.0731C1206,-61.4485 1206,-54.332 1206,-47.6302"/>
<ellipse fill="none" stroke="black" cx="1206" cy="-72.2135" rx="4" ry="4"/>
<polygon fill="black" stroke="black" points="1206,-47.5704 1210.5,-37.5704 1206,-42.5704 1206,-37.5704 1206,-37.5704 1206,-37.5704 1206,-42.5704 1201.5,-37.5705 1206,-47.5704 1206,-47.5704"/>
</g>
<!-- PlaceTypes -->
<g id="node40" class="node"><title>PlaceTypes</title>
<ellipse fill="none" stroke="black" cx="2133" cy="-431" rx="63.8479" ry="18.3848"/>
<text text-anchor="middle" x="2133" y="-427.4" font-family="Times Roman,serif" font-size="14.00">PlaceTypes</text>
</g>
<!-- PlaceTypes&#45;&gt;Place -->
<g id="edge140" class="edge"><title>PlaceTypes&#45;&gt;Place</title>
<path fill="none" stroke="black" d="M2109.51,-406.715C2096.56,-393.332 2080.54,-376.767 2067.58,-363.371"/>
<ellipse fill="none" stroke="black" cx="2112.64" cy="-409.949" rx="4.00002" ry="4.00002"/>
<polygon fill="black" stroke="black" points="2067.3,-363.085 2063.58,-352.769 2063.82,-359.491 2060.35,-355.898 2060.35,-355.898 2060.35,-355.898 2063.82,-359.491 2057.11,-359.026 2067.3,-363.085 2067.3,-363.085"/>
</g>
<!-- Item&#45;&gt;Image -->
<g id="edge144" class="edge"><title>Item&#45;&gt;Image</title>
<path fill="none" stroke="black" d="M1617.59,-405.626C1611.59,-393.371 1604.4,-378.653 1598.29,-366.17"/>
<ellipse fill="none" stroke="black" cx="1619.35" cy="-409.231" rx="4.00002" ry="4.00002"/>
<polygon fill="black" stroke="black" points="1598.27,-366.121 1597.91,-355.161 1596.07,-361.63 1593.87,-357.138 1593.87,-357.138 1593.87,-357.138 1596.07,-361.63 1589.83,-359.116 1598.27,-366.121 1598.27,-366.121"/>
</g>
<!-- Item&#45;&gt;Place -->
<g id="edge142" class="edge"><title>Item&#45;&gt;Place</title>
<path fill="none" stroke="black" d="M1671.77,-421.717C1750.5,-404.222 1920.1,-366.533 2000.29,-348.713"/>
<polygon fill="black" stroke="black" points="1671.56,-421.764 1660.82,-419.541 1666.68,-422.849 1661.8,-423.934 1661.8,-423.934 1661.8,-423.934 1666.68,-422.849 1662.77,-428.327 1671.56,-421.764 1671.56,-421.764"/>
<polygon fill="black" stroke="black" points="2000.31,-348.708 2011.05,-350.932 2005.2,-347.623 2010.08,-346.539 2010.08,-346.539 2010.08,-346.539 2005.2,-347.623 2009.1,-342.146 2000.31,-348.708 2000.31,-348.708"/>
</g>
</g>
</svg>
