<?xml version="1.0" encoding="UTF-8" standalone="no"?>
<!DOCTYPE svg PUBLIC "-//W3C//DTD SVG 1.1//EN"
 "http://www.w3.org/Graphics/SVG/1.1/DTD/svg11.dtd">
<!-- Generated by graphviz version 2.26.3 (20100126.1600)
 -->
<!-- Title: models_diagram Pages: 1 -->
<svg width="894pt" height="948pt"
 viewBox="0.00 0.00 894.00 948.00" xmlns="http://www.w3.org/2000/svg" xmlns:xlink="http://www.w3.org/1999/xlink">
<g id="graph1" class="graph" transform="scale(1 1) rotate(0) translate(4 944)">
<title>models_diagram</title>
<polygon fill="white" stroke="white" points="-4,5 -4,-944 891,-944 891,5 -4,5"/>
<!-- _diagram_info -->
<g id="node1" class="node"><title>_diagram_info</title>
<text text-anchor="start" x="72" y="-889.8" font-family="Times Roman,serif" font-size="13.00">Models diagram</text>
<text text-anchor="start" x="72" y="-872.8" font-family="Times Roman,serif" font-size="13.00">Date: Mar 02 2011 &#45; 21:12</text>
<text text-anchor="start" x="72" y="-855.8" font-family="Times Roman,serif" font-size="13.00">Migration version: 20110227193829</text>
<text text-anchor="start" x="72" y="-838.8" font-family="Times Roman,serif" font-size="13.00">Generated by RailRoady 1.0.1</text>
<text text-anchor="start" x="72" y="-821.8" font-family="Times Roman,serif" font-size="13.00">http://railroady.prestonlee.com</text>
</g>
<!-- Report -->
<g id="node2" class="node"><title>Report</title>
<polyline fill="none" stroke="black" points="190.5,-1 341.5,-1 "/>
<path fill="none" stroke="black" d="M341.5,-1C347.5,-1 353.5,-7 353.5,-13"/>
<polyline fill="none" stroke="black" points="353.5,-13 353.5,-131 "/>
<path fill="none" stroke="black" d="M353.5,-131C353.5,-137 347.5,-143 341.5,-143"/>
<polyline fill="none" stroke="black" points="341.5,-143 190.5,-143 "/>
<path fill="none" stroke="black" d="M190.5,-143C184.5,-143 178.5,-137 178.5,-131"/>
<polyline fill="none" stroke="black" points="178.5,-131 178.5,-13 "/>
<path fill="none" stroke="black" d="M178.5,-13C178.5,-7 184.5,-1 190.5,-1"/>
<text text-anchor="middle" x="266" y="-126.4" font-family="Times Roman,serif" font-size="14.00">Report</text>
<polyline fill="none" stroke="black" points="178.5,-117 353.5,-117 "/>
<text text-anchor="start" x="186.5" y="-100.4" font-family="Times Roman,serif" font-size="14.00">name :string</text>
<text text-anchor="start" x="186.5" y="-82.4" font-family="Times Roman,serif" font-size="14.00">created_at :datetime</text>
<text text-anchor="start" x="186.5" y="-64.4" font-family="Times Roman,serif" font-size="14.00">updated_at :datetime</text>
<text text-anchor="start" x="186.5" y="-46.4" font-family="Times Roman,serif" font-size="14.00">reportable_type :string</text>
<text text-anchor="start" x="186.5" y="-28.4" font-family="Times Roman,serif" font-size="14.00">points :string</text>
<text text-anchor="start" x="186.5" y="-10.4" font-family="Times Roman,serif" font-size="14.00">activity_type :string</text>
</g>
<!-- Engagement -->
<g id="node3" class="node"><title>Engagement</title>
<polyline fill="none" stroke="black" points="526,-534 692,-534 "/>
<path fill="none" stroke="black" d="M692,-534C698,-534 704,-540 704,-546"/>
<polyline fill="none" stroke="black" points="704,-546 704,-682 "/>
<path fill="none" stroke="black" d="M704,-682C704,-688 698,-694 692,-694"/>
<polyline fill="none" stroke="black" points="692,-694 526,-694 "/>
<path fill="none" stroke="black" d="M526,-694C520,-694 514,-688 514,-682"/>
<polyline fill="none" stroke="black" points="514,-682 514,-546 "/>
<path fill="none" stroke="black" d="M514,-546C514,-540 520,-534 526,-534"/>
<text text-anchor="middle" x="609" y="-677.4" font-family="Times Roman,serif" font-size="14.00">Engagement</text>
<polyline fill="none" stroke="black" points="514,-668 704,-668 "/>
<text text-anchor="start" x="522" y="-651.4" font-family="Times Roman,serif" font-size="14.00">engagement_type :string</text>
<text text-anchor="start" x="522" y="-633.4" font-family="Times Roman,serif" font-size="14.00">points :string</text>
<text text-anchor="start" x="522" y="-615.4" font-family="Times Roman,serif" font-size="14.00">state :string</text>
<text text-anchor="start" x="522" y="-597.4" font-family="Times Roman,serif" font-size="14.00">description :string</text>
<text text-anchor="start" x="522" y="-579.4" font-family="Times Roman,serif" font-size="14.00">created_at :datetime</text>
<text text-anchor="start" x="522" y="-561.4" font-family="Times Roman,serif" font-size="14.00">updated_at :datetime</text>
<text text-anchor="start" x="522" y="-543.4" font-family="Times Roman,serif" font-size="14.00">name :string</text>
</g>
<!-- Place -->
<g id="node9" class="node"><title>Place</title>
<polyline fill="none" stroke="black" points="343.5,-183 484.5,-183 "/>
<path fill="none" stroke="black" d="M484.5,-183C490.5,-183 496.5,-189 496.5,-195"/>
<polyline fill="none" stroke="black" points="496.5,-195 496.5,-421 "/>
<path fill="none" stroke="black" d="M496.5,-421C496.5,-427 490.5,-433 484.5,-433"/>
<polyline fill="none" stroke="black" points="484.5,-433 343.5,-433 "/>
<path fill="none" stroke="black" d="M343.5,-433C337.5,-433 331.5,-427 331.5,-421"/>
<polyline fill="none" stroke="black" points="331.5,-421 331.5,-195 "/>
<path fill="none" stroke="black" d="M331.5,-195C331.5,-189 337.5,-183 343.5,-183"/>
<text text-anchor="middle" x="414" y="-416.4" font-family="Times Roman,serif" font-size="14.00">Place</text>
<polyline fill="none" stroke="black" points="331.5,-407 496.5,-407 "/>
<text text-anchor="start" x="339.5" y="-390.4" font-family="Times Roman,serif" font-size="14.00">name :string</text>
<text text-anchor="start" x="339.5" y="-372.4" font-family="Times Roman,serif" font-size="14.00">long :string</text>
<text text-anchor="start" x="339.5" y="-354.4" font-family="Times Roman,serif" font-size="14.00">lat :string</text>
<text text-anchor="start" x="339.5" y="-336.4" font-family="Times Roman,serif" font-size="14.00">description :text</text>
<text text-anchor="start" x="339.5" y="-318.4" font-family="Times Roman,serif" font-size="14.00">created_at :datetime</text>
<text text-anchor="start" x="339.5" y="-300.4" font-family="Times Roman,serif" font-size="14.00">updated_at :datetime</text>
<text text-anchor="start" x="339.5" y="-282.4" font-family="Times Roman,serif" font-size="14.00">address1 :string</text>
<text text-anchor="start" x="339.5" y="-264.4" font-family="Times Roman,serif" font-size="14.00">neighborhood :string</text>
<text text-anchor="start" x="339.5" y="-246.4" font-family="Times Roman,serif" font-size="14.00">city :string</text>
<text text-anchor="start" x="339.5" y="-228.4" font-family="Times Roman,serif" font-size="14.00">address2 :string</text>
<text text-anchor="start" x="339.5" y="-210.4" font-family="Times Roman,serif" font-size="14.00">zipcode :string</text>
<text text-anchor="start" x="339.5" y="-192.4" font-family="Times Roman,serif" font-size="14.00">country :string</text>
</g>
<!-- Engagement&#45;&gt;Place -->
<g id="edge2" class="edge"><title>Engagement&#45;&gt;Place</title>
<path fill="none" stroke="black" d="M552.178,-524.833C535.632,-498.868 517.181,-469.915 499.288,-441.837"/>
<polygon fill="black" stroke="black" points="552.392,-525.169 553.971,-536.02 555.079,-529.385 557.766,-533.602 557.766,-533.602 557.766,-533.602 555.079,-529.385 561.561,-531.184 552.392,-525.169 552.392,-525.169"/>
<polygon fill="black" stroke="black" points="499.13,-441.588 497.551,-430.737 496.443,-437.372 493.756,-433.155 493.756,-433.155 493.756,-433.155 496.443,-437.372 489.961,-435.573 499.13,-441.588 499.13,-441.588"/>
</g>
<!-- QrCode -->
<g id="node11" class="node"><title>QrCode</title>
<polyline fill="none" stroke="black" points="442.5,-19 583.5,-19 "/>
<path fill="none" stroke="black" d="M583.5,-19C589.5,-19 595.5,-25 595.5,-31"/>
<polyline fill="none" stroke="black" points="595.5,-31 595.5,-113 "/>
<path fill="none" stroke="black" d="M595.5,-113C595.5,-119 589.5,-125 583.5,-125"/>
<polyline fill="none" stroke="black" points="583.5,-125 442.5,-125 "/>
<path fill="none" stroke="black" d="M442.5,-125C436.5,-125 430.5,-119 430.5,-113"/>
<polyline fill="none" stroke="black" points="430.5,-113 430.5,-31 "/>
<path fill="none" stroke="black" d="M430.5,-31C430.5,-25 436.5,-19 442.5,-19"/>
<text text-anchor="middle" x="513" y="-108.4" font-family="Times Roman,serif" font-size="14.00">QrCode</text>
<polyline fill="none" stroke="black" points="430.5,-99 595.5,-99 "/>
<text text-anchor="start" x="438.5" y="-82.4" font-family="Times Roman,serif" font-size="14.00">hash_code :string</text>
<text text-anchor="start" x="438.5" y="-64.4" font-family="Times Roman,serif" font-size="14.00">created_at :datetime</text>
<text text-anchor="start" x="438.5" y="-46.4" font-family="Times Roman,serif" font-size="14.00">updated_at :datetime</text>
<text text-anchor="start" x="438.5" y="-28.4" font-family="Times Roman,serif" font-size="14.00">path :string</text>
</g>
<!-- Engagement&#45;&gt;QrCode -->
<g id="edge4" class="edge"><title>Engagement&#45;&gt;QrCode</title>
<path fill="none" stroke="black" d="M593.36,-525.697C573.928,-415.987 541.253,-231.513 524.17,-135.065"/>
<ellipse fill="none" stroke="black" cx="594.086" cy="-529.796" rx="4.00001" ry="4.00001"/>
<polygon fill="black" stroke="black" points="524.161,-135.011 526.847,-124.379 523.289,-130.087 522.416,-125.164 522.416,-125.164 522.416,-125.164 523.289,-130.087 517.985,-125.949 524.161,-135.011 524.161,-135.011"/>
</g>
<!-- User -->
<g id="node4" class="node"><title>User</title>
<polyline fill="none" stroke="black" points="11.5,-489 226.5,-489 "/>
<path fill="none" stroke="black" d="M226.5,-489C232.5,-489 238.5,-495 238.5,-501"/>
<polyline fill="none" stroke="black" points="238.5,-501 238.5,-727 "/>
<path fill="none" stroke="black" d="M238.5,-727C238.5,-733 232.5,-739 226.5,-739"/>
<polyline fill="none" stroke="black" points="226.5,-739 11.5,-739 "/>
<path fill="none" stroke="black" d="M11.5,-739C5.5,-739 -0.5,-733 -0.5,-727"/>
<polyline fill="none" stroke="black" points="-0.5,-727 -0.5,-501 "/>
<path fill="none" stroke="black" d="M-0.5,-501C-0.5,-495 5.5,-489 11.5,-489"/>
<text text-anchor="middle" x="119" y="-722.4" font-family="Times Roman,serif" font-size="14.00">User</text>
<polyline fill="none" stroke="black" points="-0.5,-713 238.5,-713 "/>
<text text-anchor="start" x="7.5" y="-696.4" font-family="Times Roman,serif" font-size="14.00">email :string</text>
<text text-anchor="start" x="7.5" y="-678.4" font-family="Times Roman,serif" font-size="14.00">encrypted_password :string</text>
<text text-anchor="start" x="7.5" y="-660.4" font-family="Times Roman,serif" font-size="14.00">password_salt :string</text>
<text text-anchor="start" x="7.5" y="-642.4" font-family="Times Roman,serif" font-size="14.00">reset_password_token :string</text>
<text text-anchor="start" x="7.5" y="-624.4" font-family="Times Roman,serif" font-size="14.00">remember_token :string</text>
<text text-anchor="start" x="7.5" y="-606.4" font-family="Times Roman,serif" font-size="14.00">remember_created_at :datetime</text>
<text text-anchor="start" x="7.5" y="-588.4" font-family="Times Roman,serif" font-size="14.00">current_sign_in_at :datetime</text>
<text text-anchor="start" x="7.5" y="-570.4" font-family="Times Roman,serif" font-size="14.00">last_sign_in_at :datetime</text>
<text text-anchor="start" x="7.5" y="-552.4" font-family="Times Roman,serif" font-size="14.00">current_sign_in_ip :string</text>
<text text-anchor="start" x="7.5" y="-534.4" font-family="Times Roman,serif" font-size="14.00">last_sign_in_ip :string</text>
<text text-anchor="start" x="7.5" y="-516.4" font-family="Times Roman,serif" font-size="14.00">created_at :datetime</text>
<text text-anchor="start" x="7.5" y="-498.4" font-family="Times Roman,serif" font-size="14.00">updated_at :datetime</text>
</g>
<!-- Account -->
<g id="node5" class="node"><title>Account</title>
<polyline fill="none" stroke="black" points="67.5,-264 208.5,-264 "/>
<path fill="none" stroke="black" d="M208.5,-264C214.5,-264 220.5,-270 220.5,-276"/>
<polyline fill="none" stroke="black" points="220.5,-276 220.5,-340 "/>
<path fill="none" stroke="black" d="M220.5,-340C220.5,-346 214.5,-352 208.5,-352"/>
<polyline fill="none" stroke="black" points="208.5,-352 67.5,-352 "/>
<path fill="none" stroke="black" d="M67.5,-352C61.5,-352 55.5,-346 55.5,-340"/>
<polyline fill="none" stroke="black" points="55.5,-340 55.5,-276 "/>
<path fill="none" stroke="black" d="M55.5,-276C55.5,-270 61.5,-264 67.5,-264"/>
<text text-anchor="middle" x="138" y="-335.4" font-family="Times Roman,serif" font-size="14.00">Account</text>
<polyline fill="none" stroke="black" points="55.5,-326 220.5,-326 "/>
<text text-anchor="start" x="63.5" y="-309.4" font-family="Times Roman,serif" font-size="14.00">points :integer</text>
<text text-anchor="start" x="63.5" y="-291.4" font-family="Times Roman,serif" font-size="14.00">created_at :datetime</text>
<text text-anchor="start" x="63.5" y="-273.4" font-family="Times Roman,serif" font-size="14.00">updated_at :datetime</text>
</g>
<!-- User&#45;&gt;Account -->
<g id="edge6" class="edge"><title>User&#45;&gt;Account</title>
<path fill="none" stroke="black" d="M127.295,-480.405C129.926,-438.029 132.683,-393.634 134.74,-360.509"/>
<ellipse fill="none" stroke="black" cx="127.031" cy="-484.663" rx="4" ry="4"/>
<ellipse fill="black" stroke="black" cx="134.999" cy="-356.33" rx="4" ry="4"/>
</g>
<!-- Account&#45;&gt;Report -->
<g id="edge8" class="edge"><title>Account&#45;&gt;Report</title>
<path fill="none" stroke="black" d="M165.908,-256.545C182.429,-226.085 203.716,-186.835 222.41,-152.37"/>
<ellipse fill="none" stroke="black" cx="163.833" cy="-260.371" rx="4.00002" ry="4.00002"/>
<polygon fill="black" stroke="black" points="222.586,-152.045 231.309,-145.4 224.97,-147.649 227.354,-143.254 227.354,-143.254 227.354,-143.254 224.97,-147.649 223.398,-141.109 222.586,-152.045 222.586,-152.045"/>
</g>
<!-- Reward -->
<g id="node6" class="node"><title>Reward</title>
<polyline fill="none" stroke="black" points="343.5,-534 484.5,-534 "/>
<path fill="none" stroke="black" d="M484.5,-534C490.5,-534 496.5,-540 496.5,-546"/>
<polyline fill="none" stroke="black" points="496.5,-546 496.5,-682 "/>
<path fill="none" stroke="black" d="M496.5,-682C496.5,-688 490.5,-694 484.5,-694"/>
<polyline fill="none" stroke="black" points="484.5,-694 343.5,-694 "/>
<path fill="none" stroke="black" d="M343.5,-694C337.5,-694 331.5,-688 331.5,-682"/>
<polyline fill="none" stroke="black" points="331.5,-682 331.5,-546 "/>
<path fill="none" stroke="black" d="M331.5,-546C331.5,-540 337.5,-534 343.5,-534"/>
<text text-anchor="middle" x="414" y="-677.4" font-family="Times Roman,serif" font-size="14.00">Reward</text>
<polyline fill="none" stroke="black" points="331.5,-668 496.5,-668 "/>
<text text-anchor="start" x="339.5" y="-651.4" font-family="Times Roman,serif" font-size="14.00">name :string</text>
<text text-anchor="start" x="339.5" y="-633.4" font-family="Times Roman,serif" font-size="14.00">created_at :datetime</text>
<text text-anchor="start" x="339.5" y="-615.4" font-family="Times Roman,serif" font-size="14.00">updated_at :datetime</text>
<text text-anchor="start" x="339.5" y="-597.4" font-family="Times Roman,serif" font-size="14.00">description :text</text>
<text text-anchor="start" x="339.5" y="-579.4" font-family="Times Roman,serif" font-size="14.00">points :integer</text>
<text text-anchor="start" x="339.5" y="-561.4" font-family="Times Roman,serif" font-size="14.00">claim :integer</text>
<text text-anchor="start" x="339.5" y="-543.4" font-family="Times Roman,serif" font-size="14.00">available :datetime</text>
</g>
<!-- Reward&#45;&gt;Place -->
<g id="edge10" class="edge"><title>Reward&#45;&gt;Place</title>
<path fill="none" stroke="black" d="M414,-523.348C414,-498.273 414,-470.502 414,-443.472"/>
<polygon fill="black" stroke="black" points="414,-523.602 409.5,-533.602 414,-528.602 414,-533.602 414,-533.602 414,-533.602 414,-528.602 418.5,-533.602 414,-523.602 414,-523.602"/>
<polygon fill="black" stroke="black" points="414,-443.155 418.5,-433.155 414,-438.155 414,-433.155 414,-433.155 414,-433.155 414,-438.155 409.5,-433.155 414,-443.155 414,-443.155"/>
</g>
<!-- Category -->
<g id="node7" class="node"><title>Category</title>
<polyline fill="none" stroke="black" points="733.5,-561 874.5,-561 "/>
<path fill="none" stroke="black" d="M874.5,-561C880.5,-561 886.5,-567 886.5,-573"/>
<polyline fill="none" stroke="black" points="886.5,-573 886.5,-655 "/>
<path fill="none" stroke="black" d="M886.5,-655C886.5,-661 880.5,-667 874.5,-667"/>
<polyline fill="none" stroke="black" points="874.5,-667 733.5,-667 "/>
<path fill="none" stroke="black" d="M733.5,-667C727.5,-667 721.5,-661 721.5,-655"/>
<polyline fill="none" stroke="black" points="721.5,-655 721.5,-573 "/>
<path fill="none" stroke="black" d="M721.5,-573C721.5,-567 727.5,-561 733.5,-561"/>
<text text-anchor="middle" x="804" y="-650.4" font-family="Times Roman,serif" font-size="14.00">Category</text>
<polyline fill="none" stroke="black" points="721.5,-641 886.5,-641 "/>
<text text-anchor="start" x="729.5" y="-624.4" font-family="Times Roman,serif" font-size="14.00">name :string</text>
<text text-anchor="start" x="729.5" y="-606.4" font-family="Times Roman,serif" font-size="14.00">description :text</text>
<text text-anchor="start" x="729.5" y="-588.4" font-family="Times Roman,serif" font-size="14.00">created_at :datetime</text>
<text text-anchor="start" x="729.5" y="-570.4" font-family="Times Roman,serif" font-size="14.00">updated_at :datetime</text>
</g>
<!-- Busines -->
<g id="node18" class="node"><title>Busines</title>
<ellipse fill="none" stroke="black" cx="804" cy="-308" rx="48.9975" ry="18.3848"/>
<text text-anchor="middle" x="804" y="-304.4" font-family="Times Roman,serif" font-size="14.00">Busines</text>
</g>
<!-- Category&#45;&gt;Busines -->
<g id="edge12" class="edge"><title>Category&#45;&gt;Busines</title>
<path fill="none" stroke="black" d="M804,-550.589C804,-485.011 804,-385.533 804,-336.865"/>
<polygon fill="black" stroke="black" points="804,-550.699 799.5,-560.699 804,-555.699 804,-560.699 804,-560.699 804,-560.699 804,-555.699 808.5,-560.699 804,-550.699 804,-550.699"/>
<polygon fill="black" stroke="black" points="804,-336.731 808.5,-326.731 804,-331.731 804,-326.731 804,-326.731 804,-326.731 804,-331.731 799.5,-326.731 804,-336.731 804,-336.731"/>
<text text-anchor="middle" x="841" y="-457.4" font-family="Times Roman,serif" font-size="14.00">businesses</text>
</g>
<!-- Business -->
<g id="node8" class="node"><title>Business</title>
<polyline fill="none" stroke="black" points="343.5,-806 484.5,-806 "/>
<path fill="none" stroke="black" d="M484.5,-806C490.5,-806 496.5,-812 496.5,-818"/>
<polyline fill="none" stroke="black" points="496.5,-818 496.5,-900 "/>
<path fill="none" stroke="black" d="M496.5,-900C496.5,-906 490.5,-912 484.5,-912"/>
<polyline fill="none" stroke="black" points="484.5,-912 343.5,-912 "/>
<path fill="none" stroke="black" d="M343.5,-912C337.5,-912 331.5,-906 331.5,-900"/>
<polyline fill="none" stroke="black" points="331.5,-900 331.5,-818 "/>
<path fill="none" stroke="black" d="M331.5,-818C331.5,-812 337.5,-806 343.5,-806"/>
<text text-anchor="middle" x="414" y="-895.4" font-family="Times Roman,serif" font-size="14.00">Business</text>
<polyline fill="none" stroke="black" points="331.5,-886 496.5,-886 "/>
<text text-anchor="start" x="339.5" y="-869.4" font-family="Times Roman,serif" font-size="14.00">name :string</text>
<text text-anchor="start" x="339.5" y="-851.4" font-family="Times Roman,serif" font-size="14.00">description :text</text>
<text text-anchor="start" x="339.5" y="-833.4" font-family="Times Roman,serif" font-size="14.00">created_at :datetime</text>
<text text-anchor="start" x="339.5" y="-815.4" font-family="Times Roman,serif" font-size="14.00">updated_at :datetime</text>
</g>
<!-- Business&#45;&gt;Report -->
<g id="edge22" class="edge"><title>Business&#45;&gt;Report</title>
<path fill="none" stroke="black" d="M347.815,-800.295C324.424,-777.957 302.325,-754.433 296,-740 250.906,-637.101 256.851,-307.946 262.435,-153.485"/>
<ellipse fill="none" stroke="black" cx="350.876" cy="-803.193" rx="4.00002" ry="4.00002"/>
<polygon fill="black" stroke="black" points="262.448,-153.113 267.315,-143.286 262.633,-148.116 262.818,-143.12 262.818,-143.12 262.818,-143.12 262.633,-148.116 258.321,-142.953 262.448,-153.113 262.448,-153.113"/>
</g>
<!-- Business&#45;&gt;Engagement -->
<g id="edge16" class="edge"><title>Business&#45;&gt;Engagement</title>
<path fill="none" stroke="black" d="M461.589,-799.209C484.799,-770.047 513.177,-734.393 538.814,-702.183"/>
<ellipse fill="none" stroke="black" cx="458.803" cy="-802.709" rx="4.00002" ry="4.00002"/>
<polygon fill="black" stroke="black" points="539.04,-701.898 548.789,-696.876 542.154,-697.986 545.268,-694.074 545.268,-694.074 545.268,-694.074 542.154,-697.986 541.747,-691.271 539.04,-701.898 539.04,-701.898"/>
</g>
<!-- Business&#45;&gt;Reward -->
<g id="edge18" class="edge"><title>Business&#45;&gt;Reward</title>
<path fill="none" stroke="black" d="M414,-797.614C414,-769.447 414,-735.483 414,-704.467"/>
<ellipse fill="none" stroke="black" cx="414" cy="-801.839" rx="4" ry="4"/>
<polygon fill="black" stroke="black" points="414,-704.074 418.5,-694.074 414,-699.074 414,-694.074 414,-694.074 414,-694.074 414,-699.074 409.5,-694.074 414,-704.074 414,-704.074"/>
</g>
<!-- Business&#45;&gt;Category -->
<g id="edge20" class="edge"><title>Business&#45;&gt;Category</title>
<path fill="none" stroke="black" d="M472.003,-799.278C482.33,-791.111 493.488,-783.618 505,-778 589.454,-736.785 633.53,-790.157 713,-740 737.692,-724.416 757.769,-699.493 772.721,-675.912"/>
<polygon fill="black" stroke="black" points="471.998,-799.281 461.417,-802.159 468.137,-802.458 464.275,-805.634 464.275,-805.634 464.275,-805.634 468.137,-802.458 467.134,-809.109 471.998,-799.281 471.998,-799.281"/>
<polygon fill="black" stroke="black" points="772.771,-675.83 781.833,-669.656 775.383,-671.567 777.996,-667.304 777.996,-667.304 777.996,-667.304 775.383,-671.567 774.16,-664.953 772.771,-675.83 772.771,-675.83"/>
</g>
<!-- Business&#45;&gt;Place -->
<g id="edge14" class="edge"><title>Business&#45;&gt;Place</title>
<path fill="none" stroke="black" d="M356.583,-799.535C342.91,-781.752 330.205,-761.282 323,-740 287.086,-633.914 297.026,-596.947 323,-488 326.564,-473.051 331.58,-457.938 337.446,-443.156"/>
<ellipse fill="none" stroke="black" cx="359.177" cy="-802.821" rx="4.00002" ry="4.00002"/>
<polygon fill="black" stroke="black" points="337.616,-442.744 345.579,-435.205 339.516,-438.119 341.417,-433.495 341.417,-433.495 341.417,-433.495 339.516,-438.119 337.255,-431.784 337.616,-442.744 337.616,-442.744"/>
</g>
<!-- Place&#45;&gt;Report -->
<g id="edge24" class="edge"><title>Place&#45;&gt;Report</title>
<path fill="none" stroke="black" d="M331.071,-175.763C325.976,-167.637 320.938,-159.603 316.055,-151.818"/>
<ellipse fill="none" stroke="black" cx="333.325" cy="-179.356" rx="4.00002" ry="4.00002"/>
<polygon fill="black" stroke="black" points="315.928,-151.614 314.427,-140.751 313.271,-147.378 310.615,-143.142 310.615,-143.142 310.615,-143.142 313.271,-147.378 306.802,-145.533 315.928,-151.614 315.928,-151.614"/>
</g>
<!-- Place&#45;&gt;QrCode -->
<g id="edge26" class="edge"><title>Place&#45;&gt;QrCode</title>
<path fill="none" stroke="black" d="M469.729,-175.15C475.635,-161.073 481.42,-147.282 486.742,-134.596"/>
<ellipse fill="none" stroke="black" cx="468.091" cy="-179.056" rx="4.00002" ry="4.00002"/>
<polygon fill="black" stroke="black" points="486.847,-134.345 494.865,-126.865 488.781,-129.735 490.715,-125.124 490.715,-125.124 490.715,-125.124 488.781,-129.735 486.565,-123.383 486.847,-134.345 486.847,-134.345"/>
</g>
<!-- Newsletter -->
<g id="node10" class="node"><title>Newsletter</title>
<polyline fill="none" stroke="black" points="525.5,-779 666.5,-779 "/>
<path fill="none" stroke="black" d="M666.5,-779C672.5,-779 678.5,-785 678.5,-791"/>
<polyline fill="none" stroke="black" points="678.5,-791 678.5,-927 "/>
<path fill="none" stroke="black" d="M678.5,-927C678.5,-933 672.5,-939 666.5,-939"/>
<polyline fill="none" stroke="black" points="666.5,-939 525.5,-939 "/>
<path fill="none" stroke="black" d="M525.5,-939C519.5,-939 513.5,-933 513.5,-927"/>
<polyline fill="none" stroke="black" points="513.5,-927 513.5,-791 "/>
<path fill="none" stroke="black" d="M513.5,-791C513.5,-785 519.5,-779 525.5,-779"/>
<text text-anchor="middle" x="596" y="-922.4" font-family="Times Roman,serif" font-size="14.00">Newsletter</text>
<polyline fill="none" stroke="black" points="513.5,-913 678.5,-913 "/>
<text text-anchor="start" x="521.5" y="-896.4" font-family="Times Roman,serif" font-size="14.00">letter_type :boolean</text>
<text text-anchor="start" x="521.5" y="-878.4" font-family="Times Roman,serif" font-size="14.00">name :string</text>
<text text-anchor="start" x="521.5" y="-860.4" font-family="Times Roman,serif" font-size="14.00">city :string</text>
<text text-anchor="start" x="521.5" y="-842.4" font-family="Times Roman,serif" font-size="14.00">country :string</text>
<text text-anchor="start" x="521.5" y="-824.4" font-family="Times Roman,serif" font-size="14.00">email :string</text>
<text text-anchor="start" x="521.5" y="-806.4" font-family="Times Roman,serif" font-size="14.00">created_at :datetime</text>
<text text-anchor="start" x="521.5" y="-788.4" font-family="Times Roman,serif" font-size="14.00">updated_at :datetime</text>
</g>
</g>
</svg>
