<?xml version="1.0" encoding="UTF-8" standalone="no"?>
<!DOCTYPE svg PUBLIC "-//W3C//DTD SVG 1.1//EN"
 "http://www.w3.org/Graphics/SVG/1.1/DTD/svg11.dtd">
<!-- Generated by graphviz version 2.26.3 (20100126.1600)
 -->
<!-- Title: models_diagram Pages: 1 -->
<svg width="2900pt" height="890pt"
 viewBox="0.00 0.00 2900.00 890.00" xmlns="http://www.w3.org/2000/svg" xmlns:xlink="http://www.w3.org/1999/xlink">
<g id="graph1" class="graph" transform="scale(1 1) rotate(0) translate(4 886)">
<title>models_diagram</title>
<polygon fill="white" stroke="white" points="-4,5 -4,-886 2897,-886 2897,5 -4,5"/>
<!-- _diagram_info -->
<g id="node1" class="node"><title>_diagram_info</title>
<text text-anchor="start" x="8" y="-865.8" font-family="Times Roman,serif" font-size="13.00">Models diagram</text>
<text text-anchor="start" x="8" y="-848.8" font-family="Times Roman,serif" font-size="13.00">Date: Apr 27 2011 &#45; 14:55</text>
<text text-anchor="start" x="8" y="-831.8" font-family="Times Roman,serif" font-size="13.00">Migration version: 20110427113946</text>
<text text-anchor="start" x="8" y="-814.8" font-family="Times Roman,serif" font-size="13.00">Generated by RailRoady 1.0.1</text>
<text text-anchor="start" x="8" y="-797.8" font-family="Times Roman,serif" font-size="13.00">http://railroady.prestonlee.com</text>
</g>
<!-- OpenHour -->
<g id="node2" class="node"><title>OpenHour</title>
<ellipse fill="none" stroke="black" cx="2127" cy="-247" rx="61.0181" ry="18.3848"/>
<text text-anchor="middle" x="2127" y="-243.4" font-family="Times Roman,serif" font-size="14.00">OpenHour</text>
</g>
<!-- Announcement -->
<g id="node3" class="node"><title>Announcement</title>
<ellipse fill="none" stroke="black" cx="2548" cy="-731" rx="85.7684" ry="18.3848"/>
<text text-anchor="middle" x="2548" y="-727.4" font-family="Times Roman,serif" font-size="14.00">Announcement</text>
</g>
<!-- AccountHolder -->
<g id="node4" class="node"><title>AccountHolder</title>
<ellipse fill="none" stroke="black" cx="1622" cy="-247" rx="82.2301" ry="18.3848"/>
<text text-anchor="middle" x="1622" y="-243.4" font-family="Times Roman,serif" font-size="14.00">AccountHolder</text>
</g>
<!-- Account -->
<g id="node16" class="node"><title>Account</title>
<ellipse fill="none" stroke="black" cx="1611" cy="-171" rx="50.9117" ry="18.3848"/>
<text text-anchor="middle" x="1611" y="-167.4" font-family="Times Roman,serif" font-size="14.00">Account</text>
</g>
<!-- AccountHolder&#45;&gt;Account -->
<g id="edge2" class="edge"><title>AccountHolder&#45;&gt;Account</title>
<path fill="none" stroke="black" d="M1618.1,-220.073C1617.14,-213.449 1616.11,-206.332 1615.14,-199.63"/>
<ellipse fill="none" stroke="black" cx="1618.71" cy="-224.255" rx="4.00001" ry="4.00001"/>
<polygon fill="black" stroke="black" points="1615.12,-199.467 1618.14,-188.926 1614.4,-194.519 1613.69,-189.57 1613.69,-189.57 1613.69,-189.57 1614.4,-194.519 1609.23,-190.215 1615.12,-199.467 1615.12,-199.467"/>
</g>
<!-- LegalType -->
<g id="node5" class="node"><title>LegalType</title>
<ellipse fill="none" stroke="black" cx="1270" cy="-451" rx="60.1041" ry="18.3848"/>
<text text-anchor="middle" x="1270" y="-447.4" font-family="Times Roman,serif" font-size="14.00">LegalType</text>
</g>
<!-- LegalId -->
<g id="node14" class="node"><title>LegalId</title>
<ellipse fill="none" stroke="black" cx="992" cy="-359" rx="46.1672" ry="18.3848"/>
<text text-anchor="middle" x="992" y="-355.4" font-family="Times Roman,serif" font-size="14.00">LegalId</text>
</g>
<!-- LegalType&#45;&gt;LegalId -->
<g id="edge4" class="edge"><title>LegalType&#45;&gt;LegalId</title>
<path fill="none" stroke="black" d="M1269.55,-424.265C1267.93,-413.93 1264.18,-402.942 1256,-396 1220.46,-365.836 1092.6,-387.684 1047,-378 1042.94,-377.138 1038.77,-376.064 1034.63,-374.868"/>
<ellipse fill="none" stroke="black" cx="1269.99" cy="-428.348" rx="4.00001" ry="4.00001"/>
<polygon fill="black" stroke="black" points="1034.62,-374.867 1026.41,-367.601 1029.85,-373.382 1025.07,-371.898 1025.07,-371.898 1025.07,-371.898 1029.85,-373.382 1023.74,-376.195 1034.62,-374.867 1034.62,-374.867"/>
</g>
<!-- LogGroup -->
<g id="node6" class="node"><title>LogGroup</title>
<ellipse fill="none" stroke="black" cx="1651" cy="-95" rx="58.8978" ry="18.3848"/>
<text text-anchor="middle" x="1651" y="-91.4" font-family="Times Roman,serif" font-size="14.00">LogGroup</text>
</g>
<!-- Log -->
<g id="node32" class="node"><title>Log</title>
<ellipse fill="none" stroke="black" cx="1412" cy="-19" rx="28.9914" ry="18.3848"/>
<text text-anchor="middle" x="1412" y="-15.4" font-family="Times Roman,serif" font-size="14.00">Log</text>
</g>
<!-- LogGroup&#45;&gt;Log -->
<g id="edge6" class="edge"><title>LogGroup&#45;&gt;Log</title>
<path fill="none" stroke="black" d="M1601.62,-79.2968C1555.71,-64.6976 1488.43,-43.3045 1447.58,-30.3137"/>
<ellipse fill="none" stroke="black" cx="1605.56" cy="-80.5496" rx="4.00001" ry="4.00001"/>
<polygon fill="black" stroke="black" points="1447.57,-30.3107 1439.4,-22.9919 1442.8,-28.7955 1438.04,-27.2803 1438.04,-27.2803 1438.04,-27.2803 1442.8,-28.7955 1436.68,-31.5687 1447.57,-30.3107 1447.57,-30.3107"/>
</g>
<!-- Template -->
<g id="node7" class="node"><title>Template</title>
<ellipse fill="none" stroke="black" cx="969" cy="-303" rx="55.8614" ry="18.3848"/>
<text text-anchor="middle" x="969" y="-299.4" font-family="Times Roman,serif" font-size="14.00">Template</text>
</g>
<!-- QrCode -->
<g id="node23" class="node"><title>QrCode</title>
<ellipse fill="none" stroke="black" cx="1021" cy="-171" rx="48.0833" ry="18.3848"/>
<text text-anchor="middle" x="1021" y="-167.4" font-family="Times Roman,serif" font-size="14.00">QrCode</text>
</g>
<!-- Template&#45;&gt;QrCode -->
<g id="edge8" class="edge"><title>Template&#45;&gt;QrCode</title>
<path fill="none" stroke="black" d="M979.2,-277.107C988.038,-254.673 1000.8,-222.282 1009.89,-199.198"/>
<ellipse fill="none" stroke="black" cx="977.697" cy="-280.924" rx="4.00001" ry="4.00001"/>
<polygon fill="black" stroke="black" points="1010,-198.928 1017.85,-191.273 1011.83,-194.276 1013.66,-189.624 1013.66,-189.624 1013.66,-189.624 1011.83,-194.276 1009.48,-187.974 1010,-198.928 1010,-198.928"/>
</g>
<!-- Transaction -->
<g id="node8" class="node"><title>Transaction</title>
<ellipse fill="none" stroke="black" cx="1507" cy="-95" rx="67.1751" ry="18.3848"/>
<text text-anchor="middle" x="1507" y="-91.4" font-family="Times Roman,serif" font-size="14.00">Transaction</text>
</g>
<!-- Transaction&#45;&gt;Log -->
<g id="edge10" class="edge"><title>Transaction&#45;&gt;Log</title>
<path fill="none" stroke="black" d="M1478.46,-72.1717C1465.58,-61.8673 1450.48,-49.7821 1437.92,-39.7393"/>
<ellipse fill="none" stroke="black" cx="1481.84" cy="-74.8742" rx="4.00002" ry="4.00002"/>
<polygon fill="black" stroke="black" points="1437.9,-39.7209 1432.9,-29.96 1434,-36.5974 1430.09,-33.4739 1430.09,-33.4739 1430.09,-33.4739 1434,-36.5974 1427.28,-36.9878 1437.9,-39.7209 1437.9,-39.7209"/>
</g>
<!-- TransactionType -->
<g id="node9" class="node"><title>TransactionType</title>
<ellipse fill="none" stroke="black" cx="1770" cy="-171" rx="89.8026" ry="18.3848"/>
<text text-anchor="middle" x="1770" y="-167.4" font-family="Times Roman,serif" font-size="14.00">TransactionType</text>
</g>
<!-- TransactionType&#45;&gt;Transaction -->
<g id="edge12" class="edge"><title>TransactionType&#45;&gt;Transaction</title>
<path fill="none" stroke="black" d="M1709.96,-153.65C1665.87,-140.91 1606.39,-123.722 1563.23,-111.248"/>
<ellipse fill="none" stroke="black" cx="1713.88" cy="-154.783" rx="4.00001" ry="4.00001"/>
<polygon fill="black" stroke="black" points="1563.06,-111.199 1554.7,-104.1 1558.25,-109.811 1553.45,-108.423 1553.45,-108.423 1553.45,-108.423 1558.25,-109.811 1552.2,-112.746 1563.06,-111.199 1563.06,-111.199"/>
</g>
<!-- Action -->
<g id="node38" class="node"><title>Action</title>
<ellipse fill="none" stroke="black" cx="1770" cy="-95" rx="41.9273" ry="18.3848"/>
<text text-anchor="middle" x="1770" y="-91.4" font-family="Times Roman,serif" font-size="14.00">Action</text>
</g>
<!-- TransactionType&#45;&gt;Action -->
<g id="edge14" class="edge"><title>TransactionType&#45;&gt;Action</title>
<path fill="none" stroke="black" d="M1770,-144.073C1770,-137.449 1770,-130.332 1770,-123.63"/>
<ellipse fill="none" stroke="black" cx="1770" cy="-148.213" rx="4" ry="4"/>
<polygon fill="black" stroke="black" points="1770,-123.57 1774.5,-113.57 1770,-118.57 1770,-113.57 1770,-113.57 1770,-113.57 1770,-118.57 1765.5,-113.57 1770,-123.57 1770,-123.57"/>
</g>
<!-- Reward -->
<g id="node10" class="node"><title>Reward</title>
<ellipse fill="none" stroke="black" cx="1435" cy="-527" rx="48.7904" ry="18.3848"/>
<text text-anchor="middle" x="1435" y="-523.4" font-family="Times Roman,serif" font-size="14.00">Reward</text>
</g>
<!-- Reward&#45;&gt;Log -->
<g id="edge16" class="edge"><title>Reward&#45;&gt;Log</title>
<path fill="none" stroke="black" d="M1423.92,-501.019C1420.37,-491.449 1416.87,-480.403 1415,-470 1401.88,-396.935 1412,-377.234 1412,-303 1412,-303 1412,-303 1412,-95 1412,-79.4388 1412,-62.0854 1412,-47.8937"/>
<ellipse fill="none" stroke="black" cx="1425.44" cy="-504.936" rx="4.00001" ry="4.00001"/>
<polygon fill="black" stroke="black" points="1412,-47.7397 1416.5,-37.7396 1412,-42.7397 1412,-37.7397 1412,-37.7397 1412,-37.7397 1412,-42.7397 1407.5,-37.7397 1412,-47.7397 1412,-47.7397"/>
</g>
<!-- User -->
<g id="node34" class="node"><title>User</title>
<ellipse fill="none" stroke="black" cx="1004" cy="-451" rx="33.9411" ry="18.3848"/>
<text text-anchor="middle" x="1004" y="-447.4" font-family="Times Roman,serif" font-size="14.00">User</text>
</g>
<!-- Reward&#45;&gt;User -->
<g id="edge20" class="edge"><title>Reward&#45;&gt;User</title>
<path fill="none" stroke="black" d="M1380.4,-517.371C1293.4,-502.032 1125.17,-472.366 1046.49,-458.493"/>
<polygon fill="black" stroke="black" points="1380.65,-517.416 1389.72,-523.585 1385.57,-518.285 1390.5,-519.153 1390.5,-519.153 1390.5,-519.153 1385.57,-518.285 1391.28,-514.721 1380.65,-517.416 1380.65,-517.416"/>
<polygon fill="black" stroke="black" points="1046.3,-458.459 1037.24,-452.291 1041.38,-457.591 1036.45,-456.723 1036.45,-456.723 1036.45,-456.723 1041.38,-457.591 1035.67,-461.154 1046.3,-458.459 1046.3,-458.459"/>
</g>
<!-- Item -->
<g id="node41" class="node"><title>Item</title>
<ellipse fill="none" stroke="black" cx="1458" cy="-451" rx="33.9411" ry="18.3848"/>
<text text-anchor="middle" x="1458" y="-447.4" font-family="Times Roman,serif" font-size="14.00">Item</text>
</g>
<!-- Reward&#45;&gt;Item -->
<g id="edge18" class="edge"><title>Reward&#45;&gt;Item</title>
<path fill="none" stroke="black" d="M1443.52,-498.849C1445.47,-492.417 1447.53,-485.581 1449.48,-479.149"/>
<polygon fill="black" stroke="black" points="1443.46,-499.031 1436.26,-507.299 1442.02,-503.817 1440.57,-508.603 1440.57,-508.603 1440.57,-508.603 1442.02,-503.817 1444.87,-509.906 1443.46,-499.031 1443.46,-499.031"/>
<polygon fill="black" stroke="black" points="1449.51,-479.063 1456.71,-470.795 1450.96,-474.277 1452.4,-469.491 1452.4,-469.491 1452.4,-469.491 1450.96,-474.277 1448.1,-468.188 1449.51,-479.063 1449.51,-479.063"/>
</g>
<!-- Campaign -->
<g id="node11" class="node"><title>Campaign</title>
<ellipse fill="none" stroke="black" cx="1449" cy="-619" rx="60.1041" ry="18.3848"/>
<text text-anchor="middle" x="1449" y="-615.4" font-family="Times Roman,serif" font-size="14.00">Campaign</text>
</g>
<!-- Campaign&#45;&gt;Reward -->
<g id="edge26" class="edge"><title>Campaign&#45;&gt;Reward</title>
<path fill="none" stroke="black" d="M1444.96,-592.447C1443.21,-580.958 1441.16,-567.485 1439.38,-555.76"/>
<ellipse fill="none" stroke="black" cx="1445.57" cy="-596.428" rx="4.00001" ry="4.00001"/>
<polygon fill="black" stroke="black" points="1439.33,-555.476 1442.28,-544.913 1438.58,-550.533 1437.83,-545.59 1437.83,-545.59 1437.83,-545.59 1438.58,-550.533 1433.38,-546.267 1439.33,-555.476 1439.33,-555.476"/>
</g>
<!-- Campaign&#45;&gt;Account -->
<g id="edge22" class="edge"><title>Campaign&#45;&gt;Account</title>
<path fill="none" stroke="black" d="M1467.64,-594.445C1497.97,-552.704 1556.69,-464.043 1577,-378 1580.88,-361.563 1581.64,-356.24 1577,-340 1566.37,-302.762 1541.63,-303.238 1531,-266 1526.36,-249.76 1523.26,-243.012 1531,-228 1539.29,-211.907 1554.47,-199.358 1569.39,-190.183"/>
<ellipse fill="none" stroke="black" cx="1465.21" cy="-597.747" rx="4.00002" ry="4.00002"/>
<polygon fill="black" stroke="black" points="1569.42,-190.161 1580.34,-189.068 1573.76,-187.665 1578.09,-185.169 1578.09,-185.169 1578.09,-185.169 1573.76,-187.665 1575.84,-181.27 1569.42,-190.161 1569.42,-190.161"/>
</g>
<!-- Engagement -->
<g id="node31" class="node"><title>Engagement</title>
<ellipse fill="none" stroke="black" cx="1311" cy="-247" rx="73.0388" ry="18.3848"/>
<text text-anchor="middle" x="1311" y="-243.4" font-family="Times Roman,serif" font-size="14.00">Engagement</text>
</g>
<!-- Campaign&#45;&gt;Engagement -->
<g id="edge24" class="edge"><title>Campaign&#45;&gt;Engagement</title>
<path fill="none" stroke="black" d="M1418.62,-596.503C1403.47,-583.519 1386.4,-565.847 1377,-546 1337.58,-462.79 1379.93,-428.638 1355,-340 1348.49,-316.865 1336.67,-292.359 1326.92,-274.314"/>
<ellipse fill="none" stroke="black" cx="1421.89" cy="-599.219" rx="4.00002" ry="4.00002"/>
<polygon fill="black" stroke="black" points="1326.89,-274.258 1325.99,-263.329 1324.47,-269.883 1322.05,-265.508 1322.05,-265.508 1322.05,-265.508 1324.47,-269.883 1318.11,-267.686 1326.89,-274.258 1326.89,-274.258"/>
</g>
<!-- Amenity -->
<g id="node12" class="node"><title>Amenity</title>
<ellipse fill="none" stroke="black" cx="1932" cy="-451" rx="51.8276" ry="18.3848"/>
<text text-anchor="middle" x="1932" y="-447.4" font-family="Times Roman,serif" font-size="14.00">Amenity</text>
</g>
<!-- Place -->
<g id="node17" class="node"><title>Place</title>
<ellipse fill="none" stroke="black" cx="1950" cy="-359" rx="36.977" ry="18.3848"/>
<text text-anchor="middle" x="1950" y="-355.4" font-family="Times Roman,serif" font-size="14.00">Place</text>
</g>
<!-- Amenity&#45;&gt;Place -->
<g id="edge28" class="edge"><title>Amenity&#45;&gt;Place</title>
<path fill="none" stroke="black" d="M1937.61,-422.342C1939.77,-411.283 1942.24,-398.657 1944.4,-387.604"/>
<polygon fill="black" stroke="black" points="1937.56,-422.568 1931.23,-431.518 1936.6,-427.475 1935.64,-432.382 1935.64,-432.382 1935.64,-432.382 1936.6,-427.475 1940.06,-433.247 1937.56,-422.568 1937.56,-422.568"/>
<polygon fill="black" stroke="black" points="1944.44,-387.404 1950.78,-378.454 1945.4,-382.497 1946.36,-377.59 1946.36,-377.59 1946.36,-377.59 1945.4,-382.497 1941.95,-376.726 1944.44,-387.404 1944.44,-387.404"/>
</g>
<!-- Category -->
<g id="node13" class="node"><title>Category</title>
<ellipse fill="none" stroke="black" cx="538" cy="-675" rx="56.0679" ry="18.3848"/>
<text text-anchor="middle" x="538" y="-671.4" font-family="Times Roman,serif" font-size="14.00">Category</text>
</g>
<!-- Busines -->
<g id="node57" class="node"><title>Busines</title>
<ellipse fill="none" stroke="black" cx="445" cy="-359" rx="48.9975" ry="18.3848"/>
<text text-anchor="middle" x="445" y="-355.4" font-family="Times Roman,serif" font-size="14.00">Busines</text>
</g>
<!-- Category&#45;&gt;Busines -->
<g id="edge30" class="edge"><title>Category&#45;&gt;Busines</title>
<path fill="none" stroke="black" d="M489.941,-657.667C455.072,-641.651 414,-614.07 414,-573 414,-573 414,-573 414,-451 414,-428.531 422.407,-404.514 430.464,-386.656"/>
<polygon fill="black" stroke="black" points="489.947,-657.67 497.299,-665.806 494.527,-659.677 499.106,-661.685 499.106,-661.685 499.106,-661.685 494.527,-659.677 500.913,-657.564 489.947,-657.67 489.947,-657.67"/>
<polygon fill="black" stroke="black" points="430.562,-386.451 438.915,-379.346 432.706,-381.934 434.849,-377.417 434.849,-377.417 434.849,-377.417 432.706,-381.934 430.784,-375.487 430.562,-386.451 430.562,-386.451"/>
<text text-anchor="middle" x="451" y="-523.4" font-family="Times Roman,serif" font-size="14.00">businesses</text>
</g>
<!-- Image -->
<g id="node15" class="node"><title>Image</title>
<ellipse fill="none" stroke="black" cx="1097" cy="-359" rx="41.2167" ry="18.3848"/>
<text text-anchor="middle" x="1097" y="-355.4" font-family="Times Roman,serif" font-size="14.00">Image</text>
</g>
<!-- BrandImage -->
<g id="node20" class="node"><title>BrandImage</title>
<ellipse fill="none" stroke="black" cx="620" cy="-247" rx="70.2092" ry="18.3848"/>
<text text-anchor="middle" x="620" y="-243.4" font-family="Times Roman,serif" font-size="14.00">BrandImage</text>
</g>
<!-- Image&#45;&gt;BrandImage -->
<g id="edge84" class="edge"><title>Image&#45;&gt;BrandImage</title>
<path fill="none" stroke="black" d="M1066.96,-346.266C1060.47,-343.888 1053.58,-341.639 1047,-340 984.843,-324.513 966.884,-334.205 904,-322 818.895,-305.482 721.582,-277.829 665.804,-261.113"/>
</g>
<!-- QrCodeImage -->
<g id="node36" class="node"><title>QrCodeImage</title>
<ellipse fill="none" stroke="black" cx="1059" cy="-95" rx="77.7817" ry="18.3848"/>
<text text-anchor="middle" x="1059" y="-91.4" font-family="Times Roman,serif" font-size="14.00">QrCodeImage</text>
</g>
<!-- Image&#45;&gt;QrCodeImage -->
<g id="edge134" class="edge"><title>Image&#45;&gt;QrCodeImage</title>
<path fill="none" stroke="black" d="M1096.72,-340.231C1095.85,-303.636 1092.33,-220.346 1078,-152 1075.24,-138.83 1070.44,-124.459 1066.35,-113.442"/>
</g>
<!-- Account&#45;&gt;Transaction -->
<g id="edge32" class="edge"><title>Account&#45;&gt;Transaction</title>
<path fill="none" stroke="black" d="M1581.54,-149.475C1568.26,-139.77 1552.55,-128.287 1538.98,-118.372"/>
<ellipse fill="none" stroke="black" cx="1584.95" cy="-151.961" rx="4.00002" ry="4.00002"/>
<polygon fill="black" stroke="black" points="1538.93,-118.332 1533.51,-108.798 1534.89,-115.382 1530.85,-112.431 1530.85,-112.431 1530.85,-112.431 1534.89,-115.382 1528.2,-116.065 1538.93,-118.332 1538.93,-118.332"/>
</g>
<!-- Place&#45;&gt;OpenHour -->
<g id="edge46" class="edge"><title>Place&#45;&gt;OpenHour</title>
<path fill="none" stroke="black" d="M1991.61,-348.69C2011.18,-342.709 2034.28,-333.957 2053,-322 2073.61,-308.834 2092.87,-288.964 2106.58,-272.984"/>
<ellipse fill="none" stroke="black" cx="1987.57" cy="-349.877" rx="4.00001" ry="4.00001"/>
<polygon fill="black" stroke="black" points="2106.81,-272.712 2116.67,-267.922 2110.01,-268.875 2113.22,-265.037 2113.22,-265.037 2113.22,-265.037 2110.01,-268.875 2109.76,-262.153 2106.81,-272.712 2106.81,-272.712"/>
</g>
<!-- Place&#45;&gt;QrCode -->
<g id="edge44" class="edge"><title>Place&#45;&gt;QrCode</title>
<path fill="none" stroke="black" d="M1911.52,-345.622C1869.81,-330.104 1802.34,-301.983 1751,-266 1731.44,-252.292 1734.67,-238.039 1713,-228 1656.16,-201.672 1235.45,-180.522 1079.2,-173.497"/>
<ellipse fill="none" stroke="black" cx="1915.5" cy="-347.084" rx="4.00001" ry="4.00001"/>
<polygon fill="black" stroke="black" points="1078.85,-173.481 1069.06,-168.539 1073.85,-173.258 1068.86,-173.035 1068.86,-173.035 1068.86,-173.035 1073.85,-173.258 1068.66,-177.531 1078.85,-173.481 1078.85,-173.481"/>
</g>
<!-- Place&#45;&gt;Engagement -->
<g id="edge42" class="edge"><title>Place&#45;&gt;Engagement</title>
<path fill="none" stroke="black" d="M1903.76,-353.384C1857.75,-347.123 1790.92,-336.011 1769,-322 1751.32,-310.702 1759.3,-294.253 1741,-284 1700.14,-261.109 1577.67,-270.015 1531,-266 1484.42,-261.993 1432.3,-257.492 1390.48,-253.877"/>
<polygon fill="black" stroke="black" points="1903.9,-353.402 1913.22,-359.181 1908.86,-354.061 1913.82,-354.72 1913.82,-354.72 1913.82,-354.72 1908.86,-354.061 1914.41,-350.259 1903.9,-353.402 1903.9,-353.402"/>
<polygon fill="black" stroke="black" points="1390.32,-253.863 1380.75,-248.518 1385.34,-253.432 1380.36,-253.002 1380.36,-253.002 1380.36,-253.002 1385.34,-253.432 1379.97,-257.485 1390.32,-253.863 1390.32,-253.863"/>
</g>
<!-- Follower -->
<g id="node35" class="node"><title>Follower</title>
<ellipse fill="none" stroke="black" cx="799" cy="-247" rx="53.033" ry="18.3848"/>
<text text-anchor="middle" x="799" y="-243.4" font-family="Times Roman,serif" font-size="14.00">Follower</text>
</g>
<!-- Place&#45;&gt;Follower -->
<g id="edge48" class="edge"><title>Place&#45;&gt;Follower</title>
<path fill="none" stroke="black" d="M1905.67,-354.687C1727.84,-337.382 1065.88,-272.969 860.302,-252.965"/>
<ellipse fill="none" stroke="black" cx="1909.67" cy="-355.076" rx="4" ry="4"/>
<polygon fill="black" stroke="black" points="860.239,-252.959 850.722,-247.512 855.262,-252.475 850.286,-251.99 850.286,-251.99 850.286,-251.99 855.262,-252.475 849.85,-256.469 860.239,-252.959 860.239,-252.959"/>
</g>
<!-- ActsAsTaggableOn::Tagging -->
<g id="node60" class="node"><title>ActsAsTaggableOn::Tagging</title>
<ellipse fill="none" stroke="black" cx="1904" cy="-247" rx="144.25" ry="18.3848"/>
<text text-anchor="middle" x="1904" y="-243.4" font-family="Times Roman,serif" font-size="14.00">ActsAsTaggableOn::Tagging</text>
</g>
<!-- Place&#45;&gt;ActsAsTaggableOn::Tagging -->
<g id="edge34" class="edge"><title>Place&#45;&gt;ActsAsTaggableOn::Tagging</title>
<path fill="none" stroke="black" d="M1914.86,-342.216C1907.3,-336.864 1900.3,-330.159 1896,-322 1888.58,-307.924 1890.01,-290.314 1893.55,-275.696"/>
<ellipse fill="none" stroke="black" cx="1918.53" cy="-344.585" rx="4.00002" ry="4.00002"/>
<polygon fill="black" stroke="black" points="1893.67,-275.289 1900.74,-266.908 1895.04,-270.481 1896.41,-265.673 1896.41,-265.673 1896.41,-265.673 1895.04,-270.481 1892.09,-264.438 1893.67,-275.289 1893.67,-275.289"/>
<text text-anchor="middle" x="1925.5" y="-299.4" font-family="Times Roman,serif" font-size="14.00">taggings</text>
</g>
<!-- Place&#45;&gt;ActsAsTaggableOn::Tagging -->
<g id="edge38" class="edge"><title>Place&#45;&gt;ActsAsTaggableOn::Tagging</title>
<path fill="none" stroke="black" d="M1958.17,-332.748C1961.33,-317.704 1962.6,-298.91 1955,-284 1952.76,-279.603 1949.72,-275.606 1946.24,-272.005"/>
<ellipse fill="none" stroke="black" cx="1957.2" cy="-336.783" rx="4.00001" ry="4.00001"/>
<polygon fill="black" stroke="black" points="1946.04,-271.829 1941.58,-261.812 1942.31,-268.499 1938.58,-265.169 1938.58,-265.169 1938.58,-265.169 1942.31,-268.499 1935.59,-268.526 1946.04,-271.829 1946.04,-271.829"/>
<text text-anchor="middle" x="2004.5" y="-299.4" font-family="Times Roman,serif" font-size="14.00">tag_taggings</text>
</g>
<!-- ActsAsTaggableOn::Tag -->
<g id="node62" class="node"><title>ActsAsTaggableOn::Tag</title>
<ellipse fill="none" stroke="black" cx="2329" cy="-247" rx="123.243" ry="18.3848"/>
<text text-anchor="middle" x="2329" y="-243.4" font-family="Times Roman,serif" font-size="14.00">ActsAsTaggableOn::Tag</text>
</g>
<!-- Place&#45;&gt;ActsAsTaggableOn::Tag -->
<g id="edge36" class="edge"><title>Place&#45;&gt;ActsAsTaggableOn::Tag</title>
<path fill="none" stroke="black" d="M1993.43,-348.367C2020.75,-341.431 2056.63,-331.862 2088,-322 2135.34,-307.116 2145.68,-298.971 2193,-284 2213.35,-277.561 2235.62,-271.215 2256.14,-265.645"/>
<polygon fill="black" stroke="black" points="1993.11,-348.449 1982.31,-346.528 1988.26,-349.67 1983.41,-350.892 1983.41,-350.892 1983.41,-350.892 1988.26,-349.67 1984.51,-355.255 1993.11,-348.449 1993.11,-348.449"/>
<polygon fill="black" stroke="black" points="2256.4,-265.575 2267.23,-267.322 2261.23,-264.276 2266.06,-262.976 2266.06,-262.976 2266.06,-262.976 2261.23,-264.276 2264.89,-258.631 2256.4,-265.575 2256.4,-265.575"/>
<text text-anchor="middle" x="2227.5" y="-299.4" font-family="Times Roman,serif" font-size="14.00">base_tags</text>
</g>
<!-- Place&#45;&gt;ActsAsTaggableOn::Tag -->
<g id="edge40" class="edge"><title>Place&#45;&gt;ActsAsTaggableOn::Tag</title>
<path fill="none" stroke="black" d="M1996.72,-355.722C2078.3,-349.667 2240.18,-336.058 2262,-322 2278.6,-311.309 2272.16,-298.998 2285,-284 2288.57,-279.83 2292.64,-275.743 2296.82,-271.898"/>
<polygon fill="black" stroke="black" points="1996.68,-355.725 1986.38,-351.969 1991.69,-356.091 1986.71,-356.457 1986.71,-356.457 1986.71,-356.457 1991.69,-356.091 1987.04,-360.945 1996.68,-355.725 1996.68,-355.725"/>
<polygon fill="black" stroke="black" points="2296.87,-271.852 2307.36,-268.656 2300.64,-268.56 2304.4,-265.269 2304.4,-265.269 2304.4,-265.269 2300.64,-268.56 2301.44,-261.881 2296.87,-271.852 2296.87,-271.852"/>
<text text-anchor="middle" x="2300" y="-299.4" font-family="Times Roman,serif" font-size="14.00">tags</text>
</g>
<!-- EngagementType -->
<g id="node18" class="node"><title>EngagementType</title>
<ellipse fill="none" stroke="black" cx="1251" cy="-359" rx="94.9596" ry="18.3848"/>
<text text-anchor="middle" x="1251" y="-355.4" font-family="Times Roman,serif" font-size="14.00">EngagementType</text>
</g>
<!-- EngagementType&#45;&gt;Engagement -->
<g id="edge50" class="edge"><title>EngagementType&#45;&gt;Engagement</title>
<path fill="none" stroke="black" d="M1264.78,-333.273C1274.22,-315.655 1286.72,-292.322 1296.34,-274.364"/>
<ellipse fill="none" stroke="black" cx="1262.8" cy="-336.98" rx="4.00002" ry="4.00002"/>
<polygon fill="black" stroke="black" points="1296.36,-274.337 1305.04,-267.647 1298.72,-269.929 1301.08,-265.522 1301.08,-265.522 1301.08,-265.522 1298.72,-269.929 1297.11,-263.397 1296.36,-274.337 1296.36,-274.337"/>
</g>
<!-- Business -->
<g id="node19" class="node"><title>Business</title>
<ellipse fill="none" stroke="black" cx="1711" cy="-835" rx="53.9477" ry="18.3848"/>
<text text-anchor="middle" x="1711" y="-831.4" font-family="Times Roman,serif" font-size="14.00">Business</text>
</g>
<!-- Business&#45;&gt;Announcement -->
<g id="edge72" class="edge"><title>Business&#45;&gt;Announcement</title>
<path fill="none" stroke="black" d="M1772.93,-831.802C1926.21,-823.523 2320.11,-799.932 2448,-770 2466.2,-765.74 2485.49,-758.83 2502.22,-752.002"/>
<ellipse fill="none" stroke="black" cx="1768.5" cy="-832.04" rx="4" ry="4"/>
<polygon fill="black" stroke="black" points="2502.53,-751.874 2513.49,-752.162 2507.14,-749.943 2511.75,-748.011 2511.75,-748.011 2511.75,-748.011 2507.14,-749.943 2510.02,-743.86 2502.53,-751.874 2502.53,-751.874"/>
</g>
<!-- Business&#45;&gt;AccountHolder -->
<g id="edge76" class="edge"><title>Business&#45;&gt;AccountHolder</title>
<path fill="none" stroke="black" d="M1724.26,-809.171C1755.47,-745.081 1828.45,-573.701 1795,-432 1784.5,-387.508 1778.49,-374.93 1749,-340 1724.08,-310.481 1687.95,-285.204 1660.6,-268.486"/>
<ellipse fill="none" stroke="black" cx="1722.45" cy="-812.858" rx="4.00002" ry="4.00002"/>
<ellipse fill="black" stroke="black" cx="1656.92" cy="-266.273" rx="4.00002" ry="4.00002"/>
</g>
<!-- Business&#45;&gt;Category -->
<g id="edge82" class="edge"><title>Business&#45;&gt;Category</title>
<path fill="none" stroke="black" d="M1646.99,-832.692C1438.1,-824.914 784.538,-798.544 694,-770 645.83,-754.813 597.213,-721.749 567.351,-698.933"/>
<polygon fill="black" stroke="black" points="1647.19,-832.7 1657.02,-837.567 1652.19,-832.885 1657.18,-833.07 1657.18,-833.07 1657.18,-833.07 1652.19,-832.885 1657.35,-828.573 1647.19,-832.7 1647.19,-832.7"/>
<polygon fill="black" stroke="black" points="566.971,-698.638 561.835,-688.949 563.023,-695.57 559.075,-692.502 559.075,-692.502 559.075,-692.502 563.023,-695.57 556.314,-696.056 566.971,-698.638 566.971,-698.638"/>
</g>
<!-- Business&#45;&gt;Place -->
<g id="edge62" class="edge"><title>Business&#45;&gt;Place</title>
<path fill="none" stroke="black" d="M1773.16,-833.407C1895.99,-828.564 2158,-809.082 2158,-731 2158,-731 2158,-731 2158,-451 2158,-415.373 2054.65,-384.26 1993.65,-368.999"/>
<ellipse fill="none" stroke="black" cx="1768.92" cy="-833.567" rx="4" ry="4"/>
<polygon fill="black" stroke="black" points="1993.59,-368.985 1984.96,-362.23 1988.74,-367.793 1983.88,-366.6 1983.88,-366.6 1983.88,-366.6 1988.74,-367.793 1982.81,-370.97 1993.59,-368.985 1993.59,-368.985"/>
</g>
<!-- Program -->
<g id="node21" class="node"><title>Program</title>
<ellipse fill="none" stroke="black" cx="1358" cy="-731" rx="53.033" ry="18.3848"/>
<text text-anchor="middle" x="1358" y="-727.4" font-family="Times Roman,serif" font-size="14.00">Program</text>
</g>
<!-- Business&#45;&gt;Program -->
<g id="edge64" class="edge"><title>Business&#45;&gt;Program</title>
<path fill="none" stroke="black" d="M1661.61,-820.788C1603.67,-804.067 1504.76,-775.364 1420,-750 1416,-748.802 1411.85,-747.551 1407.69,-746.289"/>
<ellipse fill="none" stroke="black" cx="1665.66" cy="-821.957" rx="4.00001" ry="4.00001"/>
<polygon fill="black" stroke="black" points="1407.57,-746.253 1399.31,-739.037 1402.78,-744.798 1398,-743.342 1398,-743.342 1398,-743.342 1402.78,-744.798 1396.69,-747.647 1407.57,-746.253 1407.57,-746.253"/>
</g>
<!-- Target -->
<g id="node30" class="node"><title>Target</title>
<ellipse fill="none" stroke="black" cx="1471" cy="-731" rx="41.9273" ry="18.3848"/>
<text text-anchor="middle" x="1471" y="-727.4" font-family="Times Roman,serif" font-size="14.00">Target</text>
</g>
<!-- Business&#45;&gt;Target -->
<g id="edge60" class="edge"><title>Business&#45;&gt;Target</title>
<path fill="none" stroke="black" d="M1663.01,-819.849C1627.28,-807.932 1577.69,-790.036 1536,-770 1524.99,-764.709 1513.42,-758.128 1503.14,-751.888"/>
<ellipse fill="none" stroke="black" cx="1667.07" cy="-821.192" rx="4.00001" ry="4.00001"/>
<polygon fill="black" stroke="black" points="1502.99,-751.796 1496.86,-742.707 1498.74,-749.165 1494.49,-746.534 1494.49,-746.534 1494.49,-746.534 1498.74,-749.165 1492.12,-750.36 1502.99,-751.796 1502.99,-751.796"/>
</g>
<!-- Business&#45;&gt;Log -->
<g id="edge74" class="edge"><title>Business&#45;&gt;Log</title>
<path fill="none" stroke="black" d="M1648.76,-833.484C1384.39,-826.642 368,-796.102 368,-731 368,-731 368,-731 368,-95 368,-43.6107 1183.26,-23.697 1372.91,-19.7597"/>
<ellipse fill="none" stroke="black" cx="1653.11" cy="-833.595" rx="4" ry="4"/>
<polygon fill="black" stroke="black" points="1372.99,-19.7582 1383.08,-24.0525 1377.99,-19.6558 1382.99,-19.5534 1382.99,-19.5534 1382.99,-19.5534 1377.99,-19.6558 1382.9,-15.0544 1372.99,-19.7582 1372.99,-19.7582"/>
</g>
<!-- Business&#45;&gt;User -->
<g id="edge70" class="edge"><title>Business&#45;&gt;User</title>
<path fill="none" stroke="black" d="M1647.43,-831.307C1485.46,-821.053 1070,-789.089 1070,-731 1070,-731 1070,-731 1070,-527 1070,-503.873 1052.36,-484.346 1035.32,-470.878"/>
<polygon fill="black" stroke="black" points="1647.74,-831.327 1657.44,-836.443 1652.74,-831.639 1657.73,-831.951 1657.73,-831.951 1657.73,-831.951 1652.74,-831.639 1658.01,-827.46 1647.74,-831.327 1647.74,-831.327"/>
<polygon fill="black" stroke="black" points="1035.11,-470.724 1029.77,-461.151 1031.1,-467.744 1027.08,-464.764 1027.08,-464.764 1027.08,-464.764 1031.1,-467.744 1024.4,-468.378 1035.11,-470.724 1035.11,-470.724"/>
</g>
<!-- Business&#45;&gt;Follower -->
<g id="edge68" class="edge"><title>Business&#45;&gt;Follower</title>
<path fill="none" stroke="black" d="M1649.26,-831.853C1430.87,-820.322 708,-778.559 708,-731 708,-731 708,-731 708,-359 708,-321.472 739.155,-289.517 765.006,-269.46"/>
<ellipse fill="none" stroke="black" cx="1653.43" cy="-832.073" rx="4" ry="4"/>
<polygon fill="black" stroke="black" points="765.15,-269.353 775.857,-266.982 769.158,-266.363 773.166,-263.374 773.166,-263.374 773.166,-263.374 769.158,-266.363 770.476,-259.767 765.15,-269.353 765.15,-269.353"/>
</g>
<!-- MeasurementType -->
<g id="node37" class="node"><title>MeasurementType</title>
<ellipse fill="none" stroke="black" cx="1877" cy="-731" rx="101.116" ry="18.3848"/>
<text text-anchor="middle" x="1877" y="-727.4" font-family="Times Roman,serif" font-size="14.00">MeasurementType</text>
</g>
<!-- Business&#45;&gt;MeasurementType -->
<g id="edge66" class="edge"><title>Business&#45;&gt;MeasurementType</title>
<path fill="none" stroke="black" d="M1743.99,-814.333C1771.65,-796.999 1811.15,-772.258 1839.91,-754.239"/>
<ellipse fill="none" stroke="black" cx="1740.33" cy="-816.626" rx="4.00002" ry="4.00002"/>
<polygon fill="black" stroke="black" points="1839.99,-754.187 1850.85,-752.692 1844.23,-751.533 1848.46,-748.878 1848.46,-748.878 1848.46,-748.878 1844.23,-751.533 1846.07,-745.065 1839.99,-754.187 1839.99,-754.187"/>
</g>
<!-- Business&#45;&gt;ActsAsTaggableOn::Tagging -->
<g id="edge52" class="edge"><title>Business&#45;&gt;ActsAsTaggableOn::Tagging</title>
<path fill="none" stroke="black" d="M1771.54,-829.255C1909.24,-815.375 2234,-777.689 2234,-731 2234,-731 2234,-731 2234,-489 2234,-367.458 2156.91,-347.056 2053,-284 2039.13,-275.583 2023.43,-269.077 2007.56,-264.049"/>
<ellipse fill="none" stroke="black" cx="1767.52" cy="-829.658" rx="4" ry="4"/>
<polygon fill="black" stroke="black" points="2007.26,-263.958 1998.96,-256.793 2002.46,-262.532 1997.67,-261.106 1997.67,-261.106 1997.67,-261.106 2002.46,-262.532 1996.39,-265.419 2007.26,-263.958 2007.26,-263.958"/>
<text text-anchor="middle" x="2263.5" y="-523.4" font-family="Times Roman,serif" font-size="14.00">taggings</text>
</g>
<!-- Business&#45;&gt;ActsAsTaggableOn::Tagging -->
<g id="edge56" class="edge"><title>Business&#45;&gt;ActsAsTaggableOn::Tagging</title>
<path fill="none" stroke="black" d="M1769.15,-826.596C1855.1,-812.515 2006,-780.714 2006,-731 2006,-731 2006,-731 2006,-573 2006,-497.531 1904.47,-537.64 1871,-470 1839.13,-405.594 1869.95,-318.859 1889.93,-274.957"/>
<ellipse fill="none" stroke="black" cx="1764.99" cy="-827.266" rx="4.00001" ry="4.00001"/>
<polygon fill="black" stroke="black" points="1890,-274.813 1898.32,-267.671 1892.12,-270.286 1894.25,-265.76 1894.25,-265.76 1894.25,-265.76 1892.12,-270.286 1890.17,-263.848 1890,-274.813 1890,-274.813"/>
<text text-anchor="middle" x="2043.5" y="-523.4" font-family="Times Roman,serif" font-size="14.00">tag_taggings</text>
</g>
<!-- Business&#45;&gt;ActsAsTaggableOn::Tag -->
<g id="edge54" class="edge"><title>Business&#45;&gt;ActsAsTaggableOn::Tag</title>
<path fill="none" stroke="black" d="M1774.25,-830.94C1931.76,-819.986 2329,-786.826 2329,-731 2329,-731 2329,-731 2329,-359 2329,-330.76 2329,-298.515 2329,-275.898"/>
<polygon fill="black" stroke="black" points="1774.2,-830.943 1763.92,-827.14 1769.21,-831.286 1764.23,-831.629 1764.23,-831.629 1764.23,-831.629 1769.21,-831.286 1764.53,-836.119 1774.2,-830.943 1774.2,-830.943"/>
<polygon fill="black" stroke="black" points="2329,-275.628 2333.5,-265.628 2329,-270.628 2329,-265.628 2329,-265.628 2329,-265.628 2329,-270.628 2324.5,-265.628 2329,-275.628 2329,-275.628"/>
<text text-anchor="middle" x="2363.5" y="-523.4" font-family="Times Roman,serif" font-size="14.00">base_tags</text>
</g>
<!-- Business&#45;&gt;ActsAsTaggableOn::Tag -->
<g id="edge58" class="edge"><title>Business&#45;&gt;ActsAsTaggableOn::Tag</title>
<path fill="none" stroke="black" d="M1774.95,-832.48C1951.71,-824.67 2434,-797.287 2434,-731 2434,-731 2434,-731 2434,-359 2434,-320.429 2400.45,-289.676 2371.27,-270.227"/>
<polygon fill="black" stroke="black" points="1774.74,-832.489 1764.56,-828.428 1769.75,-832.707 1764.75,-832.924 1764.75,-832.924 1764.75,-832.924 1769.75,-832.707 1764.95,-837.42 1774.74,-832.489 1774.74,-832.489"/>
<polygon fill="black" stroke="black" points="2371.22,-270.193 2365.23,-261.011 2367.01,-267.497 2362.8,-264.801 2362.8,-264.801 2362.8,-264.801 2367.01,-267.497 2360.37,-268.591 2371.22,-270.193 2371.22,-270.193"/>
<text text-anchor="middle" x="2449" y="-523.4" font-family="Times Roman,serif" font-size="14.00">tags</text>
</g>
<!-- Addres -->
<g id="node84" class="node"><title>Addres</title>
<ellipse fill="none" stroke="black" cx="1523" cy="-359" rx="44.7575" ry="18.3848"/>
<text text-anchor="middle" x="1523" y="-355.4" font-family="Times Roman,serif" font-size="14.00">Addres</text>
</g>
<!-- Business&#45;&gt;Addres -->
<g id="edge78" class="edge"><title>Business&#45;&gt;Addres</title>
<path fill="none" stroke="black" d="M1708.29,-808.256C1702.58,-758.57 1686.87,-649.321 1652,-564 1623.17,-493.461 1570.51,-420.062 1542.21,-383.2"/>
<ellipse fill="none" stroke="black" cx="1708.74" cy="-812.29" rx="4.00001" ry="4.00001"/>
<ellipse fill="black" stroke="black" cx="1539.67" cy="-379.915" rx="4.00002" ry="4.00002"/>
<text text-anchor="middle" x="1713" y="-569.4" font-family="Times Roman,serif" font-size="14.00">mailing_address</text>
</g>
<!-- Business&#45;&gt;Addres -->
<g id="edge80" class="edge"><title>Business&#45;&gt;Addres</title>
<path fill="none" stroke="black" d="M1656.05,-823.425C1609.41,-810 1550,-782.745 1550,-731 1550,-731 1550,-731 1547,-573 1547,-505.114 1534.93,-425.864 1527.9,-385.527"/>
<ellipse fill="none" stroke="black" cx="1660.14" cy="-824.555" rx="4.00001" ry="4.00001"/>
<ellipse fill="black" stroke="black" cx="1527.19" cy="-381.467" rx="4.00001" ry="4.00001"/>
<text text-anchor="middle" x="1600.5" y="-569.4" font-family="Times Roman,serif" font-size="14.00">billing_address</text>
</g>
<!-- Program&#45;&gt;Campaign -->
<g id="edge86" class="edge"><title>Program&#45;&gt;Campaign</title>
<path fill="none" stroke="black" d="M1377.89,-706.524C1392.74,-688.244 1412.99,-663.316 1428.09,-644.738"/>
<ellipse fill="none" stroke="black" cx="1375.14" cy="-709.901" rx="4.00002" ry="4.00002"/>
<polygon fill="black" stroke="black" points="1428.11,-644.711 1437.91,-639.788 1431.26,-640.831 1434.42,-636.95 1434.42,-636.95 1434.42,-636.95 1431.26,-640.831 1430.92,-634.112 1428.11,-644.711 1428.11,-644.711"/>
</g>
<!-- Address -->
<g id="node22" class="node"><title>Address</title>
<ellipse fill="none" stroke="black" cx="2724" cy="-835" rx="50.2046" ry="18.3848"/>
<text text-anchor="middle" x="2724" y="-831.4" font-family="Times Roman,serif" font-size="14.00">Address</text>
</g>
<!-- QrCode&#45;&gt;QrCodeImage -->
<g id="edge88" class="edge"><title>QrCode&#45;&gt;QrCodeImage</title>
<path fill="none" stroke="black" d="M1033.85,-145.303C1037.76,-137.479 1042.06,-128.874 1045.99,-121.028"/>
<ellipse fill="none" stroke="black" cx="1031.99" cy="-149.025" rx="4.00002" ry="4.00002"/>
<ellipse fill="black" stroke="black" cx="1047.97" cy="-117.069" rx="4.00002" ry="4.00002"/>
</g>
<!-- PrintJob -->
<g id="node24" class="node"><title>PrintJob</title>
<ellipse fill="none" stroke="black" cx="2842" cy="-835" rx="50.2046" ry="18.3848"/>
<text text-anchor="middle" x="2842" y="-831.4" font-family="Times Roman,serif" font-size="14.00">PrintJob</text>
</g>
<!-- AccountType -->
<g id="node25" class="node"><title>AccountType</title>
<ellipse fill="none" stroke="black" cx="2581" cy="-247" rx="73.0388" ry="18.3848"/>
<text text-anchor="middle" x="2581" y="-243.4" font-family="Times Roman,serif" font-size="14.00">AccountType</text>
</g>
<!-- AccountType&#45;&gt;Account -->
<g id="edge90" class="edge"><title>AccountType&#45;&gt;Account</title>
<path fill="none" stroke="black" d="M2543.49,-226.235C2528.55,-219.033 2510.91,-211.811 2494,-208 2315.54,-167.785 1851.47,-219.916 1671,-190 1666.33,-189.226 1661.52,-188.169 1656.75,-186.947"/>
<ellipse fill="none" stroke="black" cx="2547.45" cy="-228.203" rx="4.00002" ry="4.00002"/>
<polygon fill="black" stroke="black" points="1656.71,-186.937 1648.29,-179.912 1651.9,-185.592 1647.08,-184.247 1647.08,-184.247 1647.08,-184.247 1651.9,-185.592 1645.87,-188.581 1656.71,-186.937 1656.71,-186.937"/>
</g>
<!-- Brand -->
<g id="node26" class="node"><title>Brand</title>
<ellipse fill="none" stroke="black" cx="510" cy="-451" rx="41.0122" ry="18.3848"/>
<text text-anchor="middle" x="510" y="-447.4" font-family="Times Roman,serif" font-size="14.00">Brand</text>
</g>
<!-- Brand&#45;&gt;BrandImage -->
<g id="edge94" class="edge"><title>Brand&#45;&gt;BrandImage</title>
<path fill="none" stroke="black" d="M523.697,-425.599C544.776,-386.506 584.946,-312.009 606.13,-272.723"/>
<ellipse fill="none" stroke="black" cx="521.66" cy="-429.376" rx="4.00002" ry="4.00002"/>
<ellipse fill="black" stroke="black" cx="608.204" cy="-268.877" rx="4.00002" ry="4.00002"/>
</g>
<!-- Brand&#45;&gt;Busines -->
<g id="edge92" class="edge"><title>Brand&#45;&gt;Busines</title>
<path fill="none" stroke="black" d="M470.651,-435.316C461.76,-429.899 453.372,-422.888 448,-414 443.307,-406.235 441.681,-396.672 441.492,-387.709"/>
<ellipse fill="none" stroke="black" cx="474.346" cy="-437.376" rx="4.00002" ry="4.00002"/>
<polygon fill="black" stroke="black" points="441.496,-387.602 446.332,-377.76 441.665,-382.605 441.834,-377.607 441.834,-377.607 441.834,-377.607 441.665,-382.605 437.337,-377.455 441.496,-387.602 441.496,-387.602"/>
<text text-anchor="middle" x="485" y="-401.4" font-family="Times Roman,serif" font-size="14.00">businesses</text>
</g>
<!-- Employee -->
<g id="node27" class="node"><title>Employee</title>
<ellipse fill="none" stroke="black" cx="1682" cy="-359" rx="58.1882" ry="18.3848"/>
<text text-anchor="middle" x="1682" y="-355.4" font-family="Times Roman,serif" font-size="14.00">Employee</text>
</g>
<!-- Employee&#45;&gt;AccountHolder -->
<g id="edge96" class="edge"><title>Employee&#45;&gt;AccountHolder</title>
<path fill="none" stroke="black" d="M1668.22,-333.273C1658.52,-315.17 1645.59,-291.033 1635.87,-272.894"/>
<ellipse fill="none" stroke="black" cx="1670.2" cy="-336.98" rx="4.00002" ry="4.00002"/>
<ellipse fill="black" stroke="black" cx="1633.81" cy="-269.048" rx="4.00002" ry="4.00002"/>
</g>
<!-- EmployeeType -->
<g id="node28" class="node"><title>EmployeeType</title>
<ellipse fill="none" stroke="black" cx="1705" cy="-451" rx="80.8184" ry="18.3848"/>
<text text-anchor="middle" x="1705" y="-447.4" font-family="Times Roman,serif" font-size="14.00">EmployeeType</text>
</g>
<!-- EmployeeType&#45;&gt;Employee -->
<g id="edge98" class="edge"><title>EmployeeType&#45;&gt;Employee</title>
<path fill="none" stroke="black" d="M1698.36,-424.447C1695.46,-412.84 1692.05,-399.21 1689.1,-387.401"/>
<ellipse fill="none" stroke="black" cx="1699.38" cy="-428.502" rx="4.00001" ry="4.00001"/>
<polygon fill="black" stroke="black" points="1689.07,-387.291 1691.01,-376.498 1687.86,-382.441 1686.65,-377.59 1686.65,-377.59 1686.65,-377.59 1687.86,-382.441 1682.28,-378.681 1689.07,-387.291 1689.07,-387.291"/>
</g>
<!-- AnnouncementType -->
<g id="node29" class="node"><title>AnnouncementType</title>
<ellipse fill="none" stroke="black" cx="2548" cy="-835" rx="108.187" ry="18.3848"/>
<text text-anchor="middle" x="2548" y="-831.4" font-family="Times Roman,serif" font-size="14.00">AnnouncementType</text>
</g>
<!-- AnnouncementType&#45;&gt;Announcement -->
<g id="edge100" class="edge"><title>AnnouncementType&#45;&gt;Announcement</title>
<path fill="none" stroke="black" d="M2548,-807.926C2548,-793.224 2548,-775.041 2548,-760.044"/>
<ellipse fill="none" stroke="black" cx="2548" cy="-812.407" rx="4" ry="4"/>
<polygon fill="black" stroke="black" points="2548,-759.783 2552.5,-749.783 2548,-754.783 2548,-749.783 2548,-749.783 2548,-749.783 2548,-754.783 2543.5,-749.783 2548,-759.783 2548,-759.783"/>
</g>
<!-- Target&#45;&gt;Campaign -->
<g id="edge102" class="edge"><title>Target&#45;&gt;Campaign</title>
<path fill="none" stroke="black" d="M1465.4,-702.507C1462.08,-685.605 1457.89,-664.256 1454.57,-647.376"/>
<polygon fill="black" stroke="black" points="1465.44,-702.693 1462.95,-713.373 1466.4,-707.599 1467.37,-712.505 1467.37,-712.505 1467.37,-712.505 1466.4,-707.599 1471.78,-711.638 1465.44,-702.693 1465.44,-702.693"/>
<polygon fill="black" stroke="black" points="1454.57,-647.334 1457.05,-636.655 1453.6,-642.428 1452.64,-637.522 1452.64,-637.522 1452.64,-637.522 1453.6,-642.428 1448.22,-638.389 1454.57,-647.334 1454.57,-647.334"/>
</g>
<!-- Target&#45;&gt;User -->
<g id="edge104" class="edge"><title>Target&#45;&gt;User</title>
<path fill="none" stroke="black" d="M1439.51,-709.287C1374.6,-664.971 1220.54,-562.052 1084,-488 1070.01,-480.413 1054.18,-472.884 1040.32,-466.618"/>
<polygon fill="black" stroke="black" points="1439.81,-709.494 1445.52,-718.855 1443.94,-712.318 1448.06,-715.142 1448.06,-715.142 1448.06,-715.142 1443.94,-712.318 1450.6,-711.428 1439.81,-709.494 1439.81,-709.494"/>
<polygon fill="black" stroke="black" points="1040.22,-466.572 1032.92,-458.387 1035.65,-464.534 1031.09,-462.497 1031.09,-462.497 1031.09,-462.497 1035.65,-464.534 1029.25,-466.606 1040.22,-466.572 1040.22,-466.572"/>
</g>
<!-- Engagement&#45;&gt;QrCode -->
<g id="edge106" class="edge"><title>Engagement&#45;&gt;QrCode</title>
<path fill="none" stroke="black" d="M1252.32,-231.621C1198.96,-217.639 1121.1,-197.232 1070.74,-184.034"/>
<ellipse fill="none" stroke="black" cx="1256.28" cy="-232.661" rx="4.00001" ry="4.00001"/>
<polygon fill="black" stroke="black" points="1070.72,-184.03 1062.19,-177.142 1065.88,-182.762 1061.05,-181.495 1061.05,-181.495 1061.05,-181.495 1065.88,-182.762 1059.9,-185.848 1070.72,-184.03 1070.72,-184.03"/>
</g>
<!-- Engagement&#45;&gt;Log -->
<g id="edge108" class="edge"><title>Engagement&#45;&gt;Log</title>
<path fill="none" stroke="black" d="M1322.51,-221.022C1341.76,-177.561 1380.31,-90.5304 1399.93,-46.2416"/>
<ellipse fill="none" stroke="black" cx="1320.89" cy="-224.685" rx="4.00002" ry="4.00002"/>
<polygon fill="black" stroke="black" points="1399.99,-46.1067 1408.16,-38.7863 1402.02,-41.5352 1404.04,-36.9636 1404.04,-36.9636 1404.04,-36.9636 1402.02,-41.5352 1399.93,-35.141 1399.99,-46.1067 1399.99,-46.1067"/>
</g>
<!-- ProgramType -->
<g id="node33" class="node"><title>ProgramType</title>
<ellipse fill="none" stroke="black" cx="343" cy="-835" rx="75.1594" ry="18.3848"/>
<text text-anchor="middle" x="343" y="-831.4" font-family="Times Roman,serif" font-size="14.00">ProgramType</text>
</g>
<!-- ProgramType&#45;&gt;Program -->
<g id="edge110" class="edge"><title>ProgramType&#45;&gt;Program</title>
<path fill="none" stroke="black" d="M420.427,-827.067C614.937,-807.136 1121.07,-755.277 1296.81,-737.269"/>
<ellipse fill="none" stroke="black" cx="416.345" cy="-827.485" rx="4" ry="4"/>
<polygon fill="black" stroke="black" points="1296.97,-737.253 1307.38,-740.711 1301.94,-736.744 1306.92,-736.234 1306.92,-736.234 1306.92,-736.234 1301.94,-736.744 1306.46,-731.757 1296.97,-737.253 1296.97,-737.253"/>
</g>
<!-- User&#45;&gt;AccountHolder -->
<g id="edge128" class="edge"><title>User&#45;&gt;AccountHolder</title>
<path fill="none" stroke="black" d="M1045.61,-446.842C1085.48,-442.894 1147.33,-436.856 1201,-432 1248.31,-427.72 1372.5,-437.105 1414,-414 1449.8,-394.068 1438.71,-367.598 1469,-340 1502.22,-309.735 1546.71,-283.995 1579.15,-267.32"/>
<ellipse fill="none" stroke="black" cx="1041.43" cy="-447.257" rx="4" ry="4"/>
<ellipse fill="black" stroke="black" cx="1582.73" cy="-265.504" rx="4.00002" ry="4.00002"/>
</g>
<!-- User&#45;&gt;Template -->
<g id="edge112" class="edge"><title>User&#45;&gt;Template</title>
<path fill="none" stroke="black" d="M977.311,-430.614C962.363,-417.445 945.137,-398.899 937,-378 930.873,-362.262 931.105,-355.827 937,-340 938.501,-335.971 940.659,-332.088 943.157,-328.452"/>
<ellipse fill="none" stroke="black" cx="980.498" cy="-433.327" rx="4.00002" ry="4.00002"/>
<polygon fill="black" stroke="black" points="943.263,-328.317 952.985,-323.245 946.356,-324.389 949.449,-320.461 949.449,-320.461 949.449,-320.461 946.356,-324.389 945.914,-317.677 943.263,-328.317 943.263,-328.317"/>
</g>
<!-- User&#45;&gt;LegalId -->
<g id="edge114" class="edge"><title>User&#45;&gt;LegalId</title>
<path fill="none" stroke="black" d="M1000.54,-424.447C999.038,-412.958 997.281,-399.485 995.751,-387.76"/>
<ellipse fill="none" stroke="black" cx="1001.05" cy="-428.416" rx="4.00001" ry="4.00001"/>
<polygon fill="black" stroke="black" points="995.718,-387.506 998.887,-377.008 995.072,-382.548 994.425,-377.59 994.425,-377.59 994.425,-377.59 995.072,-382.548 989.963,-378.172 995.718,-387.506 995.718,-387.506"/>
</g>
<!-- User&#45;&gt;QrCode -->
<g id="edge126" class="edge"><title>User&#45;&gt;QrCode</title>
<path fill="none" stroke="black" d="M961.997,-446.998C907.297,-441.261 815.106,-429.64 785,-414 722.414,-381.488 671.319,-350.78 694,-284 704.092,-254.287 710.364,-244.589 737,-228 774.66,-204.545 895.327,-186.344 966.683,-177.297"/>
<ellipse fill="none" stroke="black" cx="966.133" cy="-447.424" rx="4" ry="4"/>
<ellipse fill="black" stroke="black" cx="970.736" cy="-176.789" rx="4.00001" ry="4.00001"/>
</g>
<!-- User&#45;&gt;Employee -->
<g id="edge122" class="edge"><title>User&#45;&gt;Employee</title>
<path fill="none" stroke="black" d="M1045.6,-446.675C1085.45,-442.606 1147.3,-436.485 1201,-432 1314.22,-422.546 1343.74,-431.495 1456,-414 1516.4,-404.587 1584.4,-387.072 1629.89,-374.33"/>
<ellipse fill="none" stroke="black" cx="1041.42" cy="-447.103" rx="4" ry="4"/>
<polygon fill="black" stroke="black" points="1629.9,-374.326 1640.75,-375.938 1634.71,-372.967 1639.53,-371.607 1639.53,-371.607 1639.53,-371.607 1634.71,-372.967 1638.3,-367.277 1629.9,-374.326 1629.9,-374.326"/>
</g>
<!-- User&#45;&gt;Log -->
<g id="edge124" class="edge"><title>User&#45;&gt;Log</title>
<path fill="none" stroke="black" d="M962.023,-447.196C844.717,-435.418 522,-394.683 522,-303 522,-303 522,-303 522,-95 522,-51.6622 1200.79,-26.0558 1372.77,-20.2635"/>
<ellipse fill="none" stroke="black" cx="966.126" cy="-447.601" rx="4" ry="4"/>
<polygon fill="black" stroke="black" points="1372.9,-20.2593 1383.04,-24.4233 1377.9,-20.0925 1382.89,-19.9258 1382.89,-19.9258 1382.89,-19.9258 1377.9,-20.0925 1382.74,-15.4283 1372.9,-20.2593 1372.9,-20.2593"/>
</g>
<!-- User&#45;&gt;Follower -->
<g id="edge116" class="edge"><title>User&#45;&gt;Follower</title>
<path fill="none" stroke="black" d="M963.204,-444.565C901.288,-433.862 788.307,-410.336 765,-378 742.561,-346.868 762.593,-302.139 780.037,-273.834"/>
<ellipse fill="none" stroke="black" cx="967.279" cy="-445.258" rx="4.00001" ry="4.00001"/>
<polygon fill="black" stroke="black" points="780.142,-273.67 789.337,-267.694 782.847,-269.465 785.552,-265.26 785.552,-265.26 785.552,-265.26 782.847,-269.465 781.767,-262.825 780.142,-273.67 780.142,-273.67"/>
</g>
<!-- Invitation -->
<g id="node39" class="node"><title>Invitation</title>
<ellipse fill="none" stroke="black" cx="832" cy="-359" rx="58.1882" ry="18.3848"/>
<text text-anchor="middle" x="832" y="-355.4" font-family="Times Roman,serif" font-size="14.00">Invitation</text>
</g>
<!-- User&#45;&gt;Invitation -->
<g id="edge120" class="edge"><title>User&#45;&gt;Invitation</title>
<path fill="none" stroke="black" d="M965.99,-439.905C946.806,-433.575 923.525,-424.752 904,-414 888.402,-405.411 872.52,-393.663 859.655,-383.23"/>
<ellipse fill="none" stroke="black" cx="969.858" cy="-441.151" rx="4.00001" ry="4.00001"/>
<polygon fill="black" stroke="black" points="859.369,-382.992 854.542,-373.146 855.519,-379.801 851.67,-376.61 851.67,-376.61 851.67,-376.61 855.519,-379.801 848.798,-380.074 859.369,-382.992 859.369,-382.992"/>
</g>
<!-- User&#45;&gt;Busines -->
<g id="edge118" class="edge"><title>User&#45;&gt;Busines</title>
<path fill="none" stroke="black" d="M959.932,-449.083C864.803,-444.645 642.922,-432.603 570,-414 561.27,-411.773 518.842,-392.802 485.808,-377.755"/>
<polygon fill="black" stroke="black" points="960.092,-449.09 969.875,-454.045 965.087,-449.32 970.082,-449.55 970.082,-449.55 970.082,-449.55 965.087,-449.32 970.289,-445.054 960.092,-449.09 960.092,-449.09"/>
<polygon fill="black" stroke="black" points="485.439,-377.586 478.21,-369.34 480.89,-375.51 476.342,-373.433 476.342,-373.433 476.342,-373.433 480.89,-375.51 474.473,-377.527 485.439,-377.586 485.439,-377.586"/>
<text text-anchor="middle" x="607" y="-401.4" font-family="Times Roman,serif" font-size="14.00">businesses</text>
</g>
<!-- User&#45;&gt;Addres -->
<g id="edge130" class="edge"><title>User&#45;&gt;Addres</title>
<path fill="none" stroke="black" d="M1006.35,-424.209C1008.7,-413.762 1013.26,-402.706 1022,-396 1051.4,-373.45 1318.07,-381.083 1355,-378 1394.23,-374.724 1438.48,-369.665 1471.71,-365.59"/>
<ellipse fill="none" stroke="black" cx="1005.6" cy="-428.424" rx="4.00001" ry="4.00001"/>
<ellipse fill="black" stroke="black" cx="1475.94" cy="-365.068" rx="4.00001" ry="4.00001"/>
<text text-anchor="middle" x="1078" y="-401.4" font-family="Times Roman,serif" font-size="14.00">mailing_address</text>
</g>
<!-- User&#45;&gt;Addres -->
<g id="edge132" class="edge"><title>User&#45;&gt;Addres</title>
<path fill="none" stroke="black" d="M1044.53,-443.816C1138.51,-427.156 1371.1,-385.927 1473.38,-367.795"/>
<ellipse fill="none" stroke="black" cx="1040.4" cy="-444.547" rx="4.00001" ry="4.00001"/>
<ellipse fill="black" stroke="black" cx="1477.46" cy="-367.072" rx="4.00001" ry="4.00001"/>
<text text-anchor="middle" x="1359.5" y="-401.4" font-family="Times Roman,serif" font-size="14.00">billing_address</text>
</g>
<!-- MeasurementType&#45;&gt;Campaign -->
<g id="edge136" class="edge"><title>MeasurementType&#45;&gt;Campaign</title>
<path fill="none" stroke="black" d="M1811.08,-713.751C1727.1,-691.773 1583.41,-654.171 1504.65,-633.564"/>
<ellipse fill="none" stroke="black" cx="1814.96" cy="-714.766" rx="4.00001" ry="4.00001"/>
<polygon fill="black" stroke="black" points="1504.59,-633.547 1496.06,-626.662 1499.75,-632.281 1494.92,-631.016 1494.92,-631.016 1494.92,-631.016 1499.75,-632.281 1493.78,-635.369 1504.59,-633.547 1504.59,-633.547"/>
</g>
<!-- MeasurementType&#45;&gt;Account -->
<g id="edge138" class="edge"><title>MeasurementType&#45;&gt;Account</title>
<path fill="none" stroke="black" d="M1880.71,-704.465C1888.74,-657.365 1912.28,-559.296 1974,-508 2031.87,-459.9 2069.56,-498.995 2139,-470 2304.2,-401.022 2584.51,-357.593 2461,-228 2400.37,-164.385 1757.5,-205.506 1671,-190 1666.34,-189.164 1661.54,-188.067 1656.77,-186.821"/>
<ellipse fill="none" stroke="black" cx="1880.06" cy="-708.428" rx="4.00001" ry="4.00001"/>
<polygon fill="black" stroke="black" points="1656.73,-186.81 1648.33,-179.758 1651.92,-185.449 1647.11,-184.089 1647.11,-184.089 1647.11,-184.089 1651.92,-185.449 1645.89,-188.419 1656.73,-186.81 1656.73,-186.81"/>
</g>
<!-- Action&#45;&gt;Log -->
<g id="edge140" class="edge"><title>Action&#45;&gt;Log</title>
<path fill="none" stroke="black" d="M1731.21,-79.7614C1727.12,-78.3912 1723,-77.1062 1719,-76 1624.13,-49.7329 1509.37,-32.0495 1450.68,-23.9893"/>
<ellipse fill="none" stroke="black" cx="1735.22" cy="-81.1592" rx="4.00001" ry="4.00001"/>
<polygon fill="black" stroke="black" points="1450.64,-23.9841 1441.34,-18.1825 1445.69,-23.3129 1440.73,-22.6418 1440.73,-22.6418 1440.73,-22.6418 1445.69,-23.3129 1440.13,-27.1011 1450.64,-23.9841 1450.64,-23.9841"/>
</g>
<!-- PlaceTypes -->
<g id="node40" class="node"><title>PlaceTypes</title>
<ellipse fill="none" stroke="black" cx="2066" cy="-451" rx="63.8479" ry="18.3848"/>
<text text-anchor="middle" x="2066" y="-447.4" font-family="Times Roman,serif" font-size="14.00">PlaceTypes</text>
</g>
<!-- PlaceTypes&#45;&gt;Place -->
<g id="edge142" class="edge"><title>PlaceTypes&#45;&gt;Place</title>
<path fill="none" stroke="black" d="M2037.38,-428.305C2019.26,-413.926 1995.92,-395.42 1977.93,-381.148"/>
<ellipse fill="none" stroke="black" cx="2040.77" cy="-430.993" rx="4.00002" ry="4.00002"/>
<polygon fill="black" stroke="black" points="1977.91,-381.132 1972.87,-371.393 1973.99,-378.025 1970.07,-374.919 1970.07,-374.919 1970.07,-374.919 1973.99,-378.025 1967.27,-378.444 1977.91,-381.132 1977.91,-381.132"/>
</g>
<!-- Item&#45;&gt;Image -->
<g id="edge146" class="edge"><title>Item&#45;&gt;Image</title>
<path fill="none" stroke="black" d="M1421.27,-438.155C1384.62,-425.772 1326.52,-407.295 1275,-396 1218.88,-383.697 1202.64,-392.292 1147,-378 1143.61,-377.13 1140.14,-376.106 1136.69,-374.99"/>
<ellipse fill="none" stroke="black" cx="1425.41" cy="-439.566" rx="4.00001" ry="4.00001"/>
<polygon fill="black" stroke="black" points="1136.51,-374.929 1128.53,-367.408 1131.78,-373.295 1127.06,-371.661 1127.06,-371.661 1127.06,-371.661 1131.78,-373.295 1125.59,-375.914 1136.51,-374.929 1136.51,-374.929"/>
</g>
<!-- Item&#45;&gt;Place -->
<g id="edge144" class="edge"><title>Item&#45;&gt;Place</title>
<path fill="none" stroke="black" d="M1500.17,-443.114C1592.3,-425.888 1810.79,-385.031 1905.23,-367.371"/>
<polygon fill="black" stroke="black" points="1500.11,-443.125 1489.45,-440.54 1495.2,-444.045 1490.28,-444.964 1490.28,-444.964 1490.28,-444.964 1495.2,-444.045 1491.11,-449.387 1500.11,-443.125 1500.11,-443.125"/>
<polygon fill="black" stroke="black" points="1905.49,-367.323 1916.14,-369.909 1910.4,-366.404 1915.32,-365.485 1915.32,-365.485 1915.32,-365.485 1910.4,-366.404 1914.49,-361.062 1905.49,-367.323 1905.49,-367.323"/>
</g>
</g>
</svg>
