<?xml version="1.0" encoding="UTF-8" standalone="no"?>
<!DOCTYPE svg PUBLIC "-//W3C//DTD SVG 1.1//EN"
 "http://www.w3.org/Graphics/SVG/1.1/DTD/svg11.dtd">
<!-- Generated by graphviz version 2.26.3 (20100126.1600)
 -->
<!-- Title: models_diagram Pages: 1 -->
<svg width="2965pt" height="870pt"
 viewBox="0.00 0.00 2965.00 870.00" xmlns="http://www.w3.org/2000/svg" xmlns:xlink="http://www.w3.org/1999/xlink">
<g id="graph1" class="graph" transform="scale(1 1) rotate(0) translate(4 866)">
<title>models_diagram</title>
<polygon fill="white" stroke="white" points="-4,5 -4,-866 2962,-866 2962,5 -4,5"/>
<!-- _diagram_info -->
<g id="node1" class="node"><title>_diagram_info</title>
<text text-anchor="start" x="8" y="-845.8" font-family="Times Roman,serif" font-size="13.00">Models diagram</text>
<text text-anchor="start" x="8" y="-828.8" font-family="Times Roman,serif" font-size="13.00">Date: May 04 2011 &#45; 14:02</text>
<text text-anchor="start" x="8" y="-811.8" font-family="Times Roman,serif" font-size="13.00">Migration version: 20110426155923</text>
<text text-anchor="start" x="8" y="-794.8" font-family="Times Roman,serif" font-size="13.00">Generated by RailRoady 1.0.1</text>
<text text-anchor="start" x="8" y="-777.8" font-family="Times Roman,serif" font-size="13.00">http://railroady.prestonlee.com</text>
</g>
<!-- OpenHour -->
<g id="node2" class="node"><title>OpenHour</title>
<ellipse fill="none" stroke="black" cx="2104" cy="-247" rx="61.0181" ry="18.3848"/>
<text text-anchor="middle" x="2104" y="-243.4" font-family="Times Roman,serif" font-size="14.00">OpenHour</text>
</g>
<!-- Announcement -->
<g id="node3" class="node"><title>Announcement</title>
<ellipse fill="none" stroke="black" cx="2613" cy="-711" rx="85.7684" ry="18.3848"/>
<text text-anchor="middle" x="2613" y="-707.4" font-family="Times Roman,serif" font-size="14.00">Announcement</text>
</g>
<!-- AccountHolder -->
<g id="node4" class="node"><title>AccountHolder</title>
<ellipse fill="none" stroke="black" cx="1081" cy="-247" rx="82.2301" ry="18.3848"/>
<text text-anchor="middle" x="1081" y="-243.4" font-family="Times Roman,serif" font-size="14.00">AccountHolder</text>
</g>
<!-- Account -->
<g id="node16" class="node"><title>Account</title>
<ellipse fill="none" stroke="black" cx="1450" cy="-171" rx="50.9117" ry="18.3848"/>
<text text-anchor="middle" x="1450" y="-167.4" font-family="Times Roman,serif" font-size="14.00">Account</text>
</g>
<!-- AccountHolder&#45;&gt;Account -->
<g id="edge2" class="edge"><title>AccountHolder&#45;&gt;Account</title>
<path fill="none" stroke="black" d="M1149.42,-232.605C1157.03,-231.035 1164.68,-229.474 1172,-228 1258.99,-210.487 1281.21,-208.462 1368,-190 1377.44,-187.992 1387.47,-185.755 1397.15,-183.541"/>
<ellipse fill="none" stroke="black" cx="1145.1" cy="-233.498" rx="4.00001" ry="4.00001"/>
<polygon fill="black" stroke="black" points="1397.34,-183.499 1408.09,-185.638 1402.21,-182.376 1407.08,-181.253 1407.08,-181.253 1407.08,-181.253 1402.21,-182.376 1406.07,-176.868 1397.34,-183.499 1397.34,-183.499"/>
</g>
<!-- LegalType -->
<g id="node5" class="node"><title>LegalType</title>
<ellipse fill="none" stroke="black" cx="581" cy="-431" rx="60.1041" ry="18.3848"/>
<text text-anchor="middle" x="581" y="-427.4" font-family="Times Roman,serif" font-size="14.00">LegalType</text>
</g>
<!-- LegalId -->
<g id="node14" class="node"><title>LegalId</title>
<ellipse fill="none" stroke="black" cx="612" cy="-339" rx="46.1672" ry="18.3848"/>
<text text-anchor="middle" x="612" y="-335.4" font-family="Times Roman,serif" font-size="14.00">LegalId</text>
</g>
<!-- LegalType&#45;&gt;LegalId -->
<g id="edge4" class="edge"><title>LegalType&#45;&gt;LegalId</title>
<path fill="none" stroke="black" d="M525.973,-416.755C501.295,-407.573 480.445,-393.971 494,-376 511.536,-352.752 529.228,-366.757 557,-358 560.532,-356.886 564.18,-355.702 567.838,-354.49"/>
<ellipse fill="none" stroke="black" cx="529.945" cy="-418.142" rx="4.00001" ry="4.00001"/>
<polygon fill="black" stroke="black" points="567.997,-354.437 578.91,-355.513 572.736,-352.842 577.475,-351.248 577.475,-351.248 577.475,-351.248 572.736,-352.842 576.039,-346.983 567.997,-354.437 567.997,-354.437"/>
</g>
<!-- LogGroup -->
<g id="node6" class="node"><title>LogGroup</title>
<ellipse fill="none" stroke="black" cx="343" cy="-95" rx="58.8978" ry="18.3848"/>
<text text-anchor="middle" x="343" y="-91.4" font-family="Times Roman,serif" font-size="14.00">LogGroup</text>
</g>
<!-- Log -->
<g id="node32" class="node"><title>Log</title>
<ellipse fill="none" stroke="black" cx="1192" cy="-19" rx="28.9914" ry="18.3848"/>
<text text-anchor="middle" x="1192" y="-15.4" font-family="Times Roman,serif" font-size="14.00">Log</text>
</g>
<!-- LogGroup&#45;&gt;Log -->
<g id="edge6" class="edge"><title>LogGroup&#45;&gt;Log</title>
<path fill="none" stroke="black" d="M374.834,-74.0401C387.18,-66.9929 401.758,-59.9287 416,-56 487.192,-36.3618 1004.56,-23.2439 1152.56,-19.8638"/>
<ellipse fill="none" stroke="black" cx="371.287" cy="-76.1316" rx="4.00002" ry="4.00002"/>
<polygon fill="black" stroke="black" points="1152.96,-19.8547 1163.06,-24.1273 1157.96,-19.7416 1162.96,-19.6284 1162.96,-19.6284 1162.96,-19.6284 1157.96,-19.7416 1162.86,-15.1296 1152.96,-19.8547 1152.96,-19.8547"/>
</g>
<!-- Template -->
<g id="node7" class="node"><title>Template</title>
<ellipse fill="none" stroke="black" cx="808" cy="-339" rx="55.8614" ry="18.3848"/>
<text text-anchor="middle" x="808" y="-335.4" font-family="Times Roman,serif" font-size="14.00">Template</text>
</g>
<!-- QrCode -->
<g id="node23" class="node"><title>QrCode</title>
<ellipse fill="none" stroke="black" cx="933" cy="-247" rx="48.0833" ry="18.3848"/>
<text text-anchor="middle" x="933" y="-243.4" font-family="Times Roman,serif" font-size="14.00">QrCode</text>
</g>
<!-- Template&#45;&gt;QrCode -->
<g id="edge8" class="edge"><title>Template&#45;&gt;QrCode</title>
<path fill="none" stroke="black" d="M837.857,-317.025C857.237,-302.762 882.437,-284.215 902.033,-269.792"/>
<ellipse fill="none" stroke="black" cx="834.44" cy="-319.54" rx="4.00002" ry="4.00002"/>
<polygon fill="black" stroke="black" points="902.273,-269.615 912.995,-267.311 906.3,-266.651 910.327,-263.687 910.327,-263.687 910.327,-263.687 906.3,-266.651 907.66,-260.063 902.273,-269.615 902.273,-269.615"/>
</g>
<!-- Transaction -->
<g id="node8" class="node"><title>Transaction</title>
<ellipse fill="none" stroke="black" cx="1319" cy="-95" rx="67.1751" ry="18.3848"/>
<text text-anchor="middle" x="1319" y="-91.4" font-family="Times Roman,serif" font-size="14.00">Transaction</text>
</g>
<!-- Transaction&#45;&gt;Log -->
<g id="edge10" class="edge"><title>Transaction&#45;&gt;Log</title>
<path fill="none" stroke="black" d="M1283.72,-73.8846C1264.32,-62.2761 1240.51,-48.0288 1222.01,-36.9596"/>
<ellipse fill="none" stroke="black" cx="1287.38" cy="-76.0791" rx="4.00002" ry="4.00002"/>
<polygon fill="black" stroke="black" points="1221.98,-36.9415 1215.71,-27.945 1217.69,-34.374 1213.4,-31.8064 1213.4,-31.8064 1213.4,-31.8064 1217.69,-34.374 1211.09,-35.6678 1221.98,-36.9415 1221.98,-36.9415"/>
</g>
<!-- TransactionType -->
<g id="node9" class="node"><title>TransactionType</title>
<ellipse fill="none" stroke="black" cx="1269" cy="-171" rx="89.8026" ry="18.3848"/>
<text text-anchor="middle" x="1269" y="-167.4" font-family="Times Roman,serif" font-size="14.00">TransactionType</text>
</g>
<!-- TransactionType&#45;&gt;Transaction -->
<g id="edge12" class="edge"><title>TransactionType&#45;&gt;Transaction</title>
<path fill="none" stroke="black" d="M1285.54,-145.858C1290.64,-138.111 1296.27,-129.556 1301.43,-121.708"/>
<ellipse fill="none" stroke="black" cx="1283.3" cy="-149.261" rx="4.00002" ry="4.00002"/>
<polygon fill="black" stroke="black" points="1301.51,-121.582 1310.77,-115.701 1304.26,-117.405 1307.01,-113.228 1307.01,-113.228 1307.01,-113.228 1304.26,-117.405 1303.25,-110.755 1301.51,-121.582 1301.51,-121.582"/>
</g>
<!-- Action -->
<g id="node38" class="node"><title>Action</title>
<ellipse fill="none" stroke="black" cx="1192" cy="-95" rx="41.9273" ry="18.3848"/>
<text text-anchor="middle" x="1192" y="-91.4" font-family="Times Roman,serif" font-size="14.00">Action</text>
</g>
<!-- TransactionType&#45;&gt;Action -->
<g id="edge14" class="edge"><title>TransactionType&#45;&gt;Action</title>
<path fill="none" stroke="black" d="M1244.54,-146.859C1235.54,-137.978 1225.36,-127.927 1216.37,-119.054"/>
<ellipse fill="none" stroke="black" cx="1247.51" cy="-149.793" rx="4.00002" ry="4.00002"/>
<polygon fill="black" stroke="black" points="1216.27,-118.954 1212.31,-108.726 1212.71,-115.441 1209.15,-111.929 1209.15,-111.929 1209.15,-111.929 1212.71,-115.441 1205.99,-115.132 1216.27,-118.954 1216.27,-118.954"/>
</g>
<!-- Reward -->
<g id="node10" class="node"><title>Reward</title>
<ellipse fill="none" stroke="black" cx="1185" cy="-507" rx="48.7904" ry="18.3848"/>
<text text-anchor="middle" x="1185" y="-503.4" font-family="Times Roman,serif" font-size="14.00">Reward</text>
</g>
<!-- Reward&#45;&gt;Log -->
<g id="edge16" class="edge"><title>Reward&#45;&gt;Log</title>
<path fill="none" stroke="black" d="M1127.84,-504.85C975.055,-498.726 565.152,-479.698 512,-450 458.456,-420.084 430,-400.335 430,-339 430,-339 430,-339 430,-95 430,-58.2858 997.493,-28.3388 1153,-20.8216"/>
<ellipse fill="none" stroke="black" cx="1132.23" cy="-505.024" rx="4" ry="4"/>
<polygon fill="black" stroke="black" points="1153.07,-20.8185 1163.27,-24.834 1158.06,-20.5788 1163.06,-20.3392 1163.06,-20.3392 1163.06,-20.3392 1158.06,-20.5788 1162.84,-15.8443 1153.07,-20.8185 1153.07,-20.8185"/>
</g>
<!-- User -->
<g id="node34" class="node"><title>User</title>
<ellipse fill="none" stroke="black" cx="934" cy="-431" rx="33.9411" ry="18.3848"/>
<text text-anchor="middle" x="934" y="-427.4" font-family="Times Roman,serif" font-size="14.00">User</text>
</g>
<!-- Reward&#45;&gt;User -->
<g id="edge20" class="edge"><title>Reward&#45;&gt;User</title>
<path fill="none" stroke="black" d="M1136.77,-492.396C1089.32,-478.029 1017.75,-456.358 973.549,-442.975"/>
<polygon fill="black" stroke="black" points="1137.03,-492.476 1145.3,-499.681 1141.82,-493.925 1146.61,-495.375 1146.61,-495.375 1146.61,-495.375 1141.82,-493.925 1147.91,-491.068 1137.03,-492.476 1137.03,-492.476"/>
<polygon fill="black" stroke="black" points="973.314,-442.904 965.047,-435.699 968.528,-441.455 963.743,-440.006 963.743,-440.006 963.743,-440.006 968.528,-441.455 962.439,-444.313 973.314,-442.904 973.314,-442.904"/>
</g>
<!-- Item -->
<g id="node41" class="node"><title>Item</title>
<ellipse fill="none" stroke="black" cx="1630" cy="-431" rx="33.9411" ry="18.3848"/>
<text text-anchor="middle" x="1630" y="-427.4" font-family="Times Roman,serif" font-size="14.00">Item</text>
</g>
<!-- Reward&#45;&gt;Item -->
<g id="edge18" class="edge"><title>Reward&#45;&gt;Item</title>
<path fill="none" stroke="black" d="M1239.77,-497.81C1258.83,-494.65 1280.35,-491.123 1300,-488 1410.56,-470.431 1439.09,-471.244 1549,-450 1562.09,-447.47 1576.28,-444.293 1589.06,-441.266"/>
<polygon fill="black" stroke="black" points="1239.63,-497.834 1229.02,-495.034 1234.69,-498.653 1229.76,-499.473 1229.76,-499.473 1229.76,-499.473 1234.69,-498.653 1230.5,-503.912 1239.63,-497.834 1239.63,-497.834"/>
<polygon fill="black" stroke="black" points="1589.24,-441.222 1600.02,-443.261 1594.11,-440.054 1598.97,-438.885 1598.97,-438.885 1598.97,-438.885 1594.11,-440.054 1597.92,-434.51 1589.24,-441.222 1589.24,-441.222"/>
</g>
<!-- Campaign -->
<g id="node11" class="node"><title>Campaign</title>
<ellipse fill="none" stroke="black" cx="1518" cy="-599" rx="60.1041" ry="18.3848"/>
<text text-anchor="middle" x="1518" y="-595.4" font-family="Times Roman,serif" font-size="14.00">Campaign</text>
</g>
<!-- Campaign&#45;&gt;Reward -->
<g id="edge26" class="edge"><title>Campaign&#45;&gt;Reward</title>
<path fill="none" stroke="black" d="M1465.18,-584.407C1401.87,-566.916 1296.6,-537.833 1234.71,-520.733"/>
<ellipse fill="none" stroke="black" cx="1469.23" cy="-585.527" rx="4.00001" ry="4.00001"/>
<polygon fill="black" stroke="black" points="1234.43,-520.656 1225.99,-513.655 1229.61,-519.324 1224.79,-517.993 1224.79,-517.993 1224.79,-517.993 1229.61,-519.324 1223.59,-522.33 1234.43,-520.656 1234.43,-520.656"/>
</g>
<!-- Campaign&#45;&gt;Account -->
<g id="edge22" class="edge"><title>Campaign&#45;&gt;Account</title>
<path fill="none" stroke="black" d="M1582.65,-591.135C1632.15,-581.075 1692,-558.305 1692,-507 1692,-507 1692,-507 1692,-385 1692,-330.386 1551.94,-235.013 1484.92,-192.506"/>
<ellipse fill="none" stroke="black" cx="1578.42" cy="-591.946" rx="4.00001" ry="4.00001"/>
<polygon fill="black" stroke="black" points="1484.82,-192.44 1478.76,-183.302 1480.59,-189.775 1476.36,-187.109 1476.36,-187.109 1476.36,-187.109 1480.59,-189.775 1473.96,-190.916 1484.82,-192.44 1484.82,-192.44"/>
</g>
<!-- Engagement -->
<g id="node31" class="node"><title>Engagement</title>
<ellipse fill="none" stroke="black" cx="1453" cy="-339" rx="73.0388" ry="18.3848"/>
<text text-anchor="middle" x="1453" y="-335.4" font-family="Times Roman,serif" font-size="14.00">Engagement</text>
</g>
<!-- Campaign&#45;&gt;Engagement -->
<g id="edge24" class="edge"><title>Campaign&#45;&gt;Engagement</title>
<path fill="none" stroke="black" d="M1531.62,-573.197C1549.38,-535.737 1575.27,-464.985 1549,-412 1537.98,-389.777 1516.6,-372.489 1496.81,-360.328"/>
<ellipse fill="none" stroke="black" cx="1529.72" cy="-577.072" rx="4.00002" ry="4.00002"/>
<polygon fill="black" stroke="black" points="1496.8,-360.319 1490.44,-351.383 1492.48,-357.793 1488.17,-355.266 1488.17,-355.266 1488.17,-355.266 1492.48,-357.793 1485.89,-359.149 1496.8,-360.319 1496.8,-360.319"/>
</g>
<!-- Amenity -->
<g id="node12" class="node"><title>Amenity</title>
<ellipse fill="none" stroke="black" cx="1981" cy="-431" rx="51.8276" ry="18.3848"/>
<text text-anchor="middle" x="1981" y="-427.4" font-family="Times Roman,serif" font-size="14.00">Amenity</text>
</g>
<!-- Place -->
<g id="node17" class="node"><title>Place</title>
<ellipse fill="none" stroke="black" cx="2026" cy="-339" rx="36.977" ry="18.3848"/>
<text text-anchor="middle" x="2026" y="-335.4" font-family="Times Roman,serif" font-size="14.00">Place</text>
</g>
<!-- Amenity&#45;&gt;Place -->
<g id="edge28" class="edge"><title>Amenity&#45;&gt;Place</title>
<path fill="none" stroke="black" d="M1994.63,-403.125C2000.32,-391.506 2006.9,-378.052 2012.56,-366.476"/>
<polygon fill="black" stroke="black" points="1994.5,-403.399 1986.06,-410.405 1992.3,-407.891 1990.11,-412.382 1990.11,-412.382 1990.11,-412.382 1992.3,-407.891 1994.15,-414.36 1994.5,-403.399 1994.5,-403.399"/>
<polygon fill="black" stroke="black" points="2012.67,-366.259 2021.1,-359.253 2014.86,-361.767 2017.06,-357.276 2017.06,-357.276 2017.06,-357.276 2014.86,-361.767 2013.02,-355.299 2012.67,-366.259 2012.67,-366.259"/>
</g>
<!-- Category -->
<g id="node13" class="node"><title>Category</title>
<ellipse fill="none" stroke="black" cx="1386" cy="-655" rx="56.0679" ry="18.3848"/>
<text text-anchor="middle" x="1386" y="-651.4" font-family="Times Roman,serif" font-size="14.00">Category</text>
</g>
<!-- Busines -->
<g id="node57" class="node"><title>Busines</title>
<ellipse fill="none" stroke="black" cx="1313" cy="-339" rx="48.9975" ry="18.3848"/>
<text text-anchor="middle" x="1313" y="-335.4" font-family="Times Roman,serif" font-size="14.00">Busines</text>
</g>
<!-- Category&#45;&gt;Busines -->
<g id="edge30" class="edge"><title>Category&#45;&gt;Busines</title>
<path fill="none" stroke="black" d="M1377.81,-626.912C1366.84,-587.711 1347.96,-514.179 1341,-450 1339.18,-433.21 1333.3,-427.032 1341,-412 1347.24,-399.814 1359.76,-406.186 1366,-394 1369.65,-386.88 1369.7,-383.093 1366,-376 1362.72,-369.716 1357.84,-364.28 1352.34,-359.657"/>
<polygon fill="black" stroke="black" points="1377.82,-626.946 1376.21,-637.794 1379.18,-631.757 1380.54,-636.567 1380.54,-636.567 1380.54,-636.567 1379.18,-631.757 1384.87,-635.34 1377.82,-626.946 1377.82,-626.946"/>
<polygon fill="black" stroke="black" points="1351.99,-359.404 1346.63,-349.842 1347.97,-356.433 1343.95,-353.461 1343.95,-353.461 1343.95,-353.461 1347.97,-356.433 1341.28,-357.08 1351.99,-359.404 1351.99,-359.404"/>
<text text-anchor="middle" x="1390" y="-503.4" font-family="Times Roman,serif" font-size="14.00">businesses</text>
</g>
<!-- Image -->
<g id="node15" class="node"><title>Image</title>
<ellipse fill="none" stroke="black" cx="1585" cy="-339" rx="41.2167" ry="18.3848"/>
<text text-anchor="middle" x="1585" y="-335.4" font-family="Times Roman,serif" font-size="14.00">Image</text>
</g>
<!-- BrandImage -->
<g id="node20" class="node"><title>BrandImage</title>
<ellipse fill="none" stroke="black" cx="1251" cy="-247" rx="70.2092" ry="18.3848"/>
<text text-anchor="middle" x="1251" y="-243.4" font-family="Times Roman,serif" font-size="14.00">BrandImage</text>
</g>
<!-- Image&#45;&gt;BrandImage -->
<g id="edge82" class="edge"><title>Image&#45;&gt;BrandImage</title>
<path fill="none" stroke="black" d="M1554.25,-326.699C1547.93,-324.345 1541.28,-321.995 1535,-320 1491.94,-306.33 1372.06,-276.522 1302.59,-259.527"/>
</g>
<!-- QrCodeImage -->
<g id="node36" class="node"><title>QrCodeImage</title>
<ellipse fill="none" stroke="black" cx="1040" cy="-171" rx="77.7817" ry="18.3848"/>
<text text-anchor="middle" x="1040" y="-167.4" font-family="Times Roman,serif" font-size="14.00">QrCodeImage</text>
</g>
<!-- Image&#45;&gt;QrCodeImage -->
<g id="edge132" class="edge"><title>Image&#45;&gt;QrCodeImage</title>
<path fill="none" stroke="black" d="M1556.75,-325.562C1530.2,-313.355 1489.1,-295.542 1452,-284 1415.54,-272.658 1401.54,-284.246 1368,-266 1347.02,-254.586 1351.08,-239.235 1330,-228 1310.3,-217.501 1183.41,-194.941 1104.14,-181.566"/>
</g>
<!-- Account&#45;&gt;Transaction -->
<g id="edge32" class="edge"><title>Account&#45;&gt;Transaction</title>
<path fill="none" stroke="black" d="M1415.93,-151.237C1397.79,-140.711 1375.43,-127.739 1356.76,-116.907"/>
<ellipse fill="none" stroke="black" cx="1419.4" cy="-153.245" rx="4.00002" ry="4.00002"/>
<polygon fill="black" stroke="black" points="1356.58,-116.8 1350.18,-107.889 1352.25,-114.291 1347.93,-111.781 1347.93,-111.781 1347.93,-111.781 1352.25,-114.291 1345.67,-115.674 1356.58,-116.8 1356.58,-116.8"/>
</g>
<!-- Place&#45;&gt;OpenHour -->
<g id="edge44" class="edge"><title>Place&#45;&gt;OpenHour</title>
<path fill="none" stroke="black" d="M2046.09,-315.307C2057.06,-302.369 2070.66,-286.323 2081.93,-273.036"/>
<ellipse fill="none" stroke="black" cx="2043.26" cy="-318.644" rx="4.00002" ry="4.00002"/>
<polygon fill="black" stroke="black" points="2082.13,-272.799 2092.03,-268.081 2085.36,-268.985 2088.59,-265.171 2088.59,-265.171 2088.59,-265.171 2085.36,-268.985 2085.16,-262.261 2082.13,-272.799 2082.13,-272.799"/>
</g>
<!-- Place&#45;&gt;QrCode -->
<g id="edge42" class="edge"><title>Place&#45;&gt;QrCode</title>
<path fill="none" stroke="black" d="M1980.76,-336.131C1787.57,-323.836 1039.26,-275.782 990,-266 985.799,-265.166 981.479,-264.11 977.186,-262.926"/>
<ellipse fill="none" stroke="black" cx="1985.02" cy="-336.401" rx="4" ry="4"/>
<polygon fill="black" stroke="black" points="976.871,-262.832 968.576,-255.66 972.08,-261.402 967.289,-259.972 967.289,-259.972 967.289,-259.972 972.08,-261.402 966.002,-264.284 976.871,-262.832 976.871,-262.832"/>
</g>
<!-- Follower -->
<g id="node35" class="node"><title>Follower</title>
<ellipse fill="none" stroke="black" cx="1708" cy="-247" rx="53.033" ry="18.3848"/>
<text text-anchor="middle" x="1708" y="-243.4" font-family="Times Roman,serif" font-size="14.00">Follower</text>
</g>
<!-- Place&#45;&gt;Follower -->
<g id="edge46" class="edge"><title>Place&#45;&gt;Follower</title>
<path fill="none" stroke="black" d="M1985.85,-327.814C1935.39,-313.693 1846.14,-288.521 1770,-266 1765.93,-264.797 1761.72,-263.536 1757.49,-262.26"/>
<ellipse fill="none" stroke="black" cx="1989.76" cy="-328.906" rx="4.00001" ry="4.00001"/>
<polygon fill="black" stroke="black" points="1757.22,-262.181 1748.96,-254.972 1752.44,-260.73 1747.66,-259.279 1747.66,-259.279 1747.66,-259.279 1752.44,-260.73 1746.35,-263.585 1757.22,-262.181 1757.22,-262.181"/>
</g>
<!-- ActsAsTaggableOn::Tagging -->
<g id="node60" class="node"><title>ActsAsTaggableOn::Tagging</title>
<ellipse fill="none" stroke="black" cx="2327" cy="-247" rx="144.25" ry="18.3848"/>
<text text-anchor="middle" x="2327" y="-243.4" font-family="Times Roman,serif" font-size="14.00">ActsAsTaggableOn::Tagging</text>
</g>
<!-- Place&#45;&gt;ActsAsTaggableOn::Tagging -->
<g id="edge34" class="edge"><title>Place&#45;&gt;ActsAsTaggableOn::Tagging</title>
<path fill="none" stroke="black" d="M2054.63,-319.014C2077.09,-303.344 2104.63,-284.149 2105,-284 2125.06,-275.832 2169.38,-267.8 2213.19,-261.317"/>
<ellipse fill="none" stroke="black" cx="2051.14" cy="-321.45" rx="4.00002" ry="4.00002"/>
<polygon fill="black" stroke="black" points="2213.21,-261.314 2223.76,-264.326 2218.16,-260.593 2223.11,-259.873 2223.11,-259.873 2223.11,-259.873 2218.16,-260.593 2222.46,-255.42 2213.21,-261.314 2213.21,-261.314"/>
<text text-anchor="middle" x="2134.5" y="-289.4" font-family="Times Roman,serif" font-size="14.00">taggings</text>
</g>
<!-- Place&#45;&gt;ActsAsTaggableOn::Tagging -->
<g id="edge38" class="edge"><title>Place&#45;&gt;ActsAsTaggableOn::Tagging</title>
<path fill="none" stroke="black" d="M2069.45,-332.003C2097.46,-326.386 2134.11,-316.923 2164,-302 2175.61,-296.202 2175.38,-289.777 2187,-284 2202.34,-276.378 2219.43,-270.192 2236.25,-265.218"/>
<ellipse fill="none" stroke="black" cx="2065.35" cy="-332.796" rx="4.00001" ry="4.00001"/>
<polygon fill="black" stroke="black" points="2236.49,-265.151 2247.33,-266.757 2241.3,-263.789 2246.11,-262.427 2246.11,-262.427 2246.11,-262.427 2241.3,-263.789 2244.88,-258.098 2236.49,-265.151 2236.49,-265.151"/>
<text text-anchor="middle" x="2231.5" y="-289.4" font-family="Times Roman,serif" font-size="14.00">tag_taggings</text>
</g>
<!-- ActsAsTaggableOn::Tag -->
<g id="node62" class="node"><title>ActsAsTaggableOn::Tag</title>
<ellipse fill="none" stroke="black" cx="1902" cy="-247" rx="123.243" ry="18.3848"/>
<text text-anchor="middle" x="1902" y="-243.4" font-family="Times Roman,serif" font-size="14.00">ActsAsTaggableOn::Tag</text>
</g>
<!-- Place&#45;&gt;ActsAsTaggableOn::Tag -->
<g id="edge36" class="edge"><title>Place&#45;&gt;ActsAsTaggableOn::Tag</title>
<path fill="none" stroke="black" d="M1982.64,-327.754C1966.41,-321.994 1948.62,-313.668 1935,-302 1926.35,-294.589 1919.34,-284.318 1914.05,-274.656"/>
<polygon fill="black" stroke="black" points="1983,-327.874 1991.08,-335.288 1987.75,-329.445 1992.5,-331.016 1992.5,-331.016 1992.5,-331.016 1987.75,-329.445 1993.91,-326.744 1983,-327.874 1983,-327.874"/>
<polygon fill="black" stroke="black" points="1914.02,-274.609 1913.51,-263.655 1911.76,-270.151 1909.5,-265.692 1909.5,-265.692 1909.5,-265.692 1911.76,-270.151 1905.48,-267.729 1914.02,-274.609 1914.02,-274.609"/>
<text text-anchor="middle" x="1969.5" y="-289.4" font-family="Times Roman,serif" font-size="14.00">base_tags</text>
</g>
<!-- Place&#45;&gt;ActsAsTaggableOn::Tag -->
<g id="edge40" class="edge"><title>Place&#45;&gt;ActsAsTaggableOn::Tag</title>
<path fill="none" stroke="black" d="M2019.77,-310.855C2016.46,-301.297 2011.46,-291.22 2004,-284 1996.79,-277.023 1988.17,-271.348 1979.03,-266.735"/>
<polygon fill="black" stroke="black" points="2019.79,-310.907 2018.34,-321.777 2021.22,-315.697 2022.65,-320.487 2022.65,-320.487 2022.65,-320.487 2021.22,-315.697 2026.97,-319.197 2019.79,-310.907 2019.79,-310.907"/>
<polygon fill="black" stroke="black" points="1978.84,-266.647 1971.64,-258.379 1974.3,-264.557 1969.76,-262.467 1969.76,-262.467 1969.76,-262.467 1974.3,-264.557 1967.88,-266.555 1978.84,-266.647 1978.84,-266.647"/>
<text text-anchor="middle" x="2030" y="-289.4" font-family="Times Roman,serif" font-size="14.00">tags</text>
</g>
<!-- EngagementType -->
<g id="node18" class="node"><title>EngagementType</title>
<ellipse fill="none" stroke="black" cx="1445" cy="-431" rx="94.9596" ry="18.3848"/>
<text text-anchor="middle" x="1445" y="-427.4" font-family="Times Roman,serif" font-size="14.00">EngagementType</text>
</g>
<!-- EngagementType&#45;&gt;Engagement -->
<g id="edge48" class="edge"><title>EngagementType&#45;&gt;Engagement</title>
<path fill="none" stroke="black" d="M1447.35,-404.029C1448.34,-392.599 1449.5,-379.267 1450.51,-367.66"/>
<ellipse fill="none" stroke="black" cx="1446.97" cy="-408.397" rx="4" ry="4"/>
<polygon fill="black" stroke="black" points="1450.52,-367.552 1455.87,-357.98 1450.95,-362.571 1451.38,-357.59 1451.38,-357.59 1451.38,-357.59 1450.95,-362.571 1446.9,-357.2 1450.52,-367.552 1450.52,-367.552"/>
</g>
<!-- Business -->
<g id="node19" class="node"><title>Business</title>
<ellipse fill="none" stroke="black" cx="1704" cy="-815" rx="53.9477" ry="18.3848"/>
<text text-anchor="middle" x="1704" y="-811.4" font-family="Times Roman,serif" font-size="14.00">Business</text>
</g>
<!-- Business&#45;&gt;Announcement -->
<g id="edge70" class="edge"><title>Business&#45;&gt;Announcement</title>
<path fill="none" stroke="black" d="M1765.65,-812.373C1929.1,-805.037 2370.79,-782.701 2513,-750 2531.37,-745.776 2550.83,-738.802 2567.66,-731.91"/>
<ellipse fill="none" stroke="black" cx="1761.6" cy="-812.553" rx="4" ry="4"/>
<polygon fill="black" stroke="black" points="2568.02,-731.76 2578.98,-732.031 2572.63,-729.821 2577.24,-727.883 2577.24,-727.883 2577.24,-727.883 2572.63,-729.821 2575.49,-723.734 2568.02,-731.76 2568.02,-731.76"/>
</g>
<!-- Business&#45;&gt;AccountHolder -->
<g id="edge74" class="edge"><title>Business&#45;&gt;AccountHolder</title>
<path fill="none" stroke="black" d="M1642.07,-812.271C1470.9,-803.911 1004,-775.219 1004,-711 1004,-711 1004,-711 1004,-469 1004,-461.889 1041.85,-359.565 1062,-302 1065.28,-292.634 1068.84,-282.358 1071.98,-273.249"/>
<ellipse fill="none" stroke="black" cx="1646.24" cy="-812.473" rx="4" ry="4"/>
<ellipse fill="black" stroke="black" cx="1073.31" cy="-269.379" rx="4.00001" ry="4.00001"/>
</g>
<!-- Business&#45;&gt;Category -->
<g id="edge80" class="edge"><title>Business&#45;&gt;Category</title>
<path fill="none" stroke="black" d="M1644.79,-805.343C1567.5,-791.568 1438.16,-764.126 1405,-730 1393.14,-717.789 1388.36,-699.284 1386.57,-683.711"/>
<polygon fill="black" stroke="black" points="1645.02,-805.384 1654.09,-811.547 1649.94,-806.249 1654.87,-807.115 1654.87,-807.115 1654.87,-807.115 1649.94,-806.249 1655.65,-802.683 1645.02,-805.384 1645.02,-805.384"/>
<polygon fill="black" stroke="black" points="1386.55,-683.48 1390.23,-673.152 1386.15,-678.496 1385.75,-673.512 1385.75,-673.512 1385.75,-673.512 1386.15,-678.496 1381.26,-673.872 1386.55,-683.48 1386.55,-683.48"/>
</g>
<!-- Business&#45;&gt;Place -->
<g id="edge60" class="edge"><title>Business&#45;&gt;Place</title>
<path fill="none" stroke="black" d="M1764.08,-808.822C1897.54,-794.289 2207,-755.764 2207,-711 2207,-711 2207,-711 2207,-431 2207,-370.895 2126.7,-350.043 2073.07,-342.818"/>
<ellipse fill="none" stroke="black" cx="1759.91" cy="-809.273" rx="4" ry="4"/>
<polygon fill="black" stroke="black" points="2072.99,-342.808 2063.62,-337.118 2068.03,-342.196 2063.06,-341.585 2063.06,-341.585 2063.06,-341.585 2068.03,-342.196 2062.51,-346.051 2072.99,-342.808 2072.99,-342.808"/>
</g>
<!-- Program -->
<g id="node21" class="node"><title>Program</title>
<ellipse fill="none" stroke="black" cx="1467" cy="-711" rx="53.033" ry="18.3848"/>
<text text-anchor="middle" x="1467" y="-707.4" font-family="Times Roman,serif" font-size="14.00">Program</text>
</g>
<!-- Business&#45;&gt;Program -->
<g id="edge62" class="edge"><title>Business&#45;&gt;Program</title>
<path fill="none" stroke="black" d="M1663.12,-797.061C1620.19,-778.221 1552.98,-748.73 1509.46,-729.633"/>
<ellipse fill="none" stroke="black" cx="1666.88" cy="-798.713" rx="4.00002" ry="4.00002"/>
<polygon fill="black" stroke="black" points="1509.44,-729.624 1502.09,-721.485 1504.86,-727.615 1500.28,-725.605 1500.28,-725.605 1500.28,-725.605 1504.86,-727.615 1498.48,-729.726 1509.44,-729.624 1509.44,-729.624"/>
</g>
<!-- Target -->
<g id="node30" class="node"><title>Target</title>
<ellipse fill="none" stroke="black" cx="1315" cy="-711" rx="41.9273" ry="18.3848"/>
<text text-anchor="middle" x="1315" y="-707.4" font-family="Times Roman,serif" font-size="14.00">Target</text>
</g>
<!-- Business&#45;&gt;Target -->
<g id="edge58" class="edge"><title>Business&#45;&gt;Target</title>
<path fill="none" stroke="black" d="M1642.8,-810.486C1574.5,-803.771 1461.8,-787.616 1372,-750 1361.86,-745.752 1351.67,-739.544 1342.77,-733.324"/>
<ellipse fill="none" stroke="black" cx="1646.92" cy="-810.879" rx="4" ry="4"/>
<polygon fill="black" stroke="black" points="1342.75,-733.312 1337.32,-723.785 1338.71,-730.367 1334.67,-727.421 1334.67,-727.421 1334.67,-727.421 1338.71,-730.367 1332.02,-731.058 1342.75,-733.312 1342.75,-733.312"/>
</g>
<!-- Business&#45;&gt;Log -->
<g id="edge72" class="edge"><title>Business&#45;&gt;Log</title>
<path fill="none" stroke="black" d="M1766.13,-813.385C1953.3,-807.703 2499,-784.808 2499,-711 2499,-711 2499,-711 2499,-95 2499,-29.7977 1448.66,-20.4213 1231.14,-19.1786"/>
<ellipse fill="none" stroke="black" cx="1762.02" cy="-813.508" rx="4" ry="4"/>
<polygon fill="black" stroke="black" points="1231.13,-19.1786 1221.16,-14.6239 1226.13,-19.1512 1221.13,-19.1238 1221.13,-19.1238 1221.13,-19.1238 1226.13,-19.1512 1221.11,-23.6238 1231.13,-19.1786 1231.13,-19.1786"/>
</g>
<!-- Business&#45;&gt;User -->
<g id="edge68" class="edge"><title>Business&#45;&gt;User</title>
<path fill="none" stroke="black" d="M1639.88,-813.115C1453.99,-806.805 928,-782.622 928,-711 928,-711 928,-711 928,-507 928,-491.39 929.273,-474.033 930.647,-459.851"/>
<polygon fill="black" stroke="black" points="1640.05,-813.121 1649.9,-817.951 1645.05,-813.287 1650.05,-813.454 1650.05,-813.454 1650.05,-813.454 1645.05,-813.287 1650.2,-808.956 1640.05,-813.121 1640.05,-813.121"/>
<polygon fill="black" stroke="black" points="930.667,-459.654 936.173,-450.171 931.182,-454.681 931.697,-449.707 931.697,-449.707 931.697,-449.707 931.182,-454.681 927.221,-449.244 930.667,-459.654 930.667,-459.654"/>
</g>
<!-- Business&#45;&gt;Follower -->
<g id="edge66" class="edge"><title>Business&#45;&gt;Follower</title>
<path fill="none" stroke="black" d="M1728.9,-791.475C1746.87,-771.863 1768,-742.182 1768,-711 1768,-711 1768,-711 1768,-339 1768,-313.038 1751.03,-288.669 1735.14,-271.542"/>
<ellipse fill="none" stroke="black" cx="1725.96" cy="-794.576" rx="4.00002" ry="4.00002"/>
<polygon fill="black" stroke="black" points="1734.96,-271.361 1731.2,-261.06 1731.47,-267.782 1727.98,-264.203 1727.98,-264.203 1727.98,-264.203 1731.47,-267.782 1724.76,-267.345 1734.96,-271.361 1734.96,-271.361"/>
</g>
<!-- MeasurementType -->
<g id="node37" class="node"><title>MeasurementType</title>
<ellipse fill="none" stroke="black" cx="1639" cy="-711" rx="101.116" ry="18.3848"/>
<text text-anchor="middle" x="1639" y="-707.4" font-family="Times Roman,serif" font-size="14.00">MeasurementType</text>
</g>
<!-- Business&#45;&gt;MeasurementType -->
<g id="edge64" class="edge"><title>Business&#45;&gt;MeasurementType</title>
<path fill="none" stroke="black" d="M1688.28,-789.855C1678.58,-774.331 1666.13,-754.405 1656.17,-738.467"/>
<ellipse fill="none" stroke="black" cx="1690.56" cy="-793.493" rx="4.00002" ry="4.00002"/>
<polygon fill="black" stroke="black" points="1655.93,-738.088 1654.45,-727.223 1653.28,-733.848 1650.63,-729.608 1650.63,-729.608 1650.63,-729.608 1653.28,-733.848 1646.81,-731.993 1655.93,-738.088 1655.93,-738.088"/>
</g>
<!-- Business&#45;&gt;ActsAsTaggableOn::Tagging -->
<g id="edge50" class="edge"><title>Business&#45;&gt;ActsAsTaggableOn::Tagging</title>
<path fill="none" stroke="black" d="M1766.03,-812.372C1938.65,-804.24 2412,-776.013 2412,-711 2412,-711 2412,-711 2412,-339 2412,-310.462 2389.66,-287.006 2367.89,-270.921"/>
<ellipse fill="none" stroke="black" cx="1761.79" cy="-812.57" rx="4" ry="4"/>
<polygon fill="black" stroke="black" points="2367.81,-270.864 2362.2,-261.438 2363.71,-267.993 2359.62,-265.122 2359.62,-265.122 2359.62,-265.122 2363.71,-267.993 2357.04,-268.807 2367.81,-270.864 2367.81,-270.864"/>
<text text-anchor="middle" x="2441.5" y="-503.4" font-family="Times Roman,serif" font-size="14.00">taggings</text>
</g>
<!-- Business&#45;&gt;ActsAsTaggableOn::Tagging -->
<g id="edge54" class="edge"><title>Business&#45;&gt;ActsAsTaggableOn::Tagging</title>
<path fill="none" stroke="black" d="M1765.27,-810.45C1914.94,-798.517 2287,-763.565 2287,-711 2287,-711 2287,-711 2287,-553 2287,-450.032 2309.54,-329.205 2320.78,-275.367"/>
<ellipse fill="none" stroke="black" cx="1761.01" cy="-810.787" rx="4" ry="4"/>
<polygon fill="black" stroke="black" points="2320.8,-275.3 2327.27,-266.451 2321.83,-270.409 2322.87,-265.518 2322.87,-265.518 2322.87,-265.518 2321.83,-270.409 2318.47,-264.585 2320.8,-275.3 2320.8,-275.3"/>
<text text-anchor="middle" x="2333.5" y="-503.4" font-family="Times Roman,serif" font-size="14.00">tag_taggings</text>
</g>
<!-- Business&#45;&gt;ActsAsTaggableOn::Tag -->
<g id="edge52" class="edge"><title>Business&#45;&gt;ActsAsTaggableOn::Tag</title>
<path fill="none" stroke="black" d="M1746.56,-795.662C1777.51,-778.363 1814,-749.751 1814,-711 1814,-711 1814,-711 1814,-507 1814,-418.057 1860.78,-320.605 1886.12,-274.327"/>
<polygon fill="black" stroke="black" points="1746.42,-795.738 1735.48,-796.484 1742.01,-798.095 1737.6,-800.452 1737.6,-800.452 1737.6,-800.452 1742.01,-798.095 1739.72,-804.421 1746.42,-795.738 1746.42,-795.738"/>
<polygon fill="black" stroke="black" points="1886.17,-274.247 1894.96,-267.701 1888.6,-269.879 1891.03,-265.511 1891.03,-265.511 1891.03,-265.511 1888.6,-269.879 1887.1,-263.321 1886.17,-274.247 1886.17,-274.247"/>
<text text-anchor="middle" x="1848.5" y="-503.4" font-family="Times Roman,serif" font-size="14.00">base_tags</text>
</g>
<!-- Business&#45;&gt;ActsAsTaggableOn::Tag -->
<g id="edge56" class="edge"><title>Business&#45;&gt;ActsAsTaggableOn::Tag</title>
<path fill="none" stroke="black" d="M1756.63,-800.756C1820.28,-781.941 1919,-746.964 1919,-711 1919,-711 1919,-711 1919,-553 1919,-450.956 1909.46,-330.065 1904.67,-275.838"/>
<polygon fill="black" stroke="black" points="1756.34,-800.841 1745.48,-799.314 1751.54,-802.238 1746.73,-803.634 1746.73,-803.634 1746.73,-803.634 1751.54,-802.238 1747.99,-807.955 1756.34,-800.841 1756.34,-800.841"/>
<polygon fill="black" stroke="black" points="1904.65,-275.568 1908.24,-265.206 1904.2,-270.588 1903.76,-265.608 1903.76,-265.608 1903.76,-265.608 1904.2,-270.588 1899.27,-266.01 1904.65,-275.568 1904.65,-275.568"/>
<text text-anchor="middle" x="1933" y="-503.4" font-family="Times Roman,serif" font-size="14.00">tags</text>
</g>
<!-- Addres -->
<g id="node83" class="node"><title>Addres</title>
<ellipse fill="none" stroke="black" cx="503" cy="-339" rx="44.7575" ry="18.3848"/>
<text text-anchor="middle" x="503" y="-335.4" font-family="Times Roman,serif" font-size="14.00">Addres</text>
</g>
<!-- Business&#45;&gt;Addres -->
<g id="edge76" class="edge"><title>Business&#45;&gt;Addres</title>
<path fill="none" stroke="black" d="M1641.46,-813.713C1479.42,-809.513 1049.79,-792.617 924,-730 725.802,-631.341 655.35,-618.721 512,-450 489.429,-423.434 478.551,-410.055 486,-376 486.825,-372.228 488.072,-368.381 489.523,-364.662"/>
<ellipse fill="none" stroke="black" cx="1645.9" cy="-813.825" rx="4" ry="4"/>
<ellipse fill="black" stroke="black" cx="491.131" cy="-360.948" rx="4.00002" ry="4.00002"/>
<text text-anchor="middle" x="676" y="-549.4" font-family="Times Roman,serif" font-size="14.00">mailing_address</text>
</g>
<!-- Business&#45;&gt;Addres -->
<g id="edge78" class="edge"><title>Business&#45;&gt;Addres</title>
<path fill="none" stroke="black" d="M1641.65,-813.455C1377.97,-806.52 368,-775.729 368,-711 368,-711 368,-711 368,-431 368,-387.442 416.585,-363.036 455.462,-350.479"/>
<ellipse fill="none" stroke="black" cx="1645.97" cy="-813.568" rx="4" ry="4"/>
<ellipse fill="black" stroke="black" cx="459.767" cy="-349.153" rx="4.00001" ry="4.00001"/>
<text text-anchor="middle" x="418.5" y="-549.4" font-family="Times Roman,serif" font-size="14.00">billing_address</text>
</g>
<!-- Program&#45;&gt;Campaign -->
<g id="edge84" class="edge"><title>Program&#45;&gt;Campaign</title>
<path fill="none" stroke="black" d="M1478.84,-685C1486.78,-667.563 1497.23,-644.619 1505.33,-626.816"/>
<ellipse fill="none" stroke="black" cx="1477.08" cy="-688.865" rx="4.00002" ry="4.00002"/>
<polygon fill="black" stroke="black" points="1505.42,-626.623 1513.66,-619.387 1507.49,-622.072 1509.57,-617.522 1509.57,-617.522 1509.57,-617.522 1507.49,-622.072 1505.47,-615.657 1505.42,-626.623 1505.42,-626.623"/>
</g>
<!-- Address -->
<g id="node22" class="node"><title>Address</title>
<ellipse fill="none" stroke="black" cx="2789" cy="-815" rx="50.2046" ry="18.3848"/>
<text text-anchor="middle" x="2789" y="-811.4" font-family="Times Roman,serif" font-size="14.00">Address</text>
</g>
<!-- QrCode&#45;&gt;QrCodeImage -->
<g id="edge86" class="edge"><title>QrCode&#45;&gt;QrCodeImage</title>
<path fill="none" stroke="black" d="M962.775,-225.852C976.965,-215.773 993.947,-203.711 1008.37,-193.467"/>
<ellipse fill="none" stroke="black" cx="959.215" cy="-228.38" rx="4.00002" ry="4.00002"/>
<ellipse fill="black" stroke="black" cx="1011.96" cy="-190.918" rx="4.00002" ry="4.00002"/>
</g>
<!-- PrintJob -->
<g id="node24" class="node"><title>PrintJob</title>
<ellipse fill="none" stroke="black" cx="2907" cy="-815" rx="50.2046" ry="18.3848"/>
<text text-anchor="middle" x="2907" y="-811.4" font-family="Times Roman,serif" font-size="14.00">PrintJob</text>
</g>
<!-- AccountType -->
<g id="node25" class="node"><title>AccountType</title>
<ellipse fill="none" stroke="black" cx="1450" cy="-247" rx="73.0388" ry="18.3848"/>
<text text-anchor="middle" x="1450" y="-243.4" font-family="Times Roman,serif" font-size="14.00">AccountType</text>
</g>
<!-- AccountType&#45;&gt;Account -->
<g id="edge88" class="edge"><title>AccountType&#45;&gt;Account</title>
<path fill="none" stroke="black" d="M1450,-220.073C1450,-213.449 1450,-206.332 1450,-199.63"/>
<ellipse fill="none" stroke="black" cx="1450" cy="-224.213" rx="4" ry="4"/>
<polygon fill="black" stroke="black" points="1450,-199.57 1454.5,-189.57 1450,-194.57 1450,-189.57 1450,-189.57 1450,-189.57 1450,-194.57 1445.5,-189.57 1450,-199.57 1450,-199.57"/>
</g>
<!-- Brand -->
<g id="node26" class="node"><title>Brand</title>
<ellipse fill="none" stroke="black" cx="1253" cy="-431" rx="41.0122" ry="18.3848"/>
<text text-anchor="middle" x="1253" y="-427.4" font-family="Times Roman,serif" font-size="14.00">Brand</text>
</g>
<!-- Brand&#45;&gt;BrandImage -->
<g id="edge92" class="edge"><title>Brand&#45;&gt;BrandImage</title>
<path fill="none" stroke="black" d="M1252.71,-404.329C1252.33,-369.531 1251.67,-308.976 1251.29,-274.011"/>
<ellipse fill="none" stroke="black" cx="1252.75" cy="-408.345" rx="4" ry="4"/>
<ellipse fill="black" stroke="black" cx="1251.25" cy="-269.705" rx="4" ry="4"/>
</g>
<!-- Brand&#45;&gt;Busines -->
<g id="edge90" class="edge"><title>Brand&#45;&gt;Busines</title>
<path fill="none" stroke="black" d="M1269.28,-406.045C1277.46,-393.494 1287.38,-378.279 1295.71,-365.518"/>
<ellipse fill="none" stroke="black" cx="1267.04" cy="-409.473" rx="4.00002" ry="4.00002"/>
<polygon fill="black" stroke="black" points="1295.71,-365.515 1304.94,-359.597 1298.44,-361.327 1301.17,-357.138 1301.17,-357.138 1301.17,-357.138 1298.44,-361.327 1297.4,-354.68 1295.71,-365.515 1295.71,-365.515"/>
<text text-anchor="middle" x="1325" y="-381.4" font-family="Times Roman,serif" font-size="14.00">businesses</text>
</g>
<!-- Employee -->
<g id="node27" class="node"><title>Employee</title>
<ellipse fill="none" stroke="black" cx="1150" cy="-339" rx="58.1882" ry="18.3848"/>
<text text-anchor="middle" x="1150" y="-335.4" font-family="Times Roman,serif" font-size="14.00">Employee</text>
</g>
<!-- Employee&#45;&gt;AccountHolder -->
<g id="edge94" class="edge"><title>Employee&#45;&gt;AccountHolder</title>
<path fill="none" stroke="black" d="M1131.32,-314.091C1121.52,-301.029 1109.55,-285.072 1099.75,-271.997"/>
<ellipse fill="none" stroke="black" cx="1133.97" cy="-317.624" rx="4.00002" ry="4.00002"/>
<ellipse fill="black" stroke="black" cx="1097.24" cy="-268.653" rx="4.00002" ry="4.00002"/>
</g>
<!-- EmployeeType -->
<g id="node28" class="node"><title>EmployeeType</title>
<ellipse fill="none" stroke="black" cx="1113" cy="-431" rx="80.8184" ry="18.3848"/>
<text text-anchor="middle" x="1113" y="-427.4" font-family="Times Roman,serif" font-size="14.00">EmployeeType</text>
</g>
<!-- EmployeeType&#45;&gt;Employee -->
<g id="edge96" class="edge"><title>EmployeeType&#45;&gt;Employee</title>
<path fill="none" stroke="black" d="M1118.04,-404.375C1120.23,-395.184 1123.19,-384.953 1127,-376 1128.41,-372.699 1130.08,-369.351 1131.88,-366.087"/>
<ellipse fill="none" stroke="black" cx="1117.11" cy="-408.552" rx="4.00001" ry="4.00001"/>
<polygon fill="black" stroke="black" points="1132.03,-365.819 1141.01,-359.512 1134.58,-361.518 1137.13,-357.217 1137.13,-357.217 1137.13,-357.217 1134.58,-361.518 1133.26,-354.922 1132.03,-365.819 1132.03,-365.819"/>
</g>
<!-- AnnouncementType -->
<g id="node29" class="node"><title>AnnouncementType</title>
<ellipse fill="none" stroke="black" cx="2613" cy="-815" rx="108.187" ry="18.3848"/>
<text text-anchor="middle" x="2613" y="-811.4" font-family="Times Roman,serif" font-size="14.00">AnnouncementType</text>
</g>
<!-- AnnouncementType&#45;&gt;Announcement -->
<g id="edge98" class="edge"><title>AnnouncementType&#45;&gt;Announcement</title>
<path fill="none" stroke="black" d="M2613,-787.926C2613,-773.224 2613,-755.041 2613,-740.044"/>
<ellipse fill="none" stroke="black" cx="2613" cy="-792.407" rx="4" ry="4"/>
<polygon fill="black" stroke="black" points="2613,-739.783 2617.5,-729.783 2613,-734.783 2613,-729.783 2613,-729.783 2613,-729.783 2613,-734.783 2608.5,-729.783 2613,-739.783 2613,-739.783"/>
</g>
<!-- Target&#45;&gt;Campaign -->
<g id="edge100" class="edge"><title>Target&#45;&gt;Campaign</title>
<path fill="none" stroke="black" d="M1313.06,-682.069C1313.63,-666.426 1317.18,-647.924 1329,-636 1345.78,-619.076 1402.47,-609.528 1449.42,-604.388"/>
<polygon fill="black" stroke="black" points="1313.06,-682.326 1308.58,-692.334 1313.07,-687.326 1313.08,-692.326 1313.08,-692.326 1313.08,-692.326 1313.07,-687.326 1317.58,-692.319 1313.06,-682.326 1313.06,-682.326"/>
<polygon fill="black" stroke="black" points="1449.63,-604.366 1460.05,-607.803 1454.61,-603.847 1459.58,-603.327 1459.58,-603.327 1459.58,-603.327 1454.61,-603.847 1459.11,-598.851 1449.63,-604.366 1449.63,-604.366"/>
</g>
<!-- Target&#45;&gt;User -->
<g id="edge102" class="edge"><title>Target&#45;&gt;User</title>
<path fill="none" stroke="black" d="M1285.06,-688.995C1213.47,-636.388 1033.16,-503.874 962.775,-452.147"/>
<polygon fill="black" stroke="black" points="1285.09,-689.018 1290.48,-698.566 1289.12,-691.979 1293.15,-694.94 1293.15,-694.94 1293.15,-694.94 1289.12,-691.979 1295.81,-691.314 1285.09,-689.018 1285.09,-689.018"/>
<polygon fill="black" stroke="black" points="962.422,-451.888 957.029,-442.34 958.393,-448.927 954.364,-445.966 954.364,-445.966 954.364,-445.966 958.393,-448.927 951.699,-449.592 962.422,-451.888 962.422,-451.888"/>
</g>
<!-- Engagement&#45;&gt;QrCode -->
<g id="edge104" class="edge"><title>Engagement&#45;&gt;QrCode</title>
<path fill="none" stroke="black" d="M1391.97,-324.244C1384.92,-322.722 1377.81,-321.27 1371,-320 1202.87,-288.668 1156.47,-305.202 990,-266 985.945,-265.045 981.768,-263.926 977.606,-262.716"/>
<ellipse fill="none" stroke="black" cx="1396.3" cy="-325.197" rx="4.00001" ry="4.00001"/>
<polygon fill="black" stroke="black" points="977.545,-262.698 969.304,-255.464 972.765,-261.232 967.985,-259.767 967.985,-259.767 967.985,-259.767 972.765,-261.232 966.665,-264.069 977.545,-262.698 977.545,-262.698"/>
</g>
<!-- Engagement&#45;&gt;Log -->
<g id="edge106" class="edge"><title>Engagement&#45;&gt;Log</title>
<path fill="none" stroke="black" d="M1487.84,-317.038C1504.55,-304.38 1522.88,-286.843 1532,-266 1552.68,-218.725 1540.58,-193.564 1510,-152 1442.54,-60.3023 1299.74,-31.4434 1230.82,-22.6675"/>
<ellipse fill="none" stroke="black" cx="1484.53" cy="-319.458" rx="4.00002" ry="4.00002"/>
<polygon fill="black" stroke="black" points="1230.74,-22.658 1221.35,-17.0009 1225.78,-22.0635 1220.81,-21.469 1220.81,-21.469 1220.81,-21.469 1225.78,-22.0635 1220.28,-25.9371 1230.74,-22.658 1230.74,-22.658"/>
</g>
<!-- ProgramType -->
<g id="node33" class="node"><title>ProgramType</title>
<ellipse fill="none" stroke="black" cx="343" cy="-815" rx="75.1594" ry="18.3848"/>
<text text-anchor="middle" x="343" y="-811.4" font-family="Times Roman,serif" font-size="14.00">ProgramType</text>
</g>
<!-- ProgramType&#45;&gt;Program -->
<g id="edge108" class="edge"><title>ProgramType&#45;&gt;Program</title>
<path fill="none" stroke="black" d="M424.879,-811.068C598.796,-802.085 1017.65,-777.11 1366,-730 1380.8,-727.999 1396.71,-725.276 1411.44,-722.516"/>
<ellipse fill="none" stroke="black" cx="420.779" cy="-811.278" rx="4" ry="4"/>
<polygon fill="black" stroke="black" points="1411.59,-722.487 1422.25,-725.028 1416.5,-721.548 1421.41,-720.609 1421.41,-720.609 1421.41,-720.609 1416.5,-721.548 1420.56,-716.189 1411.59,-722.487 1411.59,-722.487"/>
</g>
<!-- User&#45;&gt;AccountHolder -->
<g id="edge126" class="edge"><title>User&#45;&gt;AccountHolder</title>
<path fill="none" stroke="black" d="M957.896,-409.405C972.774,-395.418 991.887,-376.435 1007,-358 1029.66,-330.363 1051.89,-295.716 1065.97,-272.55"/>
<ellipse fill="none" stroke="black" cx="954.731" cy="-412.351" rx="4.00002" ry="4.00002"/>
<ellipse fill="black" stroke="black" cx="1068.18" cy="-268.881" rx="4.00002" ry="4.00002"/>
</g>
<!-- User&#45;&gt;Template -->
<g id="edge110" class="edge"><title>User&#45;&gt;Template</title>
<path fill="none" stroke="black" d="M906.826,-411.159C887.11,-396.763 860.381,-377.246 839.692,-362.14"/>
<ellipse fill="none" stroke="black" cx="910.245" cy="-413.655" rx="4.00002" ry="4.00002"/>
<polygon fill="black" stroke="black" points="839.595,-362.069 834.172,-352.538 835.557,-359.121 831.518,-356.172 831.518,-356.172 831.518,-356.172 835.557,-359.121 828.865,-359.806 839.595,-362.069 839.595,-362.069"/>
</g>
<!-- User&#45;&gt;LegalId -->
<g id="edge112" class="edge"><title>User&#45;&gt;LegalId</title>
<path fill="none" stroke="black" d="M892.919,-425.327C860.304,-419.899 814.024,-410.107 776,-394 762.378,-388.23 761.615,-381.788 748,-376 716.054,-362.42 705.458,-367.246 672,-358 667.31,-356.704 662.436,-355.284 657.584,-353.822"/>
<ellipse fill="none" stroke="black" cx="896.954" cy="-425.978" rx="4.00001" ry="4.00001"/>
<polygon fill="black" stroke="black" points="657.281,-353.729 649.045,-346.488 652.501,-352.259 647.722,-350.79 647.722,-350.79 647.722,-350.79 652.501,-352.259 646.4,-355.091 657.281,-353.729 657.281,-353.729"/>
</g>
<!-- User&#45;&gt;QrCode -->
<g id="edge124" class="edge"><title>User&#45;&gt;QrCode</title>
<path fill="none" stroke="black" d="M899.735,-416.39C872.384,-404.911 832.986,-388.783 798,-376 773.842,-367.173 758.096,-378.824 743,-358 702.924,-302.717 811.425,-270.521 880.572,-256.123"/>
<ellipse fill="none" stroke="black" cx="903.43" cy="-417.945" rx="4.00002" ry="4.00002"/>
<ellipse fill="black" stroke="black" cx="884.876" cy="-255.25" rx="4.00001" ry="4.00001"/>
</g>
<!-- User&#45;&gt;Employee -->
<g id="edge120" class="edge"><title>User&#45;&gt;Employee</title>
<path fill="none" stroke="black" d="M971.49,-419.213C991.974,-412.45 1017.65,-403.442 1040,-394 1064.33,-383.722 1090.83,-370.535 1111.72,-359.651"/>
<ellipse fill="none" stroke="black" cx="967.429" cy="-420.541" rx="4.00001" ry="4.00001"/>
<polygon fill="black" stroke="black" points="1111.75,-359.636 1122.69,-358.971 1116.18,-357.311 1120.6,-354.987 1120.6,-354.987 1120.6,-354.987 1116.18,-357.311 1118.51,-351.003 1111.75,-359.636 1111.75,-359.636"/>
</g>
<!-- User&#45;&gt;Log -->
<g id="edge122" class="edge"><title>User&#45;&gt;Log</title>
<path fill="none" stroke="black" d="M893.833,-423.132C866.865,-417.059 830.929,-407.414 801,-394 787.5,-387.95 786.066,-382.938 773,-376 755.063,-366.476 746.727,-370.85 731,-358 703.791,-335.768 686,-328.136 686,-293 686,-293 686,-293 686,-95 686,-47.8429 1034.13,-26.6274 1152.87,-20.7627"/>
<ellipse fill="none" stroke="black" cx="897.991" cy="-424.045" rx="4.00001" ry="4.00001"/>
<polygon fill="black" stroke="black" points="1152.99,-20.757 1163.2,-24.7681 1157.98,-20.5152 1162.98,-20.2734 1162.98,-20.2734 1162.98,-20.2734 1157.98,-20.5152 1162.76,-15.7786 1152.99,-20.757 1152.99,-20.757"/>
</g>
<!-- User&#45;&gt;Follower -->
<g id="edge114" class="edge"><title>User&#45;&gt;Follower</title>
<path fill="none" stroke="black" d="M972.942,-421.325C988.428,-417.836 1006.46,-414.215 1023,-412 1158.32,-393.872 1519.04,-430.067 1635,-358 1665.92,-338.784 1686.46,-301.069 1697.67,-274.97"/>
<ellipse fill="none" stroke="black" cx="968.995" cy="-422.233" rx="4.00001" ry="4.00001"/>
<polygon fill="black" stroke="black" points="1697.72,-274.852 1705.67,-267.306 1699.61,-270.226 1701.51,-265.599 1701.51,-265.599 1701.51,-265.599 1699.61,-270.226 1697.35,-263.892 1697.72,-274.852 1697.72,-274.852"/>
</g>
<!-- Invitation -->
<g id="node39" class="node"><title>Invitation</title>
<ellipse fill="none" stroke="black" cx="940" cy="-339" rx="58.1882" ry="18.3848"/>
<text text-anchor="middle" x="940" y="-335.4" font-family="Times Roman,serif" font-size="14.00">Invitation</text>
</g>
<!-- User&#45;&gt;Invitation -->
<g id="edge118" class="edge"><title>User&#45;&gt;Invitation</title>
<path fill="none" stroke="black" d="M935.759,-404.029C936.504,-392.599 937.374,-379.267 938.131,-367.66"/>
<ellipse fill="none" stroke="black" cx="935.475" cy="-408.391" rx="4" ry="4"/>
<polygon fill="black" stroke="black" points="938.137,-367.569 943.278,-357.883 938.462,-362.579 938.788,-357.59 938.788,-357.59 938.788,-357.59 938.462,-362.579 934.297,-357.297 938.137,-367.569 938.137,-367.569"/>
</g>
<!-- User&#45;&gt;Busines -->
<g id="edge116" class="edge"><title>User&#45;&gt;Busines</title>
<path fill="none" stroke="black" d="M975.078,-421.029C1044.77,-404.112 1185.98,-369.834 1261.92,-351.399"/>
<polygon fill="black" stroke="black" points="975.055,-421.034 964.276,-419.02 970.196,-422.213 965.338,-423.393 965.338,-423.393 965.338,-423.393 970.196,-422.213 966.399,-427.766 975.055,-421.034 975.055,-421.034"/>
<polygon fill="black" stroke="black" points="1262.03,-351.373 1272.81,-353.387 1266.89,-350.194 1271.75,-349.014 1271.75,-349.014 1271.75,-349.014 1266.89,-350.194 1270.68,-344.641 1262.03,-351.373 1262.03,-351.373"/>
<text text-anchor="middle" x="1194" y="-381.4" font-family="Times Roman,serif" font-size="14.00">businesses</text>
</g>
<!-- User&#45;&gt;Addres -->
<g id="edge128" class="edge"><title>User&#45;&gt;Addres</title>
<path fill="none" stroke="black" d="M891.763,-427.947C786.608,-420.258 520.991,-400.265 514,-394 506.103,-386.924 502.934,-375.917 501.899,-365.603"/>
<ellipse fill="none" stroke="black" cx="895.956" cy="-428.253" rx="4" ry="4"/>
<ellipse fill="black" stroke="black" cx="501.687" cy="-361.562" rx="4" ry="4"/>
<text text-anchor="middle" x="569" y="-381.4" font-family="Times Roman,serif" font-size="14.00">mailing_address</text>
</g>
<!-- User&#45;&gt;Addres -->
<g id="edge130" class="edge"><title>User&#45;&gt;Addres</title>
<path fill="none" stroke="black" d="M891.782,-428.853C822.025,-424.775 686.121,-414.428 643,-394 632.488,-389.02 634.15,-381.683 624,-376 597.096,-360.936 586.453,-367.124 557,-358 553.008,-356.764 548.871,-355.421 544.744,-354.04"/>
<ellipse fill="none" stroke="black" cx="895.957" cy="-429.092" rx="4" ry="4"/>
<ellipse fill="black" stroke="black" cx="540.647" cy="-352.645" rx="4.00001" ry="4.00001"/>
<text text-anchor="middle" x="693.5" y="-381.4" font-family="Times Roman,serif" font-size="14.00">billing_address</text>
</g>
<!-- MeasurementType&#45;&gt;Campaign -->
<g id="edge134" class="edge"><title>MeasurementType&#45;&gt;Campaign</title>
<path fill="none" stroke="black" d="M1613.16,-687.079C1593,-668.418 1565.09,-642.587 1544.71,-623.724"/>
<ellipse fill="none" stroke="black" cx="1616.35" cy="-690.039" rx="4.00002" ry="4.00002"/>
<polygon fill="black" stroke="black" points="1544.64,-623.659 1540.36,-613.563 1540.97,-620.262 1537.3,-616.866 1537.3,-616.866 1537.3,-616.866 1540.97,-620.262 1534.24,-620.168 1544.64,-623.659 1544.64,-623.659"/>
</g>
<!-- MeasurementType&#45;&gt;Account -->
<g id="edge136" class="edge"><title>MeasurementType&#45;&gt;Account</title>
<path fill="none" stroke="black" d="M1673.22,-688.361C1699.03,-668.293 1730,-636.416 1730,-599 1730,-599 1730,-599 1730,-385 1730,-335.834 1585.9,-231.79 1580,-228 1553.99,-211.285 1522.24,-197.262 1496.64,-187.308"/>
<ellipse fill="none" stroke="black" cx="1669.99" cy="-690.797" rx="4.00002" ry="4.00002"/>
<polygon fill="black" stroke="black" points="1496.49,-187.253 1488.75,-179.489 1491.82,-185.474 1487.15,-183.695 1487.15,-183.695 1487.15,-183.695 1491.82,-185.474 1485.55,-187.9 1496.49,-187.253 1496.49,-187.253"/>
</g>
<!-- Action&#45;&gt;Log -->
<g id="edge138" class="edge"><title>Action&#45;&gt;Log</title>
<path fill="none" stroke="black" d="M1192,-68.0731C1192,-61.4485 1192,-54.332 1192,-47.6302"/>
<ellipse fill="none" stroke="black" cx="1192" cy="-72.2135" rx="4" ry="4"/>
<polygon fill="black" stroke="black" points="1192,-47.5704 1196.5,-37.5704 1192,-42.5704 1192,-37.5704 1192,-37.5704 1192,-37.5704 1192,-42.5704 1187.5,-37.5705 1192,-47.5704 1192,-47.5704"/>
</g>
<!-- PlaceTypes -->
<g id="node40" class="node"><title>PlaceTypes</title>
<ellipse fill="none" stroke="black" cx="2115" cy="-431" rx="63.8479" ry="18.3848"/>
<text text-anchor="middle" x="2115" y="-427.4" font-family="Times Roman,serif" font-size="14.00">PlaceTypes</text>
</g>
<!-- PlaceTypes&#45;&gt;Place -->
<g id="edge140" class="edge"><title>PlaceTypes&#45;&gt;Place</title>
<path fill="none" stroke="black" d="M2091.51,-406.715C2078.56,-393.332 2062.54,-376.767 2049.58,-363.371"/>
<ellipse fill="none" stroke="black" cx="2094.64" cy="-409.949" rx="4.00002" ry="4.00002"/>
<polygon fill="black" stroke="black" points="2049.3,-363.085 2045.58,-352.769 2045.82,-359.491 2042.35,-355.898 2042.35,-355.898 2042.35,-355.898 2045.82,-359.491 2039.11,-359.026 2049.3,-363.085 2049.3,-363.085"/>
</g>
<!-- Item&#45;&gt;Image -->
<g id="edge144" class="edge"><title>Item&#45;&gt;Image</title>
<path fill="none" stroke="black" d="M1617.59,-405.626C1611.59,-393.371 1604.4,-378.653 1598.29,-366.17"/>
<ellipse fill="none" stroke="black" cx="1619.35" cy="-409.231" rx="4.00002" ry="4.00002"/>
<polygon fill="black" stroke="black" points="1598.27,-366.121 1597.91,-355.161 1596.07,-361.63 1593.87,-357.138 1593.87,-357.138 1593.87,-357.138 1596.07,-361.63 1589.83,-359.116 1598.27,-366.121 1598.27,-366.121"/>
</g>
<!-- Item&#45;&gt;Place -->
<g id="edge142" class="edge"><title>Item&#45;&gt;Place</title>
<path fill="none" stroke="black" d="M1671.45,-421.371C1746.83,-403.858 1905.67,-366.955 1982.52,-349.101"/>
<polygon fill="black" stroke="black" points="1671.15,-421.441 1660.39,-419.321 1666.27,-422.572 1661.4,-423.704 1661.4,-423.704 1661.4,-423.704 1666.27,-422.572 1662.42,-428.087 1671.15,-421.441 1671.15,-421.441"/>
<polygon fill="black" stroke="black" points="1982.62,-349.077 1993.38,-351.198 1987.49,-347.946 1992.36,-346.814 1992.36,-346.814 1992.36,-346.814 1987.49,-347.946 1991.35,-342.431 1982.62,-349.077 1982.62,-349.077"/>
</g>
</g>
</svg>
